<svg width="97" height="96" viewBox="0 0 97 96" fill="none" xmlns="http://www.w3.org/2000/svg">
<path d="M68.5 88C67.3667 88 66.4173 87.616 65.652 86.848C64.8867 86.08 64.5027 85.1307 64.5 84V79C61.9 78.1334 59.5667 76.8174 57.5 75.052C55.4333 73.2867 53.8 71.1694 52.6 68.7C52.0667 67.7 52.0667 66.7 52.6 65.7C53.1333 64.7 53.9333 63.9667 55 63.5C55.9333 63.1 56.8667 63.1334 57.8 63.6C58.7333 64.0667 59.4667 64.7667 60 65.7C61.0667 67.6334 62.5333 69.1667 64.4 70.3C66.2667 71.4334 68.3 72 70.5 72H82.5C84.1667 72 85.584 72.584 86.752 73.752C87.92 74.92 88.5027 76.336 88.5 78V84C88.5 85.1334 88.116 86.084 87.348 86.852C86.58 87.62 85.6307 88.0027 84.5 88H68.5ZM76.5 68C74.3 68 72.4173 67.2174 70.852 65.652C69.2867 64.0867 68.5027 62.2027 68.5 60C68.4973 57.7974 69.2813 55.9147 70.852 54.352C72.4227 52.7894 74.3053 52.0054 76.5 52C78.6947 51.9947 80.5787 52.7787 82.152 54.352C83.7253 55.9254 84.508 57.808 84.5 60C84.492 62.192 83.7093 64.076 82.152 65.652C80.5947 67.228 78.7107 68.0107 76.5 68ZM12.5 44C11.3667 44 10.4173 43.616 9.652 42.848C8.88667 42.08 8.50267 41.1307 8.5 40V34C8.5 32.3334 9.084 30.9174 10.252 29.752C11.42 28.5867 12.836 28.0027 14.5 28H26.5C28.7 28 30.7333 27.4334 32.6 26.3C34.4667 25.1667 35.9333 23.6334 37 21.7C37.5333 20.7667 38.2667 20.0174 39.2 19.452C40.1333 18.8867 41.1 18.7694 42.1 19.1C43.2333 19.4334 44.1 20.0667 44.7 21C45.3 21.9334 45.4 22.9 45 23.9C43.8667 26.6334 42.2 28.9334 40 30.8C37.8 32.6667 35.3 34.0667 32.5 35V40C32.5 41.1334 32.116 42.084 31.348 42.852C30.58 43.62 29.6307 44.0027 28.5 44H12.5ZM20.5 24C18.3 24 16.4173 23.2174 14.852 21.652C13.2867 20.0867 12.5027 18.2027 12.5 16C12.4973 13.7974 13.2813 11.9147 14.852 10.352C16.4227 8.78936 18.3053 8.00536 20.5 8.00003C22.6947 7.99469 24.5787 8.77869 26.152 10.352C27.7253 11.9254 28.508 13.808 28.5 16C28.492 18.192 27.7093 20.076 26.152 21.652C24.5947 23.228 22.7107 24.0107 20.5 24ZM40.5 56C39.3667 56 38.4173 55.616 37.652 54.848C36.8867 54.08 36.5027 53.1307 36.5 52C36.5 43.0667 39.6 35.5 45.8 29.3C52 23.1 59.5667 20 68.5 20C69.6333 20 70.584 20.3827 71.352 21.148C72.12 21.9134 72.5027 22.864 72.5 24C72.4973 25.136 72.1133 26.0867 71.348 26.852C70.5827 27.6174 69.6333 28 68.5 28C61.8333 28 56.1667 30.3334 51.5 35C46.8333 39.6667 44.5 45.3334 44.5 52C44.5 53.1334 44.116 54.084 43.348 54.852C42.58 55.62 41.6307 56.0027 40.5 56ZM56.5 56C55.3667 56 54.4173 55.616 53.652 54.848C52.8867 54.08 52.5027 53.1307 52.5 52C52.5 47.6 54.0667 43.8334 57.2 40.7C60.3333 37.5667 64.1 36 68.5 36C69.6333 36 70.584 36.384 71.352 37.152C72.12 37.92 72.5027 38.8694 72.5 40C72.4973 41.1307 72.1133 42.0814 71.348 42.852C70.5827 43.6227 69.6333 44.0054 68.5 44C66.3 44 64.4173 44.784 62.852 46.352C61.2867 47.92 60.5027 49.8027 60.5 52C60.5 53.1334 60.116 54.084 59.348 54.852C58.58 55.62 57.6307 56.0027 56.5 56Z" fill="#5C69F8"/>
</svg>
