<svg width="97" height="96" viewBox="0 0 97 96" fill="none" xmlns="http://www.w3.org/2000/svg">
<path d="M63.5 49.5244V81.75C63.5 86.3062 59.9281 90 55.4469 90H20.5625C16.0719 90 12.5 86.3062 12.5 81.75V32.25C12.5128 30.0659 13.3861 27.9749 14.9305 26.4305C16.4749 24.8861 18.5659 24.0128 20.75 24H38.3975C39.0083 24.0009 39.6129 24.1234 40.1759 24.3604C40.7389 24.5973 41.2492 24.9439 41.6769 25.38L62.1425 46.1925C63.0132 47.0829 63.5005 48.279 63.5 49.5244Z" stroke="#5C69F8" stroke-width="6" stroke-linejoin="round"/>
<path d="M38 24V44.25C38.0165 45.6372 38.575 46.963 39.556 47.944C40.537 48.925 41.8628 49.4835 43.25 49.5H63.5" stroke="#5C69F8" stroke-width="6" stroke-linecap="round" stroke-linejoin="round"/>
<path d="M33.5 24V14.25C33.5128 12.0659 34.3861 9.97492 35.9305 8.43051C37.4749 6.88609 39.5659 6.01279 41.75 6H59.375C59.9892 6.00085 60.5971 6.12323 61.1638 6.36007C61.7305 6.59692 62.2447 6.94355 62.6769 7.38L83.1425 28.1925C84.0125 29.0735 84.5002 30.2619 84.5 31.5V63.75C84.5 68.3062 80.9281 72 76.4469 72H65" stroke="#5C69F8" stroke-width="6" stroke-linejoin="round"/>
<path d="M59 6V26.25C59.0165 27.6372 59.575 28.963 60.556 29.944C61.537 30.925 62.8628 31.4835 64.25 31.5H84.5" stroke="#5C69F8" stroke-width="6" stroke-linecap="round" stroke-linejoin="round"/>
</svg>
