<svg width="48" height="48" viewBox="0 0 48 48" fill="none" xmlns="http://www.w3.org/2000/svg">
<path d="M18 3C16.4087 3 14.8826 3.63214 13.7574 4.75736C12.6321 5.88258 12 7.4087 12 9V15.621C12.9807 15.3437 13.985 15.158 15 15.066V9C15 8.20435 15.3161 7.44129 15.8787 6.87868C16.4413 6.31607 17.2044 6 18 6H27V13.5C27 14.6935 27.4741 15.8381 28.318 16.682C29.1619 17.5259 30.3065 18 31.5 18H39V39C39 39.7957 38.6839 40.5587 38.1213 41.1213C37.5587 41.6839 36.7957 42 36 42H29.229C28.2883 43.1406 27.1985 44.1497 25.989 45H36C37.5913 45 39.1174 44.3679 40.2426 43.2426C41.3679 42.1174 42 40.5913 42 39V16.242C41.999 15.0489 41.5242 13.9051 40.68 13.062L31.938 4.317C31.0944 3.47395 29.9506 3.00025 28.758 3H18ZM38.379 15H31.5C31.1022 15 30.7206 14.842 30.4393 14.5607C30.158 14.2794 30 13.8978 30 13.5V6.621L38.379 15ZM30 31.5C30 35.0804 28.5777 38.5142 26.0459 41.0459C23.5142 43.5777 20.0804 45 16.5 45C12.9196 45 9.4858 43.5777 6.95406 41.0459C4.42232 38.5142 3 35.0804 3 31.5C3 27.9196 4.42232 24.4858 6.95406 21.9541C9.4858 19.4223 12.9196 18 16.5 18C20.0804 18 23.5142 19.4223 26.0459 21.9541C28.5777 24.4858 30 27.9196 30 31.5ZM18 25.5C18 25.1022 17.842 24.7206 17.5607 24.4393C17.2794 24.158 16.8978 24 16.5 24C16.1022 24 15.7206 24.158 15.4393 24.4393C15.158 24.7206 15 25.1022 15 25.5V30H10.5C10.1022 30 9.72064 30.158 9.43934 30.4393C9.15804 30.7206 9 31.1022 9 31.5C9 31.8978 9.15804 32.2794 9.43934 32.5607C9.72064 32.842 10.1022 33 10.5 33H15V37.5C15 37.8978 15.158 38.2794 15.4393 38.5607C15.7206 38.842 16.1022 39 16.5 39C16.8978 39 17.2794 38.842 17.5607 38.5607C17.842 38.2794 18 37.8978 18 37.5V33H22.5C22.8978 33 23.2794 32.842 23.5607 32.5607C23.842 32.2794 24 31.8978 24 31.5C24 31.1022 23.842 30.7206 23.5607 30.4393C23.2794 30.158 22.8978 30 22.5 30H18V25.5Z" fill="#7C7C7C"/>
</svg>
