<svg width="16" height="16" viewBox="0 0 16 16" fill="none" xmlns="http://www.w3.org/2000/svg">
<g clip-path="url(#clip0_245_619)">
<path d="M9.992 7.952C9.9795 7.43131 9.76438 6.93604 9.39237 6.5715C9.02037 6.20697 8.52083 6.00193 8 6L9.992 7.952Z" fill="#7C7C7C"/>
<path d="M6.56 4.72001C7.01201 4.51283 7.50279 4.40377 8 4.40001C8.95478 4.40001 9.87045 4.77929 10.5456 5.45442C11.2207 6.12955 11.6 7.04523 11.6 8.00001C11.5998 8.42411 11.5211 8.84451 11.368 9.24001L13.6 11.312C14.5965 10.3647 15.4101 9.24196 16 8.00001C16 8.00001 13.6 2.40001 8 2.40001C6.89688 2.39422 5.80545 2.62615 4.8 3.08001L6.56 4.72001ZM1.6 1.60001L0.8 2.40001L2.84 4.32001C1.64465 5.3329 0.676844 6.58696 0 8.00001C0 8.00001 2.4 13.6 8 13.6C9.2954 13.6054 10.5715 13.2863 11.712 12.672L14.4 15.2L15.2 14.4L1.6 1.60001ZM8 11.6C7.04522 11.6 6.12955 11.2207 5.45442 10.5456C4.77928 9.87046 4.4 8.95479 4.4 8.00001C4.40442 7.38161 4.56985 6.77502 4.88 6.24001L6.104 7.39201C6.0381 7.58808 6.00302 7.79318 6 8.00001C5.99919 8.32561 6.07821 8.64645 6.23013 8.93444C6.38206 9.22242 6.60227 9.46878 6.87148 9.65193C7.14068 9.83509 7.45068 9.94946 7.77434 9.98504C8.09799 10.0206 8.42544 9.97631 8.728 9.85601L9.96 11.016C9.37745 11.3973 8.69625 11.6003 8 11.6Z" fill="#7C7C7C"/>
</g>
<defs>
<clipPath id="clip0_245_619">
<rect width="16" height="16" fill="white"/>
</clipPath>
</defs>
</svg>
