<svg width="320" height="320" viewBox="0 0 320 320" fill="none" xmlns="http://www.w3.org/2000/svg">
<g clip-path="url(#clip0_1_2)">
<path d="M47.7333 144.533C40.6667 149.867 42.8 157.867 53.4667 166.933C73.4667 183.867 100.667 196.133 128 200.667C144.133 203.2 175.6 203.2 191.333 200.667C223.467 195.467 257.867 180.133 276.267 162.933C283.733 156 284.8 150.133 279.733 145.333C275.333 141.333 270.533 142 263.2 147.733C250.8 157.6 230.4 168.133 210.8 174.8C190 182 157.333 184.8 135.333 181.333C110.933 177.467 81.0667 163.6 62.8 147.733C56.6667 142.4 51.8667 141.333 47.7333 144.533Z" fill="black"/>
<path d="M18.4712 197.676C21.0376 200.942 26.3052 203.2 33.1939 204.048C46.0682 205.616 56.8102 204.115 62.7047 199.976C66.0943 197.484 69.5988 190.957 69.7582 186.838C70.0674 178.417 64.2576 166.105 55.4922 156.482C51.9644 152.593 48.3945 150.391 44.8122 149.822C41.8072 149.384 41.6918 150.605 44.4799 154.062C49.3026 159.965 53.6536 167.752 55.6624 174.068C57.8729 180.813 55.9953 188.535 51.3655 191.928C46.2169 195.684 34.1719 197.198 22.1612 195.631C18.1248 195.103 16.9196 195.738 18.4712 197.676Z" fill="black"/>
<path d="M50.5894 217.379C53.1558 220.645 58.4234 222.903 65.3121 223.752C78.1864 225.319 88.9284 223.818 94.8229 219.679C98.2125 217.187 101.717 210.66 101.876 206.541C102.186 198.121 96.3758 185.809 87.6104 176.186C84.0826 172.296 80.5127 170.094 76.9304 169.525C73.9254 169.087 73.81 170.308 76.5981 173.765C81.4208 179.668 85.7718 187.455 87.7806 193.771C89.9911 200.517 88.1135 208.238 83.4837 211.631C78.3351 215.387 66.2901 216.901 54.2794 215.334C50.243 214.806 49.0378 215.441 50.5894 217.379Z" fill="black"/>
<path d="M50.5893 217.379C53.1557 220.645 58.4233 222.904 65.312 223.752C78.1863 225.319 88.9283 223.818 94.8228 219.679C98.2124 217.188 101.717 210.66 101.876 206.542C102.185 198.121 96.3757 185.809 87.6103 176.186C84.0825 172.296 80.5126 170.095 76.9303 169.525C73.9253 169.088 73.8098 170.308 76.598 173.765C81.4207 179.668 85.7716 187.455 87.7805 193.771C89.991 200.517 88.1134 208.238 83.4836 211.631C78.3349 215.387 66.2899 216.901 54.2793 215.334C50.2429 214.806 49.0376 215.442 50.5893 217.379Z" fill="black"/>
<path d="M97.5894 232.379C100.156 235.645 105.423 237.903 112.312 238.752C125.186 240.319 135.928 238.818 141.823 234.679C145.213 232.187 148.717 225.66 148.876 221.541C149.186 213.121 143.376 200.809 134.61 191.186C131.083 187.296 127.513 185.094 123.93 184.525C120.925 184.087 120.81 185.308 123.598 188.765C128.421 194.668 132.772 202.455 134.781 208.771C136.991 215.516 135.114 223.238 130.484 226.631C125.335 230.387 113.29 231.901 101.279 230.334C97.243 229.806 96.0378 230.441 97.5894 232.379Z" fill="black"/>
<path d="M201.539 185.391C197.386 185.336 192.32 188.016 187.333 192.844C178.026 201.877 172.447 211.178 171.966 218.365C171.775 222.567 174.653 229.394 177.758 232.105C184.116 237.635 197.345 240.848 210.339 240.072C215.581 239.77 219.536 238.375 222.23 235.945C224.458 233.882 223.58 233.025 219.139 233.023C211.517 233.068 202.725 231.562 196.548 229.158C189.911 226.641 185.082 220.33 185.35 214.596C185.662 208.231 192.049 197.908 200.813 189.546C203.759 186.737 204.022 185.4 201.539 185.391Z" fill="black"/>
<path d="M244.741 174.38C240.588 174.269 235.487 176.881 230.435 181.64C221.008 190.547 215.304 199.772 214.725 206.952C214.478 211.151 217.263 218.016 220.331 220.769C226.614 226.384 239.799 229.775 252.802 229.174C258.048 228.943 262.022 227.602 264.748 225.208C267.003 223.175 266.138 222.307 261.697 222.245C254.075 222.187 245.303 220.563 239.16 218.076C232.557 215.47 227.814 209.094 228.159 203.365C228.556 197.004 235.083 186.767 243.958 178.525C246.942 175.756 247.223 174.423 244.741 174.38Z" fill="black"/>
<path d="M282.215 152.484C278.09 152.975 273.419 156.296 269.108 161.735C261.066 171.91 256.754 181.863 257.219 189.051C257.581 193.242 261.329 199.632 264.762 201.913C271.79 206.562 285.326 208.013 298.106 205.54C303.264 204.554 307.002 202.652 309.354 199.891C311.292 197.553 310.31 196.819 305.907 197.399C298.356 198.443 289.442 198.102 283.004 196.529C276.094 194.904 270.48 189.28 269.994 183.561C269.468 177.209 274.447 166.137 282.039 156.7C284.592 153.529 284.677 152.169 282.215 152.484Z" fill="black"/>
</g>
<defs>
<clipPath id="clip0_1_2">
<rect width="320" height="320" fill="white"/>
</clipPath>
</defs>
</svg>
