<?xml version="1.0" standalone="no"?>
<!DOCTYPE svg PUBLIC "-//W3C//DTD SVG 20010904//EN"
 "http://www.w3.org/TR/2001/REC-SVG-20010904/DTD/svg10.dtd">
<svg version="1.0" xmlns="http://www.w3.org/2000/svg"
 width="240.000000pt" height="240.000000pt" viewBox="0 0 240.000000 240.000000"
 preserveAspectRatio="xMidYMid meet">
<metadata>
Created by potrace 1.16, written by Peter Selinger 2001-2019
</metadata>
<g transform="translate(0.000000,240.000000) scale(0.100000,-0.100000)"
fill="#000000" stroke="none">
<path d="M358 1316 c-53 -40 -37 -100 43 -168 150 -127 354 -219 559 -253 121
-19 357 -19 475 0 241 39 499 154 637 283 56 52 64 96 26 132 -33 30 -69 25
-124 -18 -93 -74 -246 -153 -393 -203 -156 -54 -401 -75 -566 -49 -183 29
-407 133 -544 252 -46 40 -82 48 -113 24z"/>
</g>
</svg>
