<svg width="129" height="38" viewBox="0 0 129 38" fill="none" xmlns="http://www.w3.org/2000/svg">
<path d="M22.49 16.5307L26.5671 3.79275L25.3105 0H1.25574L0 3.79275L4.07628 16.5307L9.15061 13.8029L11.0856 17.2643L5.99443 31.2614L13.2836 38L20.5718 31.2614L15.4833 17.2651L17.4156 13.8029L22.49 16.5307ZM21.5769 14.6217L14.3923 10.76L24.3762 1.80001L25.0386 3.79768L21.5769 14.6217ZM20.8348 3.20823H5.73142L3.46436 1.17398H23.1019L20.8348 3.20823ZM19.5277 4.38221L13.2836 9.98552L7.04029 4.38221H19.5277ZM1.52672 3.79768L2.18913 1.7986L12.174 10.76L4.9902 14.6217L1.52672 3.79768ZM13.2836 36.1993L7.6354 30.9772L12.4246 17.8088H14.1435L18.93 30.9772L13.2836 36.1993ZM14.2196 16.6355H12.3502L10.394 13.134L13.2836 11.5808L16.1741 13.134L14.2196 16.6355Z" fill="#252941"/>
<path d="M36.3851 13.5333V17.729H41.9566V13.5333H44.9834V24.4667H41.9566V19.7503H36.3851V24.4667H33.3583V13.5333H36.3851ZM52.1936 16.3355C53.7873 16.3355 55.0469 16.7209 55.9722 17.4917C56.8976 18.2624 57.3603 19.2706 57.3603 20.516C57.3603 21.7716 56.888 22.7797 55.9433 23.5403C54.9987 24.3009 53.7488 24.6811 52.1936 24.6811C50.6127 24.6811 49.3596 24.2957 48.4342 23.525C47.5089 22.7542 47.0462 21.7513 47.0462 20.516C47.0462 19.2399 47.5185 18.2241 48.4632 17.4687C49.4078 16.7133 50.6513 16.3355 52.1936 16.3355ZM49.7838 20.516C49.7838 21.3224 49.9894 21.9451 50.4007 22.3842C50.812 22.8232 51.4096 23.0426 52.1936 23.0426C53.0033 23.0426 53.6106 22.818 54.0154 22.3689C54.4203 21.9197 54.6227 21.3021 54.6227 20.516C54.6227 19.6993 54.4139 19.0714 53.9962 18.6325C53.5784 18.1935 52.9712 17.974 52.1743 17.974C51.4032 17.974 50.812 18.1935 50.4007 18.6325C49.9894 19.0715 49.7838 19.6993 49.7838 20.516ZM62.6041 14.1764L62.6041 16.5499H64.6091V18.0047H62.6041V21.9248C62.6041 22.2923 62.6812 22.5373 62.8355 22.6598C62.9897 22.7823 63.2982 22.8436 63.7608 22.8436C64.095 22.8436 64.3778 22.8231 64.6091 22.7823V24.482C64.2235 24.5331 63.6837 24.5586 62.9897 24.5586C61.9358 24.5586 61.1518 24.4157 60.6377 24.1298C60.1236 23.844 59.8665 23.3489 59.8665 22.6445V18.0047H58.2086V16.5499H59.8665V14.1764H62.6041ZM70.5277 16.3355C71.4659 16.3355 72.3013 16.5091 73.0339 16.8562C73.7665 17.2033 74.3417 17.706 74.7593 18.3645C75.177 19.023 75.3859 19.7809 75.3859 20.6385C75.3859 20.7201 75.3795 20.8529 75.3666 21.0366H68.1756C68.2013 21.6695 68.4102 22.1621 68.8022 22.5143C69.1942 22.8665 69.7951 23.0426 70.6048 23.0426C71.106 23.0426 71.5655 22.9431 71.9832 22.744C72.4009 22.5449 72.6676 22.3025 72.7832 22.0166H75.1931C74.4862 23.7929 72.9311 24.6811 70.5276 24.6811C69.6151 24.6709 68.7701 24.5127 67.9925 24.2064C67.2149 23.9001 66.5948 23.4229 66.1321 22.7746C65.6694 22.1264 65.4381 21.3735 65.4381 20.516C65.4381 19.7095 65.6726 18.9744 66.1417 18.3109C66.6108 17.6474 67.2342 17.1522 68.0118 16.8255C68.7894 16.4988 69.628 16.3355 70.5277 16.3355ZM72.629 19.6585C72.5005 19.0664 72.2627 18.6376 71.9157 18.3722C71.5687 18.1067 71.0739 17.974 70.4313 17.974C69.7629 17.974 69.236 18.1246 68.8504 18.4258C68.4648 18.7269 68.2399 19.1378 68.1756 19.6585H72.629ZM79.8007 13.5333V24.4667H77.0631V13.5333H79.8007ZM88.4183 13.273C90.0249 13.273 91.3743 13.6328 92.4668 14.3525C93.5593 15.0722 94.1891 16.0242 94.3561 17.2084H91.4258C91.323 16.6673 90.9824 16.213 90.404 15.8455C89.8256 15.478 89.1637 15.2943 88.4183 15.2943C87.2358 15.2943 86.3169 15.6311 85.6614 16.3049C85.006 16.9787 84.6782 17.8924 84.6782 19.0459C84.6782 20.1689 85.0092 21.0596 85.6711 21.7181C86.333 22.3765 87.2488 22.7057 88.4183 22.7057C89.2923 22.7057 89.9992 22.4939 90.539 22.0703C91.0788 21.6466 91.4129 21.0418 91.5415 20.2557H94.4718C94.3176 21.644 93.691 22.7364 92.5921 23.5326C91.4933 24.3289 90.1019 24.7271 88.4183 24.7271C86.4004 24.7271 84.7683 24.1988 83.5215 23.1422C82.2747 22.0856 81.6515 20.7201 81.6515 19.0459C81.6515 17.3513 82.2684 15.9654 83.5022 14.8885C84.7361 13.8115 86.3748 13.273 88.4183 13.273ZM102.068 16.3355C102.299 16.3355 102.498 16.3611 102.665 16.4121V18.4334C102.37 18.3824 102.042 18.3569 101.682 18.3569C99.8827 18.3569 98.9831 19.2042 98.9831 20.8988V24.4667H96.2455V16.5499H98.8481V18.02H98.8867C99.1566 17.5095 99.5839 17.1012 100.169 16.7949C100.753 16.4887 101.386 16.3355 102.068 16.3355ZM108.005 16.3355C108.944 16.3355 109.779 16.5091 110.512 16.8562C111.244 17.2033 111.819 17.706 112.237 18.3645C112.655 19.023 112.864 19.7809 112.864 20.6385C112.864 20.7201 112.857 20.8529 112.844 21.0366H105.653C105.679 21.6695 105.888 22.1621 106.28 22.5143C106.672 22.8665 107.273 23.0426 108.083 23.0426C108.584 23.0426 109.043 22.9431 109.461 22.744C109.879 22.5449 110.145 22.3025 110.261 22.0166H112.671C111.964 23.7929 110.409 24.6811 108.005 24.6811C107.093 24.6709 106.248 24.5127 105.47 24.2064C104.693 23.9001 104.073 23.4229 103.61 22.7746C103.147 22.1264 102.916 21.3735 102.916 20.516C102.916 19.7095 103.15 18.9744 103.62 18.3109C104.089 17.6474 104.712 17.1522 105.49 16.8255C106.267 16.4988 107.106 16.3355 108.005 16.3355ZM110.107 19.6585C109.978 19.0664 109.741 18.6376 109.394 18.3722C109.047 18.1067 108.552 17.974 107.909 17.974C107.241 17.974 106.714 18.1246 106.328 18.4258C105.943 18.7269 105.718 19.1378 105.653 19.6585H110.107ZM116.43 16.5499L118.262 21.9248H118.3L119.958 16.5499H122.619L124.315 21.9095H124.354L126.185 16.5499H129L125.858 24.4667H123.043L121.269 19.1531H121.231L119.534 24.4667H116.7L113.538 16.5499H116.43Z" fill="#252941"/>
</svg>
