<svg width="408" height="409" viewBox="0 0 408 409" fill="none" xmlns="http://www.w3.org/2000/svg">
<circle cx="204" cy="204.5" r="204" fill="#99AFE0"/>
<mask id="mask0_885_3309" style="mask-type:alpha" maskUnits="userSpaceOnUse" x="0" y="0" width="408" height="409">
<circle cx="204" cy="204.5" r="204" fill="#D9D9D9"/>
</mask>
<g mask="url(#mask0_885_3309)">
<g clip-path="url(#clip0_885_3309)">
<path d="M117.63 185.379C139.153 185.379 156.601 167.931 156.601 146.408C156.601 124.884 139.153 107.436 117.63 107.436C96.1063 107.436 78.6582 124.884 78.6582 146.408C78.6582 167.931 96.1063 185.379 117.63 185.379Z" fill="url(#paint0_linear_885_3309)"/>
<path d="M305.066 102.467C305.066 102 305.252 101.552 305.582 101.222C305.913 100.892 306.361 100.706 306.828 100.706H313.041C313.559 100.702 314.054 100.494 314.419 100.126C314.784 99.758 314.989 99.2608 314.989 98.7427C314.99 98.4842 314.94 98.228 314.842 97.9889C314.744 97.7498 314.599 97.5325 314.417 97.3494C314.234 97.1662 314.017 97.0209 313.779 96.9218C313.54 96.8226 313.284 96.7716 313.026 96.7716H290.797C290.278 96.7716 289.781 96.9777 289.414 97.3445C289.047 97.7114 288.841 98.2089 288.841 98.7277C288.841 99.2464 289.047 99.744 289.414 100.111C289.781 100.478 290.278 100.684 290.797 100.684H294.417C294.884 100.684 295.332 100.869 295.662 101.2C295.992 101.53 296.178 101.978 296.178 102.445C296.172 102.908 295.984 103.35 295.654 103.676C295.325 104.001 294.88 104.184 294.417 104.184H281.174C280.673 104.184 280.193 104.383 279.839 104.737C279.484 105.091 279.285 105.571 279.285 106.072C279.285 106.32 279.334 106.565 279.429 106.794C279.524 107.023 279.664 107.23 279.839 107.405C280.014 107.58 280.223 107.718 280.452 107.812C280.681 107.906 280.926 107.954 281.174 107.953H308.297C308.793 107.953 309.27 107.756 309.621 107.405C309.973 107.053 310.17 106.577 310.17 106.08C310.17 105.583 309.973 105.106 309.621 104.755C309.27 104.404 308.793 104.206 308.297 104.206H306.798C306.34 104.198 305.903 104.012 305.579 103.688C305.256 103.363 305.072 102.925 305.066 102.467Z" fill="url(#paint1_linear_885_3309)"/>
<path d="M228.525 126.142C228.525 125.546 228.762 124.974 229.184 124.553C229.605 124.131 230.177 123.894 230.774 123.894H234.408C235.138 123.894 235.837 123.604 236.353 123.089C236.869 122.573 237.159 121.873 237.159 121.144C237.159 120.783 237.088 120.425 236.949 120.092C236.811 119.759 236.608 119.456 236.353 119.201C236.097 118.947 235.794 118.745 235.46 118.607C235.127 118.47 234.769 118.4 234.408 118.401H191.967C191.608 118.4 191.253 118.469 190.921 118.606C190.589 118.743 190.287 118.944 190.033 119.197C189.779 119.45 189.578 119.751 189.44 120.083C189.302 120.414 189.232 120.77 189.232 121.129C189.232 121.488 189.302 121.843 189.44 122.174C189.578 122.506 189.779 122.807 190.033 123.06C190.287 123.314 190.589 123.514 190.921 123.651C191.253 123.788 191.608 123.858 191.967 123.857H208.627C209.224 123.857 209.796 124.094 210.217 124.515C210.639 124.937 210.876 125.509 210.876 126.105C210.876 126.701 210.639 127.273 210.217 127.695C209.796 128.116 209.224 128.353 208.627 128.353H201.133C200.435 128.353 199.766 128.63 199.273 129.124C198.78 129.617 198.502 130.286 198.502 130.984C198.502 131.682 198.78 132.351 199.273 132.844C199.766 133.337 200.435 133.614 201.133 133.614H244.781C245.474 133.614 246.14 133.339 246.63 132.848C247.121 132.358 247.396 131.693 247.396 130.999C247.396 130.655 247.329 130.315 247.197 129.998C247.066 129.681 246.873 129.392 246.63 129.149C246.387 128.906 246.099 128.714 245.782 128.582C245.464 128.451 245.124 128.383 244.781 128.383H230.796C230.5 128.386 230.205 128.331 229.931 128.219C229.656 128.108 229.405 127.944 229.194 127.735C228.983 127.527 228.816 127.279 228.701 127.006C228.586 126.732 228.526 126.439 228.525 126.142Z" fill="url(#paint2_linear_885_3309)"/>
<path d="M75.6303 113.717C75.6282 113.24 75.8146 112.782 76.1486 112.443C76.4827 112.103 76.9375 111.909 77.4139 111.903H80.3068C80.5938 111.904 80.8782 111.848 81.1437 111.739C81.4092 111.63 81.6505 111.469 81.8538 111.267C82.0571 111.064 82.2184 110.823 82.3285 110.558C82.4385 110.293 82.4952 110.009 82.4952 109.722C82.4952 109.142 82.2646 108.585 81.8542 108.175C81.4438 107.764 80.8872 107.534 80.3068 107.534H46.5517C46.2666 107.534 45.9843 107.59 45.7211 107.699C45.4578 107.809 45.2187 107.969 45.0175 108.171C44.8163 108.373 44.6569 108.612 44.5485 108.876C44.4401 109.14 44.3848 109.422 44.3858 109.707C44.3848 109.992 44.4401 110.275 44.5485 110.538C44.6569 110.802 44.8163 111.042 45.0175 111.243C45.2187 111.445 45.4578 111.606 45.7211 111.715C45.9843 111.824 46.2666 111.88 46.5517 111.88H59.8094C60.0466 111.88 60.2815 111.927 60.5006 112.018C60.7197 112.109 60.9188 112.242 61.0866 112.41C61.2543 112.577 61.3873 112.776 61.4781 112.995C61.5688 113.215 61.6156 113.449 61.6156 113.687C61.6166 113.924 61.5706 114.16 61.4802 114.38C61.3899 114.6 61.257 114.8 61.0892 114.969C60.9214 115.137 60.7219 115.271 60.5023 115.362C60.2827 115.453 60.0472 115.5 59.8094 115.5H53.8138C53.2593 115.5 52.7274 115.721 52.3353 116.113C51.9431 116.505 51.7229 117.037 51.7229 117.591C51.7229 118.146 51.9431 118.678 52.3353 119.07C52.7274 119.462 53.2593 119.682 53.8138 119.682H88.5432C88.8159 119.682 89.0858 119.629 89.3377 119.524C89.5896 119.42 89.8184 119.267 90.0112 119.074C90.2039 118.881 90.3569 118.653 90.4612 118.401C90.5655 118.149 90.6192 117.879 90.6192 117.606C90.6202 117.333 90.5672 117.062 90.4633 116.81C90.3595 116.557 90.2067 116.327 90.0138 116.133C89.821 115.94 89.5918 115.786 89.3394 115.682C89.0871 115.577 88.8165 115.523 88.5432 115.523H77.4139C76.9388 115.517 76.4852 115.324 76.1513 114.986C75.8174 114.648 75.6302 114.192 75.6303 113.717Z" fill="url(#paint3_linear_885_3309)"/>
<path d="M131.742 195.039C131.742 194.809 131.787 194.581 131.875 194.368C131.963 194.155 132.092 193.962 132.255 193.799C132.418 193.636 132.612 193.507 132.824 193.419C133.037 193.331 133.265 193.286 133.495 193.286H139.678C139.936 193.287 140.191 193.237 140.429 193.139C140.667 193.041 140.884 192.897 141.066 192.715C141.249 192.534 141.394 192.318 141.492 192.08C141.591 191.842 141.642 191.587 141.642 191.33C141.642 190.809 141.435 190.309 141.067 189.941C140.699 189.573 140.199 189.366 139.678 189.366H117.525C117.008 189.366 116.512 189.571 116.147 189.937C115.781 190.302 115.576 190.798 115.576 191.315C115.575 191.571 115.625 191.825 115.722 192.061C115.82 192.298 115.963 192.513 116.145 192.695C116.326 192.876 116.541 193.019 116.778 193.117C117.015 193.214 117.268 193.264 117.525 193.263H121.13C121.595 193.263 122.042 193.448 122.372 193.776C122.702 194.105 122.889 194.551 122.891 195.017C122.891 195.484 122.705 195.932 122.375 196.262C122.045 196.592 121.597 196.778 121.13 196.778H107.939C107.693 196.777 107.448 196.825 107.22 196.918C106.992 197.012 106.784 197.15 106.61 197.324C106.435 197.498 106.296 197.705 106.201 197.933C106.107 198.161 106.058 198.405 106.058 198.652C106.058 199.151 106.256 199.629 106.609 199.982C106.962 200.335 107.44 200.533 107.939 200.533H134.957C135.452 200.533 135.926 200.336 136.276 199.986C136.626 199.636 136.823 199.162 136.823 198.667C136.824 198.421 136.776 198.178 136.683 197.951C136.589 197.724 136.452 197.518 136.279 197.345C136.105 197.171 135.899 197.034 135.672 196.941C135.445 196.847 135.202 196.8 134.957 196.8H133.495C133.03 196.799 132.584 196.612 132.255 196.282C131.926 195.952 131.742 195.505 131.742 195.039Z" fill="url(#paint4_linear_885_3309)"/>
<g style="mix-blend-mode:multiply" opacity="0.2">
<path d="M116.903 344.936C118.323 346.156 119.67 347.46 120.935 348.841C120.64 346.869 120.06 344.95 119.211 343.145C118.222 343.842 117.367 344.547 116.903 344.936Z" fill="#6A923C"/>
</g>
<path d="M184.226 113.896H173.666V140.24H184.226V113.896Z" fill="#FDB7B9"/>
<path d="M177.391 113.896H166.831V140.24H177.391V113.896Z" fill="#FFC6CC"/>
<path d="M186.137 112.922H164.92V116.669H186.137V112.922Z" fill="#FFF3F3"/>
<path d="M186.136 112.922H178.477V116.669H186.136V112.922Z" fill="#FD8C92"/>
<path d="M279.743 125.176H140.068V126.008H279.743V125.176Z" fill="#FFF3F3"/>
<path d="M279.743 127.536H140.068V128.368H279.743V127.536Z" fill="#FFF3F3"/>
<path d="M140.068 125.176V138.403H140.9V125.176H140.068Z" fill="#FFF3F3"/>
<path d="M154.63 125.176V138.403H155.462V125.176H154.63Z" fill="#FFF3F3"/>
<path d="M169.192 125.176V138.403H170.024V125.176H169.192Z" fill="#FFF3F3"/>
<path d="M183.746 125.168V138.396H184.578V125.168H183.746Z" fill="#FFF3F3"/>
<path d="M198.308 125.176V138.403H199.14V125.176H198.308Z" fill="#FFF3F3"/>
<path d="M212.869 125.176V138.403H213.701V125.176H212.869Z" fill="#FFF3F3"/>
<path d="M227.431 125.176V138.403H228.263V125.176H227.431Z" fill="#FFF3F3"/>
<path d="M241.985 125.176V138.403H242.817V125.176H241.985Z" fill="#FD8C92"/>
<path d="M253.152 125.176V138.403H253.984V125.176H253.152Z" fill="#FD8C92"/>
<path d="M264.312 125.168V138.396H265.143V125.168H264.312Z" fill="#FD8C92"/>
<path d="M278.911 125.176V138.403H279.743V125.176H278.911Z" fill="#FD8C92"/>
<path d="M279.743 125.176H242V126.008H279.743V125.176Z" fill="#FD8C92"/>
<path d="M279.743 127.536H242V128.368H279.743V127.536Z" fill="#FD8C92"/>
<path d="M283.01 293.922H171.103V418.053H283.01V293.922Z" fill="#F9AFB6"/>
<path d="M235.001 293.922H136.208V418.053H235.001V293.922Z" fill="#FFC6CC"/>
<g style="mix-blend-mode:multiply" opacity="0.4">
<path d="M283.018 335.186H136.208V344.194H283.018V335.186Z" fill="#FFC6CC"/>
</g>
<path d="M160.101 353.473H138.314V418.06H160.101V353.473Z" fill="#FEA2A5"/>
<path d="M139.289 354.447V369.054V369.136V418.06H160.101V369.136V369.054V354.447H139.289Z" fill="#091E53"/>
<mask id="mask1_885_3309" style="mask-type:luminance" maskUnits="userSpaceOnUse" x="139" y="354" width="22" height="65">
<path d="M139.289 354.447V369.054V369.136V418.06H160.101V369.136V369.054V354.447H139.289Z" fill="white"/>
</mask>
<g mask="url(#mask1_885_3309)">
<g opacity="0.5">
<path style="mix-blend-mode:soft-light" d="M119.792 358.105L112.198 365.699L170.253 423.754L177.847 416.16L119.792 358.105Z" fill="url(#paint5_linear_885_3309)"/>
<path style="mix-blend-mode:soft-light" d="M124.78 353.105L122.019 355.866L180.074 413.921L182.835 411.16L124.78 353.105Z" fill="url(#paint6_linear_885_3309)"/>
<path style="mix-blend-mode:soft-light" d="M129.136 348.749L127.795 350.089L185.85 408.144L187.191 406.804L129.136 348.749Z" fill="url(#paint7_linear_885_3309)"/>
</g>
</g>
<path d="M160.093 354.447H139.289V355.631H160.093V354.447Z" fill="#FFF3F3"/>
<path d="M160.093 367.697H139.289V368.199H160.093V367.697Z" fill="#FFF3F3"/>
<path d="M160.093 381.562H139.289V382.064H160.093V381.562Z" fill="#FFF3F3"/>
<path d="M160.093 395.434H139.289V395.936H160.093V395.434Z" fill="#FFF3F3"/>
<path d="M149.481 354.447V418.06H149.916V354.447H149.481Z" fill="#FFF3F3"/>
<path d="M232.902 353.473H211.116V418.06H232.902V353.473Z" fill="#FEA2A5"/>
<path d="M212.09 354.447V369.054V369.136V418.06H232.895V369.136V369.054V354.447H212.09Z" fill="#091E53"/>
<mask id="mask2_885_3309" style="mask-type:luminance" maskUnits="userSpaceOnUse" x="212" y="354" width="21" height="65">
<path d="M212.09 354.447V369.054V369.136V418.06H232.895V369.136V369.054V354.447H212.09Z" fill="white"/>
</mask>
<g mask="url(#mask2_885_3309)">
<g opacity="0.5">
<path style="mix-blend-mode:soft-light" d="M192.592 358.099L184.998 365.693L243.053 423.748L250.647 416.154L192.592 358.099Z" fill="url(#paint8_linear_885_3309)"/>
<path style="mix-blend-mode:soft-light" d="M197.58 353.106L194.819 355.867L252.874 413.922L255.635 411.161L197.58 353.106Z" fill="url(#paint9_linear_885_3309)"/>
<path style="mix-blend-mode:soft-light" d="M201.936 348.75L200.595 350.091L258.65 408.146L259.991 406.805L201.936 348.75Z" fill="url(#paint10_linear_885_3309)"/>
</g>
</g>
<path d="M232.895 354.447H212.09V355.631H232.895V354.447Z" fill="#FFF3F3"/>
<path d="M232.895 367.697H212.09V368.199H232.895V367.697Z" fill="#FFF3F3"/>
<path d="M232.895 381.562H212.09V382.064H232.895V381.562Z" fill="#FFF3F3"/>
<path d="M232.895 395.434H212.09V395.936H232.895V395.434Z" fill="#FFF3F3"/>
<path d="M222.275 354.447V418.06H222.71V354.447H222.275Z" fill="#FFF3F3"/>
<path d="M283.018 134.551H180.306V338.364H283.018V134.551Z" fill="#FEB7BB"/>
<path d="M235.001 134.551H136.208V338.364H235.001V134.551Z" fill="#FFC6CC"/>
<path d="M164.74 285.288H140.967V313.017H164.74V285.288Z" fill="#FF7481"/>
<path d="M164.74 286.899H142.354V313.017H164.74V286.899Z" fill="#FFF3F3"/>
<path d="M163.75 288.061H143.343V311.863H163.75V288.061Z" fill="#091E53"/>
<mask id="mask3_885_3309" style="mask-type:luminance" maskUnits="userSpaceOnUse" x="143" y="288" width="21" height="24">
<path d="M163.75 288.061H143.343V311.863H163.75V288.061Z" fill="white"/>
</mask>
<g mask="url(#mask3_885_3309)">
<g opacity="0.5">
<path style="mix-blend-mode:soft-light" d="M141.264 288.406L138.147 291.522L161.989 315.364L165.106 312.248L141.264 288.406Z" fill="url(#paint11_linear_885_3309)"/>
<path style="mix-blend-mode:soft-light" d="M143.315 286.353L142.181 287.487L166.023 311.329L167.157 310.195L143.315 286.353Z" fill="url(#paint12_linear_885_3309)"/>
<path style="mix-blend-mode:soft-light" d="M145.107 284.559L144.556 285.111L168.398 308.953L168.949 308.401L145.107 284.559Z" fill="url(#paint13_linear_885_3309)"/>
</g>
</g>
<path d="M153.933 288.061H153.153V311.863H153.933V288.061Z" fill="#FFF3F3"/>
<path d="M143.733 288.061H143.291V311.863H143.733V288.061Z" fill="#FD747C"/>
<path d="M154.345 288.061H153.903V311.863H154.345V288.061Z" fill="#FD747C"/>
<path d="M197.491 285.288H173.718V313.017H197.491V285.288Z" fill="#FF7481"/>
<path d="M197.491 286.899H175.104V313.017H197.491V286.899Z" fill="#FFF3F3"/>
<path d="M196.494 288.061H176.094V311.863H196.494V288.061Z" fill="#091E53"/>
<mask id="mask4_885_3309" style="mask-type:luminance" maskUnits="userSpaceOnUse" x="176" y="288" width="21" height="24">
<path d="M196.494 288.061H176.094V311.863H196.494V288.061Z" fill="white"/>
</mask>
<g mask="url(#mask4_885_3309)">
<g opacity="0.5">
<path style="mix-blend-mode:soft-light" d="M174.015 288.405L170.899 291.521L194.741 315.363L197.857 312.247L174.015 288.405Z" fill="url(#paint14_linear_885_3309)"/>
<path style="mix-blend-mode:soft-light" d="M176.066 286.367L174.932 287.501L198.774 311.343L199.908 310.209L176.066 286.367Z" fill="url(#paint15_linear_885_3309)"/>
<path style="mix-blend-mode:soft-light" d="M177.859 284.559L177.307 285.11L201.149 308.952L201.701 308.401L177.859 284.559Z" fill="url(#paint16_linear_885_3309)"/>
</g>
</g>
<path d="M186.691 288.061H185.912V311.863H186.691V288.061Z" fill="#FFF3F3"/>
<path d="M176.484 288.061H176.042V311.863H176.484V288.061Z" fill="#FD747C"/>
<path d="M187.096 288.061H186.654V311.863H187.096V288.061Z" fill="#FD747C"/>
<path d="M230.242 285.288H206.469V313.017H230.242V285.288Z" fill="#FF7481"/>
<path d="M230.242 286.899H207.856V313.017H230.242V286.899Z" fill="#FFF3F3"/>
<path d="M229.252 288.061H208.845V311.863H229.252V288.061Z" fill="#091E53"/>
<mask id="mask5_885_3309" style="mask-type:luminance" maskUnits="userSpaceOnUse" x="208" y="288" width="22" height="24">
<path d="M229.252 288.061H208.845V311.863H229.252V288.061Z" fill="white"/>
</mask>
<g mask="url(#mask5_885_3309)">
<g opacity="0.5">
<path style="mix-blend-mode:soft-light" d="M206.766 288.405L203.65 291.521L227.492 315.363L230.608 312.247L206.766 288.405Z" fill="url(#paint17_linear_885_3309)"/>
<path style="mix-blend-mode:soft-light" d="M208.823 286.354L207.689 287.488L231.531 311.33L232.665 310.196L208.823 286.354Z" fill="url(#paint18_linear_885_3309)"/>
<path style="mix-blend-mode:soft-light" d="M210.61 284.581L210.059 285.132L233.901 308.974L234.452 308.423L210.61 284.581Z" fill="url(#paint19_linear_885_3309)"/>
</g>
</g>
<path d="M219.442 288.061H218.663V311.863H219.442V288.061Z" fill="#FFF3F3"/>
<path d="M209.235 288.061H208.792V311.863H209.235V288.061Z" fill="#FD747C"/>
<path d="M219.854 288.061H219.412V311.863H219.854V288.061Z" fill="#FD747C"/>
<path d="M239.07 313.017H250.792V285.288H239.07V313.017Z" fill="#ED6272"/>
<path d="M239.07 313.025H249.405V286.907H239.07V313.025Z" fill="#FFDEE3"/>
<path d="M240.067 311.863H248.416V288.061H240.067V311.863Z" fill="#011230"/>
<mask id="mask6_885_3309" style="mask-type:luminance" maskUnits="userSpaceOnUse" x="240" y="288" width="9" height="24">
<path d="M240.067 311.863H248.416V288.061H240.067V311.863Z" fill="white"/>
</mask>
<g mask="url(#mask6_885_3309)">
<g opacity="0.5">
<path style="mix-blend-mode:soft-light" d="M232.282 288.407L229.166 291.523L253.008 315.365L256.124 312.249L232.282 288.407Z" fill="url(#paint20_linear_885_3309)"/>
<path style="mix-blend-mode:soft-light" d="M234.334 286.354L233.2 287.488L257.042 311.33L258.176 310.196L234.334 286.354Z" fill="url(#paint21_linear_885_3309)"/>
<path style="mix-blend-mode:soft-light" d="M236.126 284.561L235.575 285.112L259.417 308.954L259.968 308.403L236.126 284.561Z" fill="url(#paint22_linear_885_3309)"/>
</g>
</g>
<path d="M243.851 311.863H244.631V288.061H243.851V311.863Z" fill="#FFDEE3"/>
<path d="M248.026 311.863H248.468V288.061H248.026V311.863Z" fill="#FD747C"/>
<path d="M243.409 311.863H243.852V288.061H243.409V311.863Z" fill="#FD747C"/>
<path d="M253.145 313.017H264.866V285.288H253.145V313.017Z" fill="#ED6272"/>
<path d="M253.145 313.025H263.48V286.907H253.145V313.025Z" fill="#FFDEE3"/>
<path d="M254.141 311.863H262.49V288.061H254.141V311.863Z" fill="#011230"/>
<mask id="mask7_885_3309" style="mask-type:luminance" maskUnits="userSpaceOnUse" x="254" y="288" width="9" height="24">
<path d="M254.141 311.863H262.49V288.061H254.141V311.863Z" fill="white"/>
</mask>
<g mask="url(#mask7_885_3309)">
<g opacity="0.5">
<path style="mix-blend-mode:soft-light" d="M246.357 288.407L243.24 291.523L267.082 315.365L270.199 312.249L246.357 288.407Z" fill="url(#paint23_linear_885_3309)"/>
<path style="mix-blend-mode:soft-light" d="M248.408 286.354L247.274 287.488L271.116 311.33L272.25 310.196L248.408 286.354Z" fill="url(#paint24_linear_885_3309)"/>
<path style="mix-blend-mode:soft-light" d="M250.2 284.561L249.649 285.112L273.491 308.954L274.042 308.403L250.2 284.561Z" fill="url(#paint25_linear_885_3309)"/>
</g>
</g>
<path d="M257.926 311.863H258.706V288.061H257.926V311.863Z" fill="#FFDEE3"/>
<path d="M262.101 311.863H262.543V288.061H262.101V311.863Z" fill="#FD747C"/>
<path d="M257.484 311.863H257.926V288.061H257.484V311.863Z" fill="#FD747C"/>
<path d="M267.219 313.017H278.941V285.288H267.219V313.017Z" fill="#ED6272"/>
<path d="M267.219 313.025H277.554V286.907H267.219V313.025Z" fill="#FFDEE3"/>
<path d="M268.216 311.863H276.565V288.061H268.216V311.863Z" fill="#011230"/>
<mask id="mask8_885_3309" style="mask-type:luminance" maskUnits="userSpaceOnUse" x="268" y="288" width="9" height="24">
<path d="M268.216 311.863H276.565V288.061H268.216V311.863Z" fill="white"/>
</mask>
<g mask="url(#mask8_885_3309)">
<g opacity="0.5">
<path style="mix-blend-mode:soft-light" d="M260.431 288.408L257.315 291.524L281.157 315.366L284.273 312.25L260.431 288.408Z" fill="url(#paint26_linear_885_3309)"/>
<path style="mix-blend-mode:soft-light" d="M262.483 286.355L261.349 287.489L285.191 311.331L286.325 310.197L262.483 286.355Z" fill="url(#paint27_linear_885_3309)"/>
<path style="mix-blend-mode:soft-light" d="M264.275 284.584L263.724 285.135L287.566 308.977L288.117 308.426L264.275 284.584Z" fill="url(#paint28_linear_885_3309)"/>
</g>
</g>
<path d="M272.001 311.863H272.78V288.061H272.001V311.863Z" fill="#FFDEE3"/>
<path d="M276.175 311.863H276.617V288.061H276.175V311.863Z" fill="#FD747C"/>
<path d="M271.559 311.863H272.001V288.061H271.559V311.863Z" fill="#FD747C"/>
<path d="M239.07 267.256H250.792V239.527H239.07V267.256Z" fill="#ED6272"/>
<path d="M239.07 267.256H249.405V241.138H239.07V267.256Z" fill="#FFDEE3"/>
<path d="M240.067 266.102H248.416V242.299H240.067V266.102Z" fill="#011230"/>
<mask id="mask9_885_3309" style="mask-type:luminance" maskUnits="userSpaceOnUse" x="240" y="242" width="9" height="25">
<path d="M240.067 266.102H248.416V242.299H240.067V266.102Z" fill="white"/>
</mask>
<g mask="url(#mask9_885_3309)">
<g opacity="0.5">
<path style="mix-blend-mode:soft-light" d="M232.285 242.641L229.169 245.757L253.011 269.599L256.127 266.483L232.285 242.641Z" fill="url(#paint29_linear_885_3309)"/>
<path style="mix-blend-mode:soft-light" d="M234.337 240.581L233.203 241.715L257.045 265.557L258.179 264.423L234.337 240.581Z" fill="url(#paint30_linear_885_3309)"/>
<path style="mix-blend-mode:soft-light" d="M236.122 238.795L235.571 239.346L259.413 263.188L259.964 262.637L236.122 238.795Z" fill="url(#paint31_linear_885_3309)"/>
</g>
</g>
<path d="M243.851 266.102H244.631V242.299H243.851V266.102Z" fill="#FFDEE3"/>
<path d="M248.026 266.102H248.468V242.299H248.026V266.102Z" fill="#FD747C"/>
<path d="M243.409 266.102H243.852V242.299H243.409V266.102Z" fill="#FD747C"/>
<path d="M253.145 267.256H264.866V239.527H253.145V267.256Z" fill="#ED6272"/>
<path d="M253.145 267.256H263.48V241.138H253.145V267.256Z" fill="#FFDEE3"/>
<path d="M254.141 266.102H262.49V242.299H254.141V266.102Z" fill="#011230"/>
<mask id="mask10_885_3309" style="mask-type:luminance" maskUnits="userSpaceOnUse" x="254" y="242" width="9" height="25">
<path d="M254.141 266.102H262.49V242.299H254.141V266.102Z" fill="white"/>
</mask>
<g mask="url(#mask10_885_3309)">
<g opacity="0.5">
<path style="mix-blend-mode:soft-light" d="M246.359 242.642L243.243 245.758L267.085 269.6L270.201 266.484L246.359 242.642Z" fill="url(#paint32_linear_885_3309)"/>
<path style="mix-blend-mode:soft-light" d="M248.411 240.581L247.277 241.715L271.119 265.557L272.253 264.423L248.411 240.581Z" fill="url(#paint33_linear_885_3309)"/>
<path style="mix-blend-mode:soft-light" d="M250.196 238.795L249.645 239.346L273.487 263.188L274.038 262.637L250.196 238.795Z" fill="url(#paint34_linear_885_3309)"/>
</g>
</g>
<path d="M257.926 266.102H258.706V242.299H257.926V266.102Z" fill="#FFDEE3"/>
<path d="M262.101 266.102H262.543V242.299H262.101V266.102Z" fill="#FD747C"/>
<path d="M257.484 266.102H257.926V242.299H257.484V266.102Z" fill="#FD747C"/>
<path d="M267.219 267.256H278.941V239.527H267.219V267.256Z" fill="#ED6272"/>
<path d="M267.219 267.256H277.554V241.138H267.219V267.256Z" fill="#FFDEE3"/>
<path d="M268.216 266.102H276.565V242.299H268.216V266.102Z" fill="#011230"/>
<mask id="mask11_885_3309" style="mask-type:luminance" maskUnits="userSpaceOnUse" x="268" y="242" width="9" height="25">
<path d="M268.216 266.102H276.565V242.299H268.216V266.102Z" fill="white"/>
</mask>
<g mask="url(#mask11_885_3309)">
<g opacity="0.5">
<path style="mix-blend-mode:soft-light" d="M260.434 242.642L257.318 245.758L281.16 269.6L284.276 266.484L260.434 242.642Z" fill="url(#paint35_linear_885_3309)"/>
<path style="mix-blend-mode:soft-light" d="M262.486 240.581L261.352 241.716L285.194 265.558L286.328 264.423L262.486 240.581Z" fill="url(#paint36_linear_885_3309)"/>
<path style="mix-blend-mode:soft-light" d="M264.278 238.818L263.727 239.369L287.569 263.211L288.12 262.66L264.278 238.818Z" fill="url(#paint37_linear_885_3309)"/>
</g>
</g>
<path d="M272.001 266.102H272.78V242.299H272.001V266.102Z" fill="#FFDEE3"/>
<path d="M276.175 266.102H276.617V242.299H276.175V266.102Z" fill="#FD747C"/>
<path d="M271.559 266.102H272.001V242.299H271.559V266.102Z" fill="#FD747C"/>
<path d="M239.07 221.495H250.792V193.765H239.07V221.495Z" fill="#ED6272"/>
<path d="M239.07 221.495H249.405V195.377H239.07V221.495Z" fill="#FFDEE3"/>
<path d="M240.067 220.341H248.416V196.538H240.067V220.341Z" fill="#011230"/>
<mask id="mask12_885_3309" style="mask-type:luminance" maskUnits="userSpaceOnUse" x="240" y="196" width="9" height="25">
<path d="M240.067 220.341H248.416V196.538H240.067V220.341Z" fill="white"/>
</mask>
<g mask="url(#mask12_885_3309)">
<g opacity="0.5">
<path style="mix-blend-mode:soft-light" d="M232.281 196.883L229.165 199.999L253.007 223.841L256.123 220.725L232.281 196.883Z" fill="url(#paint38_linear_885_3309)"/>
<path style="mix-blend-mode:soft-light" d="M234.333 194.822L233.199 195.956L257.041 219.798L258.175 218.664L234.333 194.822Z" fill="url(#paint39_linear_885_3309)"/>
<path style="mix-blend-mode:soft-light" d="M236.125 193.037L235.574 193.588L259.416 217.43L259.967 216.879L236.125 193.037Z" fill="url(#paint40_linear_885_3309)"/>
</g>
</g>
<path d="M243.851 220.341H244.631V196.538H243.851V220.341Z" fill="#FFDEE3"/>
<path d="M248.026 220.341H248.468V196.538H248.026V220.341Z" fill="#FD747C"/>
<path d="M243.409 220.341H243.852V196.538H243.409V220.341Z" fill="#FD747C"/>
<path d="M253.145 221.495H264.866V193.765H253.145V221.495Z" fill="#ED6272"/>
<path d="M253.145 221.495H263.48V195.377H253.145V221.495Z" fill="#FFDEE3"/>
<path d="M254.141 220.341H262.49V196.538H254.141V220.341Z" fill="#011230"/>
<mask id="mask13_885_3309" style="mask-type:luminance" maskUnits="userSpaceOnUse" x="254" y="196" width="9" height="25">
<path d="M254.141 220.341H262.49V196.538H254.141V220.341Z" fill="white"/>
</mask>
<g mask="url(#mask13_885_3309)">
<g opacity="0.5">
<path style="mix-blend-mode:soft-light" d="M246.355 196.883L243.239 199.999L267.081 223.841L270.197 220.725L246.355 196.883Z" fill="url(#paint41_linear_885_3309)"/>
<path style="mix-blend-mode:soft-light" d="M248.407 194.823L247.273 195.957L271.115 219.799L272.249 218.665L248.407 194.823Z" fill="url(#paint42_linear_885_3309)"/>
<path style="mix-blend-mode:soft-light" d="M250.199 193.037L249.648 193.588L273.49 217.43L274.041 216.879L250.199 193.037Z" fill="url(#paint43_linear_885_3309)"/>
</g>
</g>
<path d="M257.926 220.341H258.706V196.538H257.926V220.341Z" fill="#FFDEE3"/>
<path d="M262.101 220.341H262.543V196.538H262.101V220.341Z" fill="#FD747C"/>
<path d="M257.484 220.341H257.926V196.538H257.484V220.341Z" fill="#FD747C"/>
<path d="M267.219 221.495H278.941V193.765H267.219V221.495Z" fill="#ED6272"/>
<path d="M267.219 221.495H277.554V195.377H267.219V221.495Z" fill="#FFDEE3"/>
<path d="M268.216 220.341H276.565V196.538H268.216V220.341Z" fill="#011230"/>
<mask id="mask14_885_3309" style="mask-type:luminance" maskUnits="userSpaceOnUse" x="268" y="196" width="9" height="25">
<path d="M268.216 220.341H276.565V196.538H268.216V220.341Z" fill="white"/>
</mask>
<g mask="url(#mask14_885_3309)">
<g opacity="0.5">
<path style="mix-blend-mode:soft-light" d="M260.43 196.884L257.313 200L281.155 223.842L284.272 220.726L260.43 196.884Z" fill="url(#paint44_linear_885_3309)"/>
<path style="mix-blend-mode:soft-light" d="M262.481 194.823L261.347 195.957L285.189 219.799L286.323 218.665L262.481 194.823Z" fill="url(#paint45_linear_885_3309)"/>
<path style="mix-blend-mode:soft-light" d="M264.281 193.052L263.73 193.604L287.572 217.446L288.123 216.894L264.281 193.052Z" fill="url(#paint46_linear_885_3309)"/>
</g>
</g>
<path d="M272.001 220.341H272.78V196.538H272.001V220.341Z" fill="#FFDEE3"/>
<path d="M276.175 220.341H276.617V196.538H276.175V220.341Z" fill="#FD747C"/>
<path d="M271.559 220.341H272.001V196.538H271.559V220.341Z" fill="#FD747C"/>
<path d="M239.07 175.741H250.792V148.011H239.07V175.741Z" fill="#ED6272"/>
<path d="M239.07 175.741H249.405V149.623H239.07V175.741Z" fill="#FFDEE3"/>
<path d="M240.067 174.587H248.416V150.784H240.067V174.587Z" fill="#011230"/>
<mask id="mask15_885_3309" style="mask-type:luminance" maskUnits="userSpaceOnUse" x="240" y="150" width="9" height="25">
<path d="M240.067 174.587H248.416V150.784H240.067V174.587Z" fill="white"/>
</mask>
<g mask="url(#mask15_885_3309)">
<g opacity="0.5">
<path style="mix-blend-mode:soft-light" d="M232.284 151.125L229.168 154.241L253.01 178.083L256.126 174.967L232.284 151.125Z" fill="url(#paint47_linear_885_3309)"/>
<path style="mix-blend-mode:soft-light" d="M234.328 149.064L233.194 150.198L257.036 174.04L258.17 172.906L234.328 149.064Z" fill="url(#paint48_linear_885_3309)"/>
<path style="mix-blend-mode:soft-light" d="M236.126 147.284L235.574 147.835L259.416 171.677L259.968 171.126L236.126 147.284Z" fill="url(#paint49_linear_885_3309)"/>
</g>
</g>
<path d="M243.851 174.587H244.631V150.784H243.851V174.587Z" fill="#FFDEE3"/>
<path d="M248.026 174.587H248.468V150.784H248.026V174.587Z" fill="#FD747C"/>
<path d="M243.409 174.587H243.852V150.784H243.409V174.587Z" fill="#FD747C"/>
<path d="M253.145 175.741H264.866V148.011H253.145V175.741Z" fill="#ED6272"/>
<path d="M253.145 175.741H263.48V149.623H253.145V175.741Z" fill="#FFDEE3"/>
<path d="M254.141 174.587H262.49V150.784H254.141V174.587Z" fill="#011230"/>
<mask id="mask16_885_3309" style="mask-type:luminance" maskUnits="userSpaceOnUse" x="254" y="150" width="9" height="25">
<path d="M254.141 174.587H262.49V150.784H254.141V174.587Z" fill="white"/>
</mask>
<g mask="url(#mask16_885_3309)">
<g opacity="0.5">
<path style="mix-blend-mode:soft-light" d="M246.358 151.125L243.242 154.241L267.084 178.083L270.2 174.967L246.358 151.125Z" fill="url(#paint50_linear_885_3309)"/>
<path style="mix-blend-mode:soft-light" d="M248.402 149.064L247.268 150.198L271.11 174.04L272.244 172.906L248.402 149.064Z" fill="url(#paint51_linear_885_3309)"/>
<path style="mix-blend-mode:soft-light" d="M250.2 147.284L249.648 147.835L273.49 171.677L274.042 171.126L250.2 147.284Z" fill="url(#paint52_linear_885_3309)"/>
</g>
</g>
<path d="M257.926 174.587H258.706V150.784H257.926V174.587Z" fill="#FFDEE3"/>
<path d="M262.101 174.587H262.543V150.784H262.101V174.587Z" fill="#FD747C"/>
<path d="M257.484 174.587H257.926V150.784H257.484V174.587Z" fill="#FD747C"/>
<path d="M267.219 175.741H278.941V148.011H267.219V175.741Z" fill="#ED6272"/>
<path d="M267.219 175.741H277.554V149.623H267.219V175.741Z" fill="#FFDEE3"/>
<path d="M268.216 174.587H276.565V150.784H268.216V174.587Z" fill="#011230"/>
<mask id="mask17_885_3309" style="mask-type:luminance" maskUnits="userSpaceOnUse" x="268" y="150" width="9" height="25">
<path d="M268.216 174.587H276.565V150.784H268.216V174.587Z" fill="white"/>
</mask>
<g mask="url(#mask17_885_3309)">
<g opacity="0.5">
<path style="mix-blend-mode:soft-light" d="M260.433 151.125L257.317 154.242L281.159 178.084L284.275 174.967L260.433 151.125Z" fill="url(#paint53_linear_885_3309)"/>
<path style="mix-blend-mode:soft-light" d="M262.477 149.065L261.343 150.199L285.185 174.041L286.319 172.907L262.477 149.065Z" fill="url(#paint54_linear_885_3309)"/>
<path style="mix-blend-mode:soft-light" d="M264.289 147.3L263.738 147.851L287.58 171.693L288.131 171.142L264.289 147.3Z" fill="url(#paint55_linear_885_3309)"/>
</g>
</g>
<path d="M272.001 174.587H272.78V150.784H272.001V174.587Z" fill="#FFDEE3"/>
<path d="M276.175 174.587H276.617V150.784H276.175V174.587Z" fill="#FD747C"/>
<path d="M271.559 174.587H272.001V150.784H271.559V174.587Z" fill="#FD747C"/>
<path d="M164.74 239.526H140.967V267.256H164.74V239.526Z" fill="#FF7481"/>
<path d="M164.74 241.145H142.354V267.264H164.74V241.145Z" fill="#FFF3F3"/>
<path d="M163.75 242.299H143.343V266.102H163.75V242.299Z" fill="#091E53"/>
<mask id="mask18_885_3309" style="mask-type:luminance" maskUnits="userSpaceOnUse" x="143" y="242" width="21" height="25">
<path d="M163.75 242.299H143.343V266.102H163.75V242.299Z" fill="white"/>
</mask>
<g mask="url(#mask18_885_3309)">
<g opacity="0.5">
<path style="mix-blend-mode:soft-light" d="M141.266 242.647L138.15 245.763L161.992 269.605L165.108 266.489L141.266 242.647Z" fill="url(#paint56_linear_885_3309)"/>
<path style="mix-blend-mode:soft-light" d="M143.318 240.587L142.184 241.721L166.026 265.563L167.16 264.429L143.318 240.587Z" fill="url(#paint57_linear_885_3309)"/>
<path style="mix-blend-mode:soft-light" d="M145.103 238.801L144.552 239.352L168.394 263.194L168.945 262.643L145.103 238.801Z" fill="url(#paint58_linear_885_3309)"/>
</g>
</g>
<path d="M153.933 242.299H153.153V266.102H153.933V242.299Z" fill="#FFF3F3"/>
<path d="M143.733 242.299H143.291V266.102H143.733V242.299Z" fill="#FD747C"/>
<path d="M154.345 242.299H153.903V266.102H154.345V242.299Z" fill="#FD747C"/>
<path d="M197.491 239.526H173.718V267.256H197.491V239.526Z" fill="#FF7481"/>
<path d="M197.491 241.145H175.104V267.264H197.491V241.145Z" fill="#FFF3F3"/>
<path d="M196.494 242.299H176.094V266.102H196.494V242.299Z" fill="#091E53"/>
<mask id="mask19_885_3309" style="mask-type:luminance" maskUnits="userSpaceOnUse" x="176" y="242" width="21" height="25">
<path d="M196.494 242.299H176.094V266.102H196.494V242.299Z" fill="white"/>
</mask>
<g mask="url(#mask19_885_3309)">
<g opacity="0.5">
<path style="mix-blend-mode:soft-light" d="M174.018 242.639L170.902 245.755L194.744 269.597L197.86 266.481L174.018 242.639Z" fill="url(#paint59_linear_885_3309)"/>
<path style="mix-blend-mode:soft-light" d="M176.07 240.594L174.936 241.728L198.778 265.57L199.912 264.436L176.07 240.594Z" fill="url(#paint60_linear_885_3309)"/>
<path style="mix-blend-mode:soft-light" d="M177.854 238.801L177.303 239.352L201.145 263.194L201.696 262.643L177.854 238.801Z" fill="url(#paint61_linear_885_3309)"/>
</g>
</g>
<path d="M186.691 242.299H185.912V266.102H186.691V242.299Z" fill="#FFF3F3"/>
<path d="M176.484 242.299H176.042V266.102H176.484V242.299Z" fill="#FD747C"/>
<path d="M187.096 242.299H186.654V266.102H187.096V242.299Z" fill="#FD747C"/>
<path d="M230.242 239.526H206.469V267.256H230.242V239.526Z" fill="#FF7481"/>
<path d="M230.242 241.145H207.856V267.264H230.242V241.145Z" fill="#FFF3F3"/>
<path d="M229.252 242.299H208.845V266.102H229.252V242.299Z" fill="#091E53"/>
<mask id="mask20_885_3309" style="mask-type:luminance" maskUnits="userSpaceOnUse" x="208" y="242" width="22" height="25">
<path d="M229.252 242.299H208.845V266.102H229.252V242.299Z" fill="white"/>
</mask>
<g mask="url(#mask20_885_3309)">
<g opacity="0.5">
<path style="mix-blend-mode:soft-light" d="M206.769 242.646L203.653 245.763L227.495 269.605L230.611 266.488L206.769 242.646Z" fill="url(#paint62_linear_885_3309)"/>
<path style="mix-blend-mode:soft-light" d="M208.826 240.581L207.692 241.715L231.534 265.557L232.668 264.423L208.826 240.581Z" fill="url(#paint63_linear_885_3309)"/>
<path style="mix-blend-mode:soft-light" d="M210.606 238.823L210.054 239.374L233.896 263.216L234.448 262.665L210.606 238.823Z" fill="url(#paint64_linear_885_3309)"/>
</g>
</g>
<path d="M219.442 242.299H218.663V266.102H219.442V242.299Z" fill="#FFF3F3"/>
<path d="M209.235 242.299H208.792V266.102H209.235V242.299Z" fill="#FD747C"/>
<path d="M219.854 242.299H219.412V266.102H219.854V242.299Z" fill="#FD747C"/>
<path d="M164.74 193.765H140.967V221.495H164.74V193.765Z" fill="#FF7481"/>
<path d="M164.74 195.384H142.354V221.502H164.74V195.384Z" fill="#FFF3F3"/>
<path d="M163.75 196.538H143.343V220.341H163.75V196.538Z" fill="#091E53"/>
<mask id="mask21_885_3309" style="mask-type:luminance" maskUnits="userSpaceOnUse" x="143" y="196" width="21" height="25">
<path d="M163.75 196.538H143.343V220.341H163.75V196.538Z" fill="white"/>
</mask>
<g mask="url(#mask21_885_3309)">
<g opacity="0.5">
<path style="mix-blend-mode:soft-light" d="M141.262 196.881L138.146 199.997L161.988 223.839L165.104 220.723L141.262 196.881Z" fill="url(#paint65_linear_885_3309)"/>
<path style="mix-blend-mode:soft-light" d="M143.314 194.828L142.18 195.963L166.022 219.805L167.156 218.67L143.314 194.828Z" fill="url(#paint66_linear_885_3309)"/>
<path style="mix-blend-mode:soft-light" d="M145.106 193.035L144.555 193.586L168.397 217.428L168.948 216.877L145.106 193.035Z" fill="url(#paint67_linear_885_3309)"/>
</g>
</g>
<path d="M153.933 196.538H153.153V220.341H153.933V196.538Z" fill="#FFF3F3"/>
<path d="M143.733 196.538H143.291V220.341H143.733V196.538Z" fill="#FD747C"/>
<path d="M154.345 196.538H153.903V220.341H154.345V196.538Z" fill="#FD747C"/>
<path d="M197.491 193.765H173.718V221.495H197.491V193.765Z" fill="#FF7481"/>
<path d="M197.491 195.384H175.104V221.502H197.491V195.384Z" fill="#FFF3F3"/>
<path d="M196.494 196.538H176.094V220.341H196.494V196.538Z" fill="#091E53"/>
<mask id="mask22_885_3309" style="mask-type:luminance" maskUnits="userSpaceOnUse" x="176" y="196" width="21" height="25">
<path d="M196.494 196.538H176.094V220.341H196.494V196.538Z" fill="white"/>
</mask>
<g mask="url(#mask22_885_3309)">
<g opacity="0.5">
<path style="mix-blend-mode:soft-light" d="M174.013 196.881L170.897 199.997L194.739 223.839L197.855 220.723L174.013 196.881Z" fill="url(#paint68_linear_885_3309)"/>
<path style="mix-blend-mode:soft-light" d="M176.065 194.836L174.931 195.97L198.773 219.812L199.907 218.678L176.065 194.836Z" fill="url(#paint69_linear_885_3309)"/>
<path style="mix-blend-mode:soft-light" d="M177.857 193.042L177.306 193.594L201.148 217.436L201.699 216.884L177.857 193.042Z" fill="url(#paint70_linear_885_3309)"/>
</g>
</g>
<path d="M186.691 196.538H185.912V220.341H186.691V196.538Z" fill="#FFF3F3"/>
<path d="M176.484 196.538H176.042V220.341H176.484V196.538Z" fill="#FD747C"/>
<path d="M187.096 196.538H186.654V220.341H187.096V196.538Z" fill="#FD747C"/>
<path d="M230.242 193.765H206.469V221.495H230.242V193.765Z" fill="#FF7481"/>
<path d="M230.242 195.384H207.856V221.502H230.242V195.384Z" fill="#FFF3F3"/>
<path d="M229.252 196.538H208.845V220.341H229.252V196.538Z" fill="#091E53"/>
<mask id="mask23_885_3309" style="mask-type:luminance" maskUnits="userSpaceOnUse" x="208" y="196" width="22" height="25">
<path d="M229.252 196.538H208.845V220.341H229.252V196.538Z" fill="white"/>
</mask>
<g mask="url(#mask23_885_3309)">
<g opacity="0.5">
<path style="mix-blend-mode:soft-light" d="M206.764 196.888L203.648 200.004L227.49 223.846L230.606 220.73L206.764 196.888Z" fill="url(#paint71_linear_885_3309)"/>
<path style="mix-blend-mode:soft-light" d="M208.822 194.822L207.688 195.956L231.529 219.798L232.664 218.664L208.822 194.822Z" fill="url(#paint72_linear_885_3309)"/>
<path style="mix-blend-mode:soft-light" d="M210.608 193.057L210.057 193.608L233.899 217.45L234.45 216.899L210.608 193.057Z" fill="url(#paint73_linear_885_3309)"/>
</g>
</g>
<path d="M219.442 196.538H218.663V220.341H219.442V196.538Z" fill="#FFF3F3"/>
<path d="M209.235 196.538H208.792V220.341H209.235V196.538Z" fill="#FD747C"/>
<path d="M219.854 196.538H219.412V220.341H219.854V196.538Z" fill="#FD747C"/>
<path d="M164.74 148.004H140.967V175.733H164.74V148.004Z" fill="#FF7481"/>
<path d="M164.74 149.623H142.354V175.741H164.74V149.623Z" fill="#FFF3F3"/>
<path d="M163.75 150.777H143.343V174.579H163.75V150.777Z" fill="#091E53"/>
<mask id="mask24_885_3309" style="mask-type:luminance" maskUnits="userSpaceOnUse" x="143" y="150" width="21" height="25">
<path d="M163.75 150.777H143.343V174.579H163.75V150.777Z" fill="white"/>
</mask>
<g mask="url(#mask24_885_3309)">
<g opacity="0.5">
<path style="mix-blend-mode:soft-light" d="M141.265 151.123L138.149 154.239L161.991 178.081L165.107 174.965L141.265 151.123Z" fill="url(#paint74_linear_885_3309)"/>
<path style="mix-blend-mode:soft-light" d="M143.309 149.07L142.175 150.204L166.017 174.046L167.151 172.912L143.309 149.07Z" fill="url(#paint75_linear_885_3309)"/>
<path style="mix-blend-mode:soft-light" d="M145.107 147.282L144.555 147.834L168.397 171.676L168.949 171.124L145.107 147.282Z" fill="url(#paint76_linear_885_3309)"/>
</g>
</g>
<path d="M153.933 150.777H153.153V174.579H153.933V150.777Z" fill="#FFF3F3"/>
<path d="M143.733 150.777H143.291V174.579H143.733V150.777Z" fill="#FD747C"/>
<path d="M154.345 150.777H153.903V174.579H154.345V150.777Z" fill="#FD747C"/>
<path d="M197.491 148.004H173.718V175.733H197.491V148.004Z" fill="#FF7481"/>
<path d="M197.491 149.623H175.104V175.741H197.491V149.623Z" fill="#FFF3F3"/>
<path d="M196.494 150.777H176.094V174.579H196.494V150.777Z" fill="#091E53"/>
<mask id="mask25_885_3309" style="mask-type:luminance" maskUnits="userSpaceOnUse" x="176" y="150" width="21" height="25">
<path d="M196.494 150.777H176.094V174.579H196.494V150.777Z" fill="white"/>
</mask>
<g mask="url(#mask25_885_3309)">
<g opacity="0.5">
<path style="mix-blend-mode:soft-light" d="M174.016 151.123L170.9 154.239L194.742 178.081L197.858 174.965L174.016 151.123Z" fill="url(#paint77_linear_885_3309)"/>
<path style="mix-blend-mode:soft-light" d="M176.068 149.07L174.934 150.204L198.776 174.046L199.91 172.912L176.068 149.07Z" fill="url(#paint78_linear_885_3309)"/>
<path style="mix-blend-mode:soft-light" d="M177.858 147.282L177.307 147.833L201.149 171.675L201.7 171.124L177.858 147.282Z" fill="url(#paint79_linear_885_3309)"/>
</g>
</g>
<path d="M186.691 150.777H185.912V174.579H186.691V150.777Z" fill="#FFF3F3"/>
<path d="M176.484 150.777H176.042V174.579H176.484V150.777Z" fill="#FD747C"/>
<path d="M187.096 150.777H186.654V174.579H187.096V150.777Z" fill="#FD747C"/>
<path d="M230.242 148.004H206.469V175.733H230.242V148.004Z" fill="#FF7481"/>
<path d="M230.242 149.623H207.856V175.741H230.242V149.623Z" fill="#FFF3F3"/>
<path d="M229.252 150.777H208.845V174.579H229.252V150.777Z" fill="#091E53"/>
<mask id="mask26_885_3309" style="mask-type:luminance" maskUnits="userSpaceOnUse" x="208" y="150" width="22" height="25">
<path d="M229.252 150.777H208.845V174.579H229.252V150.777Z" fill="white"/>
</mask>
<g mask="url(#mask26_885_3309)">
<g opacity="0.5">
<path style="mix-blend-mode:soft-light" d="M206.768 151.13L203.652 154.246L227.494 178.088L230.61 174.972L206.768 151.13Z" fill="url(#paint80_linear_885_3309)"/>
<path style="mix-blend-mode:soft-light" d="M208.817 149.064L207.683 150.198L231.525 174.04L232.659 172.906L208.817 149.064Z" fill="url(#paint81_linear_885_3309)"/>
<path style="mix-blend-mode:soft-light" d="M210.617 147.297L210.065 147.848L233.907 171.69L234.459 171.139L210.617 147.297Z" fill="url(#paint82_linear_885_3309)"/>
</g>
</g>
<path d="M219.442 150.777H218.663V174.579H219.442V150.777Z" fill="#FFF3F3"/>
<path d="M209.235 150.777H208.792V174.579H209.235V150.777Z" fill="#FD747C"/>
<path d="M219.854 150.777H219.412V174.579H219.854V150.777Z" fill="#FD747C"/>
<path d="M159.329 339.256H147.405V411.915H159.329V339.256Z" fill="#FFDEE3"/>
<path d="M154.472 339.256H142.549V411.915H154.472V339.256Z" fill="#FFF3F3"/>
<path d="M146.363 347.297H144.834V411.915H146.363V347.297Z" fill="#FEA2A5"/>
<path d="M146.356 347.717H145.254V411.915H146.356V347.717Z" fill="#FFC6CC"/>
<path d="M149.279 347.297H147.75V411.915H149.279V347.297Z" fill="#FEA2A5"/>
<path d="M149.264 347.717H148.162V411.915H149.264V347.717Z" fill="#FFC6CC"/>
<path d="M152.186 347.297H150.657V411.915H152.186V347.297Z" fill="#FEA2A5"/>
<path d="M152.179 347.717H151.077V411.915H152.179V347.717Z" fill="#FFC6CC"/>
<path d="M156.039 347.297H155.379V411.915H156.039V347.297Z" fill="#FEA2A5"/>
<path d="M156.038 347.717H155.559V411.915H156.038V347.717Z" fill="#FFC6CC"/>
<path d="M157.298 347.297H156.638V411.915H157.298V347.297Z" fill="#FEA2A5"/>
<path d="M157.298 347.717H156.818V411.915H157.298V347.717Z" fill="#FFC6CC"/>
<path d="M158.565 347.297H157.905V411.915H158.565V347.297Z" fill="#FEA2A5"/>
<path d="M158.564 347.717H158.085V411.915H158.564V347.717Z" fill="#FFC6CC"/>
<path d="M228.66 339.256H216.737V411.915H228.66V339.256Z" fill="#FFDEE3"/>
<path d="M223.804 339.256H211.88V411.915H223.804V339.256Z" fill="#FFF3F3"/>
<path d="M215.702 347.297H214.173V411.915H215.702V347.297Z" fill="#FEA2A5"/>
<path d="M215.687 347.717H214.586V411.915H215.687V347.717Z" fill="#FFC6CC"/>
<path d="M218.61 347.297H217.081V411.915H218.61V347.297Z" fill="#FEA2A5"/>
<path d="M218.603 347.717H217.501V411.915H218.603V347.717Z" fill="#FFC6CC"/>
<path d="M221.525 347.297H219.997V411.915H221.525V347.297Z" fill="#FEA2A5"/>
<path d="M221.511 347.717H220.409V411.915H221.511V347.717Z" fill="#FFC6CC"/>
<path d="M225.37 347.297H224.711V411.915H225.37V347.297Z" fill="#FEA2A5"/>
<path d="M225.37 347.717H224.891V411.915H225.37V347.717Z" fill="#FFC6CC"/>
<path d="M226.629 347.297H225.97V411.915H226.629V347.297Z" fill="#FEA2A5"/>
<path d="M226.629 347.717H226.15V411.915H226.629V347.717Z" fill="#FFC6CC"/>
<path d="M227.896 347.297H227.236V411.915H227.896V347.297Z" fill="#FEA2A5"/>
<path d="M227.896 347.717H227.416V411.915H227.896V347.717Z" fill="#FFC6CC"/>
<path d="M276.415 333.935H130.745V342.95H276.415V333.935Z" fill="#FFF3F3"/>
<g style="mix-blend-mode:multiply" opacity="0.4">
<path d="M283.003 317.439H136.208V319.425H283.003V317.439Z" fill="#FFC6CC"/>
</g>
<path d="M283.003 316.188H136.208V318.174H283.003V316.188Z" fill="#FFF3F3"/>
<path d="M283.003 316.188H235.023V318.174H283.003V316.188Z" fill="#FD8C92"/>
<path d="M287.882 333.935H238.103V342.95H287.882V333.935Z" fill="#FD8C92"/>
<g style="mix-blend-mode:multiply" opacity="0.4">
<path d="M283.018 134.117H136.208V143.125H283.018V134.117Z" fill="#FFC6CC"/>
</g>
<path d="M276.415 132.865H130.745V141.881H276.415V132.865Z" fill="#FFF3F3"/>
<path d="M287.882 132.865H238.103V141.881H287.882V132.865Z" fill="#FD8C92"/>
<path d="M208.14 353.473H163.061V418.06H208.14V353.473Z" fill="#FEA2A5"/>
<path d="M164.245 354.447V369.054V369.136V418.06H208.148V369.136V369.054V354.447H164.245Z" fill="#091E53"/>
<mask id="mask27_885_3309" style="mask-type:luminance" maskUnits="userSpaceOnUse" x="164" y="354" width="45" height="65">
<path d="M164.245 354.447V369.054V369.136V418.06H208.148V369.136V369.054V354.447H164.245Z" fill="white"/>
</mask>
<g mask="url(#mask27_885_3309)">
<g opacity="0.5">
<path style="mix-blend-mode:soft-light" d="M147.766 371.764L140.172 379.358L198.227 437.412L205.821 429.818L147.766 371.764Z" fill="url(#paint83_linear_885_3309)"/>
<path style="mix-blend-mode:soft-light" d="M152.762 366.771L150.001 369.531L208.056 427.586L210.817 424.825L152.762 366.771Z" fill="url(#paint84_linear_885_3309)"/>
<path style="mix-blend-mode:soft-light" d="M157.111 362.422L155.77 363.763L213.825 421.817L215.165 420.477L157.111 362.422Z" fill="url(#paint85_linear_885_3309)"/>
</g>
</g>
<path d="M208.14 354.447H164.245V355.631H208.14V354.447Z" fill="#FFF3F3"/>
<path d="M208.14 361.537H164.245V362.039H208.14V361.537Z" fill="#FFF3F3"/>
<path d="M185.942 354.447V418.06H186.444V354.447H185.942Z" fill="#FFF3F3"/>
<path d="M208.14 367.952H164.245V369.136H208.14V367.952Z" fill="#FFF3F3"/>
<path d="M237.331 418.06H280.604V353.473H237.331V418.06Z" fill="#FD8C92"/>
<path d="M279.63 354.447V369.054V369.136V418.06H237.324V369.136V369.054V354.447H279.63Z" fill="#011230"/>
<mask id="mask28_885_3309" style="mask-type:luminance" maskUnits="userSpaceOnUse" x="237" y="354" width="43" height="65">
<path d="M237.399 354.447V369.054V369.136V418.06H279.698V369.136V369.054V354.447H237.399Z" fill="white"/>
</mask>
<g mask="url(#mask28_885_3309)">
<g opacity="0.5">
<path style="mix-blend-mode:soft-light" d="M292.086 416.156L281.316 423.748L198.967 365.696L209.737 358.104L292.086 416.156Z" fill="url(#paint86_linear_885_3309)"/>
<path style="mix-blend-mode:soft-light" d="M299.168 411.165L295.256 413.923L212.899 355.871L216.819 353.105L299.168 411.165Z" fill="url(#paint87_linear_885_3309)"/>
<path style="mix-blend-mode:soft-light" d="M305.344 406.811L303.448 408.152L221.091 350.093L222.994 348.751L305.344 406.811Z" fill="url(#paint88_linear_885_3309)"/>
</g>
</g>
<path d="M237.332 355.631H279.63V354.447H237.332V355.631Z" fill="#FFDEE3"/>
<path d="M237.332 368.199H279.63V367.697H237.332V368.199Z" fill="#FFDEE3"/>
<path d="M237.332 382.064H279.63V381.562H237.332V382.064Z" fill="#FFDEE3"/>
<path d="M237.332 395.929H279.63V395.427H237.332V395.929Z" fill="#FFDEE3"/>
<path d="M258.256 354.447V418.06H258.691V354.447H258.256Z" fill="#FFDEE3"/>
<g style="mix-blend-mode:multiply" opacity="0.4">
<path d="M166.471 336.982V322.255H168.254V328.813H176.107V322.255H177.89V336.982H176.107V330.395H168.254V336.982H166.471ZM193.887 329.618C193.887 331.172 193.606 332.514 193.045 333.645C192.484 334.777 191.715 335.649 190.737 336.263C189.759 336.877 188.642 337.183 187.386 337.183C186.13 337.183 185.013 336.877 184.035 336.263C183.057 335.649 182.287 334.777 181.726 333.645C181.166 332.514 180.885 331.172 180.885 329.618C180.885 328.065 181.166 326.723 181.726 325.591C182.287 324.46 183.057 323.587 184.035 322.974C185.013 322.36 186.13 322.053 187.386 322.053C188.642 322.053 189.759 322.36 190.737 322.974C191.715 323.587 192.484 324.46 193.045 325.591C193.606 326.723 193.887 328.065 193.887 329.618ZM192.161 329.618C192.161 328.343 191.947 327.267 191.521 326.39C191.099 325.512 190.526 324.848 189.802 324.398C189.083 323.947 188.277 323.722 187.386 323.722C186.494 323.722 185.686 323.947 184.962 324.398C184.243 324.848 183.67 325.512 183.244 326.39C182.822 327.267 182.611 328.343 182.611 329.618C182.611 330.894 182.822 331.97 183.244 332.847C183.67 333.724 184.243 334.388 184.962 334.839C185.686 335.29 186.494 335.515 187.386 335.515C188.277 335.515 189.083 335.29 189.802 334.839C190.526 334.388 191.099 333.724 191.521 332.847C191.947 331.97 192.161 330.894 192.161 329.618ZM195.467 323.837V322.255H206.512V323.837H201.881V336.982H200.098V323.837H195.467ZM166.471 361.982V347.255H175.359V348.837H168.254V353.813H174.899V355.395H168.254V360.4H175.474V361.982H166.471ZM178.573 361.982V347.255H180.357V360.4H187.202V361.982H178.573Z" fill="#FFC6CC"/>
</g>
<path d="M164.783 337V322.273H166.567V328.831H174.419V322.273H176.203V337H174.419V330.413H166.567V337H164.783ZM192.199 329.636C192.199 331.19 191.919 332.532 191.358 333.663C190.797 334.795 190.028 335.667 189.05 336.281C188.072 336.895 186.955 337.201 185.699 337.201C184.443 337.201 183.326 336.895 182.348 336.281C181.37 335.667 180.6 334.795 180.039 333.663C179.478 332.532 179.198 331.19 179.198 329.636C179.198 328.083 179.478 326.741 180.039 325.609C180.6 324.478 181.37 323.605 182.348 322.992C183.326 322.378 184.443 322.071 185.699 322.071C186.955 322.071 188.072 322.378 189.05 322.992C190.028 323.605 190.797 324.478 191.358 325.609C191.919 326.741 192.199 328.083 192.199 329.636ZM190.473 329.636C190.473 328.361 190.26 327.285 189.833 326.408C189.412 325.53 188.839 324.866 188.115 324.416C187.396 323.965 186.59 323.74 185.699 323.74C184.807 323.74 183.999 323.965 183.275 324.416C182.556 324.866 181.983 325.53 181.557 326.408C181.135 327.285 180.924 328.361 180.924 329.636C180.924 330.912 181.135 331.988 181.557 332.865C181.983 333.742 182.556 334.406 183.275 334.857C183.999 335.308 184.807 335.533 185.699 335.533C186.59 335.533 187.396 335.308 188.115 334.857C188.839 334.406 189.412 333.742 189.833 332.865C190.26 331.988 190.473 330.912 190.473 329.636ZM193.779 323.855V322.273H204.825V323.855H200.194V337H198.411V323.855H193.779ZM207.577 337V322.273H216.465V323.855H209.361V328.831H216.005V330.413H209.361V335.418H216.581V337H207.577ZM219.68 337V322.273H221.463V335.418H228.309V337H219.68Z" fill="#091E53"/>
<path d="M66.6672 210.088C69.5376 210.088 69.5451 205.629 66.6672 205.629C63.7893 205.629 63.7893 210.088 66.6672 210.088Z" fill="#F3F7FF"/>
<path d="M119.128 237.068C121.999 237.068 122.006 232.609 119.128 232.609C116.251 232.609 116.251 237.068 119.128 237.068Z" fill="#F3F7FF"/>
<path d="M206.814 105.915C209.684 105.915 209.692 101.456 206.814 101.456C203.936 101.456 203.936 105.915 206.814 105.915Z" fill="#F3F7FF"/>
<path d="M303.493 204.093C306.363 204.093 306.371 199.633 303.493 199.633C300.615 199.633 300.615 204.093 303.493 204.093Z" fill="#F3F7FF"/>
<path d="M334.969 135.143C337.84 135.143 337.847 130.647 334.969 130.647C332.092 130.647 332.092 135.143 334.969 135.143Z" fill="#F3F7FF"/>
<path d="M300.495 155.378C303.365 155.378 303.373 150.882 300.495 150.882C297.617 150.882 297.617 155.378 300.495 155.378Z" fill="#F3F7FF"/>
<path d="M366.446 164.372C369.317 164.372 369.324 159.875 366.446 159.875C363.568 159.875 363.568 164.372 366.446 164.372Z" fill="#F3F7FF"/>
<path d="M363.448 234.82C366.319 234.82 366.326 230.361 363.448 230.361C360.571 230.361 360.571 234.82 363.448 234.82Z" fill="#F3F7FF"/>
<path d="M319.231 241.565C322.102 241.565 322.109 237.106 319.231 237.106C316.353 237.106 316.353 241.565 319.231 241.565Z" fill="#F3F7FF"/>
<path d="M79.4079 271.543C82.2783 271.543 82.2858 267.084 79.4079 267.084C76.53 267.084 76.53 271.543 79.4079 271.543Z" fill="#F3F7FF"/>
<path d="M116.131 103.667C119.001 103.667 119.008 99.2073 116.131 99.2073C113.253 99.2073 113.253 103.667 116.131 103.667Z" fill="#F3F7FF"/>
<path d="M104.139 200.735C104.437 200.735 104.723 200.617 104.934 200.406C105.145 200.195 105.263 199.909 105.263 199.611C105.263 199.313 105.145 199.027 104.934 198.816C104.723 198.605 104.437 198.487 104.139 198.487C103.841 198.487 103.555 198.605 103.344 198.816C103.134 199.027 103.015 199.313 103.015 199.611C103.015 199.909 103.134 200.195 103.344 200.406C103.555 200.617 103.841 200.735 104.139 200.735Z" fill="#F3F7FF"/>
<path d="M48.6803 245.702C48.9785 245.702 49.2644 245.584 49.4752 245.373C49.6861 245.162 49.8045 244.876 49.8045 244.578C49.8045 244.28 49.6861 243.994 49.4752 243.783C49.2644 243.572 48.9785 243.454 48.6803 243.454C48.3822 243.454 48.0962 243.572 47.8854 243.783C47.6746 243.994 47.5562 244.28 47.5562 244.578C47.5562 244.876 47.6746 245.162 47.8854 245.373C48.0962 245.584 48.3822 245.702 48.6803 245.702Z" fill="#F3F7FF"/>
<path d="M103.39 235.959C103.688 235.959 103.974 235.841 104.185 235.63C104.396 235.419 104.514 235.133 104.514 234.835C104.514 234.537 104.396 234.251 104.185 234.04C103.974 233.829 103.688 233.711 103.39 233.711C103.092 233.711 102.806 233.829 102.595 234.04C102.384 234.251 102.266 234.537 102.266 234.835C102.266 235.133 102.384 235.419 102.595 235.63C102.806 235.841 103.092 235.959 103.39 235.959Z" fill="#F3F7FF"/>
<path d="M71.1637 138.531C71.4619 138.531 71.7478 138.412 71.9586 138.202C72.1695 137.991 72.2879 137.705 72.2879 137.407C72.2879 137.109 72.1695 136.823 71.9586 136.612C71.7478 136.401 71.4619 136.283 71.1637 136.283C70.8656 136.283 70.5796 136.401 70.3688 136.612C70.158 136.823 70.0396 137.109 70.0396 137.407C70.0396 137.705 70.158 137.991 70.3688 138.202C70.5796 138.412 70.8656 138.531 71.1637 138.531Z" fill="#F3F7FF"/>
<path d="M269.767 117.546C270.066 117.546 270.352 117.428 270.562 117.217C270.773 117.006 270.892 116.72 270.892 116.422C270.892 116.124 270.773 115.838 270.562 115.627C270.352 115.416 270.066 115.298 269.767 115.298C269.469 115.298 269.183 115.416 268.973 115.627C268.762 115.838 268.643 116.124 268.643 116.422C268.643 116.72 268.762 117.006 268.973 117.217C269.183 117.428 269.469 117.546 269.767 117.546Z" fill="#F3F7FF"/>
<path d="M145.359 96.5618C145.657 96.5618 145.943 96.4433 146.154 96.2325C146.365 96.0217 146.483 95.7357 146.483 95.4376C146.483 95.1394 146.365 94.8535 146.154 94.6427C145.943 94.4319 145.657 94.3134 145.359 94.3134C145.061 94.3134 144.775 94.4319 144.564 94.6427C144.353 94.8535 144.235 95.1394 144.235 95.4376C144.235 95.7357 144.353 96.0217 144.564 96.2325C144.775 96.4433 145.061 96.5618 145.359 96.5618Z" fill="#F3F7FF"/>
<path d="M217.306 108.553C217.604 108.553 217.89 108.434 218.101 108.224C218.312 108.013 218.43 107.727 218.43 107.429C218.43 107.131 218.312 106.845 218.101 106.634C217.89 106.423 217.604 106.305 217.306 106.305C217.008 106.305 216.722 106.423 216.511 106.634C216.3 106.845 216.182 107.131 216.182 107.429C216.182 107.727 216.3 108.013 216.511 108.224C216.722 108.434 217.008 108.553 217.306 108.553Z" fill="#F3F7FF"/>
<path d="M279.51 100.309C279.809 100.309 280.094 100.191 280.305 99.9798C280.516 99.7689 280.635 99.483 280.635 99.1848C280.635 98.8867 280.516 98.6008 280.305 98.3899C280.094 98.1791 279.809 98.0607 279.51 98.0607C279.212 98.0607 278.926 98.1791 278.715 98.3899C278.505 98.6008 278.386 98.8867 278.386 99.1848C278.386 99.483 278.505 99.7689 278.715 99.9798C278.926 100.191 279.212 100.309 279.51 100.309Z" fill="#F3F7FF"/>
<path d="M349.958 104.056C350.257 104.056 350.542 103.938 350.753 103.727C350.964 103.516 351.083 103.23 351.083 102.932C351.083 102.634 350.964 102.348 350.753 102.137C350.542 101.926 350.257 101.808 349.958 101.808C349.66 101.808 349.374 101.926 349.163 102.137C348.953 102.348 348.834 102.634 348.834 102.932C348.834 103.23 348.953 103.516 349.163 103.727C349.374 103.938 349.66 104.056 349.958 104.056Z" fill="#F3F7FF"/>
<path d="M336.468 144.526C336.767 144.526 337.053 144.408 337.263 144.197C337.474 143.986 337.593 143.7 337.593 143.402C337.593 143.104 337.474 142.818 337.263 142.607C337.053 142.397 336.767 142.278 336.468 142.278C336.17 142.278 335.884 142.397 335.673 142.607C335.463 142.818 335.344 143.104 335.344 143.402C335.344 143.7 335.463 143.986 335.673 144.197C335.884 144.408 336.17 144.526 336.468 144.526Z" fill="#F3F7FF"/>
<path d="M338.717 193.241C339.015 193.241 339.301 193.122 339.512 192.911C339.722 192.701 339.841 192.415 339.841 192.116C339.841 191.818 339.722 191.532 339.512 191.322C339.301 191.111 339.015 190.992 338.717 190.992C338.419 190.992 338.133 191.111 337.922 191.322C337.711 191.532 337.593 191.818 337.593 192.116C337.593 192.415 337.711 192.701 337.922 192.911C338.133 193.122 338.419 193.241 338.717 193.241Z" fill="#F3F7FF"/>
<path d="M306.49 249.449C306.789 249.449 307.074 249.331 307.285 249.12C307.496 248.909 307.615 248.623 307.615 248.325C307.615 248.027 307.496 247.741 307.285 247.53C307.074 247.319 306.789 247.201 306.49 247.201C306.192 247.201 305.906 247.319 305.695 247.53C305.485 247.741 305.366 248.027 305.366 248.325C305.366 248.623 305.485 248.909 305.695 249.12C305.906 249.331 306.192 249.449 306.49 249.449Z" fill="#F3F7FF"/>
<path d="M373.941 220.97C374.239 220.97 374.525 220.852 374.736 220.641C374.947 220.43 375.065 220.144 375.065 219.846C375.065 219.548 374.947 219.262 374.736 219.051C374.525 218.84 374.239 218.722 373.941 218.722C373.643 218.722 373.357 218.84 373.146 219.051C372.935 219.262 372.817 219.548 372.817 219.846C372.817 220.144 372.935 220.43 373.146 220.641C373.357 220.852 373.643 220.97 373.941 220.97Z" fill="#F3F7FF"/>
<path d="M377.688 119.795C377.986 119.795 378.272 119.676 378.483 119.465C378.694 119.255 378.812 118.969 378.812 118.67C378.812 118.372 378.694 118.086 378.483 117.876C378.272 117.665 377.986 117.546 377.688 117.546C377.39 117.546 377.104 117.665 376.893 117.876C376.682 118.086 376.564 118.372 376.564 118.67C376.564 118.969 376.682 119.255 376.893 119.465C377.104 119.676 377.39 119.795 377.688 119.795Z" fill="#F3F7FF"/>
<path d="M331.972 268.185C332.27 268.185 332.556 268.067 332.767 267.856C332.977 267.645 333.096 267.359 333.096 267.061C333.096 266.763 332.977 266.477 332.767 266.266C332.556 266.056 332.27 265.937 331.972 265.937C331.673 265.937 331.387 266.056 331.177 266.266C330.966 266.477 330.847 266.763 330.847 267.061C330.847 267.359 330.966 267.645 331.177 267.856C331.387 268.067 331.673 268.185 331.972 268.185Z" fill="#F3F7FF"/>
<path d="M122.876 289.17C123.174 289.17 123.46 289.052 123.671 288.841C123.881 288.63 124 288.344 124 288.046C124 287.748 123.881 287.462 123.671 287.251C123.46 287.04 123.174 286.922 122.876 286.922C122.577 286.922 122.292 287.04 122.081 287.251C121.87 287.462 121.751 287.748 121.751 288.046C121.751 288.344 121.87 288.63 122.081 288.841C122.292 289.052 122.577 289.17 122.876 289.17Z" fill="#F3F7FF"/>
<path d="M48.6803 181.249C48.9785 181.249 49.2644 181.131 49.4752 180.92C49.6861 180.709 49.8045 180.423 49.8045 180.125C49.8045 179.827 49.6861 179.541 49.4752 179.33C49.2644 179.119 48.9785 179.001 48.6803 179.001C48.3822 179.001 48.0962 179.119 47.8854 179.33C47.6746 179.541 47.5562 179.827 47.5562 180.125C47.5562 180.423 47.6746 180.709 47.8854 180.92C48.0962 181.131 48.3822 181.249 48.6803 181.249Z" fill="#F3F7FF"/>
<path d="M71.9132 196.238C72.2114 196.238 72.4973 196.12 72.7081 195.909C72.919 195.698 73.0374 195.412 73.0374 195.114C73.0374 194.816 72.919 194.53 72.7081 194.319C72.4973 194.108 72.2114 193.99 71.9132 193.99C71.6151 193.99 71.3291 194.108 71.1183 194.319C70.9075 194.53 70.7891 194.816 70.7891 195.114C70.7891 195.412 70.9075 195.698 71.1183 195.909C71.3291 196.12 71.6151 196.238 71.9132 196.238Z" fill="#F3F7FF"/>
<path d="M90.6496 98.8101C90.9477 98.8101 91.2336 98.6917 91.4445 98.4808C91.6553 98.27 91.7737 97.9841 91.7737 97.6859C91.7737 97.3878 91.6553 97.1019 91.4445 96.891C91.2336 96.6802 90.9477 96.5618 90.6496 96.5618C90.3514 96.5618 90.0655 96.6802 89.8547 96.891C89.6438 97.1019 89.5254 97.3878 89.5254 97.6859C89.5254 97.9841 89.6438 98.27 89.8547 98.4808C90.0655 98.6917 90.3514 98.8101 90.6496 98.8101Z" fill="#F3F7FF"/>
</g>
</g>
<defs>
<linearGradient id="paint0_linear_885_3309" x1="127.874" y1="180.98" x2="103.892" y2="100.039" gradientUnits="userSpaceOnUse">
<stop stop-color="#F9FEFA" stop-opacity="0"/>
<stop offset="1" stop-color="#E7DBFF"/>
</linearGradient>
<linearGradient id="paint1_linear_885_3309" x1="296.448" y1="109.197" x2="297.947" y2="94.7031" gradientUnits="userSpaceOnUse">
<stop stop-color="#F9FEFA" stop-opacity="0"/>
<stop offset="1" stop-color="#E7DBFF"/>
</linearGradient>
<linearGradient id="paint2_linear_885_3309" x1="218.827" y1="141.881" x2="218.078" y2="119.397" gradientUnits="userSpaceOnUse">
<stop stop-color="#F9FEFA" stop-opacity="0"/>
<stop offset="1" stop-color="#E7DBFF"/>
</linearGradient>
<linearGradient id="paint3_linear_885_3309" x1="74.7984" y1="127.521" x2="59.8094" y2="99.0424" gradientUnits="userSpaceOnUse">
<stop stop-color="#F9FEFA" stop-opacity="0"/>
<stop offset="1" stop-color="#E7DBFF"/>
</linearGradient>
<linearGradient id="paint4_linear_885_3309" x1="123.85" y1="202.616" x2="123.85" y2="190.123" gradientUnits="userSpaceOnUse">
<stop stop-color="#F9FEFA" stop-opacity="0"/>
<stop offset="1" stop-color="#E7DBFF"/>
</linearGradient>
<linearGradient id="paint5_linear_885_3309" x1="116.639" y1="362.541" x2="173.364" y2="419.266" gradientUnits="userSpaceOnUse">
<stop stop-color="white"/>
<stop offset="1" stop-color="white" stop-opacity="0"/>
</linearGradient>
<linearGradient id="paint6_linear_885_3309" x1="124.043" y1="355.124" x2="180.768" y2="411.849" gradientUnits="userSpaceOnUse">
<stop stop-color="white"/>
<stop offset="1" stop-color="white" stop-opacity="0"/>
</linearGradient>
<linearGradient id="paint7_linear_885_3309" x1="129.115" y1="350.063" x2="185.84" y2="406.788" gradientUnits="userSpaceOnUse">
<stop stop-color="white"/>
<stop offset="1" stop-color="white" stop-opacity="0"/>
</linearGradient>
<linearGradient id="paint8_linear_885_3309" x1="189.439" y1="362.535" x2="246.158" y2="419.254" gradientUnits="userSpaceOnUse">
<stop stop-color="white"/>
<stop offset="1" stop-color="white" stop-opacity="0"/>
</linearGradient>
<linearGradient id="paint9_linear_885_3309" x1="196.849" y1="355.131" x2="253.568" y2="411.85" gradientUnits="userSpaceOnUse">
<stop stop-color="white"/>
<stop offset="1" stop-color="white" stop-opacity="0"/>
</linearGradient>
<linearGradient id="paint10_linear_885_3309" x1="201.915" y1="350.064" x2="258.634" y2="406.784" gradientUnits="userSpaceOnUse">
<stop stop-color="white"/>
<stop offset="1" stop-color="white" stop-opacity="0"/>
</linearGradient>
<linearGradient id="paint11_linear_885_3309" x1="139.97" y1="290.218" x2="163.261" y2="313.509" gradientUnits="userSpaceOnUse">
<stop stop-color="white"/>
<stop offset="1" stop-color="white" stop-opacity="0"/>
</linearGradient>
<linearGradient id="paint12_linear_885_3309" x1="143.018" y1="287.179" x2="166.309" y2="310.47" gradientUnits="userSpaceOnUse">
<stop stop-color="white"/>
<stop offset="1" stop-color="white" stop-opacity="0"/>
</linearGradient>
<linearGradient id="paint13_linear_885_3309" x1="145.102" y1="285.095" x2="168.393" y2="308.386" gradientUnits="userSpaceOnUse">
<stop stop-color="white"/>
<stop offset="1" stop-color="white" stop-opacity="0"/>
</linearGradient>
<linearGradient id="paint14_linear_885_3309" x1="172.722" y1="290.228" x2="196.018" y2="313.524" gradientUnits="userSpaceOnUse">
<stop stop-color="white"/>
<stop offset="1" stop-color="white" stop-opacity="0"/>
</linearGradient>
<linearGradient id="paint15_linear_885_3309" x1="175.764" y1="287.167" x2="199.061" y2="310.463" gradientUnits="userSpaceOnUse">
<stop stop-color="white"/>
<stop offset="1" stop-color="white" stop-opacity="0"/>
</linearGradient>
<linearGradient id="paint16_linear_885_3309" x1="177.853" y1="285.094" x2="201.149" y2="308.39" gradientUnits="userSpaceOnUse">
<stop stop-color="white"/>
<stop offset="1" stop-color="white" stop-opacity="0"/>
</linearGradient>
<linearGradient id="paint17_linear_885_3309" x1="205.473" y1="290.217" x2="228.769" y2="313.513" gradientUnits="userSpaceOnUse">
<stop stop-color="white"/>
<stop offset="1" stop-color="white" stop-opacity="0"/>
</linearGradient>
<linearGradient id="paint18_linear_885_3309" x1="208.516" y1="287.181" x2="231.812" y2="310.477" gradientUnits="userSpaceOnUse">
<stop stop-color="white"/>
<stop offset="1" stop-color="white" stop-opacity="0"/>
</linearGradient>
<linearGradient id="paint19_linear_885_3309" x1="210.599" y1="285.069" x2="233.895" y2="308.365" gradientUnits="userSpaceOnUse">
<stop stop-color="white"/>
<stop offset="1" stop-color="white" stop-opacity="0"/>
</linearGradient>
<linearGradient id="paint20_linear_885_3309" x1="230.995" y1="290.225" x2="254.285" y2="313.516" gradientUnits="userSpaceOnUse">
<stop stop-color="white"/>
<stop offset="1" stop-color="white" stop-opacity="0"/>
</linearGradient>
<linearGradient id="paint21_linear_885_3309" x1="234.037" y1="287.181" x2="257.328" y2="310.471" gradientUnits="userSpaceOnUse">
<stop stop-color="white"/>
<stop offset="1" stop-color="white" stop-opacity="0"/>
</linearGradient>
<linearGradient id="paint22_linear_885_3309" x1="236.121" y1="285.107" x2="259.412" y2="308.397" gradientUnits="userSpaceOnUse">
<stop stop-color="white"/>
<stop offset="1" stop-color="white" stop-opacity="0"/>
</linearGradient>
<linearGradient id="paint23_linear_885_3309" x1="245.069" y1="290.225" x2="268.36" y2="313.516" gradientUnits="userSpaceOnUse">
<stop stop-color="white"/>
<stop offset="1" stop-color="white" stop-opacity="0"/>
</linearGradient>
<linearGradient id="paint24_linear_885_3309" x1="248.111" y1="287.181" x2="271.402" y2="310.472" gradientUnits="userSpaceOnUse">
<stop stop-color="white"/>
<stop offset="1" stop-color="white" stop-opacity="0"/>
</linearGradient>
<linearGradient id="paint25_linear_885_3309" x1="250.195" y1="285.107" x2="273.486" y2="308.398" gradientUnits="userSpaceOnUse">
<stop stop-color="white"/>
<stop offset="1" stop-color="white" stop-opacity="0"/>
</linearGradient>
<linearGradient id="paint26_linear_885_3309" x1="259.138" y1="290.231" x2="282.429" y2="313.522" gradientUnits="userSpaceOnUse">
<stop stop-color="white"/>
<stop offset="1" stop-color="white" stop-opacity="0"/>
</linearGradient>
<linearGradient id="paint27_linear_885_3309" x1="262.186" y1="287.181" x2="285.477" y2="310.472" gradientUnits="userSpaceOnUse">
<stop stop-color="white"/>
<stop offset="1" stop-color="white" stop-opacity="0"/>
</linearGradient>
<linearGradient id="paint28_linear_885_3309" x1="264.269" y1="285.077" x2="287.56" y2="308.368" gradientUnits="userSpaceOnUse">
<stop stop-color="white"/>
<stop offset="1" stop-color="white" stop-opacity="0"/>
</linearGradient>
<linearGradient id="paint29_linear_885_3309" x1="230.998" y1="244.459" x2="254.294" y2="267.755" gradientUnits="userSpaceOnUse">
<stop stop-color="white"/>
<stop offset="1" stop-color="white" stop-opacity="0"/>
</linearGradient>
<linearGradient id="paint30_linear_885_3309" x1="234.04" y1="241.429" x2="257.337" y2="264.725" gradientUnits="userSpaceOnUse">
<stop stop-color="white"/>
<stop offset="1" stop-color="white" stop-opacity="0"/>
</linearGradient>
<linearGradient id="paint31_linear_885_3309" x1="236.111" y1="239.336" x2="259.407" y2="262.632" gradientUnits="userSpaceOnUse">
<stop stop-color="white"/>
<stop offset="1" stop-color="white" stop-opacity="0"/>
</linearGradient>
<linearGradient id="paint32_linear_885_3309" x1="245.072" y1="244.459" x2="268.368" y2="267.755" gradientUnits="userSpaceOnUse">
<stop stop-color="white"/>
<stop offset="1" stop-color="white" stop-opacity="0"/>
</linearGradient>
<linearGradient id="paint33_linear_885_3309" x1="248.114" y1="241.429" x2="271.411" y2="264.725" gradientUnits="userSpaceOnUse">
<stop stop-color="white"/>
<stop offset="1" stop-color="white" stop-opacity="0"/>
</linearGradient>
<linearGradient id="paint34_linear_885_3309" x1="250.185" y1="239.336" x2="273.481" y2="262.632" gradientUnits="userSpaceOnUse">
<stop stop-color="white"/>
<stop offset="1" stop-color="white" stop-opacity="0"/>
</linearGradient>
<linearGradient id="paint35_linear_885_3309" x1="259.146" y1="244.46" x2="282.442" y2="267.756" gradientUnits="userSpaceOnUse">
<stop stop-color="white"/>
<stop offset="1" stop-color="white" stop-opacity="0"/>
</linearGradient>
<linearGradient id="paint36_linear_885_3309" x1="262.189" y1="241.429" x2="285.485" y2="264.726" gradientUnits="userSpaceOnUse">
<stop stop-color="white"/>
<stop offset="1" stop-color="white" stop-opacity="0"/>
</linearGradient>
<linearGradient id="paint37_linear_885_3309" x1="264.267" y1="239.306" x2="287.563" y2="262.602" gradientUnits="userSpaceOnUse">
<stop stop-color="white"/>
<stop offset="1" stop-color="white" stop-opacity="0"/>
</linearGradient>
<linearGradient id="paint38_linear_885_3309" x1="230.993" y1="198.701" x2="254.284" y2="221.991" gradientUnits="userSpaceOnUse">
<stop stop-color="white"/>
<stop offset="1" stop-color="white" stop-opacity="0"/>
</linearGradient>
<linearGradient id="paint39_linear_885_3309" x1="234.041" y1="195.676" x2="257.332" y2="218.966" gradientUnits="userSpaceOnUse">
<stop stop-color="white"/>
<stop offset="1" stop-color="white" stop-opacity="0"/>
</linearGradient>
<linearGradient id="paint40_linear_885_3309" x1="236.12" y1="193.583" x2="259.41" y2="216.873" gradientUnits="userSpaceOnUse">
<stop stop-color="white"/>
<stop offset="1" stop-color="white" stop-opacity="0"/>
</linearGradient>
<linearGradient id="paint41_linear_885_3309" x1="245.067" y1="198.701" x2="268.358" y2="221.992" gradientUnits="userSpaceOnUse">
<stop stop-color="white"/>
<stop offset="1" stop-color="white" stop-opacity="0"/>
</linearGradient>
<linearGradient id="paint42_linear_885_3309" x1="248.115" y1="195.676" x2="271.406" y2="218.967" gradientUnits="userSpaceOnUse">
<stop stop-color="white"/>
<stop offset="1" stop-color="white" stop-opacity="0"/>
</linearGradient>
<linearGradient id="paint43_linear_885_3309" x1="250.194" y1="193.583" x2="273.484" y2="216.874" gradientUnits="userSpaceOnUse">
<stop stop-color="white"/>
<stop offset="1" stop-color="white" stop-opacity="0"/>
</linearGradient>
<linearGradient id="paint44_linear_885_3309" x1="259.136" y1="198.707" x2="282.427" y2="221.998" gradientUnits="userSpaceOnUse">
<stop stop-color="white"/>
<stop offset="1" stop-color="white" stop-opacity="0"/>
</linearGradient>
<linearGradient id="paint45_linear_885_3309" x1="262.19" y1="195.676" x2="285.481" y2="218.967" gradientUnits="userSpaceOnUse">
<stop stop-color="white"/>
<stop offset="1" stop-color="white" stop-opacity="0"/>
</linearGradient>
<linearGradient id="paint46_linear_885_3309" x1="264.27" y1="193.551" x2="287.561" y2="216.842" gradientUnits="userSpaceOnUse">
<stop stop-color="white"/>
<stop offset="1" stop-color="white" stop-opacity="0"/>
</linearGradient>
<linearGradient id="paint47_linear_885_3309" x1="230.991" y1="152.937" x2="254.287" y2="176.233" gradientUnits="userSpaceOnUse">
<stop stop-color="white"/>
<stop offset="1" stop-color="white" stop-opacity="0"/>
</linearGradient>
<linearGradient id="paint48_linear_885_3309" x1="234.032" y1="149.912" x2="257.328" y2="173.208" gradientUnits="userSpaceOnUse">
<stop stop-color="white"/>
<stop offset="1" stop-color="white" stop-opacity="0"/>
</linearGradient>
<linearGradient id="paint49_linear_885_3309" x1="236.115" y1="147.824" x2="259.411" y2="171.12" gradientUnits="userSpaceOnUse">
<stop stop-color="white"/>
<stop offset="1" stop-color="white" stop-opacity="0"/>
</linearGradient>
<linearGradient id="paint50_linear_885_3309" x1="245.07" y1="152.932" x2="268.366" y2="176.228" gradientUnits="userSpaceOnUse">
<stop stop-color="white"/>
<stop offset="1" stop-color="white" stop-opacity="0"/>
</linearGradient>
<linearGradient id="paint51_linear_885_3309" x1="248.111" y1="149.918" x2="271.407" y2="173.214" gradientUnits="userSpaceOnUse">
<stop stop-color="white"/>
<stop offset="1" stop-color="white" stop-opacity="0"/>
</linearGradient>
<linearGradient id="paint52_linear_885_3309" x1="250.189" y1="147.825" x2="273.485" y2="171.121" gradientUnits="userSpaceOnUse">
<stop stop-color="white"/>
<stop offset="1" stop-color="white" stop-opacity="0"/>
</linearGradient>
<linearGradient id="paint53_linear_885_3309" x1="259.145" y1="152.933" x2="282.441" y2="176.229" gradientUnits="userSpaceOnUse">
<stop stop-color="white"/>
<stop offset="1" stop-color="white" stop-opacity="0"/>
</linearGradient>
<linearGradient id="paint54_linear_885_3309" x1="262.186" y1="149.918" x2="285.482" y2="173.214" gradientUnits="userSpaceOnUse">
<stop stop-color="white"/>
<stop offset="1" stop-color="white" stop-opacity="0"/>
</linearGradient>
<linearGradient id="paint55_linear_885_3309" x1="264.274" y1="147.782" x2="287.57" y2="171.078" gradientUnits="userSpaceOnUse">
<stop stop-color="white"/>
<stop offset="1" stop-color="white" stop-opacity="0"/>
</linearGradient>
<linearGradient id="paint56_linear_885_3309" x1="139.979" y1="244.465" x2="163.27" y2="267.756" gradientUnits="userSpaceOnUse">
<stop stop-color="white"/>
<stop offset="1" stop-color="white" stop-opacity="0"/>
</linearGradient>
<linearGradient id="paint57_linear_885_3309" x1="143.027" y1="241.429" x2="166.318" y2="264.72" gradientUnits="userSpaceOnUse">
<stop stop-color="white"/>
<stop offset="1" stop-color="white" stop-opacity="0"/>
</linearGradient>
<linearGradient id="paint58_linear_885_3309" x1="145.097" y1="239.336" x2="168.388" y2="262.627" gradientUnits="userSpaceOnUse">
<stop stop-color="white"/>
<stop offset="1" stop-color="white" stop-opacity="0"/>
</linearGradient>
<linearGradient id="paint59_linear_885_3309" x1="172.735" y1="244.462" x2="196.026" y2="267.753" gradientUnits="userSpaceOnUse">
<stop stop-color="white"/>
<stop offset="1" stop-color="white" stop-opacity="0"/>
</linearGradient>
<linearGradient id="paint60_linear_885_3309" x1="175.773" y1="241.421" x2="199.064" y2="264.711" gradientUnits="userSpaceOnUse">
<stop stop-color="white"/>
<stop offset="1" stop-color="white" stop-opacity="0"/>
</linearGradient>
<linearGradient id="paint61_linear_885_3309" x1="177.849" y1="239.336" x2="201.14" y2="262.627" gradientUnits="userSpaceOnUse">
<stop stop-color="white"/>
<stop offset="1" stop-color="white" stop-opacity="0"/>
</linearGradient>
<linearGradient id="paint62_linear_885_3309" x1="205.487" y1="244.459" x2="228.778" y2="267.75" gradientUnits="userSpaceOnUse">
<stop stop-color="white"/>
<stop offset="1" stop-color="white" stop-opacity="0"/>
</linearGradient>
<linearGradient id="paint63_linear_885_3309" x1="208.524" y1="241.434" x2="231.815" y2="264.725" gradientUnits="userSpaceOnUse">
<stop stop-color="white"/>
<stop offset="1" stop-color="white" stop-opacity="0"/>
</linearGradient>
<linearGradient id="paint64_linear_885_3309" x1="210.595" y1="239.31" x2="233.886" y2="262.601" gradientUnits="userSpaceOnUse">
<stop stop-color="white"/>
<stop offset="1" stop-color="white" stop-opacity="0"/>
</linearGradient>
<linearGradient id="paint65_linear_885_3309" x1="139.974" y1="198.699" x2="163.265" y2="221.99" gradientUnits="userSpaceOnUse">
<stop stop-color="white"/>
<stop offset="1" stop-color="white" stop-opacity="0"/>
</linearGradient>
<linearGradient id="paint66_linear_885_3309" x1="143.017" y1="195.676" x2="166.308" y2="218.967" gradientUnits="userSpaceOnUse">
<stop stop-color="white"/>
<stop offset="1" stop-color="white" stop-opacity="0"/>
</linearGradient>
<linearGradient id="paint67_linear_885_3309" x1="145.106" y1="193.576" x2="168.397" y2="216.867" gradientUnits="userSpaceOnUse">
<stop stop-color="white"/>
<stop offset="1" stop-color="white" stop-opacity="0"/>
</linearGradient>
<linearGradient id="paint68_linear_885_3309" x1="172.726" y1="198.709" x2="196.022" y2="222.006" gradientUnits="userSpaceOnUse">
<stop stop-color="white"/>
<stop offset="1" stop-color="white" stop-opacity="0"/>
</linearGradient>
<linearGradient id="paint69_linear_885_3309" x1="175.768" y1="195.662" x2="199.064" y2="218.958" gradientUnits="userSpaceOnUse">
<stop stop-color="white"/>
<stop offset="1" stop-color="white" stop-opacity="0"/>
</linearGradient>
<linearGradient id="paint70_linear_885_3309" x1="177.852" y1="193.578" x2="201.148" y2="216.874" gradientUnits="userSpaceOnUse">
<stop stop-color="white"/>
<stop offset="1" stop-color="white" stop-opacity="0"/>
</linearGradient>
<linearGradient id="paint71_linear_885_3309" x1="205.477" y1="198.706" x2="228.773" y2="222.002" gradientUnits="userSpaceOnUse">
<stop stop-color="white"/>
<stop offset="1" stop-color="white" stop-opacity="0"/>
</linearGradient>
<linearGradient id="paint72_linear_885_3309" x1="208.52" y1="195.675" x2="231.816" y2="218.972" gradientUnits="userSpaceOnUse">
<stop stop-color="white"/>
<stop offset="1" stop-color="white" stop-opacity="0"/>
</linearGradient>
<linearGradient id="paint73_linear_885_3309" x1="210.598" y1="193.544" x2="233.894" y2="216.841" gradientUnits="userSpaceOnUse">
<stop stop-color="white"/>
<stop offset="1" stop-color="white" stop-opacity="0"/>
</linearGradient>
<linearGradient id="paint74_linear_885_3309" x1="139.977" y1="152.941" x2="163.268" y2="176.232" gradientUnits="userSpaceOnUse">
<stop stop-color="white"/>
<stop offset="1" stop-color="white" stop-opacity="0"/>
</linearGradient>
<linearGradient id="paint75_linear_885_3309" x1="143.023" y1="149.918" x2="166.314" y2="173.209" gradientUnits="userSpaceOnUse">
<stop stop-color="white"/>
<stop offset="1" stop-color="white" stop-opacity="0"/>
</linearGradient>
<linearGradient id="paint76_linear_885_3309" x1="145.101" y1="147.818" x2="168.392" y2="171.109" gradientUnits="userSpaceOnUse">
<stop stop-color="white"/>
<stop offset="1" stop-color="white" stop-opacity="0"/>
</linearGradient>
<linearGradient id="paint77_linear_885_3309" x1="172.734" y1="152.935" x2="196.025" y2="176.226" gradientUnits="userSpaceOnUse">
<stop stop-color="white"/>
<stop offset="1" stop-color="white" stop-opacity="0"/>
</linearGradient>
<linearGradient id="paint78_linear_885_3309" x1="175.777" y1="149.891" x2="199.068" y2="173.182" gradientUnits="userSpaceOnUse">
<stop stop-color="white"/>
<stop offset="1" stop-color="white" stop-opacity="0"/>
</linearGradient>
<linearGradient id="paint79_linear_885_3309" x1="177.853" y1="147.817" x2="201.144" y2="171.108" gradientUnits="userSpaceOnUse">
<stop stop-color="white"/>
<stop offset="1" stop-color="white" stop-opacity="0"/>
</linearGradient>
<linearGradient id="paint80_linear_885_3309" x1="205.48" y1="152.937" x2="228.771" y2="176.228" gradientUnits="userSpaceOnUse">
<stop stop-color="white"/>
<stop offset="1" stop-color="white" stop-opacity="0"/>
</linearGradient>
<linearGradient id="paint81_linear_885_3309" x1="208.526" y1="149.917" x2="231.817" y2="173.208" gradientUnits="userSpaceOnUse">
<stop stop-color="white"/>
<stop offset="1" stop-color="white" stop-opacity="0"/>
</linearGradient>
<linearGradient id="paint82_linear_885_3309" x1="210.595" y1="147.784" x2="233.886" y2="171.075" gradientUnits="userSpaceOnUse">
<stop stop-color="white"/>
<stop offset="1" stop-color="white" stop-opacity="0"/>
</linearGradient>
<linearGradient id="paint83_linear_885_3309" x1="144.608" y1="376.194" x2="201.332" y2="432.919" gradientUnits="userSpaceOnUse">
<stop stop-color="white"/>
<stop offset="1" stop-color="white" stop-opacity="0"/>
</linearGradient>
<linearGradient id="paint84_linear_885_3309" x1="152.025" y1="368.79" x2="208.75" y2="425.514" gradientUnits="userSpaceOnUse">
<stop stop-color="white"/>
<stop offset="1" stop-color="white" stop-opacity="0"/>
</linearGradient>
<linearGradient id="paint85_linear_885_3309" x1="157.079" y1="363.715" x2="213.803" y2="420.44" gradientUnits="userSpaceOnUse">
<stop stop-color="white"/>
<stop offset="1" stop-color="white" stop-opacity="0"/>
</linearGradient>
<linearGradient id="paint86_linear_885_3309" x1="210.428" y1="355.815" x2="280.571" y2="425.958" gradientUnits="userSpaceOnUse">
<stop stop-color="white"/>
<stop offset="1" stop-color="white" stop-opacity="0"/>
</linearGradient>
<linearGradient id="paint87_linear_885_3309" x1="221.429" y1="348.905" x2="290.586" y2="418.062" gradientUnits="userSpaceOnUse">
<stop stop-color="white"/>
<stop offset="1" stop-color="white" stop-opacity="0"/>
</linearGradient>
<linearGradient id="paint88_linear_885_3309" x1="228.758" y1="343.981" x2="297.624" y2="412.847" gradientUnits="userSpaceOnUse">
<stop stop-color="white"/>
<stop offset="1" stop-color="white" stop-opacity="0"/>
</linearGradient>
<clipPath id="clip0_885_3309">
<rect width="442.516" height="442.516" fill="white" transform="translate(-30.9761 62.4523)"/>
</clipPath>
</defs>
</svg>
