<svg width="705" height="671" viewBox="0 0 705 671" fill="none" xmlns="http://www.w3.org/2000/svg">
<g clip-path="url(#clip0_601_3620)">
<path d="M153.704 343.253L174.967 269.833L168.413 247.972H42.967L36.4183 269.833L57.6762 343.253L84.1389 327.53L94.2299 347.482L67.6794 428.159L105.692 467L143.701 428.159L117.164 347.486L127.241 327.53L153.704 343.253ZM148.943 332.249L130.414 321.242L111.474 309.991L163.541 258.347L166.995 269.861L148.943 332.249ZM145.072 266.463H66.3078L54.485 254.738H156.895L145.072 266.463ZM138.256 273.23L105.692 305.527L73.1336 273.23H138.256ZM44.3802 269.861L47.8347 258.339L99.9057 309.991L62.4423 332.249L44.3802 269.861ZM105.692 456.621L76.2371 426.521L101.213 350.62H110.177L135.139 426.521L105.692 456.621ZM110.574 343.857H100.825L90.623 323.675L105.692 314.723L120.766 323.675L110.574 343.857Z" fill="#3F4870"/>
<path d="M227.011 326.204V350.388H256.067V326.204H271.852V389.223H256.067V362.038H227.011V389.223H211.227V326.204H227.011ZM309.453 342.356C317.764 342.356 324.333 344.577 329.159 349.019C333.985 353.462 336.397 359.273 336.397 366.451C336.397 373.689 333.934 379.499 329.008 383.883C324.081 388.267 317.564 390.459 309.453 390.459C301.209 390.459 294.674 388.237 289.848 383.795C285.022 379.352 282.609 373.571 282.609 366.451C282.609 359.096 285.072 353.241 289.999 348.887C294.925 344.533 301.41 342.356 309.453 342.356ZM296.886 366.451C296.886 371.1 297.958 374.689 300.103 377.219C302.248 379.75 305.365 381.015 309.453 381.015C313.676 381.015 316.843 379.72 318.954 377.131C321.065 374.542 322.121 370.982 322.121 366.451C322.121 361.744 321.032 358.125 318.853 355.595C316.675 353.065 313.508 351.8 309.353 351.8C305.331 351.8 302.248 353.065 300.103 355.595C297.958 358.125 296.886 361.744 296.886 366.451ZM363.744 329.911L363.744 343.591H374.2V351.976H363.744V374.571C363.744 376.69 364.146 378.102 364.951 378.808C365.755 379.514 367.364 379.867 369.776 379.867C371.519 379.867 372.994 379.75 374.2 379.514V389.311C372.189 389.605 369.374 389.753 365.755 389.753C360.259 389.753 356.17 388.929 353.489 387.281C350.808 385.634 349.468 382.78 349.468 378.72V351.976H340.821V343.591H349.468V329.911H363.744ZM405.066 342.356C409.958 342.356 414.315 343.356 418.136 345.356C421.956 347.357 424.956 350.255 427.134 354.05C429.312 357.846 430.401 362.215 430.401 367.157C430.401 367.628 430.368 368.393 430.301 369.452H392.8C392.934 373.1 394.023 375.939 396.067 377.969C398.111 380 401.245 381.015 405.468 381.015C408.082 381.015 410.478 380.441 412.656 379.293C414.834 378.146 416.225 376.749 416.828 375.101H429.396C425.709 385.339 417.6 390.459 405.065 390.459C400.307 390.4 395.9 389.488 391.845 387.722C387.789 385.957 384.555 383.207 382.143 379.47C379.73 375.733 378.523 371.394 378.523 366.451C378.523 361.803 379.746 357.566 382.193 353.741C384.639 349.917 387.89 347.063 391.945 345.18C396 343.297 400.374 342.356 405.066 342.356ZM416.024 361.509C415.354 358.096 414.114 355.625 412.304 354.095C410.495 352.565 407.914 351.8 404.563 351.8C401.077 351.8 398.329 352.668 396.319 354.403C394.308 356.139 393.135 358.508 392.8 361.509H416.024ZM453.425 326.204V389.223H439.148V326.204H453.425ZM498.366 324.703C506.744 324.703 513.781 326.777 519.479 330.926C525.176 335.074 528.46 340.561 529.332 347.387H514.05C513.513 344.268 511.737 341.65 508.721 339.531C505.705 337.413 502.253 336.354 498.366 336.354C492.199 336.354 487.407 338.296 483.989 342.179C480.57 346.063 478.861 351.329 478.861 357.978C478.861 364.451 480.587 369.585 484.039 373.38C487.491 377.175 492.266 379.073 498.366 379.073C502.923 379.073 506.61 377.852 509.425 375.41C512.24 372.968 513.983 369.482 514.653 364.951H529.935C529.13 372.953 525.863 379.249 520.132 383.839C514.402 388.429 507.146 390.724 498.366 390.724C487.842 390.724 479.331 387.678 472.829 381.588C466.327 375.498 463.076 367.628 463.076 357.978C463.076 348.21 466.294 340.222 472.728 334.015C479.163 327.807 487.708 324.703 498.366 324.703ZM569.547 342.356C570.754 342.356 571.793 342.503 572.664 342.797V354.448C571.122 354.153 569.413 354.006 567.536 354.006C558.153 354.006 553.461 358.89 553.461 368.658V389.223H539.185V343.591H552.757V352.065H552.958C554.366 349.122 556.595 346.769 559.644 345.004C562.694 343.238 565.995 342.356 569.547 342.356ZM600.513 342.356C605.406 342.356 609.763 343.356 613.583 345.356C617.404 347.357 620.403 350.255 622.581 354.05C624.76 357.846 625.849 362.215 625.849 367.157C625.849 367.628 625.815 368.393 625.748 369.452H588.247C588.381 373.1 589.471 375.939 591.515 377.969C593.559 380 596.693 381.015 600.915 381.015C603.529 381.015 605.925 380.441 608.104 379.293C610.282 378.146 611.673 376.749 612.276 375.101H624.843C621.157 385.339 613.047 390.459 600.513 390.459C595.754 390.4 591.347 389.488 587.292 387.722C583.237 385.957 580.003 383.207 577.59 379.47C575.177 375.733 573.971 371.394 573.971 366.451C573.971 361.803 575.194 357.566 577.64 353.741C580.087 349.917 583.337 347.063 587.393 345.18C591.448 343.297 595.821 342.356 600.513 342.356ZM611.472 361.509C610.802 358.096 609.562 355.625 607.752 354.095C605.942 352.565 603.362 351.8 600.01 351.8C596.525 351.8 593.777 352.668 591.766 354.403C589.755 356.139 588.582 358.508 588.247 361.509H611.472ZM644.449 343.591L654 374.571H654.201L662.847 343.591H676.722L685.569 374.483H685.77L695.321 343.591H710L693.612 389.223H678.933L669.684 358.596H669.483L660.635 389.223H645.856L629.368 343.591H644.449Z" fill="#3F4870"/>
</g>
<defs>
<clipPath id="clip0_601_3620">
<rect width="710" height="251" fill="white" transform="translate(0 216)"/>
</clipPath>
</defs>
</svg>
