<svg width="289" height="85" viewBox="0 0 289 85" fill="none" xmlns="http://www.w3.org/2000/svg">
<path d="M50.3845 36.9766L59.5186 8.48379L56.7034 0H2.81325L0 8.48379L9.13214 36.9766L20.5002 30.8749L24.8351 38.6176L13.4294 69.9268L29.7593 85L46.0873 69.9268L34.6875 38.6192L39.0164 30.8749L50.3845 36.9766ZM48.339 32.7063L32.2432 24.0684L54.6103 4.02634L56.0943 8.49481L48.339 32.7063ZM46.6765 7.1763H12.8402L7.76123 2.62601H51.7554L46.6765 7.1763ZM43.7482 9.80231L29.7593 22.336L15.7724 9.80231H43.7482ZM3.42034 8.49481L4.90434 4.02319L27.2734 24.0684L11.1796 32.7063L3.42034 8.49481ZM29.7593 80.9721L17.1057 69.2911L27.8349 39.8354H31.6857L42.409 69.2911L29.7593 80.9721ZM31.8564 37.211H27.6682L23.2857 29.3786L29.7593 25.9045L36.2349 29.3786L31.8564 37.211Z" fill="#EFEFEF"/>
<path d="M81.5138 30.2718V39.657H93.9958V30.2718H100.777V54.7282H93.9958V44.1784H81.5138V54.7282H74.7329V30.2718H81.5138ZM116.93 36.54C120.5 36.54 123.322 37.4021 125.395 39.1261C127.468 40.8502 128.505 43.1052 128.505 45.891C128.505 48.6997 127.447 50.9546 125.33 52.6559C123.214 54.3573 120.414 55.2077 116.93 55.2077C113.388 55.2077 110.581 54.3457 108.508 52.6217C106.435 50.8976 105.398 48.6542 105.398 45.891C105.398 43.0366 106.456 40.7644 108.573 39.0747C110.689 37.385 113.475 36.54 116.93 36.54ZM111.531 45.891C111.531 47.6949 111.992 49.0878 112.913 50.0698C113.835 51.0519 115.174 51.5427 116.93 51.5427C118.744 51.5427 120.104 51.0403 121.011 50.0356C121.918 49.0309 122.372 47.6494 122.372 45.891C122.372 44.0641 121.904 42.6598 120.968 41.6779C120.032 40.6961 118.672 40.2051 116.887 40.2051C115.159 40.2051 113.835 40.696 112.913 41.6779C111.992 42.6599 111.531 44.0641 111.531 45.891ZM140.253 31.7104L140.253 37.0196H144.744V40.2736H140.253V49.0423C140.253 49.8643 140.425 50.4124 140.771 50.6864C141.116 50.9604 141.807 51.0974 142.844 51.0974C143.593 51.0974 144.226 51.0518 144.744 50.9604V54.7625C143.881 54.8766 142.671 54.9337 141.116 54.9337C138.755 54.9337 136.999 54.614 135.847 53.9747C134.696 53.3353 134.12 52.2278 134.12 50.6521V40.2736H130.405V37.0196H134.12V31.7104H140.253ZM158.004 36.54C160.106 36.54 161.977 36.9282 163.619 37.7046C165.26 38.481 166.548 39.6056 167.484 41.0785C168.42 42.5513 168.888 44.2469 168.888 46.165C168.888 46.3477 168.873 46.6445 168.845 47.0556H152.735C152.792 48.4713 153.26 49.5731 154.138 50.361C155.016 51.1488 156.363 51.5427 158.177 51.5427C159.299 51.5427 160.329 51.32 161.265 50.8747C162.2 50.4295 162.798 49.8871 163.057 49.2477H168.456C166.872 53.2211 163.388 55.2077 158.004 55.2077C155.959 55.1849 154.066 54.8309 152.324 54.1459C150.582 53.4608 149.193 52.3933 148.156 50.9433C147.12 49.4932 146.602 47.8091 146.602 45.891C146.602 44.0871 147.127 42.4428 148.178 40.9586C149.229 39.4744 150.625 38.3669 152.367 37.6361C154.109 36.9053 155.988 36.54 158.004 36.54ZM162.712 43.9729C162.424 42.6484 161.891 41.6894 161.114 41.0956C160.336 40.5019 159.228 40.2051 157.788 40.2051C156.291 40.2051 155.11 40.5419 154.246 41.2155C153.382 41.8892 152.879 42.8083 152.735 43.9729H162.712ZM178.778 30.2718V54.7282H172.645V30.2718H178.778ZM198.084 29.6895C201.684 29.6895 204.707 30.4944 207.154 32.1043C209.602 33.7142 211.013 35.8437 211.387 38.4924H204.822C204.592 37.2822 203.829 36.266 202.533 35.4439C201.237 34.6219 199.754 34.2108 198.084 34.2108C195.435 34.2108 193.377 34.9644 191.908 36.4715C190.44 37.9786 189.705 40.0225 189.705 42.6028C189.705 45.1147 190.447 47.107 191.93 48.5798C193.413 50.0527 195.464 50.7892 198.084 50.7892C200.042 50.7892 201.626 50.3153 202.835 49.3677C204.045 48.42 204.793 47.0671 205.081 45.3087H211.646C211.301 48.4142 209.897 50.8577 207.435 52.6388C204.973 54.4199 201.856 55.3105 198.084 55.3105C193.564 55.3105 189.907 54.1288 187.114 51.7654C184.321 49.4019 182.925 46.3476 182.925 42.6028C182.925 38.812 184.307 35.7121 187.071 33.3032C189.835 30.8942 193.506 29.6895 198.084 29.6895ZM228.663 36.54C229.181 36.54 229.628 36.5971 230.002 36.7113V41.2327C229.34 41.1185 228.606 41.0614 227.799 41.0614C223.768 41.0614 221.753 42.9568 221.753 46.7473V54.7282H215.62V37.0196H221.45V40.3078H221.537C222.141 39.1661 223.099 38.2527 224.409 37.5676C225.719 36.8826 227.137 36.54 228.663 36.54ZM241.966 36.54C244.068 36.54 245.939 36.9282 247.58 37.7046C249.222 38.481 250.51 39.6056 251.446 41.0785C252.382 42.5513 252.85 44.2469 252.85 46.165C252.85 46.3477 252.835 46.6445 252.807 47.0556H236.697C236.754 48.4713 237.222 49.5731 238.1 50.361C238.978 51.1488 240.324 51.5427 242.138 51.5427C243.261 51.5427 244.291 51.32 245.227 50.8747C246.162 50.4295 246.76 49.8871 247.019 49.2477H252.418C250.834 53.2211 247.35 55.2077 241.966 55.2077C239.921 55.1849 238.028 54.8309 236.286 54.1459C234.544 53.4608 233.155 52.3933 232.118 50.9433C231.082 49.4932 230.563 47.8091 230.563 45.891C230.563 44.0871 231.089 42.4428 232.14 40.9586C233.191 39.4744 234.587 38.3669 236.329 37.6361C238.071 36.9053 239.95 36.54 241.966 36.54ZM246.673 43.9729C246.386 42.6484 245.853 41.6894 245.075 41.0956C244.298 40.5019 243.189 40.2051 241.75 40.2051C240.253 40.2051 239.072 40.5419 238.208 41.2155C237.344 41.8892 236.84 42.8083 236.697 43.9729H246.673ZM260.84 37.0196L264.943 49.0423H265.029L268.744 37.0196H274.704L278.505 49.008H278.591L282.694 37.0196H289L281.96 54.7282H275.654L271.681 42.8425H271.594L267.794 54.7282H261.445L254.361 37.0196H260.84Z" fill="#EFEFEF"/>
</svg>
