<svg width="25" height="24" viewBox="0 0 25 24" fill="none" xmlns="http://www.w3.org/2000/svg">
<path d="M7.5 18H11C11.2833 18 11.521 17.904 11.713 17.712C11.905 17.52 12.0007 17.2827 12 17V15C12 14.7167 11.904 14.4793 11.712 14.288C11.52 14.0967 11.2827 14.0007 11 14H7.5C7.21667 14 6.97933 14.096 6.788 14.288C6.59667 14.48 6.50067 14.7173 6.5 15V17C6.5 17.2833 6.596 17.521 6.788 17.713C6.98 17.905 7.21733 18.0007 7.5 18ZM7.5 13H11C11.2833 13 11.521 12.904 11.713 12.712C11.905 12.52 12.0007 12.2827 12 12V7C12 6.71667 11.904 6.47933 11.712 6.288C11.52 6.09667 11.2827 6.00067 11 6H7.5C7.21667 6 6.97933 6.096 6.788 6.288C6.59667 6.48 6.50067 6.71733 6.5 7V12C6.5 12.2833 6.596 12.521 6.788 12.713C6.98 12.905 7.21733 13.0007 7.5 13ZM14 18H17.5C17.7833 18 18.021 17.904 18.213 17.712C18.405 17.52 18.5007 17.2827 18.5 17V12C18.5 11.7167 18.404 11.4793 18.212 11.288C18.02 11.0967 17.7827 11.0007 17.5 11H14C13.7167 11 13.4793 11.096 13.288 11.288C13.0967 11.48 13.0007 11.7173 13 12V17C13 17.2833 13.096 17.521 13.288 17.713C13.48 17.905 13.7173 18.0007 14 18ZM14 10H17.5C17.7833 10 18.021 9.904 18.213 9.712C18.405 9.52 18.5007 9.28267 18.5 9V7C18.5 6.71667 18.404 6.47933 18.212 6.288C18.02 6.09667 17.7827 6.00067 17.5 6H14C13.7167 6 13.4793 6.096 13.288 6.288C13.0967 6.48 13.0007 6.71733 13 7V9C13 9.28333 13.096 9.521 13.288 9.713C13.48 9.905 13.7173 10.0007 14 10ZM5.5 21C4.95 21 4.47933 20.8043 4.088 20.413C3.69667 20.0217 3.50067 19.5507 3.5 19V5C3.5 4.45 3.696 3.97933 4.088 3.588C4.48 3.19667 4.95067 3.00067 5.5 3H19.5C20.05 3 20.521 3.196 20.913 3.588C21.305 3.98 21.5007 4.45067 21.5 5V7H22.5C22.7833 7 23.021 7.096 23.213 7.288C23.405 7.48 23.5007 7.71733 23.5 8C23.4993 8.28267 23.4033 8.52033 23.212 8.713C23.0207 8.90567 22.7833 9.00133 22.5 9H21.5V11H22.5C22.7833 11 23.021 11.096 23.213 11.288C23.405 11.48 23.5007 11.7173 23.5 12C23.4993 12.2827 23.4033 12.5203 23.212 12.713C23.0207 12.9057 22.7833 13.0013 22.5 13H21.5V15H22.5C22.7833 15 23.021 15.096 23.213 15.288C23.405 15.48 23.5007 15.7173 23.5 16C23.4993 16.2827 23.4033 16.5203 23.212 16.713C23.0207 16.9057 22.7833 17.0013 22.5 17H21.5V19C21.5 19.55 21.3043 20.021 20.913 20.413C20.5217 20.805 20.0507 21.0007 19.5 21H5.5ZM5.5 19H19.5V5H5.5V19Z" fill="#E6EEF9"/>
</svg>
