<svg width="25" height="25" viewBox="0 0 25 25" fill="none" xmlns="http://www.w3.org/2000/svg">
<path d="M20 1.7H5C4.58516 1.7 4.25 2.03515 4.25 2.45V7.7H20.75V2.45C20.75 2.03515 20.4148 1.7 20 1.7ZM7.25 5.6375C6.73203 5.6375 6.3125 5.21797 6.3125 4.7C6.3125 4.18203 6.73203 3.7625 7.25 3.7625C7.76797 3.7625 8.1875 4.18203 8.1875 4.7C8.1875 5.21797 7.76797 5.6375 7.25 5.6375ZM4.25 21.95C4.25 22.3648 4.58516 22.7 5 22.7H20C20.4148 22.7 20.75 22.3648 20.75 21.95V16.7H4.25V21.95ZM7.25 18.7625C7.76797 18.7625 8.1875 19.182 8.1875 19.7C8.1875 20.218 7.76797 20.6375 7.25 20.6375C6.73203 20.6375 6.3125 20.218 6.3125 19.7C6.3125 19.182 6.73203 18.7625 7.25 18.7625ZM4.25 15.2H20.75V9.2H4.25V15.2ZM7.25 11.2625C7.76797 11.2625 8.1875 11.682 8.1875 12.2C8.1875 12.718 7.76797 13.1375 7.25 13.1375C6.73203 13.1375 6.3125 12.718 6.3125 12.2C6.3125 11.682 6.73203 11.2625 7.25 11.2625Z" fill="#E6EEF9"/>
</svg>
