<svg width="32" height="32" viewBox="0 0 32 32" fill="none" xmlns="http://www.w3.org/2000/svg">
<g clip-path="url(#clip0_119_99)">
<path d="M27.6226 17.4133C27.9971 17.0383 28.2075 16.53 28.2075 16C28.2075 15.47 27.9971 14.9617 27.6226 14.5867L20.0813 7.04133C19.7061 6.66614 19.1972 6.45536 18.6666 6.45536C18.136 6.45536 17.6271 6.66614 17.2519 7.04133C16.8768 7.41653 16.666 7.9254 16.666 8.456C16.666 8.9866 16.8768 9.49548 17.2519 9.87067L21.3799 14H5.99995C5.46951 14 4.96081 14.2107 4.58573 14.5858C4.21066 14.9609 3.99995 15.4696 3.99995 16C3.99995 16.5304 4.21066 17.0391 4.58573 17.4142C4.96081 17.7893 5.46951 18 5.99995 18H21.3799L17.2519 22.128C17.0662 22.3138 16.9188 22.5343 16.8183 22.7771C16.7177 23.0198 16.666 23.2799 16.666 23.5427C16.666 23.8054 16.7177 24.0656 16.8183 24.3083C16.9188 24.551 17.0662 24.7716 17.2519 24.9573C17.4377 25.1431 17.6583 25.2905 17.901 25.391C18.1437 25.4916 18.4039 25.5433 18.6666 25.5433C18.9293 25.5433 19.1895 25.4916 19.4322 25.391C19.675 25.2905 19.8955 25.1431 20.0813 24.9573L27.6226 17.4133Z" fill="#EFEFEF"/>
</g>
<defs>
<clipPath id="clip0_119_99">
<rect width="32" height="32" fill="white" transform="matrix(0 1 -1 0 32 0)"/>
</clipPath>
</defs>
</svg>
