<svg width="25" height="24" viewBox="0 0 25 24" fill="none" xmlns="http://www.w3.org/2000/svg">
<path fill-rule="evenodd" clip-rule="evenodd" d="M14.7793 2.15197C14.4093 1.99997 13.9393 1.99997 13.0003 1.99997C12.0613 1.99997 11.5923 1.99997 11.2213 2.15197C10.9772 2.25171 10.7552 2.39875 10.5682 2.58462C10.3811 2.77048 10.2326 2.99151 10.1313 3.23497C10.0373 3.45797 10.0013 3.71897 9.98632 4.09797C9.97918 4.37247 9.90238 4.64065 9.76314 4.87732C9.6239 5.114 9.42679 5.31139 9.19032 5.45097C8.94906 5.58507 8.67786 5.65611 8.40184 5.65751C8.12582 5.65891 7.85392 5.59062 7.61132 5.45897C7.27332 5.28097 7.02832 5.18297 6.78632 5.15097C6.2569 5.08189 5.72158 5.22417 5.29632 5.54697C4.97832 5.78897 4.74332 6.19297 4.27432 6.99997C3.80432 7.80697 3.57032 8.20997 3.51732 8.60497C3.44732 9.13097 3.59132 9.66297 3.91732 10.084C4.06532 10.276 4.27432 10.437 4.59732 10.639C5.07432 10.936 5.38032 11.442 5.38032 12C5.38032 12.558 5.07432 13.064 4.59832 13.36C4.27432 13.563 4.06532 13.724 3.91632 13.916C3.75588 14.1242 3.63806 14.362 3.5696 14.6158C3.50114 14.8695 3.48337 15.1343 3.51732 15.395C3.57032 15.789 3.80432 16.193 4.27432 17C4.74432 17.807 4.97832 18.21 5.29632 18.453C5.72032 18.776 6.25632 18.918 6.78632 18.849C7.02832 18.817 7.27332 18.719 7.61132 18.541C7.85404 18.4091 8.12613 18.3408 8.40234 18.3422C8.67855 18.3435 8.94994 18.4147 9.19132 18.549C9.67732 18.829 9.96532 19.344 9.98632 19.902C10.0013 20.282 10.0373 20.542 10.1313 20.765C10.3353 21.255 10.7273 21.645 11.2213 21.848C11.5913 22 12.0613 22 13.0003 22C13.9393 22 14.4093 22 14.7793 21.848C15.0234 21.7482 15.2454 21.6012 15.4325 21.4153C15.6195 21.2295 15.768 21.0084 15.8693 20.765C15.9633 20.542 15.9993 20.282 16.0143 19.902C16.0343 19.344 16.3233 18.828 16.8103 18.549C17.0516 18.4149 17.3228 18.3438 17.5988 18.3424C17.8748 18.341 18.1467 18.4093 18.3893 18.541C18.7273 18.719 18.9723 18.817 19.2143 18.849C19.7443 18.919 20.2803 18.776 20.7043 18.453C21.0223 18.211 21.2573 17.807 21.7263 17C22.1963 16.193 22.4303 15.79 22.4833 15.395C22.5171 15.1343 22.4992 14.8694 22.4306 14.6156C22.3619 14.3619 22.2439 14.1241 22.0833 13.916C21.9353 13.724 21.7263 13.563 21.4033 13.361C20.9263 13.064 20.6203 12.558 20.6203 12C20.6203 11.442 20.9263 10.936 21.4023 10.64C21.7263 10.437 21.9353 10.276 22.0843 10.084C22.2447 9.87576 22.3626 9.63796 22.431 9.38418C22.4995 9.13041 22.5173 8.86562 22.4833 8.60497C22.4303 8.21097 22.1963 7.80697 21.7263 6.99997C21.2563 6.19297 21.0223 5.78997 20.7043 5.54697C20.279 5.22417 19.7437 5.08189 19.2143 5.15097C18.9723 5.18297 18.7273 5.28097 18.3893 5.45897C18.1466 5.5908 17.8745 5.65919 17.5983 5.65779C17.3221 5.65639 17.0507 5.58525 16.8093 5.45097C16.573 5.31127 16.3761 5.11382 16.2371 4.87716C16.098 4.64049 16.0213 4.37237 16.0143 4.09797C15.9993 3.71797 15.9633 3.45797 15.8693 3.23497C15.768 2.99151 15.6195 2.77048 15.4325 2.58462C15.2454 2.39875 15.0234 2.25171 14.7793 2.15197ZM13.0003 15C14.6703 15 16.0233 13.657 16.0233 12C16.0233 10.343 14.6693 8.99997 13.0003 8.99997C11.3313 8.99997 9.97732 10.343 9.97732 12C9.97732 13.657 11.3313 15 13.0003 15Z" fill="#E6EEF9"/>
</svg>
