<svg width="25" height="25" viewBox="0 0 25 25" fill="none" xmlns="http://www.w3.org/2000/svg">
<path fill-rule="evenodd" clip-rule="evenodd" d="M5.5 4.79999C4.70435 4.79999 3.94129 5.11606 3.37868 5.67867C2.81607 6.24128 2.5 7.00434 2.5 7.79999V8.79999H22.5V7.79999C22.5 7.00434 22.1839 6.24128 21.6213 5.67867C21.0587 5.11606 20.2956 4.79999 19.5 4.79999H5.5ZM22.5 10.8H2.5V17.8C2.5 18.5956 2.81607 19.3587 3.37868 19.9213C3.94129 20.4839 4.70435 20.8 5.5 20.8H19.5C20.2956 20.8 21.0587 20.4839 21.6213 19.9213C22.1839 19.3587 22.5 18.5956 22.5 17.8V10.8ZM8.5 15.8C8.5 15.5348 8.60536 15.2804 8.79289 15.0929C8.98043 14.9053 9.23478 14.8 9.5 14.8H13.914L13.793 14.679C13.6054 14.4915 13.4999 14.2371 13.4998 13.9718C13.4997 13.7066 13.605 13.4521 13.7925 13.2645C13.98 13.0768 14.2344 12.9714 14.4996 12.9713C14.7649 12.9712 15.0194 13.0765 15.207 13.264L17.035 15.093C17.2225 15.2805 17.3278 15.5348 17.3278 15.8C17.3278 16.0652 17.2225 16.3195 17.035 16.507L15.207 18.335C15.1148 18.4305 15.0044 18.5067 14.8824 18.5591C14.7604 18.6115 14.6292 18.6391 14.4964 18.6402C14.3636 18.6414 14.2319 18.6161 14.109 18.5658C13.9861 18.5155 13.8745 18.4413 13.7806 18.3474C13.6867 18.2535 13.6125 18.1418 13.5622 18.0189C13.5119 17.896 13.4866 17.7644 13.4877 17.6316C13.4889 17.4988 13.5165 17.3676 13.5689 17.2456C13.6213 17.1236 13.6975 17.0132 13.793 16.921L13.914 16.8H9.5C9.23478 16.8 8.98043 16.6946 8.79289 16.5071C8.60536 16.3196 8.5 16.0652 8.5 15.8Z" fill="#E6EEF9"/>
</svg>
