<svg width="529" height="323" viewBox="0 0 529 323" fill="none" xmlns="http://www.w3.org/2000/svg">
<path d="M488.698 158.56H469.997C459.802 158.56 450.98 153.093 442.263 141.334C434.392 130.71 427.525 116.218 420.287 100.952C402.062 62.3742 381.354 18.6908 335.289 18.6908H327.84V20.4959H335.289C380.192 20.4959 400.583 63.6119 418.597 101.674C425.887 117.043 432.754 131.587 440.731 142.366C445.908 149.38 451.191 154.228 456.738 157.116C435.818 152.423 424.513 136.435 412.627 119.725C404.545 108.327 396.145 96.5163 384.312 87.5424C370.894 77.3823 354.835 72.4311 335.236 72.4311H327.787V74.2362H335.236C378.078 74.2362 394.825 97.8572 411.043 120.705C422.453 136.796 433.388 152.165 452.617 157.941C427.419 156.188 416.484 150.411 405.073 144.377C391.18 137.054 376.863 129.472 335.236 129.472H327.787V131.277H335.236C376.388 131.277 390.546 138.756 404.228 145.976C414.74 151.546 425.57 157.219 448.603 159.385C425.57 161.603 414.74 167.379 404.228 173.052C390.546 180.376 376.441 187.957 335.289 187.957H327.84V189.762H335.289C376.916 189.762 391.285 182.078 405.126 174.6C416.484 168.514 427.313 162.686 452.142 160.829C432.966 166.503 422.083 181.459 410.778 197.034C394.666 219.211 378.026 242.11 335.289 242.11H327.84V243.915H335.289C354.835 243.915 370.841 239.119 384.206 229.268C395.987 220.552 404.281 209.154 412.363 198.066C423.246 183.058 433.705 168.72 451.667 162.892C434.234 172.279 423.668 194.971 412.627 218.644C404.334 236.386 395.776 254.746 383.889 268.671C370.471 284.298 354.623 291.879 335.341 291.879H327.893V293.685H335.341C355.204 293.685 371.528 285.897 385.316 269.806C397.413 255.726 406.024 237.262 414.318 219.366C428.475 188.989 441.894 160.262 469.892 160.159H488.751V158.354V158.56H488.698Z" fill="url(#paint0_linear_893_3937)"/>
<path d="M119.279 117.971C136.078 96.5164 153.405 74.2879 196.671 74.2879H204.119V72.4828H196.671C176.913 72.4828 160.59 77.1245 146.855 86.7173C134.757 95.1754 126.094 106.212 117.747 116.888C105.861 132.103 94.556 146.595 74.5874 150.927C89.2733 143.294 99.733 122.613 111.355 99.4561C130.003 62.4774 151.134 20.5475 196.618 20.5475H204.066V18.7424H196.618C149.972 18.7424 128.577 61.2396 109.665 98.6825C95.4012 126.997 83.0925 151.443 62.8598 152.217H43.1553V154.022H61.856C85.681 154.022 96.2464 179.912 108.502 209.928C116.585 229.784 124.984 250.311 138.244 266.402C153.458 284.865 172.582 293.891 196.618 293.891H204.066V292.086H196.618C144.055 292.086 126.094 248.093 110.246 209.309C104.118 194.301 98.3595 180.118 90.9637 169.649C86.5263 163.305 81.8247 158.766 76.6476 155.93C96.5106 161.294 107.551 177.591 119.121 194.662C127.203 206.627 135.603 218.954 147.436 228.34C160.854 239.016 176.966 244.173 196.565 244.173H204.014V242.368H196.565C153.722 242.368 136.923 217.613 120.653 193.682C109.242 176.869 98.3067 160.778 79.1305 154.795C104.329 156.91 115.211 163.821 126.622 171.093C140.516 179.912 154.884 189.041 196.565 189.041H204.014V187.235H196.565C155.413 187.235 141.308 178.262 127.679 169.597C117.166 162.892 106.336 156.033 83.3567 153.454C106.231 151.752 117.007 147.317 127.52 142.985C141.202 137.363 155.36 131.535 196.565 131.535H204.014V129.73H196.565C154.99 129.73 140.621 135.661 126.78 141.334C115.264 146.079 104.223 150.618 78.4966 151.959C96.8275 146.698 107.763 132.721 119.121 118.126L119.279 117.971Z" fill="url(#paint1_linear_893_3937)"/>
<path d="M484.472 116.218C508.931 116.218 528.741 135.558 528.741 159.437C528.741 183.316 508.931 202.656 484.472 202.656C460.013 202.656 440.203 183.316 440.203 159.437C440.203 135.558 460.013 116.218 484.472 116.218Z" fill="#8094D4"/>
<path d="M498.342 157.406L504.158 136.288L502.365 130H468.051L466.259 136.288L472.074 157.406L479.313 152.884L482.073 158.622L474.811 181.828L485.209 193L495.606 181.828L488.347 158.624L491.103 152.884L498.342 157.406ZM497.039 154.241L491.971 151.075L486.79 147.839L501.033 132.984L501.978 136.296L497.039 154.241ZM495.981 135.319H474.435L471.201 131.946H499.215L495.981 135.319ZM494.116 137.265L485.209 146.555L476.302 137.265H494.116ZM468.437 136.296L469.382 132.982L483.626 147.839L473.378 154.241L468.437 136.296ZM485.209 190.015L477.151 181.357L483.983 159.525H486.435L493.263 181.357L485.209 190.015ZM486.544 157.58H483.877L481.087 151.775L485.209 149.2L489.332 151.775L486.544 157.58Z" fill="white"/>
<path d="M323.878 221.687H217.642C206.03 221.687 196.617 230.877 196.617 242.213V244.586C196.617 255.922 206.03 265.112 217.642 265.112H323.878C335.489 265.112 344.903 255.922 344.903 244.586V242.213C344.903 230.877 335.489 221.687 323.878 221.687Z" fill="#47518C"/>
<path d="M214.948 164.594H326.624C338.933 164.594 348.864 174.29 348.864 186.307C348.864 198.324 338.933 208.02 326.624 208.02H214.948C202.639 208.02 192.708 198.324 192.708 186.307C192.708 174.29 202.639 164.594 214.948 164.594Z" fill="#47518C"/>
<path d="M218.857 53.9677H322.662C334.971 53.9677 344.903 63.6636 344.903 75.6804C344.903 87.6972 334.971 97.3931 322.662 97.3931H218.857C206.549 97.3931 196.617 87.6972 196.617 75.6804C196.617 63.6636 206.549 53.9677 218.857 53.9677Z" fill="#47518C"/>
<path d="M218.857 108.224H322.662C334.971 108.224 344.903 117.92 344.903 129.936C344.903 141.953 334.971 151.649 322.662 151.649H218.857C206.549 151.649 196.617 141.953 196.617 129.936C196.617 117.92 206.549 108.224 218.857 108.224Z" fill="#47518C"/>
<path d="M322.662 279.502H218.857C206.574 279.502 196.617 289.223 196.617 301.214C196.617 313.206 206.574 322.927 218.857 322.927H322.662C334.945 322.927 344.903 313.206 344.903 301.214C344.903 289.223 334.945 279.502 322.662 279.502Z" fill="#47518C"/>
<path d="M218.805 0.0725098H322.769C335.077 0.0725098 345.009 9.76846 345.009 21.7853C345.009 33.8021 335.077 43.498 322.769 43.498H218.805C206.496 43.498 196.565 33.8021 196.565 21.7853C196.565 9.76846 206.496 0.0725098 218.805 0.0725098Z" fill="#47518C"/>
<path d="M44.4756 197.086C68.9247 197.086 88.7447 177.736 88.7447 153.867C88.7447 129.997 68.9247 110.648 44.4756 110.648C20.0265 110.648 0.206543 129.997 0.206543 153.867C0.206543 177.736 20.0265 197.086 44.4756 197.086Z" fill="#E0E0E0"/>
<path d="M26.5059 159L25.5283 156.225H21.707L20.7295 159H19L22.7188 148.965H24.5371L28.249 159H26.5059ZM25.1045 154.816L24.1543 152.082C24.1178 151.964 24.0654 151.797 23.9971 151.583C23.9287 151.364 23.8604 151.143 23.792 150.92C23.7236 150.692 23.6667 150.501 23.6211 150.346C23.5755 150.533 23.5186 150.742 23.4502 150.975C23.3864 151.202 23.3226 151.417 23.2588 151.617C23.1995 151.818 23.154 151.973 23.1221 152.082L22.165 154.816H25.1045ZM31.9473 159.137C31.0449 159.137 30.3203 158.809 29.7734 158.152C29.2311 157.492 28.96 156.519 28.96 155.233C28.96 153.935 29.2357 152.952 29.7871 152.287C30.3431 151.622 31.0745 151.289 31.9814 151.289C32.3643 151.289 32.6992 151.341 32.9863 151.446C33.2734 151.547 33.5195 151.683 33.7246 151.856C33.9342 152.03 34.112 152.223 34.2578 152.438H34.333C34.3102 152.296 34.2829 152.093 34.251 151.829C34.2236 151.56 34.21 151.312 34.21 151.084V148.363H35.8232V159H34.5654L34.2783 157.968H34.21C34.0732 158.187 33.9001 158.385 33.6904 158.562C33.4854 158.736 33.2393 158.875 32.9521 158.979C32.6696 159.084 32.3346 159.137 31.9473 159.137ZM32.3984 157.831C33.0866 157.831 33.5719 157.633 33.8545 157.236C34.137 156.84 34.2829 156.245 34.292 155.452V155.24C34.292 154.393 34.1553 153.743 33.8818 153.292C33.6084 152.836 33.1094 152.608 32.3848 152.608C31.806 152.608 31.3639 152.843 31.0586 153.312C30.7578 153.777 30.6074 154.427 30.6074 155.261C30.6074 156.095 30.7578 156.733 31.0586 157.175C31.3639 157.612 31.8105 157.831 32.3984 157.831ZM46.6787 151.289C47.5264 151.289 48.1644 151.508 48.5928 151.945C49.0257 152.383 49.2422 153.085 49.2422 154.051V159H47.6357V154.338C47.6357 153.764 47.5241 153.331 47.3008 153.039C47.0775 152.747 46.738 152.602 46.2822 152.602C45.6442 152.602 45.1839 152.807 44.9014 153.217C44.6234 153.622 44.4844 154.213 44.4844 154.987V159H42.8779V154.338C42.8779 153.955 42.8278 153.636 42.7275 153.381C42.6318 153.121 42.4837 152.927 42.2832 152.8C42.0827 152.668 41.8298 152.602 41.5244 152.602C41.0824 152.602 40.7292 152.702 40.4648 152.902C40.2051 153.103 40.0182 153.399 39.9043 153.791C39.7904 154.178 39.7334 154.655 39.7334 155.22V159H38.127V151.433H39.3779L39.6035 152.451H39.6924C39.8473 152.187 40.0387 151.97 40.2666 151.802C40.499 151.629 40.7565 151.501 41.0391 151.419C41.3216 151.332 41.6156 151.289 41.9209 151.289C42.486 151.289 42.9622 151.389 43.3496 151.59C43.737 151.786 44.0264 152.087 44.2178 152.492H44.3408C44.5778 152.082 44.9082 151.779 45.332 151.583C45.7559 151.387 46.2048 151.289 46.6787 151.289ZM53.0908 151.433V159H51.4844V151.433H53.0908ZM52.2979 148.534C52.5439 148.534 52.7559 148.6 52.9336 148.732C53.1159 148.865 53.207 149.092 53.207 149.416C53.207 149.735 53.1159 149.963 52.9336 150.1C52.7559 150.232 52.5439 150.298 52.2979 150.298C52.0426 150.298 51.8262 150.232 51.6484 150.1C51.4753 149.963 51.3887 149.735 51.3887 149.416C51.3887 149.092 51.4753 148.865 51.6484 148.732C51.8262 148.6 52.0426 148.534 52.2979 148.534ZM59.3389 151.289C60.1911 151.289 60.8542 151.51 61.3281 151.952C61.8066 152.39 62.0459 153.094 62.0459 154.064V159H60.4395V154.365C60.4395 153.777 60.3187 153.338 60.0771 153.046C59.8356 152.75 59.4619 152.602 58.9561 152.602C58.2223 152.602 57.7119 152.827 57.4248 153.278C57.1423 153.729 57.001 154.383 57.001 155.24V159H55.3945V151.433H56.6455L56.8711 152.458H56.96C57.124 152.194 57.3268 151.977 57.5684 151.809C57.8145 151.635 58.0879 151.506 58.3887 151.419C58.694 151.332 59.0107 151.289 59.3389 151.289Z" fill="black"/>
<path d="M233.082 24.2793C233.082 24.8717 232.936 25.3822 232.645 25.8105C232.357 26.2389 231.943 26.5671 231.4 26.7949C230.863 27.0228 230.22 27.1367 229.473 27.1367C229.108 27.1367 228.759 27.1162 228.427 27.0752C228.094 27.0342 227.78 26.9749 227.483 26.8975C227.192 26.8154 226.925 26.7174 226.684 26.6035V25.0586C227.089 25.2363 227.543 25.3981 228.044 25.5439C228.545 25.6852 229.056 25.7559 229.575 25.7559C229.999 25.7559 230.35 25.7012 230.628 25.5918C230.91 25.4779 231.12 25.3184 231.257 25.1133C231.394 24.9036 231.462 24.6598 231.462 24.3818C231.462 24.0856 231.382 23.835 231.223 23.6299C231.063 23.4248 230.822 23.238 230.498 23.0693C230.179 22.8962 229.778 22.7116 229.295 22.5156C228.967 22.3835 228.652 22.2331 228.352 22.0645C228.055 21.8958 227.791 21.6976 227.559 21.4697C227.326 21.2419 227.142 20.973 227.005 20.6631C226.873 20.3486 226.807 19.9795 226.807 19.5557C226.807 18.9906 226.941 18.5075 227.21 18.1064C227.483 17.7054 227.866 17.3978 228.358 17.1836C228.855 16.9694 229.434 16.8623 230.095 16.8623C230.619 16.8623 231.111 16.917 231.571 17.0264C232.036 17.1357 232.492 17.2907 232.938 17.4912L232.419 18.8105C232.009 18.6419 231.61 18.5075 231.223 18.4072C230.84 18.307 230.448 18.2568 230.047 18.2568C229.701 18.2568 229.407 18.3092 229.165 18.4141C228.924 18.5189 228.739 18.667 228.611 18.8584C228.488 19.0452 228.427 19.2686 228.427 19.5283C228.427 19.82 228.497 20.0661 228.639 20.2666C228.785 20.4626 229.008 20.6426 229.309 20.8066C229.614 20.9707 230.006 21.153 230.484 21.3535C231.036 21.5814 231.503 21.8206 231.886 22.0713C232.273 22.3219 232.569 22.6227 232.774 22.9736C232.979 23.32 233.082 23.7552 233.082 24.2793ZM237.662 25.8379C237.872 25.8379 238.079 25.8197 238.284 25.7832C238.489 25.7422 238.676 25.6943 238.845 25.6396V26.8564C238.667 26.9339 238.437 27 238.154 27.0547C237.872 27.1094 237.578 27.1367 237.272 27.1367C236.844 27.1367 236.459 27.0661 236.117 26.9248C235.775 26.779 235.504 26.5306 235.304 26.1797C235.103 25.8288 235.003 25.3434 235.003 24.7236V20.6562H233.971V19.9385L235.078 19.3711L235.604 17.751H236.616V19.4326H238.783V20.6562H236.616V24.7031C236.616 25.0859 236.712 25.3708 236.903 25.5576C237.095 25.7445 237.348 25.8379 237.662 25.8379ZM243.35 19.2891C244.307 19.2891 245.029 19.501 245.517 19.9248C246.009 20.3486 246.255 21.0094 246.255 21.9072V27H245.113L244.806 25.9268H244.751C244.537 26.2002 244.316 26.4258 244.088 26.6035C243.86 26.7812 243.596 26.9134 243.295 27C242.999 27.0911 242.636 27.1367 242.208 27.1367C241.757 27.1367 241.354 27.0547 240.998 26.8906C240.643 26.722 240.362 26.4668 240.157 26.125C239.952 25.7832 239.85 25.3503 239.85 24.8262C239.85 24.0469 240.139 23.4613 240.718 23.0693C241.301 22.6774 242.181 22.4609 243.356 22.4199L244.669 22.3721V21.9756C244.669 21.4515 244.546 21.0778 244.3 20.8545C244.058 20.6312 243.716 20.5195 243.274 20.5195C242.896 20.5195 242.529 20.5742 242.174 20.6836C241.818 20.793 241.472 20.9274 241.135 21.0869L240.615 19.9521C240.984 19.7562 241.404 19.5967 241.873 19.4736C242.347 19.3506 242.839 19.2891 243.35 19.2891ZM244.662 23.3838L243.685 23.418C242.882 23.4453 242.32 23.582 241.996 23.8281C241.673 24.0742 241.511 24.4115 241.511 24.8398C241.511 25.2135 241.622 25.487 241.846 25.6602C242.069 25.8288 242.363 25.9131 242.728 25.9131C243.284 25.9131 243.744 25.7559 244.108 25.4414C244.478 25.1224 244.662 24.6553 244.662 24.04V23.3838ZM252.284 20.6562H250.445V27H248.839V20.6562H247.602V19.8838L248.839 19.4121V18.8857C248.839 18.2432 248.939 17.7327 249.14 17.3545C249.345 16.9762 249.636 16.7051 250.015 16.541C250.397 16.3724 250.853 16.2881 251.382 16.2881C251.728 16.2881 252.045 16.3177 252.332 16.377C252.619 16.4316 252.861 16.4954 253.057 16.5684L252.64 17.7852C252.485 17.735 252.312 17.6895 252.12 17.6484C251.929 17.6029 251.724 17.5801 251.505 17.5801C251.14 17.5801 250.871 17.694 250.698 17.9219C250.53 18.1497 250.445 18.4824 250.445 18.9199V19.4326H252.284V20.6562ZM257.35 20.6562H255.511V27H253.904V20.6562H252.667V19.8838L253.904 19.4121V18.8857C253.904 18.2432 254.005 17.7327 254.205 17.3545C254.41 16.9762 254.702 16.7051 255.08 16.541C255.463 16.3724 255.919 16.2881 256.447 16.2881C256.794 16.2881 257.11 16.3177 257.397 16.377C257.685 16.4316 257.926 16.4954 258.122 16.5684L257.705 17.7852C257.55 17.735 257.377 17.6895 257.186 17.6484C256.994 17.6029 256.789 17.5801 256.57 17.5801C256.206 17.5801 255.937 17.694 255.764 17.9219C255.595 18.1497 255.511 18.4824 255.511 18.9199V19.4326H257.35V20.6562ZM265.901 27H264.254V18.4004H261.328V17.0059H268.82V18.4004H265.901V27ZM274.022 19.2891C274.15 19.2891 274.289 19.2959 274.439 19.3096C274.59 19.3232 274.72 19.3415 274.829 19.3643L274.679 20.8682C274.583 20.8408 274.465 20.8203 274.323 20.8066C274.187 20.793 274.063 20.7861 273.954 20.7861C273.667 20.7861 273.394 20.834 273.134 20.9297C272.874 21.0208 272.644 21.1621 272.443 21.3535C272.243 21.5404 272.086 21.7751 271.972 22.0576C271.858 22.3402 271.801 22.6683 271.801 23.042V27H270.188V19.4326H271.445L271.664 20.7656H271.739C271.89 20.4967 272.076 20.2507 272.3 20.0273C272.523 19.804 272.778 19.6263 273.065 19.4941C273.357 19.3574 273.676 19.2891 274.022 19.2891ZM279.197 19.2891C280.154 19.2891 280.877 19.501 281.364 19.9248C281.856 20.3486 282.103 21.0094 282.103 21.9072V27H280.961L280.653 25.9268H280.599C280.384 26.2002 280.163 26.4258 279.936 26.6035C279.708 26.7812 279.443 26.9134 279.143 27C278.846 27.0911 278.484 27.1367 278.056 27.1367C277.604 27.1367 277.201 27.0547 276.846 26.8906C276.49 26.722 276.21 26.4668 276.005 26.125C275.8 25.7832 275.697 25.3503 275.697 24.8262C275.697 24.0469 275.987 23.4613 276.565 23.0693C277.149 22.6774 278.028 22.4609 279.204 22.4199L280.517 22.3721V21.9756C280.517 21.4515 280.394 21.0778 280.147 20.8545C279.906 20.6312 279.564 20.5195 279.122 20.5195C278.744 20.5195 278.377 20.5742 278.021 20.6836C277.666 20.793 277.32 20.9274 276.982 21.0869L276.463 19.9521C276.832 19.7562 277.251 19.5967 277.721 19.4736C278.195 19.3506 278.687 19.2891 279.197 19.2891ZM280.51 23.3838L279.532 23.418C278.73 23.4453 278.167 23.582 277.844 23.8281C277.52 24.0742 277.358 24.4115 277.358 24.8398C277.358 25.2135 277.47 25.487 277.693 25.6602C277.917 25.8288 278.211 25.9131 278.575 25.9131C279.131 25.9131 279.591 25.7559 279.956 25.4414C280.325 25.1224 280.51 24.6553 280.51 24.04V23.3838ZM287.4 27.1367C286.685 27.1367 286.065 26.9977 285.541 26.7197C285.017 26.4417 284.614 26.0156 284.331 25.4414C284.049 24.8672 283.907 24.138 283.907 23.2539C283.907 22.3333 284.062 21.5814 284.372 20.998C284.682 20.4147 285.11 19.984 285.657 19.7061C286.209 19.4281 286.84 19.2891 287.551 19.2891C288.002 19.2891 288.41 19.3346 288.774 19.4258C289.144 19.5124 289.456 19.6195 289.711 19.7471L289.232 21.0322C288.954 20.9183 288.67 20.8226 288.378 20.7451C288.086 20.6676 287.806 20.6289 287.537 20.6289C287.095 20.6289 286.726 20.7269 286.43 20.9229C286.138 21.1188 285.919 21.4105 285.773 21.7979C285.632 22.1852 285.562 22.666 285.562 23.2402C285.562 23.7962 285.634 24.2656 285.78 24.6484C285.926 25.0267 286.143 25.3138 286.43 25.5098C286.717 25.7012 287.07 25.7969 287.489 25.7969C287.904 25.7969 288.275 25.7467 288.604 25.6465C288.932 25.5462 289.242 25.4163 289.533 25.2568V26.6514C289.246 26.8154 288.938 26.9362 288.61 27.0137C288.282 27.0957 287.879 27.1367 287.4 27.1367ZM292.917 16.3633V21.5039C292.917 21.7363 292.908 21.9915 292.89 22.2695C292.871 22.543 292.853 22.8005 292.835 23.042H292.869C292.988 22.8825 293.129 22.6956 293.293 22.4814C293.462 22.2673 293.621 22.0804 293.771 21.9209L296.082 19.4326H297.928L294.899 22.6865L298.126 27H296.239L293.819 23.6777L292.917 24.4502V27H291.311V16.3633H292.917ZM300.942 19.4326V27H299.336V19.4326H300.942ZM300.149 16.5342C300.396 16.5342 300.607 16.6003 300.785 16.7324C300.967 16.8646 301.059 17.0924 301.059 17.416C301.059 17.735 300.967 17.9629 300.785 18.0996C300.607 18.2318 300.396 18.2979 300.149 18.2979C299.894 18.2979 299.678 18.2318 299.5 18.0996C299.327 17.9629 299.24 17.735 299.24 17.416C299.24 17.0924 299.327 16.8646 299.5 16.7324C299.678 16.6003 299.894 16.5342 300.149 16.5342ZM307.19 19.2891C308.043 19.2891 308.706 19.5101 309.18 19.9521C309.658 20.3896 309.897 21.0938 309.897 22.0645V27H308.291V22.3652C308.291 21.7773 308.17 21.3376 307.929 21.0459C307.687 20.7497 307.313 20.6016 306.808 20.6016C306.074 20.6016 305.563 20.8271 305.276 21.2783C304.994 21.7295 304.853 22.3835 304.853 23.2402V27H303.246V19.4326H304.497L304.723 20.458H304.812C304.976 20.1937 305.178 19.9772 305.42 19.8086C305.666 19.6354 305.939 19.5055 306.24 19.4189C306.546 19.3324 306.862 19.2891 307.19 19.2891ZM314.307 30.3633C313.281 30.3633 312.495 30.1787 311.948 29.8096C311.401 29.4404 311.128 28.9232 311.128 28.2578C311.128 27.793 311.274 27.3988 311.565 27.0752C311.857 26.7562 312.274 26.5352 312.816 26.4121C312.611 26.321 312.434 26.1797 312.283 25.9883C312.137 25.7923 312.064 25.5758 312.064 25.3389C312.064 25.0563 312.144 24.8148 312.304 24.6143C312.463 24.4137 312.702 24.2201 313.021 24.0332C312.625 23.8646 312.306 23.5911 312.064 23.2129C311.827 22.8301 311.709 22.3812 311.709 21.8662C311.709 21.3193 311.825 20.8545 312.058 20.4717C312.29 20.0843 312.63 19.7904 313.076 19.5898C313.523 19.3848 314.063 19.2822 314.696 19.2822C314.833 19.2822 314.981 19.2913 315.141 19.3096C315.305 19.3232 315.455 19.3415 315.592 19.3643C315.733 19.3825 315.84 19.403 315.913 19.4258H318.531V20.3213L317.246 20.5605C317.369 20.7337 317.467 20.932 317.54 21.1553C317.613 21.374 317.649 21.6133 317.649 21.873C317.649 22.6569 317.378 23.2744 316.836 23.7256C316.298 24.1722 315.555 24.3955 314.607 24.3955C314.38 24.3864 314.159 24.3682 313.944 24.3408C313.78 24.4411 313.655 24.5527 313.568 24.6758C313.482 24.7943 313.438 24.9287 313.438 25.0791C313.438 25.2021 313.482 25.3024 313.568 25.3799C313.655 25.4528 313.783 25.5075 313.951 25.5439C314.124 25.5804 314.334 25.5986 314.58 25.5986H315.886C316.715 25.5986 317.349 25.7741 317.786 26.125C318.224 26.4759 318.442 26.9909 318.442 27.6699C318.442 28.5312 318.087 29.1943 317.376 29.6592C316.665 30.1286 315.642 30.3633 314.307 30.3633ZM314.368 29.2354C314.929 29.2354 315.4 29.1807 315.783 29.0713C316.166 28.9619 316.455 28.8047 316.651 28.5996C316.847 28.3991 316.945 28.1598 316.945 27.8818C316.945 27.6357 316.884 27.4466 316.761 27.3145C316.638 27.1823 316.453 27.0911 316.207 27.041C315.961 26.9909 315.656 26.9658 315.291 26.9658H314.102C313.805 26.9658 313.543 27.0114 313.315 27.1025C313.088 27.1982 312.91 27.335 312.782 27.5127C312.659 27.6904 312.598 27.9046 312.598 28.1553C312.598 28.5016 312.75 28.7682 313.056 28.9551C313.366 29.1419 313.803 29.2354 314.368 29.2354ZM314.683 23.3428C315.152 23.3428 315.501 23.2152 315.729 22.96C315.956 22.7002 316.07 22.3356 316.07 21.8662C316.07 21.3558 315.952 20.973 315.715 20.7178C315.482 20.4626 315.136 20.335 314.676 20.335C314.225 20.335 313.881 20.4648 313.644 20.7246C313.411 20.9844 313.295 21.3695 313.295 21.8799C313.295 22.3402 313.411 22.7002 313.644 22.96C313.881 23.2152 314.227 23.3428 314.683 23.3428Z" fill="white"/>
<path d="M253.218 71.0059C254.507 71.0059 255.449 71.2702 256.041 71.7988C256.633 72.3275 256.93 73.068 256.93 74.0205C256.93 74.4535 256.861 74.8659 256.725 75.2578C256.592 75.6452 256.374 75.9893 256.068 76.29C255.763 76.5863 255.36 76.821 254.858 76.9941C254.362 77.1673 253.749 77.2539 253.02 77.2539H251.953V81H250.312V71.0059H253.218ZM253.108 72.3662H251.953V75.8867H252.849C253.364 75.8867 253.801 75.8275 254.161 75.709C254.521 75.5859 254.795 75.3923 254.981 75.1279C255.168 74.8636 255.262 74.515 255.262 74.082C255.262 73.5033 255.086 73.0726 254.735 72.79C254.389 72.5075 253.847 72.3662 253.108 72.3662ZM261.729 73.2891C262.686 73.2891 263.408 73.501 263.896 73.9248C264.388 74.3486 264.634 75.0094 264.634 75.9072V81H263.492L263.185 79.9268H263.13C262.916 80.2002 262.695 80.4258 262.467 80.6035C262.239 80.7812 261.975 80.9134 261.674 81C261.378 81.0911 261.015 81.1367 260.587 81.1367C260.136 81.1367 259.732 81.0547 259.377 80.8906C259.021 80.722 258.741 80.4668 258.536 80.125C258.331 79.7832 258.229 79.3503 258.229 78.8262C258.229 78.0469 258.518 77.4613 259.097 77.0693C259.68 76.6774 260.56 76.4609 261.735 76.4199L263.048 76.3721V75.9756C263.048 75.4515 262.925 75.0778 262.679 74.8545C262.437 74.6312 262.095 74.5195 261.653 74.5195C261.275 74.5195 260.908 74.5742 260.553 74.6836C260.197 74.793 259.851 74.9274 259.514 75.0869L258.994 73.9521C259.363 73.7562 259.783 73.5967 260.252 73.4736C260.726 73.3506 261.218 73.2891 261.729 73.2891ZM263.041 77.3838L262.063 77.418C261.261 77.4453 260.699 77.582 260.375 77.8281C260.051 78.0742 259.89 78.4115 259.89 78.8398C259.89 79.2135 260.001 79.487 260.225 79.6602C260.448 79.8288 260.742 79.9131 261.106 79.9131C261.662 79.9131 262.123 79.7559 262.487 79.4414C262.856 79.1224 263.041 78.6553 263.041 78.04V77.3838ZM265.741 73.4326H267.491L269.043 77.7529C269.111 77.9489 269.173 78.1426 269.228 78.334C269.287 78.5208 269.337 78.7054 269.378 78.8877C269.424 79.07 269.46 79.2523 269.487 79.4346H269.528C269.574 79.1976 269.638 78.9333 269.72 78.6416C269.806 78.3454 269.902 78.0492 270.007 77.7529L271.497 73.4326H273.227L269.979 82.0391C269.793 82.5312 269.562 82.9505 269.289 83.2969C269.02 83.6478 268.701 83.9121 268.332 84.0898C267.963 84.2721 267.541 84.3633 267.067 84.3633C266.84 84.3633 266.641 84.3496 266.473 84.3223C266.304 84.2995 266.16 84.2744 266.042 84.2471V82.9619C266.138 82.9847 266.258 83.0052 266.404 83.0234C266.55 83.0417 266.701 83.0508 266.855 83.0508C267.143 83.0508 267.391 82.9938 267.601 82.8799C267.81 82.766 267.988 82.6042 268.134 82.3945C268.28 82.1895 268.4 81.9548 268.496 81.6904L268.763 80.9795L265.741 73.4326ZM278.21 73.2891C278.338 73.2891 278.477 73.2959 278.627 73.3096C278.777 73.3232 278.907 73.3415 279.017 73.3643L278.866 74.8682C278.771 74.8408 278.652 74.8203 278.511 74.8066C278.374 74.793 278.251 74.7861 278.142 74.7861C277.854 74.7861 277.581 74.834 277.321 74.9297C277.062 75.0208 276.831 75.1621 276.631 75.3535C276.43 75.5404 276.273 75.7751 276.159 76.0576C276.045 76.3402 275.988 76.6683 275.988 77.042V81H274.375V73.4326H275.633L275.852 74.7656H275.927C276.077 74.4967 276.264 74.2507 276.487 74.0273C276.711 73.804 276.966 73.6263 277.253 73.4941C277.545 73.3574 277.864 73.2891 278.21 73.2891ZM287.117 77.1992C287.117 77.8281 287.035 78.3864 286.871 78.874C286.707 79.3617 286.468 79.7741 286.153 80.1113C285.839 80.444 285.461 80.6992 285.019 80.877C284.576 81.0501 284.077 81.1367 283.521 81.1367C283.002 81.1367 282.526 81.0501 282.093 80.877C281.66 80.6992 281.284 80.444 280.965 80.1113C280.65 79.7741 280.407 79.3617 280.233 78.874C280.06 78.3864 279.974 77.8281 279.974 77.1992C279.974 76.3652 280.117 75.6589 280.404 75.0801C280.696 74.4967 281.111 74.0524 281.648 73.7471C282.186 73.4417 282.826 73.2891 283.569 73.2891C284.267 73.2891 284.882 73.4417 285.415 73.7471C285.948 74.0524 286.365 74.4967 286.666 75.0801C286.967 75.6634 287.117 76.3698 287.117 77.1992ZM281.628 77.1992C281.628 77.7507 281.694 78.2223 281.826 78.6143C281.963 79.0062 282.173 79.307 282.455 79.5166C282.738 79.7217 283.102 79.8242 283.549 79.8242C283.995 79.8242 284.36 79.7217 284.643 79.5166C284.925 79.307 285.132 79.0062 285.265 78.6143C285.397 78.2223 285.463 77.7507 285.463 77.1992C285.463 76.6478 285.397 76.1807 285.265 75.7979C285.132 75.4105 284.925 75.1165 284.643 74.916C284.36 74.7109 283.993 74.6084 283.542 74.6084C282.877 74.6084 282.391 74.8317 282.086 75.2783C281.781 75.7249 281.628 76.3652 281.628 77.1992ZM290.576 81H288.963V70.3633H290.576V81ZM294.486 81H292.873V70.3633H294.486V81Z" fill="white"/>
<path d="M221.973 135H216.312V125.006H221.973V126.387H217.953V129.101H221.72V130.475H217.953V133.612H221.973V135ZM225.644 131.131L223.114 127.433H224.946L226.676 130.092L228.412 127.433H230.237L227.694 131.131L230.367 135H228.528L226.676 132.163L224.816 135H222.991L225.644 131.131ZM235.562 127.289C236.46 127.289 237.18 127.617 237.723 128.273C238.27 128.93 238.543 129.905 238.543 131.199C238.543 132.056 238.415 132.778 238.16 133.366C237.91 133.95 237.556 134.392 237.101 134.692C236.649 134.989 236.123 135.137 235.521 135.137C235.139 135.137 234.806 135.087 234.523 134.986C234.241 134.886 233.999 134.756 233.799 134.597C233.598 134.433 233.43 134.255 233.293 134.063H233.197C233.22 134.246 233.241 134.449 233.259 134.672C233.282 134.891 233.293 135.091 233.293 135.273V138.356H231.68V127.433H232.992L233.218 128.479H233.293C233.434 128.264 233.605 128.066 233.806 127.884C234.011 127.701 234.257 127.558 234.544 127.453C234.836 127.344 235.175 127.289 235.562 127.289ZM235.132 128.602C234.69 128.602 234.334 128.69 234.065 128.868C233.801 129.041 233.607 129.303 233.484 129.654C233.366 130.005 233.302 130.445 233.293 130.974V131.199C233.293 131.76 233.35 132.236 233.464 132.628C233.582 133.015 233.776 133.312 234.045 133.517C234.318 133.717 234.688 133.817 235.152 133.817C235.544 133.817 235.868 133.71 236.123 133.496C236.383 133.282 236.576 132.977 236.704 132.58C236.832 132.184 236.896 131.716 236.896 131.179C236.896 130.363 236.75 129.729 236.458 129.278C236.171 128.827 235.729 128.602 235.132 128.602ZM243.417 127.289C244.091 127.289 244.67 127.428 245.153 127.706C245.636 127.984 246.008 128.378 246.268 128.889C246.527 129.399 246.657 130.01 246.657 130.721V131.582H241.605C241.624 132.316 241.82 132.881 242.193 133.277C242.572 133.674 243.1 133.872 243.779 133.872C244.262 133.872 244.695 133.826 245.078 133.735C245.465 133.64 245.864 133.501 246.274 133.318V134.624C245.896 134.802 245.511 134.932 245.119 135.014C244.727 135.096 244.258 135.137 243.711 135.137C242.968 135.137 242.314 134.993 241.749 134.706C241.188 134.414 240.749 133.981 240.43 133.407C240.115 132.833 239.958 132.12 239.958 131.268C239.958 130.42 240.102 129.7 240.389 129.107C240.676 128.515 241.079 128.064 241.599 127.754C242.118 127.444 242.724 127.289 243.417 127.289ZM243.417 128.499C242.911 128.499 242.501 128.663 242.187 128.991C241.877 129.319 241.694 129.8 241.64 130.434H245.085C245.08 130.055 245.017 129.72 244.894 129.429C244.775 129.137 244.593 128.909 244.347 128.745C244.105 128.581 243.795 128.499 243.417 128.499ZM252.413 127.289C253.265 127.289 253.928 127.51 254.402 127.952C254.881 128.39 255.12 129.094 255.12 130.064V135H253.514V130.365C253.514 129.777 253.393 129.338 253.151 129.046C252.91 128.75 252.536 128.602 252.03 128.602C251.297 128.602 250.786 128.827 250.499 129.278C250.216 129.729 250.075 130.383 250.075 131.24V135H248.469V127.433H249.72L249.945 128.458H250.034C250.198 128.194 250.401 127.977 250.643 127.809C250.889 127.635 251.162 127.506 251.463 127.419C251.768 127.332 252.085 127.289 252.413 127.289ZM262.455 132.84C262.455 133.337 262.334 133.756 262.093 134.098C261.851 134.439 261.498 134.699 261.033 134.877C260.573 135.05 260.008 135.137 259.338 135.137C258.809 135.137 258.354 135.098 257.971 135.021C257.592 134.948 257.235 134.834 256.897 134.679V133.291C257.257 133.46 257.661 133.605 258.107 133.729C258.559 133.852 258.985 133.913 259.386 133.913C259.914 133.913 260.295 133.831 260.527 133.667C260.76 133.498 260.876 133.275 260.876 132.997C260.876 132.833 260.828 132.687 260.732 132.56C260.641 132.427 260.468 132.293 260.213 132.156C259.962 132.015 259.593 131.846 259.105 131.65C258.627 131.459 258.224 131.268 257.896 131.076C257.567 130.885 257.319 130.655 257.15 130.386C256.982 130.112 256.897 129.764 256.897 129.34C256.897 128.67 257.162 128.162 257.69 127.815C258.224 127.465 258.928 127.289 259.803 127.289C260.268 127.289 260.705 127.337 261.115 127.433C261.53 127.524 261.936 127.658 262.332 127.836L261.826 129.046C261.484 128.896 261.14 128.772 260.794 128.677C260.452 128.576 260.104 128.526 259.748 128.526C259.333 128.526 259.017 128.59 258.798 128.718C258.584 128.845 258.477 129.028 258.477 129.265C258.477 129.442 258.529 129.593 258.634 129.716C258.739 129.839 258.919 129.962 259.174 130.085C259.434 130.208 259.794 130.361 260.254 130.543C260.705 130.716 261.095 130.898 261.423 131.09C261.756 131.277 262.011 131.507 262.188 131.78C262.366 132.054 262.455 132.407 262.455 132.84ZM267.206 127.289C267.881 127.289 268.459 127.428 268.942 127.706C269.425 127.984 269.797 128.378 270.057 128.889C270.316 129.399 270.446 130.01 270.446 130.721V131.582H265.395C265.413 132.316 265.609 132.881 265.982 133.277C266.361 133.674 266.889 133.872 267.568 133.872C268.051 133.872 268.484 133.826 268.867 133.735C269.255 133.64 269.653 133.501 270.063 133.318V134.624C269.685 134.802 269.3 134.932 268.908 135.014C268.516 135.096 268.047 135.137 267.5 135.137C266.757 135.137 266.103 134.993 265.538 134.706C264.978 134.414 264.538 133.981 264.219 133.407C263.904 132.833 263.747 132.12 263.747 131.268C263.747 130.42 263.891 129.7 264.178 129.107C264.465 128.515 264.868 128.064 265.388 127.754C265.907 127.444 266.513 127.289 267.206 127.289ZM267.206 128.499C266.7 128.499 266.29 128.663 265.976 128.991C265.666 129.319 265.483 129.8 265.429 130.434H268.874C268.869 130.055 268.806 129.72 268.683 129.429C268.564 129.137 268.382 128.909 268.136 128.745C267.894 128.581 267.584 128.499 267.206 128.499ZM283.161 135H281.514V126.4H278.588V125.006H286.08V126.4H283.161V135ZM291.282 127.289C291.41 127.289 291.549 127.296 291.699 127.31C291.85 127.323 291.979 127.341 292.089 127.364L291.938 128.868C291.843 128.841 291.724 128.82 291.583 128.807C291.446 128.793 291.323 128.786 291.214 128.786C290.927 128.786 290.653 128.834 290.394 128.93C290.134 129.021 289.904 129.162 289.703 129.354C289.503 129.54 289.345 129.775 289.231 130.058C289.118 130.34 289.061 130.668 289.061 131.042V135H287.447V127.433H288.705L288.924 128.766H288.999C289.149 128.497 289.336 128.251 289.56 128.027C289.783 127.804 290.038 127.626 290.325 127.494C290.617 127.357 290.936 127.289 291.282 127.289ZM296.457 127.289C297.414 127.289 298.136 127.501 298.624 127.925C299.116 128.349 299.362 129.009 299.362 129.907V135H298.221L297.913 133.927H297.858C297.644 134.2 297.423 134.426 297.195 134.604C296.967 134.781 296.703 134.913 296.402 135C296.106 135.091 295.744 135.137 295.315 135.137C294.864 135.137 294.461 135.055 294.105 134.891C293.75 134.722 293.47 134.467 293.265 134.125C293.06 133.783 292.957 133.35 292.957 132.826C292.957 132.047 293.246 131.461 293.825 131.069C294.409 130.677 295.288 130.461 296.464 130.42L297.776 130.372V129.976C297.776 129.451 297.653 129.078 297.407 128.854C297.166 128.631 296.824 128.52 296.382 128.52C296.004 128.52 295.637 128.574 295.281 128.684C294.926 128.793 294.579 128.927 294.242 129.087L293.723 127.952C294.092 127.756 294.511 127.597 294.98 127.474C295.454 127.351 295.947 127.289 296.457 127.289ZM297.77 131.384L296.792 131.418C295.99 131.445 295.427 131.582 295.104 131.828C294.78 132.074 294.618 132.411 294.618 132.84C294.618 133.214 294.73 133.487 294.953 133.66C295.176 133.829 295.47 133.913 295.835 133.913C296.391 133.913 296.851 133.756 297.216 133.441C297.585 133.122 297.77 132.655 297.77 132.04V131.384ZM304.66 135.137C303.945 135.137 303.325 134.998 302.801 134.72C302.277 134.442 301.873 134.016 301.591 133.441C301.308 132.867 301.167 132.138 301.167 131.254C301.167 130.333 301.322 129.581 301.632 128.998C301.942 128.415 302.37 127.984 302.917 127.706C303.468 127.428 304.1 127.289 304.811 127.289C305.262 127.289 305.67 127.335 306.034 127.426C306.403 127.512 306.715 127.619 306.971 127.747L306.492 129.032C306.214 128.918 305.929 128.823 305.638 128.745C305.346 128.668 305.066 128.629 304.797 128.629C304.355 128.629 303.986 128.727 303.689 128.923C303.398 129.119 303.179 129.41 303.033 129.798C302.892 130.185 302.821 130.666 302.821 131.24C302.821 131.796 302.894 132.266 303.04 132.648C303.186 133.027 303.402 133.314 303.689 133.51C303.977 133.701 304.33 133.797 304.749 133.797C305.164 133.797 305.535 133.747 305.863 133.646C306.191 133.546 306.501 133.416 306.793 133.257V134.651C306.506 134.815 306.198 134.936 305.87 135.014C305.542 135.096 305.139 135.137 304.66 135.137ZM310.177 124.363V129.504C310.177 129.736 310.168 129.992 310.149 130.27C310.131 130.543 310.113 130.8 310.095 131.042H310.129C310.247 130.882 310.389 130.696 310.553 130.481C310.721 130.267 310.881 130.08 311.031 129.921L313.342 127.433H315.188L312.159 130.687L315.386 135H313.499L311.079 131.678L310.177 132.45V135H308.57V124.363H310.177ZM319.61 127.289C320.285 127.289 320.864 127.428 321.347 127.706C321.83 127.984 322.201 128.378 322.461 128.889C322.721 129.399 322.851 130.01 322.851 130.721V131.582H317.799C317.817 132.316 318.013 132.881 318.387 133.277C318.765 133.674 319.294 133.872 319.973 133.872C320.456 133.872 320.889 133.826 321.271 133.735C321.659 133.64 322.058 133.501 322.468 133.318V134.624C322.09 134.802 321.704 134.932 321.312 135.014C320.921 135.096 320.451 135.137 319.904 135.137C319.161 135.137 318.507 134.993 317.942 134.706C317.382 134.414 316.942 133.981 316.623 133.407C316.309 132.833 316.151 132.12 316.151 131.268C316.151 130.42 316.295 129.7 316.582 129.107C316.869 128.515 317.272 128.064 317.792 127.754C318.312 127.444 318.918 127.289 319.61 127.289ZM319.61 128.499C319.104 128.499 318.694 128.663 318.38 128.991C318.07 129.319 317.888 129.8 317.833 130.434H321.278C321.274 130.055 321.21 129.72 321.087 129.429C320.968 129.137 320.786 128.909 320.54 128.745C320.299 128.581 319.989 128.499 319.61 128.499ZM328.497 127.289C328.625 127.289 328.764 127.296 328.914 127.31C329.064 127.323 329.194 127.341 329.304 127.364L329.153 128.868C329.058 128.841 328.939 128.82 328.798 128.807C328.661 128.793 328.538 128.786 328.429 128.786C328.142 128.786 327.868 128.834 327.608 128.93C327.349 129.021 327.118 129.162 326.918 129.354C326.717 129.54 326.56 129.775 326.446 130.058C326.332 130.34 326.275 130.668 326.275 131.042V135H324.662V127.433H325.92L326.139 128.766H326.214C326.364 128.497 326.551 128.251 326.774 128.027C326.998 127.804 327.253 127.626 327.54 127.494C327.832 127.357 328.151 127.289 328.497 127.289Z" fill="white"/>
<path d="M218.082 188.279C218.082 188.872 217.936 189.382 217.645 189.811C217.357 190.239 216.943 190.567 216.4 190.795C215.863 191.023 215.22 191.137 214.473 191.137C214.108 191.137 213.759 191.116 213.427 191.075C213.094 191.034 212.78 190.975 212.483 190.897C212.192 190.815 211.925 190.717 211.684 190.604V189.059C212.089 189.236 212.543 189.398 213.044 189.544C213.545 189.685 214.056 189.756 214.575 189.756C214.999 189.756 215.35 189.701 215.628 189.592C215.91 189.478 216.12 189.318 216.257 189.113C216.394 188.904 216.462 188.66 216.462 188.382C216.462 188.086 216.382 187.835 216.223 187.63C216.063 187.425 215.822 187.238 215.498 187.069C215.179 186.896 214.778 186.712 214.295 186.516C213.967 186.383 213.652 186.233 213.352 186.064C213.055 185.896 212.791 185.698 212.559 185.47C212.326 185.242 212.142 184.973 212.005 184.663C211.873 184.349 211.807 183.979 211.807 183.556C211.807 182.991 211.941 182.507 212.21 182.106C212.483 181.705 212.866 181.398 213.358 181.184C213.855 180.969 214.434 180.862 215.095 180.862C215.619 180.862 216.111 180.917 216.571 181.026C217.036 181.136 217.492 181.291 217.938 181.491L217.419 182.811C217.009 182.642 216.61 182.507 216.223 182.407C215.84 182.307 215.448 182.257 215.047 182.257C214.701 182.257 214.407 182.309 214.165 182.414C213.924 182.519 213.739 182.667 213.611 182.858C213.488 183.045 213.427 183.269 213.427 183.528C213.427 183.82 213.497 184.066 213.639 184.267C213.785 184.463 214.008 184.643 214.309 184.807C214.614 184.971 215.006 185.153 215.484 185.354C216.036 185.581 216.503 185.821 216.886 186.071C217.273 186.322 217.569 186.623 217.774 186.974C217.979 187.32 218.082 187.755 218.082 188.279ZM222.662 189.838C222.872 189.838 223.079 189.82 223.284 189.783C223.489 189.742 223.676 189.694 223.845 189.64V190.856C223.667 190.934 223.437 191 223.154 191.055C222.872 191.109 222.578 191.137 222.272 191.137C221.844 191.137 221.459 191.066 221.117 190.925C220.775 190.779 220.504 190.531 220.304 190.18C220.103 189.829 220.003 189.343 220.003 188.724V184.656H218.971V183.938L220.078 183.371L220.604 181.751H221.616V183.433H223.783V184.656H221.616V188.703C221.616 189.086 221.712 189.371 221.903 189.558C222.095 189.744 222.348 189.838 222.662 189.838ZM228.35 183.289C229.307 183.289 230.029 183.501 230.517 183.925C231.009 184.349 231.255 185.009 231.255 185.907V191H230.113L229.806 189.927H229.751C229.537 190.2 229.316 190.426 229.088 190.604C228.86 190.781 228.596 190.913 228.295 191C227.999 191.091 227.636 191.137 227.208 191.137C226.757 191.137 226.354 191.055 225.998 190.891C225.643 190.722 225.362 190.467 225.157 190.125C224.952 189.783 224.85 189.35 224.85 188.826C224.85 188.047 225.139 187.461 225.718 187.069C226.301 186.677 227.181 186.461 228.356 186.42L229.669 186.372V185.976C229.669 185.451 229.546 185.078 229.3 184.854C229.058 184.631 228.716 184.52 228.274 184.52C227.896 184.52 227.529 184.574 227.174 184.684C226.818 184.793 226.472 184.927 226.135 185.087L225.615 183.952C225.984 183.756 226.404 183.597 226.873 183.474C227.347 183.351 227.839 183.289 228.35 183.289ZM229.662 187.384L228.685 187.418C227.882 187.445 227.32 187.582 226.996 187.828C226.673 188.074 226.511 188.411 226.511 188.84C226.511 189.214 226.622 189.487 226.846 189.66C227.069 189.829 227.363 189.913 227.728 189.913C228.284 189.913 228.744 189.756 229.108 189.441C229.478 189.122 229.662 188.655 229.662 188.04V187.384ZM237.284 184.656H235.445V191H233.839V184.656H232.602V183.884L233.839 183.412V182.886C233.839 182.243 233.939 181.733 234.14 181.354C234.345 180.976 234.636 180.705 235.015 180.541C235.397 180.372 235.853 180.288 236.382 180.288C236.728 180.288 237.045 180.318 237.332 180.377C237.619 180.432 237.861 180.495 238.057 180.568L237.64 181.785C237.485 181.735 237.312 181.689 237.12 181.648C236.929 181.603 236.724 181.58 236.505 181.58C236.14 181.58 235.871 181.694 235.698 181.922C235.53 182.15 235.445 182.482 235.445 182.92V183.433H237.284V184.656ZM242.35 184.656H240.511V191H238.904V184.656H237.667V183.884L238.904 183.412V182.886C238.904 182.243 239.005 181.733 239.205 181.354C239.41 180.976 239.702 180.705 240.08 180.541C240.463 180.372 240.919 180.288 241.447 180.288C241.794 180.288 242.11 180.318 242.397 180.377C242.685 180.432 242.926 180.495 243.122 180.568L242.705 181.785C242.55 181.735 242.377 181.689 242.186 181.648C241.994 181.603 241.789 181.58 241.57 181.58C241.206 181.58 240.937 181.694 240.764 181.922C240.595 182.15 240.511 182.482 240.511 182.92V183.433H242.35V184.656ZM250.341 181.006C251.631 181.006 252.572 181.27 253.164 181.799C253.757 182.327 254.053 183.068 254.053 184.021C254.053 184.453 253.984 184.866 253.848 185.258C253.715 185.645 253.497 185.989 253.191 186.29C252.886 186.586 252.483 186.821 251.981 186.994C251.485 187.167 250.872 187.254 250.143 187.254H249.076V191H247.436V181.006H250.341ZM250.231 182.366H249.076V185.887H249.972C250.487 185.887 250.924 185.827 251.284 185.709C251.644 185.586 251.918 185.392 252.104 185.128C252.291 184.864 252.385 184.515 252.385 184.082C252.385 183.503 252.209 183.073 251.858 182.79C251.512 182.507 250.97 182.366 250.231 182.366ZM258.899 183.289C259.574 183.289 260.153 183.428 260.636 183.706C261.119 183.984 261.49 184.378 261.75 184.889C262.01 185.399 262.14 186.01 262.14 186.721V187.582H257.088C257.106 188.316 257.302 188.881 257.676 189.277C258.054 189.674 258.583 189.872 259.262 189.872C259.745 189.872 260.178 189.826 260.561 189.735C260.948 189.64 261.347 189.501 261.757 189.318V190.624C261.379 190.802 260.993 190.932 260.602 191.014C260.21 191.096 259.74 191.137 259.193 191.137C258.451 191.137 257.797 190.993 257.231 190.706C256.671 190.414 256.231 189.981 255.912 189.407C255.598 188.833 255.44 188.12 255.44 187.268C255.44 186.42 255.584 185.7 255.871 185.107C256.158 184.515 256.562 184.064 257.081 183.754C257.601 183.444 258.207 183.289 258.899 183.289ZM258.899 184.499C258.394 184.499 257.983 184.663 257.669 184.991C257.359 185.319 257.177 185.8 257.122 186.434H260.567C260.563 186.055 260.499 185.72 260.376 185.429C260.257 185.137 260.075 184.909 259.829 184.745C259.588 184.581 259.278 184.499 258.899 184.499ZM267.786 183.289C267.914 183.289 268.053 183.296 268.203 183.31C268.354 183.323 268.483 183.341 268.593 183.364L268.442 184.868C268.347 184.841 268.228 184.82 268.087 184.807C267.95 184.793 267.827 184.786 267.718 184.786C267.431 184.786 267.157 184.834 266.897 184.93C266.638 185.021 266.408 185.162 266.207 185.354C266.007 185.54 265.849 185.775 265.735 186.058C265.621 186.34 265.564 186.668 265.564 187.042V191H263.951V183.433H265.209L265.428 184.766H265.503C265.653 184.497 265.84 184.251 266.063 184.027C266.287 183.804 266.542 183.626 266.829 183.494C267.121 183.357 267.44 183.289 267.786 183.289ZM273.774 184.656H271.936V191H270.329V184.656H269.092V183.884L270.329 183.412V182.886C270.329 182.243 270.429 181.733 270.63 181.354C270.835 180.976 271.127 180.705 271.505 180.541C271.888 180.372 272.343 180.288 272.872 180.288C273.218 180.288 273.535 180.318 273.822 180.377C274.109 180.432 274.351 180.495 274.547 180.568L274.13 181.785C273.975 181.735 273.802 181.689 273.61 181.648C273.419 181.603 273.214 181.58 272.995 181.58C272.631 181.58 272.362 181.694 272.188 181.922C272.02 182.15 271.936 182.482 271.936 182.92V183.433H273.774V184.656ZM281.766 187.199C281.766 187.828 281.684 188.386 281.52 188.874C281.355 189.362 281.116 189.774 280.802 190.111C280.487 190.444 280.109 190.699 279.667 190.877C279.225 191.05 278.726 191.137 278.17 191.137C277.65 191.137 277.174 191.05 276.741 190.877C276.308 190.699 275.932 190.444 275.613 190.111C275.299 189.774 275.055 189.362 274.882 188.874C274.709 188.386 274.622 187.828 274.622 187.199C274.622 186.365 274.766 185.659 275.053 185.08C275.344 184.497 275.759 184.052 276.297 183.747C276.835 183.442 277.475 183.289 278.218 183.289C278.915 183.289 279.53 183.442 280.063 183.747C280.597 184.052 281.014 184.497 281.314 185.08C281.615 185.663 281.766 186.37 281.766 187.199ZM276.276 187.199C276.276 187.751 276.342 188.222 276.475 188.614C276.611 189.006 276.821 189.307 277.104 189.517C277.386 189.722 277.751 189.824 278.197 189.824C278.644 189.824 279.008 189.722 279.291 189.517C279.574 189.307 279.781 189.006 279.913 188.614C280.045 188.222 280.111 187.751 280.111 187.199C280.111 186.648 280.045 186.181 279.913 185.798C279.781 185.41 279.574 185.117 279.291 184.916C279.008 184.711 278.642 184.608 278.19 184.608C277.525 184.608 277.04 184.832 276.734 185.278C276.429 185.725 276.276 186.365 276.276 187.199ZM287.446 183.289C287.574 183.289 287.713 183.296 287.863 183.31C288.014 183.323 288.144 183.341 288.253 183.364L288.103 184.868C288.007 184.841 287.888 184.82 287.747 184.807C287.61 184.793 287.487 184.786 287.378 184.786C287.091 184.786 286.817 184.834 286.558 184.93C286.298 185.021 286.068 185.162 285.867 185.354C285.667 185.54 285.509 185.775 285.396 186.058C285.282 186.34 285.225 186.668 285.225 187.042V191H283.611V183.433H284.869L285.088 184.766H285.163C285.313 184.497 285.5 184.251 285.724 184.027C285.947 183.804 286.202 183.626 286.489 183.494C286.781 183.357 287.1 183.289 287.446 183.289ZM298.206 183.289C299.054 183.289 299.692 183.508 300.12 183.945C300.553 184.383 300.77 185.085 300.77 186.051V191H299.163V186.338C299.163 185.764 299.051 185.331 298.828 185.039C298.605 184.747 298.265 184.602 297.81 184.602C297.172 184.602 296.711 184.807 296.429 185.217C296.151 185.622 296.012 186.213 296.012 186.987V191H294.405V186.338C294.405 185.955 294.355 185.636 294.255 185.381C294.159 185.121 294.011 184.927 293.811 184.8C293.61 184.668 293.357 184.602 293.052 184.602C292.61 184.602 292.257 184.702 291.992 184.902C291.732 185.103 291.546 185.399 291.432 185.791C291.318 186.178 291.261 186.655 291.261 187.22V191H289.654V183.433H290.905L291.131 184.451H291.22C291.375 184.187 291.566 183.97 291.794 183.802C292.026 183.629 292.284 183.501 292.566 183.419C292.849 183.332 293.143 183.289 293.448 183.289C294.013 183.289 294.49 183.389 294.877 183.59C295.264 183.786 295.554 184.087 295.745 184.492H295.868C296.105 184.082 296.436 183.779 296.859 183.583C297.283 183.387 297.732 183.289 298.206 183.289ZM305.979 183.289C306.936 183.289 307.658 183.501 308.146 183.925C308.638 184.349 308.884 185.009 308.884 185.907V191H307.742L307.435 189.927H307.38C307.166 190.2 306.945 190.426 306.717 190.604C306.489 190.781 306.225 190.913 305.924 191C305.628 191.091 305.265 191.137 304.837 191.137C304.386 191.137 303.982 191.055 303.627 190.891C303.271 190.722 302.991 190.467 302.786 190.125C302.581 189.783 302.479 189.35 302.479 188.826C302.479 188.047 302.768 187.461 303.347 187.069C303.93 186.677 304.81 186.461 305.985 186.42L307.298 186.372V185.976C307.298 185.451 307.175 185.078 306.929 184.854C306.687 184.631 306.345 184.52 305.903 184.52C305.525 184.52 305.158 184.574 304.803 184.684C304.447 184.793 304.101 184.927 303.764 185.087L303.244 183.952C303.613 183.756 304.033 183.597 304.502 183.474C304.976 183.351 305.468 183.289 305.979 183.289ZM307.291 187.384L306.313 187.418C305.511 187.445 304.949 187.582 304.625 187.828C304.301 188.074 304.14 188.411 304.14 188.84C304.14 189.214 304.251 189.487 304.475 189.66C304.698 189.829 304.992 189.913 305.356 189.913C305.912 189.913 306.373 189.756 306.737 189.441C307.106 189.122 307.291 188.655 307.291 188.04V187.384ZM315.077 183.289C315.929 183.289 316.592 183.51 317.066 183.952C317.545 184.39 317.784 185.094 317.784 186.064V191H316.178V186.365C316.178 185.777 316.057 185.338 315.815 185.046C315.574 184.75 315.2 184.602 314.694 184.602C313.961 184.602 313.45 184.827 313.163 185.278C312.881 185.729 312.739 186.383 312.739 187.24V191H311.133V183.433H312.384L312.609 184.458H312.698C312.862 184.194 313.065 183.977 313.307 183.809C313.553 183.635 313.826 183.506 314.127 183.419C314.432 183.332 314.749 183.289 315.077 183.289ZM323.082 191.137C322.367 191.137 321.747 190.998 321.223 190.72C320.699 190.442 320.295 190.016 320.013 189.441C319.73 188.867 319.589 188.138 319.589 187.254C319.589 186.333 319.744 185.581 320.054 184.998C320.364 184.415 320.792 183.984 321.339 183.706C321.89 183.428 322.521 183.289 323.232 183.289C323.684 183.289 324.091 183.335 324.456 183.426C324.825 183.512 325.137 183.619 325.393 183.747L324.914 185.032C324.636 184.918 324.351 184.823 324.06 184.745C323.768 184.668 323.488 184.629 323.219 184.629C322.777 184.629 322.408 184.727 322.111 184.923C321.82 185.119 321.601 185.41 321.455 185.798C321.314 186.185 321.243 186.666 321.243 187.24C321.243 187.796 321.316 188.266 321.462 188.648C321.608 189.027 321.824 189.314 322.111 189.51C322.398 189.701 322.752 189.797 323.171 189.797C323.586 189.797 323.957 189.747 324.285 189.646C324.613 189.546 324.923 189.416 325.215 189.257V190.651C324.928 190.815 324.62 190.936 324.292 191.014C323.964 191.096 323.561 191.137 323.082 191.137ZM330.007 183.289C330.681 183.289 331.26 183.428 331.743 183.706C332.226 183.984 332.598 184.378 332.857 184.889C333.117 185.399 333.247 186.01 333.247 186.721V187.582H328.195C328.214 188.316 328.41 188.881 328.783 189.277C329.161 189.674 329.69 189.872 330.369 189.872C330.852 189.872 331.285 189.826 331.668 189.735C332.055 189.64 332.454 189.501 332.864 189.318V190.624C332.486 190.802 332.101 190.932 331.709 191.014C331.317 191.096 330.848 191.137 330.301 191.137C329.558 191.137 328.904 190.993 328.339 190.706C327.778 190.414 327.339 189.981 327.02 189.407C326.705 188.833 326.548 188.12 326.548 187.268C326.548 186.42 326.691 185.7 326.979 185.107C327.266 184.515 327.669 184.064 328.188 183.754C328.708 183.444 329.314 183.289 330.007 183.289ZM330.007 184.499C329.501 184.499 329.091 184.663 328.776 184.991C328.466 185.319 328.284 185.8 328.229 186.434H331.675C331.67 186.055 331.606 185.72 331.483 185.429C331.365 185.137 331.183 184.909 330.937 184.745C330.695 184.581 330.385 184.499 330.007 184.499Z" fill="white"/>
<path d="M220.778 248H219.131V239.4H216.205V238.006H223.697V239.4H220.778V248ZM228.031 240.289C228.988 240.289 229.711 240.501 230.198 240.925C230.69 241.349 230.937 242.009 230.937 242.907V248H229.795L229.487 246.927H229.433C229.218 247.2 228.997 247.426 228.77 247.604C228.542 247.781 228.277 247.913 227.977 248C227.68 248.091 227.318 248.137 226.89 248.137C226.438 248.137 226.035 248.055 225.68 247.891C225.324 247.722 225.044 247.467 224.839 247.125C224.634 246.783 224.531 246.35 224.531 245.826C224.531 245.047 224.821 244.461 225.399 244.069C225.983 243.677 226.862 243.461 228.038 243.42L229.351 243.372V242.976C229.351 242.451 229.228 242.078 228.981 241.854C228.74 241.631 228.398 241.52 227.956 241.52C227.578 241.52 227.211 241.574 226.855 241.684C226.5 241.793 226.154 241.927 225.816 242.087L225.297 240.952C225.666 240.756 226.085 240.597 226.555 240.474C227.029 240.351 227.521 240.289 228.031 240.289ZM229.344 244.384L228.366 244.418C227.564 244.445 227.001 244.582 226.678 244.828C226.354 245.074 226.192 245.411 226.192 245.84C226.192 246.214 226.304 246.487 226.527 246.66C226.751 246.829 227.045 246.913 227.409 246.913C227.965 246.913 228.425 246.756 228.79 246.441C229.159 246.122 229.344 245.655 229.344 245.04V244.384ZM238.271 245.84C238.271 246.337 238.151 246.756 237.909 247.098C237.668 247.439 237.314 247.699 236.85 247.877C236.389 248.05 235.824 248.137 235.154 248.137C234.626 248.137 234.17 248.098 233.787 248.021C233.409 247.948 233.051 247.834 232.714 247.679V246.291C233.074 246.46 233.477 246.605 233.924 246.729C234.375 246.852 234.801 246.913 235.202 246.913C235.731 246.913 236.111 246.831 236.344 246.667C236.576 246.498 236.692 246.275 236.692 245.997C236.692 245.833 236.645 245.687 236.549 245.56C236.458 245.427 236.285 245.293 236.029 245.156C235.779 245.015 235.41 244.846 234.922 244.65C234.443 244.459 234.04 244.268 233.712 244.076C233.384 243.885 233.135 243.655 232.967 243.386C232.798 243.112 232.714 242.764 232.714 242.34C232.714 241.67 232.978 241.162 233.507 240.815C234.04 240.465 234.744 240.289 235.619 240.289C236.084 240.289 236.521 240.337 236.932 240.433C237.346 240.524 237.752 240.658 238.148 240.836L237.643 242.046C237.301 241.896 236.957 241.772 236.61 241.677C236.269 241.576 235.92 241.526 235.564 241.526C235.15 241.526 234.833 241.59 234.614 241.718C234.4 241.845 234.293 242.028 234.293 242.265C234.293 242.442 234.345 242.593 234.45 242.716C234.555 242.839 234.735 242.962 234.99 243.085C235.25 243.208 235.61 243.361 236.07 243.543C236.521 243.716 236.911 243.898 237.239 244.09C237.572 244.277 237.827 244.507 238.005 244.78C238.183 245.054 238.271 245.407 238.271 245.84ZM241.614 237.363V242.504C241.614 242.736 241.605 242.992 241.587 243.27C241.569 243.543 241.55 243.8 241.532 244.042H241.566C241.685 243.882 241.826 243.696 241.99 243.481C242.159 243.267 242.318 243.08 242.469 242.921L244.779 240.433H246.625L243.597 243.687L246.823 248H244.937L242.517 244.678L241.614 245.45V248H240.008V237.363H241.614ZM258.027 248L257.05 245.225H253.229L252.251 248H250.521L254.24 237.965H256.059L259.771 248H258.027ZM256.626 243.816L255.676 241.082C255.639 240.964 255.587 240.797 255.519 240.583C255.45 240.364 255.382 240.143 255.313 239.92C255.245 239.692 255.188 239.501 255.143 239.346C255.097 239.533 255.04 239.742 254.972 239.975C254.908 240.202 254.844 240.417 254.78 240.617C254.721 240.818 254.675 240.973 254.644 241.082L253.687 243.816H256.626ZM266.012 245.84C266.012 246.337 265.891 246.756 265.649 247.098C265.408 247.439 265.055 247.699 264.59 247.877C264.13 248.05 263.564 248.137 262.895 248.137C262.366 248.137 261.91 248.098 261.527 248.021C261.149 247.948 260.791 247.834 260.454 247.679V246.291C260.814 246.46 261.217 246.605 261.664 246.729C262.115 246.852 262.541 246.913 262.942 246.913C263.471 246.913 263.852 246.831 264.084 246.667C264.316 246.498 264.433 246.275 264.433 245.997C264.433 245.833 264.385 245.687 264.289 245.56C264.198 245.427 264.025 245.293 263.77 245.156C263.519 245.015 263.15 244.846 262.662 244.65C262.184 244.459 261.78 244.268 261.452 244.076C261.124 243.885 260.876 243.655 260.707 243.386C260.538 243.112 260.454 242.764 260.454 242.34C260.454 241.67 260.718 241.162 261.247 240.815C261.78 240.465 262.484 240.289 263.359 240.289C263.824 240.289 264.262 240.337 264.672 240.433C265.087 240.524 265.492 240.658 265.889 240.836L265.383 242.046C265.041 241.896 264.697 241.772 264.351 241.677C264.009 241.576 263.66 241.526 263.305 241.526C262.89 241.526 262.573 241.59 262.354 241.718C262.14 241.845 262.033 242.028 262.033 242.265C262.033 242.442 262.086 242.593 262.19 242.716C262.295 242.839 262.475 242.962 262.73 243.085C262.99 243.208 263.35 243.361 263.811 243.543C264.262 243.716 264.651 243.898 264.979 244.09C265.312 244.277 265.567 244.507 265.745 244.78C265.923 245.054 266.012 245.407 266.012 245.84ZM272.834 245.84C272.834 246.337 272.713 246.756 272.472 247.098C272.23 247.439 271.877 247.699 271.412 247.877C270.952 248.05 270.387 248.137 269.717 248.137C269.188 248.137 268.732 248.098 268.35 248.021C267.971 247.948 267.614 247.834 267.276 247.679V246.291C267.636 246.46 268.04 246.605 268.486 246.729C268.938 246.852 269.364 246.913 269.765 246.913C270.293 246.913 270.674 246.831 270.906 246.667C271.139 246.498 271.255 246.275 271.255 245.997C271.255 245.833 271.207 245.687 271.111 245.56C271.02 245.427 270.847 245.293 270.592 245.156C270.341 245.015 269.972 244.846 269.484 244.65C269.006 244.459 268.603 244.268 268.274 244.076C267.946 243.885 267.698 243.655 267.529 243.386C267.361 243.112 267.276 242.764 267.276 242.34C267.276 241.67 267.541 241.162 268.069 240.815C268.603 240.465 269.307 240.289 270.182 240.289C270.646 240.289 271.084 240.337 271.494 240.433C271.909 240.524 272.314 240.658 272.711 240.836L272.205 242.046C271.863 241.896 271.519 241.772 271.173 241.677C270.831 241.576 270.482 241.526 270.127 241.526C269.712 241.526 269.396 241.59 269.177 241.718C268.963 241.845 268.855 242.028 268.855 242.265C268.855 242.442 268.908 242.593 269.013 242.716C269.118 242.839 269.298 242.962 269.553 243.085C269.812 243.208 270.173 243.361 270.633 243.543C271.084 243.716 271.474 243.898 271.802 244.09C272.134 244.277 272.39 244.507 272.567 244.78C272.745 245.054 272.834 245.407 272.834 245.84ZM276.177 240.433V248H274.57V240.433H276.177ZM275.384 237.534C275.63 237.534 275.842 237.6 276.02 237.732C276.202 237.865 276.293 238.092 276.293 238.416C276.293 238.735 276.202 238.963 276.02 239.1C275.842 239.232 275.63 239.298 275.384 239.298C275.129 239.298 274.912 239.232 274.734 239.1C274.561 238.963 274.475 238.735 274.475 238.416C274.475 238.092 274.561 237.865 274.734 237.732C274.912 237.6 275.129 237.534 275.384 237.534ZM280.641 251.363C279.615 251.363 278.829 251.179 278.282 250.81C277.735 250.44 277.462 249.923 277.462 249.258C277.462 248.793 277.608 248.399 277.899 248.075C278.191 247.756 278.608 247.535 279.15 247.412C278.945 247.321 278.768 247.18 278.617 246.988C278.471 246.792 278.398 246.576 278.398 246.339C278.398 246.056 278.478 245.815 278.638 245.614C278.797 245.414 279.036 245.22 279.355 245.033C278.959 244.865 278.64 244.591 278.398 244.213C278.161 243.83 278.043 243.381 278.043 242.866C278.043 242.319 278.159 241.854 278.392 241.472C278.624 241.084 278.964 240.79 279.41 240.59C279.857 240.385 280.397 240.282 281.03 240.282C281.167 240.282 281.315 240.291 281.475 240.31C281.639 240.323 281.789 240.341 281.926 240.364C282.067 240.382 282.174 240.403 282.247 240.426H284.865V241.321L283.58 241.561C283.703 241.734 283.801 241.932 283.874 242.155C283.947 242.374 283.983 242.613 283.983 242.873C283.983 243.657 283.712 244.274 283.17 244.726C282.632 245.172 281.889 245.396 280.941 245.396C280.714 245.386 280.493 245.368 280.278 245.341C280.114 245.441 279.989 245.553 279.902 245.676C279.816 245.794 279.772 245.929 279.772 246.079C279.772 246.202 279.816 246.302 279.902 246.38C279.989 246.453 280.117 246.507 280.285 246.544C280.458 246.58 280.668 246.599 280.914 246.599H282.22C283.049 246.599 283.683 246.774 284.12 247.125C284.558 247.476 284.776 247.991 284.776 248.67C284.776 249.531 284.421 250.194 283.71 250.659C282.999 251.129 281.976 251.363 280.641 251.363ZM280.702 250.235C281.263 250.235 281.734 250.181 282.117 250.071C282.5 249.962 282.789 249.805 282.985 249.6C283.181 249.399 283.279 249.16 283.279 248.882C283.279 248.636 283.218 248.447 283.095 248.314C282.972 248.182 282.787 248.091 282.541 248.041C282.295 247.991 281.99 247.966 281.625 247.966H280.436C280.139 247.966 279.877 248.011 279.649 248.103C279.422 248.198 279.244 248.335 279.116 248.513C278.993 248.69 278.932 248.905 278.932 249.155C278.932 249.502 279.084 249.768 279.39 249.955C279.7 250.142 280.137 250.235 280.702 250.235ZM281.017 244.343C281.486 244.343 281.835 244.215 282.062 243.96C282.29 243.7 282.404 243.336 282.404 242.866C282.404 242.356 282.286 241.973 282.049 241.718C281.816 241.463 281.47 241.335 281.01 241.335C280.559 241.335 280.215 241.465 279.978 241.725C279.745 241.984 279.629 242.369 279.629 242.88C279.629 243.34 279.745 243.7 279.978 243.96C280.215 244.215 280.561 244.343 281.017 244.343ZM290.19 240.289C291.043 240.289 291.706 240.51 292.18 240.952C292.658 241.39 292.897 242.094 292.897 243.064V248H291.291V243.365C291.291 242.777 291.17 242.338 290.929 242.046C290.687 241.75 290.313 241.602 289.808 241.602C289.074 241.602 288.563 241.827 288.276 242.278C287.994 242.729 287.853 243.383 287.853 244.24V248H286.246V240.433H287.497L287.723 241.458H287.812C287.976 241.194 288.178 240.977 288.42 240.809C288.666 240.635 288.939 240.506 289.24 240.419C289.546 240.332 289.862 240.289 290.19 240.289ZM303.698 240.289C304.546 240.289 305.184 240.508 305.612 240.945C306.045 241.383 306.262 242.085 306.262 243.051V248H304.655V243.338C304.655 242.764 304.544 242.331 304.32 242.039C304.097 241.747 303.757 241.602 303.302 241.602C302.664 241.602 302.203 241.807 301.921 242.217C301.643 242.622 301.504 243.213 301.504 243.987V248H299.897V243.338C299.897 242.955 299.847 242.636 299.747 242.381C299.651 242.121 299.503 241.927 299.303 241.8C299.102 241.668 298.849 241.602 298.544 241.602C298.102 241.602 297.749 241.702 297.484 241.902C297.225 242.103 297.038 242.399 296.924 242.791C296.81 243.178 296.753 243.655 296.753 244.22V248H295.146V240.433H296.397L296.623 241.451H296.712C296.867 241.187 297.058 240.97 297.286 240.802C297.519 240.629 297.776 240.501 298.059 240.419C298.341 240.332 298.635 240.289 298.94 240.289C299.506 240.289 299.982 240.389 300.369 240.59C300.757 240.786 301.046 241.087 301.237 241.492H301.36C301.597 241.082 301.928 240.779 302.352 240.583C302.775 240.387 303.224 240.289 303.698 240.289ZM311.519 240.289C312.193 240.289 312.772 240.428 313.255 240.706C313.738 240.984 314.109 241.378 314.369 241.889C314.629 242.399 314.759 243.01 314.759 243.721V244.582H309.707C309.725 245.316 309.921 245.881 310.295 246.277C310.673 246.674 311.202 246.872 311.881 246.872C312.364 246.872 312.797 246.826 313.18 246.735C313.567 246.64 313.966 246.501 314.376 246.318V247.624C313.998 247.802 313.613 247.932 313.221 248.014C312.829 248.096 312.359 248.137 311.812 248.137C311.07 248.137 310.416 247.993 309.851 247.706C309.29 247.414 308.85 246.981 308.531 246.407C308.217 245.833 308.06 245.12 308.06 244.268C308.06 243.42 308.203 242.7 308.49 242.107C308.777 241.515 309.181 241.064 309.7 240.754C310.22 240.444 310.826 240.289 311.519 240.289ZM311.519 241.499C311.013 241.499 310.603 241.663 310.288 241.991C309.978 242.319 309.796 242.8 309.741 243.434H313.187C313.182 243.055 313.118 242.72 312.995 242.429C312.877 242.137 312.694 241.909 312.448 241.745C312.207 241.581 311.897 241.499 311.519 241.499ZM320.515 240.289C321.367 240.289 322.03 240.51 322.504 240.952C322.982 241.39 323.222 242.094 323.222 243.064V248H321.615V243.365C321.615 242.777 321.494 242.338 321.253 242.046C321.011 241.75 320.638 241.602 320.132 241.602C319.398 241.602 318.888 241.827 318.601 242.278C318.318 242.729 318.177 243.383 318.177 244.24V248H316.57V240.433H317.821L318.047 241.458H318.136C318.3 241.194 318.503 240.977 318.744 240.809C318.99 240.635 319.264 240.506 319.564 240.419C319.87 240.332 320.187 240.289 320.515 240.289ZM328.287 246.838C328.497 246.838 328.704 246.82 328.909 246.783C329.114 246.742 329.301 246.694 329.47 246.64V247.856C329.292 247.934 329.062 248 328.779 248.055C328.497 248.109 328.203 248.137 327.897 248.137C327.469 248.137 327.084 248.066 326.742 247.925C326.4 247.779 326.129 247.531 325.929 247.18C325.728 246.829 325.628 246.343 325.628 245.724V241.656H324.596V240.938L325.703 240.371L326.229 238.751H327.241V240.433H329.408V241.656H327.241V245.703C327.241 246.086 327.337 246.371 327.528 246.558C327.72 246.744 327.973 246.838 328.287 246.838Z" fill="white"/>
<path d="M234.122 295.006C234.983 295.006 235.694 295.111 236.255 295.32C236.82 295.53 237.239 295.849 237.513 296.277C237.791 296.706 237.93 297.25 237.93 297.911C237.93 298.403 237.839 298.823 237.656 299.169C237.474 299.515 237.235 299.802 236.938 300.03C236.642 300.258 236.326 300.44 235.988 300.577L238.825 305H236.973L234.56 300.994H232.953V305H231.312V295.006H234.122ZM234.013 296.373H232.953V299.641H234.088C234.849 299.641 235.4 299.499 235.742 299.217C236.089 298.934 236.262 298.517 236.262 297.966C236.262 297.387 236.077 296.977 235.708 296.735C235.343 296.494 234.778 296.373 234.013 296.373ZM246.789 301.199C246.789 301.828 246.707 302.386 246.543 302.874C246.379 303.362 246.14 303.774 245.825 304.111C245.511 304.444 245.132 304.699 244.69 304.877C244.248 305.05 243.749 305.137 243.193 305.137C242.674 305.137 242.198 305.05 241.765 304.877C241.332 304.699 240.956 304.444 240.637 304.111C240.322 303.774 240.078 303.362 239.905 302.874C239.732 302.386 239.646 301.828 239.646 301.199C239.646 300.365 239.789 299.659 240.076 299.08C240.368 298.497 240.783 298.052 241.32 297.747C241.858 297.442 242.498 297.289 243.241 297.289C243.938 297.289 244.554 297.442 245.087 297.747C245.62 298.052 246.037 298.497 246.338 299.08C246.639 299.663 246.789 300.37 246.789 301.199ZM241.3 301.199C241.3 301.751 241.366 302.222 241.498 302.614C241.635 303.006 241.844 303.307 242.127 303.517C242.41 303.722 242.774 303.824 243.221 303.824C243.667 303.824 244.032 303.722 244.314 303.517C244.597 303.307 244.804 303.006 244.937 302.614C245.069 302.222 245.135 301.751 245.135 301.199C245.135 300.648 245.069 300.181 244.937 299.798C244.804 299.41 244.597 299.117 244.314 298.916C244.032 298.711 243.665 298.608 243.214 298.608C242.549 298.608 242.063 298.832 241.758 299.278C241.452 299.725 241.3 300.365 241.3 301.199ZM255.334 301.199C255.334 301.828 255.252 302.386 255.088 302.874C254.924 303.362 254.685 303.774 254.37 304.111C254.056 304.444 253.677 304.699 253.235 304.877C252.793 305.05 252.294 305.137 251.738 305.137C251.219 305.137 250.743 305.05 250.31 304.877C249.877 304.699 249.501 304.444 249.182 304.111C248.867 303.774 248.623 303.362 248.45 302.874C248.277 302.386 248.19 301.828 248.19 301.199C248.19 300.365 248.334 299.659 248.621 299.08C248.913 298.497 249.327 298.052 249.865 297.747C250.403 297.442 251.043 297.289 251.786 297.289C252.483 297.289 253.099 297.442 253.632 297.747C254.165 298.052 254.582 298.497 254.883 299.08C255.184 299.663 255.334 300.37 255.334 301.199ZM249.845 301.199C249.845 301.751 249.911 302.222 250.043 302.614C250.18 303.006 250.389 303.307 250.672 303.517C250.954 303.722 251.319 303.824 251.766 303.824C252.212 303.824 252.577 303.722 252.859 303.517C253.142 303.307 253.349 303.006 253.481 302.614C253.614 302.222 253.68 301.751 253.68 301.199C253.68 300.648 253.614 300.181 253.481 299.798C253.349 299.41 253.142 299.117 252.859 298.916C252.577 298.711 252.21 298.608 251.759 298.608C251.093 298.608 250.608 298.832 250.303 299.278C249.997 299.725 249.845 300.365 249.845 301.199ZM265.731 297.289C266.579 297.289 267.217 297.508 267.646 297.945C268.078 298.383 268.295 299.085 268.295 300.051V305H266.688V300.338C266.688 299.764 266.577 299.331 266.354 299.039C266.13 298.747 265.791 298.602 265.335 298.602C264.697 298.602 264.237 298.807 263.954 299.217C263.676 299.622 263.537 300.213 263.537 300.987V305H261.931V300.338C261.931 299.955 261.881 299.636 261.78 299.381C261.685 299.121 261.536 298.927 261.336 298.8C261.135 298.668 260.882 298.602 260.577 298.602C260.135 298.602 259.782 298.702 259.518 298.902C259.258 299.103 259.071 299.399 258.957 299.791C258.843 300.178 258.786 300.655 258.786 301.22V305H257.18V297.433H258.431L258.656 298.451H258.745C258.9 298.187 259.091 297.97 259.319 297.802C259.552 297.629 259.809 297.501 260.092 297.419C260.374 297.332 260.668 297.289 260.974 297.289C261.539 297.289 262.015 297.389 262.402 297.59C262.79 297.786 263.079 298.087 263.271 298.492H263.394C263.631 298.082 263.961 297.779 264.385 297.583C264.809 297.387 265.257 297.289 265.731 297.289ZM280.107 302.279C280.107 302.872 279.962 303.382 279.67 303.811C279.383 304.239 278.968 304.567 278.426 304.795C277.888 305.023 277.245 305.137 276.498 305.137C276.133 305.137 275.785 305.116 275.452 305.075C275.119 305.034 274.805 304.975 274.509 304.897C274.217 304.815 273.951 304.717 273.709 304.604V303.059C274.115 303.236 274.568 303.398 275.069 303.544C275.571 303.685 276.081 303.756 276.601 303.756C277.024 303.756 277.375 303.701 277.653 303.592C277.936 303.478 278.146 303.318 278.282 303.113C278.419 302.904 278.487 302.66 278.487 302.382C278.487 302.086 278.408 301.835 278.248 301.63C278.089 301.425 277.847 301.238 277.523 301.069C277.204 300.896 276.803 300.712 276.32 300.516C275.992 300.383 275.678 300.233 275.377 300.064C275.081 299.896 274.816 299.698 274.584 299.47C274.352 299.242 274.167 298.973 274.03 298.663C273.898 298.349 273.832 297.979 273.832 297.556C273.832 296.991 273.966 296.507 274.235 296.106C274.509 295.705 274.892 295.398 275.384 295.184C275.881 294.969 276.459 294.862 277.12 294.862C277.644 294.862 278.136 294.917 278.597 295.026C279.062 295.136 279.517 295.291 279.964 295.491L279.444 296.811C279.034 296.642 278.635 296.507 278.248 296.407C277.865 296.307 277.473 296.257 277.072 296.257C276.726 296.257 276.432 296.309 276.19 296.414C275.949 296.519 275.764 296.667 275.637 296.858C275.514 297.045 275.452 297.269 275.452 297.528C275.452 297.82 275.523 298.066 275.664 298.267C275.81 298.463 276.033 298.643 276.334 298.807C276.639 298.971 277.031 299.153 277.51 299.354C278.061 299.581 278.528 299.821 278.911 300.071C279.299 300.322 279.595 300.623 279.8 300.974C280.005 301.32 280.107 301.755 280.107 302.279ZM284.688 303.838C284.897 303.838 285.104 303.82 285.31 303.783C285.515 303.742 285.701 303.694 285.87 303.64V304.856C285.692 304.934 285.462 305 285.18 305.055C284.897 305.109 284.603 305.137 284.298 305.137C283.869 305.137 283.484 305.066 283.143 304.925C282.801 304.779 282.53 304.531 282.329 304.18C282.129 303.829 282.028 303.343 282.028 302.724V298.656H280.996V297.938L282.104 297.371L282.63 295.751H283.642V297.433H285.809V298.656H283.642V302.703C283.642 303.086 283.737 303.371 283.929 303.558C284.12 303.744 284.373 303.838 284.688 303.838ZM290.375 297.289C291.332 297.289 292.054 297.501 292.542 297.925C293.034 298.349 293.28 299.009 293.28 299.907V305H292.139L291.831 303.927H291.776C291.562 304.2 291.341 304.426 291.113 304.604C290.885 304.781 290.621 304.913 290.32 305C290.024 305.091 289.662 305.137 289.233 305.137C288.782 305.137 288.379 305.055 288.023 304.891C287.668 304.722 287.388 304.467 287.183 304.125C286.978 303.783 286.875 303.35 286.875 302.826C286.875 302.047 287.164 301.461 287.743 301.069C288.326 300.677 289.206 300.461 290.382 300.42L291.694 300.372V299.976C291.694 299.451 291.571 299.078 291.325 298.854C291.084 298.631 290.742 298.52 290.3 298.52C289.922 298.52 289.555 298.574 289.199 298.684C288.844 298.793 288.497 298.927 288.16 299.087L287.641 297.952C288.01 297.756 288.429 297.597 288.898 297.474C289.372 297.351 289.865 297.289 290.375 297.289ZM291.688 301.384L290.71 301.418C289.908 301.445 289.345 301.582 289.021 301.828C288.698 302.074 288.536 302.411 288.536 302.84C288.536 303.214 288.648 303.487 288.871 303.66C289.094 303.829 289.388 303.913 289.753 303.913C290.309 303.913 290.769 303.756 291.134 303.441C291.503 303.122 291.688 302.655 291.688 302.04V301.384ZM298.346 303.838C298.555 303.838 298.763 303.82 298.968 303.783C299.173 303.742 299.36 303.694 299.528 303.64V304.856C299.351 304.934 299.12 305 298.838 305.055C298.555 305.109 298.261 305.137 297.956 305.137C297.528 305.137 297.143 305.066 296.801 304.925C296.459 304.779 296.188 304.531 295.987 304.18C295.787 303.829 295.687 303.343 295.687 302.724V298.656H294.654V297.938L295.762 297.371L296.288 295.751H297.3V297.433H299.467V298.656H297.3V302.703C297.3 303.086 297.396 303.371 297.587 303.558C297.778 303.744 298.031 303.838 298.346 303.838ZM307.663 297.433V305H306.398L306.18 303.981H306.091C305.931 304.241 305.729 304.458 305.482 304.631C305.236 304.799 304.963 304.925 304.662 305.007C304.361 305.093 304.045 305.137 303.712 305.137C303.142 305.137 302.655 305.041 302.249 304.85C301.848 304.654 301.54 304.353 301.326 303.947C301.112 303.542 301.005 303.018 301.005 302.375V297.433H302.618V302.074C302.618 302.662 302.737 303.102 302.974 303.394C303.215 303.685 303.589 303.831 304.095 303.831C304.582 303.831 304.97 303.731 305.257 303.53C305.544 303.33 305.747 303.034 305.865 302.642C305.988 302.25 306.05 301.769 306.05 301.199V297.433H307.663ZM315.053 302.84C315.053 303.337 314.932 303.756 314.69 304.098C314.449 304.439 314.096 304.699 313.631 304.877C313.171 305.05 312.605 305.137 311.936 305.137C311.407 305.137 310.951 305.098 310.568 305.021C310.19 304.948 309.832 304.834 309.495 304.679V303.291C309.855 303.46 310.258 303.605 310.705 303.729C311.156 303.852 311.582 303.913 311.983 303.913C312.512 303.913 312.893 303.831 313.125 303.667C313.357 303.498 313.474 303.275 313.474 302.997C313.474 302.833 313.426 302.687 313.33 302.56C313.239 302.427 313.066 302.293 312.811 302.156C312.56 302.015 312.191 301.846 311.703 301.65C311.225 301.459 310.821 301.268 310.493 301.076C310.165 300.885 309.917 300.655 309.748 300.386C309.579 300.112 309.495 299.764 309.495 299.34C309.495 298.67 309.759 298.162 310.288 297.815C310.821 297.465 311.525 297.289 312.4 297.289C312.865 297.289 313.303 297.337 313.713 297.433C314.128 297.524 314.533 297.658 314.93 297.836L314.424 299.046C314.082 298.896 313.738 298.772 313.392 298.677C313.05 298.576 312.701 298.526 312.346 298.526C311.931 298.526 311.614 298.59 311.396 298.718C311.181 298.845 311.074 299.028 311.074 299.265C311.074 299.442 311.127 299.593 311.231 299.716C311.336 299.839 311.516 299.962 311.771 300.085C312.031 300.208 312.391 300.361 312.852 300.543C313.303 300.716 313.692 300.898 314.021 301.09C314.353 301.277 314.608 301.507 314.786 301.78C314.964 302.054 315.053 302.407 315.053 302.84Z" fill="white"/>
<defs>
<linearGradient id="paint0_linear_893_3937" x1="327.787" y1="156.188" x2="488.751" y2="156.188" gradientUnits="userSpaceOnUse">
<stop stop-color="#232525"/>
<stop offset="1" stop-color="#8094D4"/>
</linearGradient>
<linearGradient id="paint1_linear_893_3937" x1="43.1553" y1="156.342" x2="204.119" y2="156.342" gradientUnits="userSpaceOnUse">
<stop stop-color="#E0E0E0"/>
<stop offset="1" stop-color="#232525"/>
</linearGradient>
</defs>
</svg>
