<svg width="166" height="51" viewBox="0 0 166 51" fill="none" xmlns="http://www.w3.org/2000/svg">
<rect width="166" height="51" rx="8" fill="black"/>
<path d="M59.3457 16.5723H63.0781V21.5898C62.554 21.763 62.0117 21.8975 61.4512 21.9932C60.8906 22.0889 60.2617 22.1367 59.5645 22.1367C58.5482 22.1367 57.6868 21.9362 56.9805 21.5352C56.2786 21.1296 55.7454 20.5439 55.3809 19.7783C55.0163 19.0081 54.834 18.0807 54.834 16.9961C54.834 15.9525 55.0368 15.0479 55.4424 14.2822C55.848 13.512 56.4382 12.9173 57.2129 12.498C57.9876 12.0742 58.9264 11.8623 60.0293 11.8623C60.5716 11.8623 61.0957 11.917 61.6016 12.0264C62.112 12.1312 62.5791 12.277 63.0029 12.4639L62.4287 13.8174C62.0915 13.6579 61.7132 13.5234 61.2939 13.4141C60.8747 13.3047 60.4395 13.25 59.9883 13.25C59.2728 13.25 58.6553 13.4049 58.1357 13.7148C57.6208 14.0247 57.2243 14.4622 56.9463 15.0273C56.6683 15.5879 56.5293 16.251 56.5293 17.0166C56.5293 17.7594 56.641 18.4111 56.8643 18.9717C57.0876 19.5322 57.4362 19.9697 57.9102 20.2842C58.3887 20.5941 59.0062 20.749 59.7627 20.749C60.141 20.749 60.4622 20.7285 60.7266 20.6875C60.9909 20.6465 61.2347 20.6009 61.458 20.5508V17.9736H59.3457V16.5723ZM71.1309 22H65.4707V12.0059H71.1309V13.3867H67.1113V16.1006H70.8779V17.4746H67.1113V20.6123H71.1309V22ZM76.7568 22H75.1094V13.4004H72.1836V12.0059H79.6758V13.4004H76.7568V22ZM84.8438 22V12.0059H86.4844V22H84.8438ZM92.5889 22H90.9414V13.4004H88.0156V12.0059H95.5078V13.4004H92.5889V22ZM109.549 16.9893C109.549 17.7594 109.451 18.4613 109.255 19.0947C109.063 19.7236 108.774 20.266 108.387 20.7217C107.999 21.1729 107.514 21.5215 106.931 21.7676C106.347 22.0137 105.664 22.1367 104.88 22.1367C104.082 22.1367 103.39 22.0137 102.802 21.7676C102.218 21.5215 101.733 21.1706 101.346 20.7148C100.963 20.2591 100.676 19.7145 100.484 19.0811C100.293 18.4476 100.197 17.7458 100.197 16.9756C100.197 15.9456 100.366 15.0479 100.703 14.2822C101.045 13.512 101.562 12.915 102.255 12.4912C102.952 12.0628 103.832 11.8486 104.894 11.8486C105.933 11.8486 106.796 12.0605 107.484 12.4844C108.173 12.9082 108.688 13.5052 109.029 14.2754C109.376 15.041 109.549 15.9456 109.549 16.9893ZM101.92 16.9893C101.92 17.7594 102.025 18.4271 102.234 18.9922C102.444 19.5527 102.765 19.9857 103.198 20.291C103.636 20.5918 104.196 20.7422 104.88 20.7422C105.568 20.7422 106.129 20.5918 106.562 20.291C106.994 19.9857 107.313 19.5527 107.519 18.9922C107.724 18.4271 107.826 17.7594 107.826 16.9893C107.826 15.818 107.591 14.902 107.122 14.2412C106.657 13.5758 105.914 13.2432 104.894 13.2432C104.21 13.2432 103.647 13.3936 103.205 13.6943C102.768 13.9951 102.444 14.4258 102.234 14.9863C102.025 15.5423 101.92 16.21 101.92 16.9893ZM120.035 22H118.019L113.124 14.0225H113.062C113.081 14.2913 113.097 14.5762 113.11 14.877C113.129 15.1777 113.142 15.4876 113.151 15.8066C113.165 16.1257 113.176 16.4492 113.186 16.7773V22H111.695V12.0059H113.698L118.586 19.9287H118.634C118.625 19.6963 118.613 19.4297 118.6 19.1289C118.586 18.8281 118.572 18.5182 118.559 18.1992C118.549 17.8757 118.543 17.5635 118.538 17.2627V12.0059H120.035V22Z" fill="white"/>
<path d="M60.736 40.192C59.8507 40.192 59.0347 40.0533 58.288 39.776C57.552 39.488 56.9067 39.0827 56.352 38.56C55.808 38.0373 55.3813 37.424 55.072 36.72C54.7733 36.016 54.624 35.2427 54.624 34.4C54.624 33.5573 54.7733 32.784 55.072 32.08C55.3813 31.376 55.8133 30.7627 56.368 30.24C56.9227 29.7173 57.5733 29.3173 58.32 29.04C59.0667 28.752 59.888 28.608 60.784 28.608C61.776 28.608 62.6667 28.7733 63.456 29.104C64.256 29.4347 64.928 29.9147 65.472 30.544L63.808 32.08C63.4027 31.6533 62.96 31.3387 62.48 31.136C62 30.9227 61.4773 30.816 60.912 30.816C60.368 30.816 59.872 30.9013 59.424 31.072C58.976 31.2427 58.5867 31.488 58.256 31.808C57.936 32.128 57.6853 32.5067 57.504 32.944C57.3333 33.3813 57.248 33.8667 57.248 34.4C57.248 34.9227 57.3333 35.4027 57.504 35.84C57.6853 36.2773 57.936 36.6613 58.256 36.992C58.5867 37.312 58.9707 37.5573 59.408 37.728C59.856 37.8987 60.3467 37.984 60.88 37.984C61.392 37.984 61.888 37.904 62.368 37.744C62.8587 37.5733 63.3333 37.2907 63.792 36.896L65.264 38.768C64.656 39.2267 63.9467 39.5787 63.136 39.824C62.336 40.0693 61.536 40.192 60.736 40.192ZM62.896 38.432V34.224H65.264V38.768L62.896 38.432ZM71.5918 40.128C70.6744 40.128 69.8584 39.936 69.1438 39.552C68.4398 39.168 67.8798 38.6453 67.4638 37.984C67.0584 37.312 66.8558 36.5493 66.8558 35.696C66.8558 34.832 67.0584 34.0693 67.4638 33.408C67.8798 32.736 68.4398 32.2133 69.1438 31.84C69.8584 31.456 70.6744 31.264 71.5918 31.264C72.4984 31.264 73.3091 31.456 74.0238 31.84C74.7384 32.2133 75.2984 32.7307 75.7038 33.392C76.1091 34.0533 76.3118 34.8213 76.3118 35.696C76.3118 36.5493 76.1091 37.312 75.7038 37.984C75.2984 38.6453 74.7384 39.168 74.0238 39.552C73.3091 39.936 72.4984 40.128 71.5918 40.128ZM71.5918 38.08C72.0078 38.08 72.3811 37.984 72.7118 37.792C73.0424 37.6 73.3038 37.328 73.4958 36.976C73.6878 36.6133 73.7838 36.1867 73.7838 35.696C73.7838 35.1947 73.6878 34.768 73.4958 34.416C73.3038 34.064 73.0424 33.792 72.7118 33.6C72.3811 33.408 72.0078 33.312 71.5918 33.312C71.1758 33.312 70.8024 33.408 70.4718 33.6C70.1411 33.792 69.8744 34.064 69.6718 34.416C69.4798 34.768 69.3838 35.1947 69.3838 35.696C69.3838 36.1867 69.4798 36.6133 69.6718 36.976C69.8744 37.328 70.1411 37.6 70.4718 37.792C70.8024 37.984 71.1758 38.08 71.5918 38.08ZM82.0761 40.128C81.1588 40.128 80.3428 39.936 79.6281 39.552C78.9241 39.168 78.3641 38.6453 77.9481 37.984C77.5428 37.312 77.3401 36.5493 77.3401 35.696C77.3401 34.832 77.5428 34.0693 77.9481 33.408C78.3641 32.736 78.9241 32.2133 79.6281 31.84C80.3428 31.456 81.1588 31.264 82.0761 31.264C82.9828 31.264 83.7935 31.456 84.5081 31.84C85.2228 32.2133 85.7828 32.7307 86.1881 33.392C86.5935 34.0533 86.7961 34.8213 86.7961 35.696C86.7961 36.5493 86.5935 37.312 86.1881 37.984C85.7828 38.6453 85.2228 39.168 84.5081 39.552C83.7935 39.936 82.9828 40.128 82.0761 40.128ZM82.0761 38.08C82.4921 38.08 82.8655 37.984 83.1961 37.792C83.5268 37.6 83.7881 37.328 83.9801 36.976C84.1721 36.6133 84.2681 36.1867 84.2681 35.696C84.2681 35.1947 84.1721 34.768 83.9801 34.416C83.7881 34.064 83.5268 33.792 83.1961 33.6C82.8655 33.408 82.4921 33.312 82.0761 33.312C81.6601 33.312 81.2868 33.408 80.9561 33.6C80.6255 33.792 80.3588 34.064 80.1561 34.416C79.9641 34.768 79.8681 35.1947 79.8681 35.696C79.8681 36.1867 79.9641 36.6133 80.1561 36.976C80.3588 37.328 80.6255 37.6 80.9561 37.792C81.2868 37.984 81.6601 38.08 82.0761 38.08ZM92.5125 43.232C91.7018 43.232 90.9178 43.1307 90.1605 42.928C89.4138 42.736 88.7898 42.4427 88.2885 42.048L89.2805 40.256C89.6432 40.5547 90.1018 40.7893 90.6565 40.96C91.2218 41.1413 91.7765 41.232 92.3205 41.232C93.2058 41.232 93.8458 41.0347 94.2405 40.64C94.6458 40.2453 94.8485 39.6587 94.8485 38.88V37.584L95.0085 35.424L94.9765 33.248V31.392H97.3445V38.56C97.3445 40.16 96.9285 41.3387 96.0965 42.096C95.2645 42.8533 94.0698 43.232 92.5125 43.232ZM92.1285 39.584C91.3285 39.584 90.6032 39.4133 89.9525 39.072C89.3125 38.72 88.7952 38.2347 88.4005 37.616C88.0165 36.9867 87.8245 36.256 87.8245 35.424C87.8245 34.5813 88.0165 33.8507 88.4005 33.232C88.7952 32.6027 89.3125 32.1173 89.9525 31.776C90.6032 31.4347 91.3285 31.264 92.1285 31.264C92.8538 31.264 93.4938 31.4133 94.0485 31.712C94.6032 32 95.0352 32.4533 95.3445 33.072C95.6538 33.68 95.8085 34.464 95.8085 35.424C95.8085 36.3733 95.6538 37.1573 95.3445 37.776C95.0352 38.384 94.6032 38.8373 94.0485 39.136C93.4938 39.4347 92.8538 39.584 92.1285 39.584ZM92.6245 37.536C93.0618 37.536 93.4512 37.4507 93.7925 37.28C94.1338 37.0987 94.4005 36.848 94.5925 36.528C94.7845 36.208 94.8805 35.84 94.8805 35.424C94.8805 34.9973 94.7845 34.6293 94.5925 34.32C94.4005 34 94.1338 33.7547 93.7925 33.584C93.4512 33.4027 93.0618 33.312 92.6245 33.312C92.1872 33.312 91.7978 33.4027 91.4565 33.584C91.1152 33.7547 90.8432 34 90.6405 34.32C90.4485 34.6293 90.3525 34.9973 90.3525 35.424C90.3525 35.84 90.4485 36.208 90.6405 36.528C90.8432 36.848 91.1152 37.0987 91.4565 37.28C91.7978 37.4507 92.1872 37.536 92.6245 37.536ZM99.6676 40V28.128H102.164V40H99.6676ZM108.752 40.128C107.771 40.128 106.907 39.936 106.16 39.552C105.424 39.168 104.853 38.6453 104.448 37.984C104.043 37.312 103.84 36.5493 103.84 35.696C103.84 34.832 104.037 34.0693 104.432 33.408C104.837 32.736 105.387 32.2133 106.08 31.84C106.773 31.456 107.557 31.264 108.432 31.264C109.275 31.264 110.032 31.4453 110.704 31.808C111.387 32.16 111.925 32.672 112.32 33.344C112.715 34.0053 112.912 34.8 112.912 35.728C112.912 35.824 112.907 35.936 112.896 36.064C112.885 36.1813 112.875 36.2933 112.864 36.4H105.872V34.944H111.552L110.592 35.376C110.592 34.928 110.501 34.5387 110.32 34.208C110.139 33.8773 109.888 33.6213 109.568 33.44C109.248 33.248 108.875 33.152 108.448 33.152C108.021 33.152 107.643 33.248 107.312 33.44C106.992 33.6213 106.741 33.8827 106.56 34.224C106.379 34.5547 106.288 34.9493 106.288 35.408V35.792C106.288 36.2613 106.389 36.6773 106.592 37.04C106.805 37.392 107.099 37.664 107.472 37.856C107.856 38.0373 108.304 38.128 108.816 38.128C109.275 38.128 109.675 38.0587 110.016 37.92C110.368 37.7813 110.688 37.5733 110.976 37.296L112.304 38.736C111.909 39.184 111.413 39.5307 110.816 39.776C110.219 40.0107 109.531 40.128 108.752 40.128ZM119.281 40V28.8H124.129C125.132 28.8 125.996 28.9653 126.721 29.296C127.446 29.616 128.006 30.08 128.401 30.688C128.796 31.296 128.993 32.0213 128.993 32.864C128.993 33.696 128.796 34.416 128.401 35.024C128.006 35.632 127.446 36.1013 126.721 36.432C125.996 36.752 125.132 36.912 124.129 36.912H120.721L121.873 35.744V40H119.281ZM121.873 36.032L120.721 34.8H123.985C124.785 34.8 125.382 34.6293 125.777 34.288C126.172 33.9467 126.369 33.472 126.369 32.864C126.369 32.2453 126.172 31.7653 125.777 31.424C125.382 31.0827 124.785 30.912 123.985 30.912H120.721L121.873 29.68V36.032ZM130.824 40V28.128H133.32V40H130.824ZM140.916 40V38.32L140.756 37.952V34.944C140.756 34.4107 140.591 33.9947 140.26 33.696C139.94 33.3973 139.444 33.248 138.772 33.248C138.314 33.248 137.86 33.3227 137.412 33.472C136.975 33.6107 136.602 33.8027 136.292 34.048L135.396 32.304C135.866 31.9733 136.431 31.7173 137.092 31.536C137.754 31.3547 138.426 31.264 139.108 31.264C140.42 31.264 141.439 31.5733 142.164 32.192C142.89 32.8107 143.252 33.776 143.252 35.088V40H140.916ZM138.292 40.128C137.62 40.128 137.044 40.016 136.564 39.792C136.084 39.5573 135.716 39.2427 135.46 38.848C135.204 38.4533 135.076 38.0107 135.076 37.52C135.076 37.008 135.199 36.56 135.444 36.176C135.7 35.792 136.1 35.4933 136.644 35.28C137.188 35.056 137.898 34.944 138.772 34.944H141.06V36.4H139.044C138.458 36.4 138.052 36.496 137.828 36.688C137.615 36.88 137.508 37.12 137.508 37.408C137.508 37.728 137.631 37.984 137.876 38.176C138.132 38.3573 138.479 38.448 138.916 38.448C139.332 38.448 139.706 38.352 140.036 38.16C140.367 37.9573 140.607 37.664 140.756 37.28L141.14 38.432C140.959 38.9867 140.628 39.408 140.148 39.696C139.668 39.984 139.05 40.128 138.292 40.128ZM146.443 43.232C145.995 43.232 145.552 43.1627 145.115 43.024C144.678 42.8853 144.32 42.6933 144.043 42.448L144.955 40.672C145.147 40.8427 145.366 40.976 145.611 41.072C145.867 41.168 146.118 41.216 146.363 41.216C146.715 41.216 146.992 41.1307 147.195 40.96C147.408 40.8 147.6 40.528 147.771 40.144L148.219 39.088L148.411 38.816L151.499 31.392H153.899L150.011 40.528C149.734 41.2213 149.414 41.7653 149.051 42.16C148.699 42.5547 148.304 42.832 147.867 42.992C147.44 43.152 146.966 43.232 146.443 43.232ZM147.915 40.336L144.075 31.392H146.651L149.627 38.592L147.915 40.336Z" fill="white"/>
<g clip-path="url(#clip0_884_4512)">
<path d="M26.9439 24.8645L12.1323 40.3826C12.2987 40.9721 12.5976 41.5157 13.0062 41.9719C13.4148 42.4282 13.9224 42.785 14.49 43.015C15.0576 43.245 15.6704 43.3422 16.2813 43.2991C16.8923 43.2561 17.4853 43.0739 18.0151 42.7665L34.6809 33.2748L26.9439 24.8645Z" fill="#EA4335"/>
<path d="M41.9212 22.2266L34.7143 18.0986L26.6021 25.2174L34.7473 33.2524L41.8993 29.1686C42.5329 28.8369 43.0636 28.338 43.4339 27.7262C43.8041 27.1143 43.9999 26.4128 43.9999 25.6976C43.9999 24.9824 43.8041 24.2808 43.4339 23.669C43.0636 23.0571 42.5329 22.5583 41.8993 22.2265L41.9212 22.2266Z" fill="#FBBC04"/>
<path d="M12.1325 10.9358C12.0431 11.2668 11.9985 11.6083 12 11.9512V39.367C12.0009 39.7098 12.0454 40.051 12.1325 40.3825L27.4519 25.2618L12.1325 10.9358Z" fill="#4285F4"/>
<path d="M27.0543 25.6593L34.7141 18.0989L18.0703 8.56288C17.4441 8.19616 16.7319 8.00194 16.0062 8.00001C14.2053 7.99651 12.6221 9.19176 12.1323 10.9249L27.0543 25.6593Z" fill="#34A853"/>
</g>
<defs>
<clipPath id="clip0_884_4512">
<rect width="32" height="35.375" fill="white" transform="translate(12 8)"/>
</clipPath>
</defs>
</svg>
