<svg width="70" height="70" viewBox="0 0 70 70" fill="none" xmlns="http://www.w3.org/2000/svg">
<path d="M70 34.9744C70.0061 39.7524 69.0312 44.4808 67.1359 48.8665C65.2406 53.2522 62.4651 57.2019 58.9815 60.4708C57.003 62.3377 54.8154 63.9694 52.4622 65.3334C52.1021 65.5351 51.742 65.7297 51.3819 65.917C50.5609 66.36 49.7183 66.767 48.8541 67.138C44.5621 68.9863 39.9445 69.9588 35.2718 69.9987C30.5992 70.0386 25.9656 69.145 21.6427 67.3703C20.6705 66.9705 19.7235 66.5293 18.8017 66.0466C13.301 63.1739 8.66275 58.89 5.3621 53.6338C2.06145 48.3776 0.217102 42.3381 0.0180213 36.1342C-0.18106 29.9302 1.27229 23.7849 4.22915 18.3277C7.18602 12.8706 11.5401 8.29796 16.8452 5.07827C22.1504 1.85858 28.2159 0.107623 34.4202 0.00480471C40.6246 -0.0980134 46.7447 1.451 52.1536 4.49314C57.5625 7.53528 62.0656 11.9612 65.2015 17.3173C68.3375 22.6735 69.9935 28.7673 70 34.9744Z" fill="#D7EAF1"/>
<path d="M58.9813 60.4708C57.0029 62.3377 54.8153 63.9694 52.462 65.3335C52.102 65.5352 51.7419 65.7297 51.3818 65.917C50.5608 66.36 49.7182 66.767 48.854 67.138C44.562 68.9863 39.9443 69.9588 35.2717 69.9987C30.5991 70.0386 25.9655 69.145 21.6426 67.3704C20.6704 66.9705 19.7234 66.5293 18.8015 66.0466C15.7266 64.4341 12.9087 62.3728 10.4404 59.9305C12.2288 57.408 14.7223 55.4701 17.6079 54.3601L20.8486 53.1175C23.8426 51.9664 26.3451 49.8126 27.9296 47.023L27.9998 46.8987L28.1727 46.5745C28.1727 46.5367 28.2105 46.4989 28.2321 46.4557C28.6296 45.6772 28.9533 44.8632 29.1989 44.0243C29.2853 43.7218 29.3664 43.4084 29.4312 43.095C29.4312 43.0572 29.4312 43.014 29.4312 42.9762L30.1171 39.648L30.1657 39.4265L30.7059 36.8763H38.3864L38.9589 39.6534L39.6503 42.9816C39.6503 43.0194 39.6503 43.0626 39.6503 43.1004C39.6503 43.1383 39.6503 43.2031 39.6881 43.2571C39.9376 44.3701 40.3279 45.4467 40.8494 46.4611C40.8818 46.5259 40.9142 46.5907 40.952 46.6556C40.9898 46.7204 41.006 46.7636 41.0438 46.8285L41.1518 47.0284C41.3841 47.4336 41.6326 47.8226 41.9026 48.2008C42.5762 49.1555 43.3694 50.0199 44.263 50.7726C45.4461 51.7718 46.7879 52.5661 48.2329 53.1229L51.4736 54.3655C54.5589 55.5548 57.1875 57.6924 58.9813 60.4708Z" fill="#F69779"/>
<path d="M39.6992 43.2517C39.1769 43.3645 38.6454 43.4296 38.1113 43.4462C36.5764 43.3674 35.0752 42.9663 33.7055 42.2691C32.3357 41.5719 31.1279 40.5942 30.1606 39.3994L30.7008 36.8492H38.3813L39.6452 42.9545C39.6452 42.9924 39.6452 43.0356 39.6452 43.0734C39.6452 43.1112 39.683 43.1815 39.6992 43.2517Z" fill="#F37A67"/>
<path d="M38.3272 11.9256C37.1767 11.1962 35.0865 10.3588 31.6513 10.3588C27.4977 10.3588 24.9322 12.8603 23.4036 15.3565C22.0939 17.5542 21.3774 20.0545 21.3241 22.6126L21.1351 29.1933C21.0001 33.9857 20.6706 42.7925 27.1953 41.2905V34.9745L41.9136 32.3757V51.3291C47.7632 50.6105 50.7608 45.3481 50.7608 40.5233V22.7855C50.7608 10.1589 38.3272 11.9256 38.3272 11.9256Z" fill="#051733"/>
<path d="M44.9436 25.1303C44.1281 15.713 34.8919 15.6266 34.5409 15.6266C34.2168 15.6266 24.9537 15.7076 24.1381 25.1249L24.0463 28.5125C23.9686 30.5085 24.3377 32.4965 25.1265 34.3315C25.9386 36.1826 27.2511 37.7702 28.9162 38.9157C30.5814 40.0611 32.5331 40.7189 34.5517 40.815C36.5703 40.7189 38.522 40.0611 40.1871 38.9157C41.8522 37.7702 43.1647 36.1826 43.9768 34.3315C44.7656 32.4965 45.1347 30.5085 45.0571 28.5125L44.9436 25.1303Z" fill="#F69779"/>
<path d="M58.9813 60.4708C57.0029 62.3376 54.8153 63.9694 52.462 65.3334C52.102 65.5351 51.7419 65.7296 51.3818 65.9169C50.5608 66.36 49.7182 66.767 48.854 67.138C44.562 68.9862 39.9443 69.9588 35.2717 69.9987C30.5991 70.0386 25.9655 69.145 21.6426 67.3703C20.6704 66.9705 19.7234 66.5293 18.8015 66.0466C15.7266 64.4341 12.9087 62.3728 10.4404 59.9305C12.2288 57.4079 14.7223 55.47 17.6079 54.3601L20.8486 53.1174C23.8426 51.9664 26.3451 49.8126 27.9296 47.0229L27.9998 46.8987C28.0665 46.7957 28.1244 46.6872 28.1727 46.5745C28.1727 46.5367 28.2105 46.4988 28.2321 46.4556C28.2753 45.8073 27.8594 45.0671 27.8702 44.3269C27.8715 44.0608 27.9383 43.7992 28.0647 43.5651C28.1727 43.3705 28.6804 43.2139 29.4312 43.095C31.2418 42.864 33.0668 42.7647 34.8918 42.7978C36.483 42.7842 38.0732 42.8835 39.6503 43.095C40.4011 43.2139 40.9088 43.3705 41.0168 43.5651C41.5569 44.5484 40.79 45.5803 40.8494 46.4556C40.8818 46.5204 40.9142 46.5853 40.952 46.6501C40.9898 46.715 41.006 46.7582 41.0438 46.823L41.1518 47.0229C41.3841 47.4281 41.6326 47.8172 41.9026 48.1954C42.5762 49.1501 43.3694 50.0144 44.263 50.7671C45.4461 51.7663 46.7879 52.5607 48.2329 53.1174L51.4736 54.3601C54.5597 55.5508 57.1884 57.6904 58.9813 60.4708Z" fill="#FFA33B"/>
<path d="M38.6136 14.546C35.3729 20.1975 29.3883 23.866 23.0905 25.4977C22.6908 23.3744 23.9385 21.1754 25.251 19.4951C26.8822 17.4636 28.778 15.6266 31.1113 14.546C33.4446 13.4654 36.3451 13.3141 38.6136 14.546Z" fill="#051733"/>
<path d="M36.4585 14.6811C36.8085 15.746 37.4194 16.7062 38.2355 17.4744C40.612 20.0516 43.3613 22.3965 46.6452 23.6067C46.8667 21.0295 45.4624 18.4253 43.5341 16.7072C41.7031 15.0161 38.862 14.0652 36.4585 14.6811Z" fill="#051733"/>
<path d="M58.9815 60.4708C57.003 62.3376 54.8154 63.9694 52.4622 65.3334C52.1021 65.5351 51.742 65.7296 51.3819 65.9169C51.0501 63.0819 50.1656 60.3395 48.7785 57.845C48.3706 57.0706 47.8581 56.3561 47.2554 55.7216C46.3496 54.9356 45.3607 54.2507 44.3063 53.6793C42.5632 52.5863 40.9738 51.2653 39.5802 49.7514C38.8634 49.0747 38.3444 48.2155 38.0787 47.2661C37.9869 46.8446 37.9923 46.407 37.868 45.991C37.6914 45.5165 37.4027 45.0918 37.0265 44.7531C36.6503 44.4145 36.1978 44.1718 35.7076 44.0459C34.7159 43.7988 33.691 43.713 32.6721 43.792C31.4954 43.7924 30.3203 43.8773 29.1559 44.0459C28.7061 44.1141 28.262 44.2152 27.8271 44.3485C27.8285 44.0824 27.8953 43.8208 28.0216 43.5867C28.1296 43.3922 28.6373 43.2355 29.3881 43.1166C31.2125 42.8763 33.052 42.7698 34.892 42.7978C36.4849 42.7842 38.0769 42.8835 39.6559 43.095C40.4066 43.2139 40.9143 43.3706 41.0224 43.5651C41.5625 44.5484 40.7955 45.5803 40.8549 46.4556C40.8873 46.5205 40.9197 46.5853 40.9576 46.6501C40.9954 46.715 41.0116 46.7582 41.0494 46.823L41.1574 47.0229C41.3896 47.4281 41.6381 47.8172 41.9082 48.1954C42.5817 49.1501 43.375 50.0144 44.2685 50.7671C45.4517 51.7663 46.7935 52.5607 48.2384 53.1174L51.4792 54.3601C54.5632 55.5518 57.1899 57.6913 58.9815 60.4708Z" fill="#FF863B"/>
<path d="M30.6521 44.8726C30.6143 44.5322 30.0742 44.5268 30.112 44.8726C30.2442 46.0573 29.9904 47.2531 29.3882 48.2819C29.3607 48.3428 29.3567 48.4118 29.3771 48.4755C29.3975 48.5392 29.4408 48.593 29.4986 48.6267C29.5564 48.6603 29.6246 48.6712 29.69 48.6575C29.7554 48.6437 29.8134 48.6061 29.8527 48.552C30.5086 47.4438 30.789 46.1532 30.6521 44.8726Z" fill="#FF863B"/>
<path d="M32.9368 44.6997C32.8773 44.3539 32.3588 44.4998 32.3966 44.8456C32.582 45.9562 32.3919 47.0969 31.8565 48.0873C31.6999 48.3953 32.1644 48.6654 32.3264 48.3575C32.9337 47.241 33.1487 45.9529 32.9368 44.6997Z" fill="#FF863B"/>
<path d="M34.3843 44.9644V48.4817C34.3843 48.5534 34.4127 48.6221 34.4634 48.6727C34.514 48.7234 34.5827 48.7519 34.6543 48.7519C34.726 48.7519 34.7947 48.7234 34.8453 48.6727C34.8959 48.6221 34.9244 48.5534 34.9244 48.4817V44.9644C34.9244 44.8928 34.8959 44.8241 34.8453 44.7734C34.7947 44.7227 34.726 44.6943 34.6543 44.6943C34.5827 44.6943 34.514 44.7227 34.4634 44.7734C34.4127 44.8241 34.3843 44.8928 34.3843 44.9644Z" fill="#FF863B"/>
<path d="M37.841 48.1306C37.061 47.2965 36.6166 46.2036 36.5933 45.0617C36.5933 44.9901 36.5649 44.9214 36.5142 44.8707C36.4636 44.82 36.3949 44.7916 36.3233 44.7916C36.2517 44.7916 36.183 44.82 36.1323 44.8707C36.0817 44.9214 36.0532 44.9901 36.0532 45.0617C36.0785 46.3477 36.5809 47.5783 37.4629 48.5142C37.6952 48.7681 38.0787 48.3845 37.841 48.1306Z" fill="#FF863B"/>
<path d="M21.6535 67.3487C20.6813 66.9489 19.7343 66.5077 18.8125 66.025L21.3889 58.3096L21.6535 67.3487Z" fill="#FF863B"/>
<path d="M52.4624 65.3335C52.1024 65.5352 51.7423 65.7297 51.3822 65.917C50.5612 66.36 49.7186 66.7671 48.8544 67.1381C49.3441 64.0576 49.3186 60.9171 48.7788 57.845C51.0581 59.5307 52.0574 62.162 52.4624 65.3335Z" fill="#FF863B"/>
<path d="M34.0225 26.6215V32.8025H35.0703C36.8635 32.8025 34.3519 27.3347 34.0225 26.6215Z" fill="#F37A67"/>
<path d="M41.6381 24.2118C40.9368 23.8525 40.167 23.6468 39.38 23.6086C38.593 23.5704 37.8068 23.7006 37.0741 23.9903C36.4313 24.2443 36.7122 25.2924 37.3603 25.0331C37.954 24.7826 38.5948 24.663 39.2388 24.6826C39.8829 24.7022 40.5152 24.8604 41.0926 25.1466C41.7137 25.4545 42.2593 24.5252 41.6381 24.2118Z" fill="#051733"/>
<path d="M40.3366 26.1406C40.2275 25.9701 40.0762 25.8307 39.8973 25.736C39.7184 25.6413 39.5181 25.5946 39.3157 25.6004C39.1758 25.5902 39.0353 25.6089 38.9029 25.6555C38.7705 25.702 38.6492 25.7754 38.5464 25.871C38.4437 25.9665 38.3617 26.0823 38.3057 26.2109C38.2496 26.3396 38.2207 26.4785 38.2207 26.6188C38.2207 26.7592 38.2496 26.898 38.3057 27.0267C38.3617 27.1554 38.4437 27.2711 38.5464 27.3667C38.6492 27.4622 38.7705 27.5356 38.9029 27.5821C39.0353 27.6287 39.1758 27.6475 39.3157 27.6373C39.4356 27.6353 39.5542 27.6134 39.6668 27.5724C39.7006 27.5613 39.7331 27.5468 39.764 27.5292C40.0301 27.4002 40.2595 27.2065 40.4312 26.9658C40.603 26.725 40.7116 26.4451 40.7471 26.1515C40.5904 26.2973 40.3366 26.1406 40.3366 26.1406Z" fill="#051733"/>
<path d="M27.422 24.2118C28.1233 23.8525 28.8931 23.6468 29.6802 23.6086C30.4672 23.5704 31.2533 23.7006 31.9861 23.9903C32.6288 24.2443 32.3479 25.2924 31.6998 25.0331C31.1061 24.7826 30.4654 24.663 29.8213 24.6826C29.1772 24.7022 28.545 24.8604 27.9675 25.1466C27.3302 25.4545 26.7901 24.5252 27.422 24.2118Z" fill="#051733"/>
<path d="M28.7235 26.1406C28.8325 25.9701 28.9839 25.8307 29.1628 25.736C29.3416 25.6413 29.542 25.5946 29.7443 25.6004C29.8843 25.5902 30.0248 25.6089 30.1572 25.6555C30.2895 25.702 30.4109 25.7754 30.5136 25.871C30.6164 25.9665 30.6983 26.0823 30.7544 26.2109C30.8104 26.3396 30.8394 26.4785 30.8394 26.6188C30.8394 26.7592 30.8104 26.898 30.7544 27.0267C30.6983 27.1554 30.6164 27.2711 30.5136 27.3667C30.4109 27.4622 30.2895 27.5356 30.1572 27.5821C30.0248 27.6287 29.8843 27.6475 29.7443 27.6373C29.6245 27.6353 29.5059 27.6134 29.3932 27.5724C29.3595 27.5613 29.3269 27.5468 29.296 27.5292C29.03 27.4002 28.8006 27.2065 28.6288 26.9658C28.4571 26.725 28.3485 26.4451 28.313 26.1515C28.4696 26.2973 28.7235 26.1406 28.7235 26.1406Z" fill="#051733"/>
<path d="M31.2085 35.0123C31.4531 35.6977 31.9036 36.2907 32.4982 36.71C33.0929 37.1293 33.8027 37.3544 34.5303 37.3544C35.2578 37.3544 35.9676 37.1293 36.5623 36.71C37.1569 36.2907 37.6074 35.6977 37.852 35.0123H31.2085Z" fill="white"/>
</svg>
