<svg width="70" height="71" viewBox="0 0 70 71" fill="none" xmlns="http://www.w3.org/2000/svg">
<path d="M70 35.5014C69.9952 41.9895 68.2402 48.3525 64.9251 53.9012C61.61 59.45 56.8611 63.9728 51.1929 66.9799C50.3791 67.4145 49.5473 67.8145 48.6975 68.1797C47.5281 68.6878 46.3306 69.1268 45.1111 69.4945C44.2901 69.7465 43.4583 69.9711 42.6157 70.1574C42.3349 70.2231 42.0486 70.2834 41.7623 70.3381C37.3034 71.2206 32.7182 71.2206 28.2593 70.3381C27.3699 70.1628 26.4931 69.9528 25.6289 69.7081C25.3912 69.6424 25.1482 69.5712 24.9105 69.4945C23.6901 69.1243 22.4909 68.6854 21.3187 68.1797C20.4707 67.8126 19.6335 67.4127 18.8233 66.9799C13.3183 64.0697 8.67548 59.7269 5.37093 54.3966C2.06638 49.0664 0.219014 42.9405 0.0183022 36.6474C-0.18241 30.3542 1.27074 24.1201 4.22874 18.5844C7.18673 13.0486 11.5431 8.41046 16.8512 5.1455C22.1592 1.88054 28.228 0.106265 34.435 0.00462652C40.6421 -0.0970123 46.7641 1.47764 52.1733 4.56711C57.5825 7.65658 62.0843 12.1497 65.2169 17.5857C68.3495 23.0217 70.0003 29.205 70 35.5014Z" fill="#D7EAF1"/>
<path d="M47.5468 26.9936C47.5468 26.9662 47.9249 20.1676 45.6725 15.7904C44.4249 13.4128 42.0321 12.098 39.8338 11.3748C36.6956 10.3394 33.3146 10.3394 30.1764 11.3748C27.9781 12.098 25.5854 13.4128 24.3377 15.7904C22.0854 20.173 22.4634 26.9662 22.4634 26.9936C22.1286 33.0197 17.8832 38.4159 20.9727 41.7193C27.0005 46.9511 35.0159 38.5035 35.0159 38.5035C35.0159 38.5035 43.0205 46.9511 49.0591 41.7193C52.127 38.4159 47.8816 33.0252 47.5468 26.9936Z" fill="#051733"/>
<path d="M58.8624 61.4687C56.5625 63.6481 53.9825 65.5019 51.1927 66.9799C50.3789 67.4145 49.5471 67.8144 48.6973 68.1796C47.5278 68.6878 46.3304 69.1268 45.1109 69.4944C44.2899 69.7465 43.4581 69.9711 42.6155 70.1573C42.3346 70.2231 42.0484 70.2833 41.7621 70.3381C37.3031 71.2206 32.718 71.2206 28.259 70.3381C27.3696 70.1628 26.4928 69.9528 25.6286 69.7081C25.391 69.6424 25.1479 69.5711 24.9103 69.4944C23.6898 69.1243 22.4907 68.6854 21.3184 68.1796C20.4704 67.8126 19.6332 67.4127 18.8231 66.9799C16.0361 65.5104 13.4564 63.6679 11.1533 61.5016C12.9186 59.0982 15.3196 57.2519 18.0777 56.1766L21.3184 54.9166L21.8964 54.6756L22.3285 54.4729C22.4797 54.4017 22.6309 54.3249 22.7768 54.2428C22.9226 54.1606 23.09 54.0784 23.2413 53.9853C23.6606 53.7455 24.0663 53.4822 24.4565 53.1964C24.6366 53.0686 24.8166 52.9371 24.9967 52.802C27.5363 50.7508 29.2885 47.8631 29.9496 44.6393L30.1495 43.6751L30.4897 42.0042L30.641 41.2701L31.2135 38.4542H38.8941L39.4666 41.2701L39.6178 42.0097L40.1579 44.6447C40.2065 44.8858 40.2606 45.1213 40.3254 45.3569C40.3902 45.5925 40.455 45.85 40.5306 46.091C40.6062 46.3321 40.6819 46.5348 40.7629 46.7539C40.8439 46.973 40.8817 47.0662 40.9465 47.2196C41.0113 47.373 41.0491 47.4716 41.1086 47.5921C41.168 47.7126 41.249 47.9044 41.3246 48.0577C41.4002 48.2111 41.4758 48.3645 41.5569 48.5124C42.5528 50.3639 43.9443 51.9661 45.6294 53.2019C46.1338 53.5706 46.6625 53.9037 47.2119 54.199C47.4388 54.325 47.6656 54.44 47.9033 54.5496C48.141 54.6591 48.4758 54.8071 48.7675 54.9221L52.0082 56.1821C54.7365 57.2576 57.1116 59.0895 58.8624 61.4687Z" fill="#E44424"/>
<path d="M58.8626 61.4687C56.5627 63.6481 53.9827 65.502 51.1929 66.9799C50.3791 67.4145 49.5473 67.8145 48.6975 68.1797C47.5281 68.6878 46.3306 69.1268 45.1111 69.4945C44.2901 69.7465 43.4583 69.9711 42.6157 70.1574C42.8156 63.7751 43.1558 57.3929 43.2477 50.9832C43.9429 51.8031 44.7295 52.5384 45.5918 53.1745C46.0879 53.5505 46.6115 53.8875 47.1581 54.1826C47.385 54.3086 47.6118 54.4236 47.8495 54.5332C48.0872 54.6427 48.422 54.7907 48.7137 54.9057L51.9544 56.1657C54.7044 57.2368 57.0994 59.0753 58.8626 61.4687Z" fill="#A1CC36"/>
<path d="M25.6179 69.7081C25.3802 69.6424 25.1372 69.5712 24.8995 69.4945C23.6791 69.1243 22.4799 68.6854 21.3077 68.1797C20.4597 67.8126 19.6225 67.4127 18.8123 66.9799C16.0254 65.5105 13.4457 63.6679 11.1426 61.5016C12.9079 59.0983 15.3089 57.2519 18.067 56.1766L21.3077 54.9166L21.8856 54.6756L22.3177 54.4729C22.469 54.4017 22.6202 54.325 22.766 54.2428L23.2305 53.9853C23.6447 53.7418 24.0451 53.4747 24.4296 53.1855L24.9697 52.7801C24.9967 56.7026 25.1534 60.6141 25.5099 64.5202C25.6233 66.2403 25.6287 67.9715 25.6179 69.7081Z" fill="#A1CC36"/>
<path d="M41.5086 48.4741C40.7085 49.432 39.7123 50.2016 38.5893 50.7295C37.4662 51.2574 36.2433 51.5308 35.0055 51.5308C33.7677 51.5308 32.5448 51.2574 31.4218 50.7295C30.2988 50.2016 29.3025 49.432 28.5024 48.4741C29.1528 47.2612 29.6241 45.9581 29.9014 44.6064L30.1012 43.6422L31.1814 38.4159H38.862L40.1259 44.6064C40.2303 45.0995 40.3545 45.5816 40.4986 46.0527C40.7617 46.8894 41.0998 47.6999 41.5086 48.4741Z" fill="#F69779"/>
<path d="M40.4984 46.0527C39.4438 46.4607 38.3313 46.6938 37.2036 46.7429C34.5509 46.6063 32.0354 45.5056 30.1172 43.6422L31.1974 38.4159H38.878L40.1419 44.6064C40.2247 45.1104 40.3435 45.5925 40.4984 46.0527Z" fill="#F37A67"/>
<path d="M50.4099 42.3219C50.913 42.0172 51.4938 41.8702 52.0791 41.8995C52.6644 41.9287 53.2281 42.1329 53.6992 42.4863C54.6349 43.217 55.2716 44.2724 55.487 45.4501C55.695 46.6173 55.7495 47.8073 55.6491 48.9891C55.0174 49.3663 54.3077 49.5889 53.5764 49.6393C52.8451 49.6897 52.1123 49.5665 51.4361 49.2794C50.8041 48.9698 50.2559 48.5087 49.839 47.936C49.4221 47.3633 49.149 46.6962 49.0434 45.9924C48.91 45.3122 48.9674 44.6077 49.2089 43.9589C49.4505 43.3101 49.8665 42.743 50.4099 42.3219Z" fill="#051733"/>
<path d="M50.9443 42.2069C50.9454 42.4791 50.8668 42.7455 50.7185 42.9723C50.5701 43.1992 50.3588 43.3762 50.1112 43.4812C49.8635 43.5861 49.5908 43.6141 49.3275 43.5617C49.0641 43.5092 48.822 43.3787 48.6319 43.1866C48.4418 42.9945 48.3121 42.7495 48.2594 42.4826C48.2066 42.2158 48.2331 41.939 48.3356 41.6874C48.438 41.4358 48.6118 41.2208 48.8349 41.0694C49.0579 40.9181 49.3202 40.8373 49.5886 40.8373C49.9472 40.8373 50.2912 40.9814 50.5453 41.2381C50.7994 41.4948 50.9429 41.8431 50.9443 42.2069Z" fill="#E44424"/>
<path d="M19.6011 42.3219C19.098 42.0172 18.5172 41.8702 17.9319 41.8995C17.3466 41.9287 16.7829 42.1329 16.3117 42.4863C15.376 43.217 14.7394 44.2724 14.5239 45.4501C14.3159 46.6173 14.2614 47.8073 14.3619 48.9891C14.9935 49.3663 15.7032 49.5889 16.4345 49.6393C17.1659 49.6897 17.8987 49.5665 18.5749 49.2794C19.2069 48.9698 19.7551 48.5087 20.172 47.936C20.5889 47.3633 20.862 46.6962 20.9676 45.9924C21.101 45.3122 21.0436 44.6077 20.802 43.9589C20.5605 43.3101 20.1444 42.743 19.6011 42.3219Z" fill="#051733"/>
<path d="M20.4221 43.5764C21.1678 43.5764 21.7724 42.9633 21.7724 42.2069C21.7724 41.4505 21.1678 40.8373 20.4221 40.8373C19.6763 40.8373 19.0718 41.4505 19.0718 42.2069C19.0718 42.9633 19.6763 43.5764 20.4221 43.5764Z" fill="#E44424"/>
<path d="M48.2005 27.7058C48.1599 27.2649 47.9689 26.8522 47.6603 26.5389C47.3569 26.2873 46.9714 26.1602 46.5801 26.1828C46.1856 26.2127 45.8013 26.3245 45.4512 26.5115C45.4881 25.2272 45.3976 23.9425 45.1812 22.6766C44.587 19.3294 43.0801 17.3791 41.4003 16.256C39.5197 14.9673 37.3019 14.2786 35.0322 14.2786C32.7626 14.2786 30.5448 14.9673 28.6642 16.256C26.9898 17.3791 25.4829 19.3294 24.8833 22.6766C24.6669 23.9425 24.5764 25.2272 24.6133 26.5115C24.2632 26.3245 23.8789 26.2127 23.4844 26.1828C23.0931 26.1602 22.7076 26.2873 22.4042 26.5389C22.0956 26.8522 21.9046 27.2649 21.864 27.7058C21.7353 28.5934 21.9375 29.4978 22.4312 30.2422C22.913 30.9848 23.6539 31.5152 24.5052 31.7268C26.0068 42.4096 35.0592 42.4096 35.0592 42.4096C35.0592 42.4096 44.1117 42.4096 45.6133 31.7268C46.4646 31.5152 47.2054 30.9848 47.6873 30.2422C48.1622 29.4904 48.345 28.5865 48.2005 27.7058Z" fill="#F69779"/>
<path d="M47.131 57.7818L45.1109 69.4944C44.2899 69.7465 43.4581 69.9711 42.6156 70.1573C42.3347 70.2231 42.0484 70.2833 41.7622 70.3381L40.428 49.5205L40.2066 46.1294L40.1094 44.5845C40.1094 44.5845 46.7043 47.1593 47.0986 49.8327C47.4659 52.3473 45.7915 53.0649 45.597 53.1197L46.6773 54.9824C47.1532 55.8306 47.3142 56.8236 47.131 57.7818Z" fill="#718F26"/>
<path d="M29.9013 44.6064L29.5826 49.5369L28.2485 70.3545C27.3591 70.1792 26.4823 69.9692 25.6181 69.7245C25.3805 69.6588 25.1374 69.5876 24.8998 69.5109L22.8797 57.7982C22.7192 56.8562 22.8892 55.887 23.3604 55.0591L24.4406 53.1964C24.2462 53.1252 22.5718 52.4075 22.9391 49.9094C23.3064 47.1812 29.9013 44.6064 29.9013 44.6064Z" fill="#718F26"/>
<path d="M21.3079 68.1796C20.4599 67.8126 19.6227 67.4127 18.8125 66.9799L19.9738 60.9044L21.3079 68.1796Z" fill="#718F26"/>
<path d="M51.1931 66.9799C50.3793 67.4145 49.5475 67.8144 48.6978 68.1796L50.0481 60.9044L51.1931 66.9799Z" fill="#718F26"/>
<path d="M34.4976 26.8182V33.0854H35.5454C37.3386 33.0854 34.8324 27.5359 34.4976 26.8182Z" fill="#F37A67"/>
<path d="M42.1191 24.3749C41.4181 24.0095 40.6482 23.8004 39.861 23.7617C39.0738 23.7229 38.2876 23.8554 37.555 24.1503C36.9123 24.4078 37.1931 25.4651 37.8413 25.2076C38.435 24.9536 39.0757 24.8324 39.7198 24.8523C40.3639 24.8721 40.9961 25.0325 41.5735 25.3227C42.1893 25.6404 42.7348 24.6872 42.1191 24.3749Z" fill="#051733"/>
<path d="M40.8117 26.3252C40.7018 26.153 40.5504 26.0123 40.3717 25.9164C40.1929 25.8205 39.993 25.7726 39.7908 25.7774C39.6509 25.7671 39.5104 25.7861 39.378 25.8333C39.2456 25.8805 39.1243 25.9549 39.0215 26.0518C38.9188 26.1487 38.8368 26.266 38.7808 26.3965C38.7247 26.527 38.6958 26.6677 38.6958 26.8101C38.6958 26.9524 38.7247 27.0932 38.7808 27.2236C38.8368 27.3541 38.9188 27.4714 39.0215 27.5683C39.1243 27.6652 39.2456 27.7396 39.378 27.7868C39.5104 27.834 39.6509 27.8531 39.7908 27.8427C39.9106 27.8407 40.0293 27.8185 40.1419 27.777C40.1757 27.7657 40.2082 27.751 40.2391 27.7332C40.5049 27.602 40.734 27.4054 40.9057 27.1614C41.0774 26.9174 41.1862 26.6337 41.2222 26.3362C41.0655 26.4896 40.8117 26.3252 40.8117 26.3252Z" fill="#051733"/>
<path d="M27.8974 24.3749C28.5983 24.0095 29.3682 23.8004 30.1554 23.7617C30.9426 23.7229 31.7289 23.8554 32.4614 24.1503C33.1041 24.4078 32.8233 25.4651 32.1751 25.2076C31.5814 24.9536 30.9407 24.8324 30.2966 24.8523C29.6526 24.8721 29.0203 25.0325 28.4429 25.3227C27.8217 25.6404 27.2762 24.6872 27.8974 24.3749Z" fill="#051733"/>
<path d="M29.1991 26.3252C29.3089 26.153 29.4604 26.0123 29.6391 25.9164C29.8178 25.8205 30.0178 25.7726 30.2199 25.7774C30.3598 25.7671 30.5004 25.7861 30.6327 25.8333C30.7651 25.8805 30.8864 25.9549 30.9892 26.0518C31.092 26.1487 31.1739 26.266 31.23 26.3965C31.286 26.527 31.3149 26.6677 31.3149 26.8101C31.3149 26.9524 31.286 27.0932 31.23 27.2236C31.1739 27.3541 31.092 27.4714 30.9892 27.5683C30.8864 27.6652 30.7651 27.7396 30.6327 27.7868C30.5004 27.834 30.3598 27.8531 30.2199 27.8427C30.1001 27.8407 29.9814 27.8185 29.8688 27.777C29.8351 27.7657 29.8025 27.751 29.7716 27.7332C29.5059 27.602 29.2767 27.4054 29.105 27.1614C28.9333 26.9174 28.8245 26.6337 28.7886 26.3362C28.9452 26.4896 29.1991 26.3252 29.1991 26.3252Z" fill="#051733"/>
<path d="M31.6836 35.3206C31.9282 36.0156 32.3787 36.6169 32.9734 37.0421C33.568 37.4672 34.2778 37.6954 35.0053 37.6954C35.7329 37.6954 36.4427 37.4672 37.0374 37.0421C37.632 36.6169 38.0825 36.0156 38.3271 35.3206H31.6836Z" fill="white"/>
<path d="M33.8276 12.8321L36.0205 16.3876C36.4647 17.16 36.9725 17.8931 37.5383 18.5789C38.0455 19.1271 38.6005 19.6276 39.1965 20.0745C41.357 21.7563 43.8307 23.1862 46.5421 23.493C45.8778 21.1427 45.4943 18.6446 44.0468 16.6834C42.8671 15.1385 41.2849 13.9592 39.4791 13.2786C37.6732 12.598 35.7156 12.4434 33.8276 12.8321Z" fill="#051733"/>
<path d="M35.8212 13.4292C35.3135 15.5 33.8497 17.1983 32.2564 18.5953C29.9126 20.6646 27.1701 22.2168 24.2031 23.1533C24.2059 21.1563 24.7903 19.2047 25.8829 17.5435C26.3949 16.5984 27.0828 15.7631 27.9084 15.0837C28.6987 14.562 29.5642 14.1684 30.474 13.9168C32.1592 13.3525 34.109 12.9526 35.8212 13.4292Z" fill="#051733"/>
</svg>
