<svg width="70" height="70" viewBox="0 0 70 70" fill="none" xmlns="http://www.w3.org/2000/svg">
<path d="M69.9998 35.0014C69.9987 41.9229 67.945 48.6887 64.0983 54.4432C60.2515 60.1976 54.7846 64.6823 48.3888 67.3301C41.993 69.9778 34.9556 70.6698 28.1665 69.3184C21.3774 67.967 15.1415 64.633 10.2474 59.738C5.35336 54.843 2.02091 48.6068 0.671476 41.8181C-0.677955 35.0293 0.0162445 27.9929 2.66629 21.5987C5.31634 15.2044 9.80321 9.73953 15.5595 5.89502C21.3158 2.05051 28.083 -0.000916598 35.0053 0.000151457C39.6056 -0.0134016 44.1631 0.882762 48.4157 2.63707C52.6682 4.39138 56.5318 6.96921 59.7842 10.2222C63.0366 13.4752 65.6135 17.3392 67.3667 21.5918C69.1199 25.8444 70.0148 30.4017 69.9998 35.0014Z" fill="#D7EAF1"/>
<path d="M54.817 61.3131C54.5038 60.8379 54.0393 60.4706 53.7368 59.99C52.2136 57.6299 55.0061 54.2005 53.4991 51.8351C53.1461 51.3783 52.7674 50.942 52.3649 50.5281C51.9918 50.0542 51.7322 49.5012 51.6058 48.9115C51.4794 48.3218 51.4896 47.7109 51.6357 47.1258C51.9814 45.7918 53.0454 44.6037 52.9104 43.2319C52.824 42.3246 52.2299 41.5632 51.8302 40.7369C51.2344 39.4447 51.1457 37.976 51.5817 36.6216C52.0084 35.3093 52.9266 34.1157 52.9266 32.7332C52.9266 30.7242 51.0146 29.1418 50.8363 27.1382C50.7715 26.4415 50.9282 25.7448 50.9282 25.0427C50.9204 24.3343 50.7578 23.636 50.4517 22.997C50.1457 22.358 49.7037 21.7936 49.1566 21.3433C48.6164 20.8951 47.9251 20.5494 47.5362 19.9446C46.9421 18.9779 47.3039 17.6547 46.7368 16.6772C45.7538 14.9976 43.0424 15.5971 41.4868 14.3981C40.3148 13.5124 39.9313 11.6978 38.5486 11.2064C37.9456 11.0243 37.2979 11.0587 36.7175 11.3036C35.5916 11.698 34.3651 11.698 33.2392 11.3036C32.6588 11.0587 32.0112 11.0243 31.4082 11.2064C30.0254 11.7086 29.642 13.5124 28.4699 14.3981C26.9143 15.5755 24.2029 14.9976 23.2199 16.6772C22.6528 17.6547 23.0147 18.9779 22.4205 19.9446C22.0478 20.5494 21.3727 20.8951 20.8002 21.3433C20.253 21.7936 19.811 22.358 19.505 22.997C19.1989 23.636 19.0363 24.3343 19.0286 25.0427C19.0286 25.7448 19.1852 26.4415 19.1204 27.1382C18.9421 29.1418 17.0247 30.7242 17.0301 32.7332C17.0301 34.1157 17.9483 35.3093 18.375 36.6216C18.811 37.976 18.7223 39.4447 18.1265 40.7369C17.7431 41.5632 17.1489 42.3246 17.0463 43.2319C16.9113 44.6037 17.9753 45.7918 18.321 47.1258C18.4671 47.7109 18.4773 48.3218 18.3509 48.9115C18.2245 49.5012 17.9649 50.0542 17.5918 50.5281C17.1893 50.942 16.8106 51.3783 16.4576 51.8351C14.9506 54.2005 17.7431 57.6299 16.2199 59.99C15.912 60.4706 15.4475 60.8379 15.1397 61.3131C14.8318 61.7884 14.5996 62.4311 14.9668 62.8631H54.9359C55.368 62.4311 55.1303 61.7938 54.817 61.3131Z" fill="#E44424"/>
<path d="M59.2786 60.206C52.7605 66.4892 44.0594 70 35.0055 70C25.9516 70 17.2505 66.4892 10.7324 60.206C12.5347 57.5693 15.0912 55.5383 18.0673 54.3788L20.1521 53.5741L21.2918 53.1366C23.4602 52.3017 25.3846 50.9363 26.8887 49.1654C28.3928 47.3944 29.4287 45.2745 29.9013 42.9997L30.2848 41.1473L30.5927 39.6729L31.1652 36.897H38.8458L39.4183 39.6729L40.1096 42.9997C40.242 43.6477 40.4226 44.285 40.6498 44.9061C41.3251 46.7759 42.3948 48.4786 43.7861 49.8987C45.1775 51.3188 46.858 52.4231 48.7138 53.1366L48.7948 53.169L49.875 53.5741L51.9599 54.3788C54.936 55.5383 57.4925 57.5693 59.2948 60.206H59.2786Z" fill="#F69779"/>
<path d="M40.655 44.9061C39.8965 45.1209 39.1149 45.2442 38.3271 45.2734C36.7704 45.196 35.248 44.7881 33.8613 44.0766C32.4746 43.3652 31.2553 42.3666 30.2847 41.1473L31.1651 36.897H38.8456L40.1095 42.9997C40.2436 43.6479 40.426 44.2851 40.655 44.9061Z" fill="#F37A67"/>
<path d="M48.2006 26.3389C48.16 25.9042 47.969 25.4974 47.6605 25.1886C47.357 24.9405 46.9716 24.8153 46.5802 24.8375C46.1857 24.867 45.8015 24.9773 45.4514 25.1615C45.4514 25.1615 45.4514 23.7466 45.2515 21.9806C45.0645 20.2812 44.2544 18.7114 42.9776 17.5743C41.7007 16.4373 40.0478 15.8137 38.338 15.8239H31.6405C29.939 15.8257 28.298 16.4547 27.0314 17.5906C25.7648 18.7265 24.9616 20.2896 24.7755 21.9806C24.5811 23.7466 24.5756 25.1615 24.5756 25.1615C24.2256 24.9773 23.8413 24.867 23.4468 24.8375C23.0555 24.8153 22.67 24.9405 22.3666 25.1886C22.058 25.4974 21.867 25.9042 21.8264 26.3389C21.6977 27.2139 21.8999 28.1055 22.3936 28.8394C22.8754 29.5714 23.6163 30.0942 24.4676 30.3029C25.9692 40.8341 35.0216 40.8341 35.0216 40.8341C35.0216 40.8341 44.0741 40.8341 45.5756 30.3029C46.4269 30.0942 47.1678 29.5714 47.6497 28.8394C48.1377 28.1033 48.3341 27.2119 48.2006 26.3389Z" fill="#F69779"/>
<path d="M44.9544 19.8204L41.7137 18.3244C40.4984 17.7844 38.9807 17.2443 37.9328 18.0382C37.074 18.6971 36.912 20.004 36.0208 20.6251C34.4004 21.7484 31.9591 19.7232 30.2901 20.7709C29.172 21.4784 29.1342 23.131 28.2592 24.1193C27.5625 24.9024 26.4336 25.1616 25.6829 25.8961C24.5216 27.0248 24.6026 28.8772 24.7214 30.492C24.8403 32.1068 24.8619 33.9808 23.6412 35.0447C22.4799 34.9637 21.767 33.9646 21.4051 32.8844C20.4437 29.9681 21.2593 26.7872 22.3017 23.9032C23.1389 21.6026 24.1489 19.3073 25.8233 17.5251C29.0964 14.0418 34.4004 13.1291 39.1103 13.9769C40.667 14.1693 42.1421 14.7816 43.3772 15.7483C43.9133 16.2769 44.3311 16.9131 44.603 17.6151C44.8748 18.3171 44.9946 19.0687 44.9544 19.8204Z" fill="#E44424"/>
<path d="M51.2032 66.0225C46.2007 68.6319 40.6419 69.9946 34.9996 69.9946C29.3572 69.9946 23.7984 68.6319 18.7959 66.0225C19.0552 65.1314 19.2658 64.2295 19.4386 63.3222C19.4711 63.1656 19.4981 63.0089 19.5251 62.8523C20.0422 59.7846 20.2484 56.6725 20.1408 53.5633L21.2805 53.1258C22.8711 52.5166 24.3359 51.6196 25.6014 50.4796C24.7318 62.7065 35.0049 60.9081 35.0049 60.9081C35.0049 60.9081 45.2673 62.7065 44.4139 50.485C45.6806 51.6219 47.1452 52.517 48.7349 53.1258L48.8159 53.1582L49.8961 53.5633C49.7861 56.6723 49.9906 59.7844 50.5065 62.8523C50.6839 63.9203 50.9165 64.9785 51.2032 66.0225Z" fill="#E30081"/>
<path d="M51.2032 66.0224C46.2007 68.6319 40.6419 69.9946 34.9996 69.9946C29.3572 69.9946 23.7984 68.6319 18.7959 66.0224C19.0552 65.1313 19.2658 64.2294 19.4386 63.3221C19.8437 63.1439 20.2488 62.9873 20.6431 62.8523C23.3716 61.9485 26.3189 61.9485 29.0474 62.8523C31.0277 63.4763 32.8729 64.4675 34.4864 65.774C36.6091 63.9486 38.586 63.1061 40.3414 62.8523C41.147 62.7307 41.9663 62.7307 42.7719 62.8523C44.86 63.2061 46.7755 64.232 48.2271 65.774C48.0867 64.7479 47.9895 63.7758 47.9355 62.8523C47.6764 59.587 47.9648 56.3014 48.7889 53.1312L49.8691 53.5363C49.7591 56.6453 49.9636 59.7574 50.4795 62.8253C50.6649 63.9029 50.9065 64.97 51.2032 66.0224Z" fill="#A80060"/>
<path d="M34.4976 26.6521V32.8304H35.5454C37.3386 32.8304 34.8324 27.365 34.4976 26.6521Z" fill="#F37A67"/>
<path d="M42.1186 24.2434C41.4173 23.8842 40.6475 23.6787 39.8604 23.6405C39.0734 23.6023 38.2873 23.7324 37.5545 24.022C36.9118 24.2758 37.1927 25.3236 37.8408 25.0643C38.4345 24.8139 39.0752 24.6944 39.7193 24.714C40.3634 24.7336 40.9956 24.8918 41.573 25.1777C42.1888 25.4856 42.7343 24.5567 42.1186 24.2434Z" fill="#E44424"/>
<path d="M40.8117 26.1715C40.7026 26.001 40.5513 25.8616 40.3724 25.767C40.1935 25.6724 39.9931 25.6257 39.7908 25.6314C39.6509 25.6212 39.5104 25.64 39.378 25.6865C39.2456 25.7331 39.1243 25.8064 39.0215 25.9019C38.9188 25.9974 38.8368 26.1131 38.7808 26.2417C38.7247 26.3704 38.6958 26.5091 38.6958 26.6494C38.6958 26.7897 38.7247 26.9285 38.7808 27.0571C38.8368 27.1857 38.9188 27.3014 39.0215 27.397C39.1243 27.4925 39.2456 27.5658 39.378 27.6124C39.5104 27.6589 39.6509 27.6776 39.7908 27.6675C39.9106 27.6655 40.0293 27.6436 40.1419 27.6026C40.1757 27.5915 40.2082 27.577 40.2391 27.5594C40.5052 27.4305 40.7346 27.2368 40.9063 26.9962C41.0781 26.7556 41.1867 26.4758 41.2221 26.1823C41.0655 26.3281 40.8117 26.1715 40.8117 26.1715Z" fill="#051733"/>
<path d="M27.8974 24.2434C28.5986 23.8842 29.3685 23.6787 30.1555 23.6405C30.9425 23.6023 31.7286 23.7324 32.4614 24.022C33.1041 24.2758 32.8233 25.3236 32.1751 25.0643C31.5814 24.8139 30.9407 24.6944 30.2966 24.714C29.6526 24.7336 29.0203 24.8918 28.4429 25.1777C27.8217 25.4856 27.2762 24.5567 27.8974 24.2434Z" fill="#E44424"/>
<path d="M29.1991 26.1715C29.3081 26.001 29.4594 25.8616 29.6383 25.767C29.8172 25.6724 30.0176 25.6257 30.2199 25.6314C30.3598 25.6212 30.5004 25.64 30.6327 25.6865C30.7651 25.7331 30.8864 25.8064 30.9892 25.9019C31.092 25.9974 31.1739 26.1131 31.23 26.2417C31.286 26.3704 31.3149 26.5091 31.3149 26.6494C31.3149 26.7897 31.286 26.9285 31.23 27.0571C31.1739 27.1857 31.092 27.3014 30.9892 27.397C30.8864 27.4925 30.7651 27.5658 30.6327 27.6124C30.5004 27.6589 30.3598 27.6776 30.2199 27.6675C30.1001 27.6655 29.9814 27.6436 29.8688 27.6026C29.8351 27.5915 29.8025 27.577 29.7716 27.5594C29.5056 27.4305 29.2762 27.2368 29.1044 26.9962C28.9327 26.7556 28.8241 26.4758 28.7886 26.1823C28.9452 26.3281 29.1991 26.1715 29.1991 26.1715Z" fill="#051733"/>
<path d="M31.6836 35.0392C31.9282 35.7244 32.3787 36.3171 32.9734 36.7363C33.568 37.1554 34.2778 37.3804 35.0053 37.3804C35.7329 37.3804 36.4427 37.1554 37.0373 36.7363C37.632 36.3171 38.0825 35.7244 38.3271 35.0392H31.6836Z" fill="white"/>
</svg>
