<svg width="70" height="70" viewBox="0 0 70 70" fill="none" xmlns="http://www.w3.org/2000/svg">
<path d="M69.9995 34.9949C70.0006 41.9174 67.9488 48.6847 64.1036 54.4411C60.2584 60.1975 54.7926 64.6844 48.3973 67.3342C42.002 69.9841 34.9646 70.678 28.1749 69.3281C21.3853 67.9783 15.1485 64.6453 10.2531 59.7507C5.35777 54.8561 2.02383 48.6198 0.672921 41.8304C-0.67799 35.0409 0.0148078 28.0034 2.6637 21.6077C5.31258 15.212 9.79859 9.7455 15.5544 5.89945C21.3102 2.05339 28.0772 0.00054616 34.9998 0.000546078C39.6027 -0.0252376 44.1651 0.862274 48.4228 2.6117C52.6804 4.36113 56.5488 6.93773 59.8039 10.1923C63.059 13.4469 65.6362 17.3149 67.3863 21.5723C69.1364 25.8296 70.0246 30.3919 69.9995 34.9949Z" fill="#D7EAF1"/>
<path d="M62.2971 56.8913C59.9092 59.8776 57.0461 62.4505 53.8226 64.507C52.7982 65.162 51.7399 65.7624 50.6521 66.3056C45.7881 68.735 40.4256 69.9998 34.9886 69.9998C29.5516 69.9998 24.1892 68.735 19.3251 66.3056C18.2373 65.7624 17.179 65.162 16.1547 64.507C12.9312 62.4505 10.0681 59.8776 7.68018 56.8913C8.12856 55.3114 8.97637 53.8737 10.1419 52.7167C11.3074 51.5597 12.7513 50.7224 14.3345 50.2856L19.6168 48.8273L22.7171 47.9685L28.3559 46.4076L29.2147 41.5897L29.609 39.386L29.6792 38.9701L30.0897 36.6854L34.9508 38.5974L39.8119 36.6854L40.2224 38.9701L40.6869 41.5897L41.1028 43.923L41.5457 46.4076L47.1845 47.9685L50.2848 48.8273L55.5672 50.2856C57.1642 50.711 58.6237 51.5432 59.8032 52.7009C60.9827 53.8587 61.842 55.3024 62.2971 56.8913Z" fill="#BD948F"/>
<path d="M41.9295 67.5749C41.8579 67.5749 41.7892 67.5464 41.7385 67.4958C41.6879 67.4451 41.6594 67.3764 41.6594 67.3048C41.6503 65.6321 41.2176 63.9889 40.4015 62.5287C39.5855 61.0685 38.4127 59.8388 36.9928 58.9545C36.9626 58.9358 36.9364 58.9113 36.9157 58.8824C36.895 58.8535 36.8802 58.8208 36.8722 58.7862C36.8642 58.7515 36.8631 58.7157 36.8689 58.6806C36.8748 58.6456 36.8875 58.612 36.9064 58.5819C36.9242 58.5514 36.9479 58.5248 36.9761 58.5037C37.0043 58.4825 37.0365 58.4672 37.0707 58.4587C37.1049 58.4501 37.1405 58.4485 37.1753 58.4539C37.2102 58.4592 37.2436 58.4716 37.2737 58.4901C38.7728 59.4219 40.011 60.7189 40.8725 62.2596C41.734 63.8002 42.1906 65.5343 42.1995 67.2994C42.2003 67.3353 42.1938 67.371 42.1806 67.4044C42.1673 67.4378 42.1475 67.4682 42.1224 67.4939C42.0972 67.5195 42.0672 67.5399 42.0341 67.5538C42.001 67.5677 41.9654 67.5749 41.9295 67.5749Z" fill="#3D3936"/>
<path d="M43.6419 67.2994C43.6419 67.6338 43.5427 67.9606 43.357 68.2386C43.1712 68.5166 42.9072 68.7333 42.5983 68.8613C42.2894 68.9892 41.9494 69.0227 41.6215 68.9575C41.2936 68.8923 40.9923 68.7313 40.7559 68.4948C40.5195 68.2584 40.3585 67.9572 40.2932 67.6292C40.228 67.3013 40.2615 66.9614 40.3894 66.6525C40.5174 66.3435 40.7341 66.0795 41.0121 65.8937C41.2901 65.708 41.6169 65.6088 41.9513 65.6088C42.3997 65.6088 42.8297 65.7869 43.1467 66.104C43.4638 66.421 43.6419 66.851 43.6419 67.2994Z" fill="#3D3936"/>
<path d="M28.0699 67.5749C27.9982 67.5749 27.9296 67.5464 27.8789 67.4958C27.8283 67.4451 27.7998 67.3764 27.7998 67.3048C27.8079 65.5387 28.264 63.8036 29.1255 62.2619C29.9871 60.7202 31.2258 59.4224 32.7257 58.4901C32.7557 58.4716 32.7891 58.4592 32.824 58.4539C32.8589 58.4485 32.8944 58.4501 32.9287 58.4587C32.9629 58.4672 32.995 58.4825 33.0233 58.5037C33.0515 58.5248 33.0752 58.5514 33.093 58.5819C33.1118 58.612 33.1246 58.6456 33.1304 58.6806C33.1363 58.7157 33.1352 58.7515 33.1271 58.7862C33.1191 58.8208 33.1043 58.8535 33.0836 58.8824C33.0629 58.9113 33.0367 58.9358 33.0066 58.9545C31.5874 59.8383 30.4151 61.0671 29.5991 62.5263C28.7831 63.9855 28.3499 65.6276 28.3399 67.2994C28.3399 67.371 28.3115 67.4397 28.2608 67.4903C28.2102 67.541 28.1415 67.5695 28.0699 67.5695V67.5749Z" fill="#3D3936"/>
<path d="M26.3579 67.2994C26.3579 67.6338 26.4571 67.9606 26.6428 68.2386C26.8286 68.5166 27.0926 68.7333 27.4015 68.8613C27.7104 68.9892 28.0504 69.0227 28.3783 68.9575C28.7062 68.8923 29.0075 68.7313 29.2439 68.4948C29.4803 68.2584 29.6413 67.9572 29.7066 67.6292C29.7718 67.3013 29.7383 66.9614 29.6104 66.6525C29.4824 66.3435 29.2657 66.0795 28.9877 65.8937C28.7097 65.708 28.3829 65.6088 28.0485 65.6088C27.6001 65.6088 27.1701 65.7869 26.8531 66.104C26.536 66.421 26.3579 66.851 26.3579 67.2994Z" fill="#3D3936"/>
<path d="M50.4416 47.1205C49.3614 37.6901 34.9996 42.8968 34.9996 42.8968C34.9996 42.8968 20.6216 37.6901 19.5576 47.1205C18.6934 54.7794 34.9996 61.196 34.9996 61.196C34.9996 61.196 51.3058 54.7794 50.4416 47.1205Z" fill="#3D3936"/>
<path d="M41.6162 46.4076C41.6162 50.0102 28.3833 50.0102 28.3833 46.4076L29.6364 39.386L30.1171 36.6854L34.9782 38.5974L39.8392 36.6854L41.1301 43.923L41.6162 46.4076Z" fill="#F69779"/>
<path d="M41.1732 43.923C40.2532 44.2383 39.2929 44.4202 38.3213 44.4631C36.5731 44.3789 34.8709 43.8744 33.359 42.9925C31.8471 42.1106 30.5701 40.8772 29.6362 39.3968L30.1169 36.6962L34.978 38.6083L39.8391 36.6962L41.1732 43.923Z" fill="#F37A67"/>
<path d="M45.6672 15.4858C44.4195 13.147 42.0268 11.8508 39.8285 11.1324C36.6903 10.1115 33.3093 10.1115 30.1712 11.1324C27.9729 11.8508 25.5801 13.147 24.3325 15.4858C22.0748 19.8067 22.4583 26.5366 22.4583 26.5366L24.8132 29.0319L34.9998 27.7411L45.1865 29.0319L47.5414 26.5366C47.5414 26.5366 47.9249 19.8121 45.6672 15.4858Z" fill="#051733"/>
<path d="M42.0213 16.4526C42.0213 16.4526 46.1046 15.61 45.6239 14.2273C45.1432 12.8446 44.1115 13.5144 44.1115 13.5144C44.1115 13.5144 46.6447 12.0668 45.0838 10.9272C44.1818 10.3871 42.9827 10.9272 42.9827 10.9272C42.9827 10.9272 44.7867 8.88553 43.2852 8.10236C42.8816 7.87418 42.4177 7.77516 41.9561 7.81862C41.4945 7.86207 41.0573 8.04593 40.7034 8.34542C40.7034 8.34542 40.941 6.18493 39.3801 6.24435C37.8191 6.30376 36.9172 8.58307 36.9172 8.58307C36.9172 8.58307 36.5553 6.78447 35.6263 6.84389C34.6973 6.9033 33.7359 8.70729 33.7359 8.70729C33.7359 8.70729 33.7953 6.12013 32.2937 6.23896C30.7922 6.35778 30.1927 9.24741 30.1927 9.24741C30.1927 9.24741 29.4311 7.20577 28.3725 7.50283C27.3138 7.7999 28.0916 10.3709 28.0916 10.3709C28.0916 10.3709 26.4712 8.94495 25.7475 9.83075C25.0237 10.7165 26.4713 11.813 26.4713 11.813C26.4713 11.813 24.9103 11.3323 24.6672 12.4719C24.4242 13.6116 26.7899 15.5344 28.3725 16.0151L42.0213 16.4526Z" fill="#051733"/>
<path d="M48.1948 26.1261C48.1543 25.6914 47.9632 25.2846 47.6547 24.9757C47.3512 24.7276 46.9658 24.6023 46.5745 24.6246C46.1807 24.6547 45.797 24.7631 45.4456 24.9433C45.4456 24.9433 45.4132 14.9889 41.8808 14.8755C39.5691 14.7566 38.5375 15.4534 35.0321 15.4534C31.5267 15.4534 30.4951 14.7566 28.1834 14.8755C24.651 14.9889 24.6186 24.9433 24.6186 24.9433C24.2672 24.7631 23.8835 24.6547 23.4898 24.6246C23.0984 24.6023 22.713 24.7276 22.4095 24.9757C22.101 25.2846 21.91 25.6914 21.8694 26.1261C21.7407 27.0012 21.9429 27.8929 22.4365 28.6269C22.9184 29.359 23.6593 29.8819 24.5106 30.0906C26.0121 40.6229 35.0645 40.6229 35.0645 40.6229C35.0645 40.6229 44.1169 40.6229 45.6185 30.0906C46.4697 29.8819 47.2106 29.359 47.6925 28.6269C48.1636 27.8842 48.3426 26.9931 48.1948 26.1261Z" fill="#F69779"/>
<path d="M19.336 66.3056C18.2482 65.7624 17.1899 65.162 16.1655 64.507L17.5968 56.7671L19.336 66.3056Z" fill="#9C7672"/>
<path d="M53.8228 64.507C52.7985 65.162 51.7402 65.7624 50.6523 66.3056L52.3915 56.7671L53.8228 64.507Z" fill="#9C7672"/>
<path d="M34.4922 24.8082V30.9872H35.54C37.3332 30.9872 34.8271 25.5212 34.4922 24.8082Z" fill="#F37A67"/>
<path d="M42.1073 22.4047C41.4068 22.0431 40.6368 21.8362 39.8494 21.798C39.062 21.7598 38.2755 21.8912 37.5433 22.1833C36.9006 22.4371 37.1814 23.4796 37.8296 23.2203C38.4233 22.9699 39.064 22.8504 39.708 22.8699C40.3521 22.8895 40.9844 23.0477 41.5618 23.3337C42.1829 23.6416 42.7285 22.7126 42.1073 22.4047Z" fill="#051733"/>
<path d="M39.785 25.8291C40.3488 25.8291 40.8058 25.372 40.8058 24.8082C40.8058 24.2444 40.3488 23.7874 39.785 23.7874C39.2212 23.7874 38.7642 24.2444 38.7642 24.8082C38.7642 25.372 39.2212 25.8291 39.785 25.8291Z" fill="#051733"/>
<path d="M27.8915 22.4047C28.592 22.0431 29.362 21.8362 30.1494 21.798C30.9369 21.7598 31.7233 21.8912 32.4555 22.1833C33.0982 22.4371 32.8174 23.4796 32.1692 23.2203C31.5755 22.9699 30.9348 22.8504 30.2908 22.8699C29.6467 22.8895 29.0144 23.0477 28.437 23.3337C27.8159 23.6416 27.2704 22.7126 27.8915 22.4047Z" fill="#051733"/>
<path d="M30.2142 25.8291C30.778 25.8291 31.235 25.372 31.235 24.8082C31.235 24.2444 30.778 23.7874 30.2142 23.7874C29.6504 23.7874 29.1934 24.2444 29.1934 24.8082C29.1934 25.372 29.6504 25.8291 30.2142 25.8291Z" fill="#051733"/>
<path d="M31.6777 33.515C31.9223 34.2002 32.3728 34.793 32.9675 35.2122C33.5622 35.6313 34.2719 35.8563 34.9995 35.8563C35.727 35.8563 36.4368 35.6313 37.0315 35.2122C37.6261 34.793 38.0766 34.2002 38.3212 33.515H31.6777Z" fill="white"/>
</svg>
