<svg width="70" height="71" viewBox="0 0 70 71" fill="none" xmlns="http://www.w3.org/2000/svg">
<path d="M70 35.4967C69.9966 41.485 68.5021 47.3754 65.6553 52.6213C62.8084 57.8673 58.7014 62.2988 53.7153 65.5047C52.7681 66.1153 51.7911 66.6767 50.7878 67.1868C45.892 69.6939 40.4843 71 35 71C29.5157 71 24.108 69.6939 19.2122 67.1868C18.2089 66.6767 17.2319 66.1153 16.2847 65.5047C11.1442 62.2051 6.94019 57.6033 4.08735 52.1531C1.23452 46.7029 -0.16867 40.5926 0.016162 34.4247C0.200994 28.2567 1.96745 22.2441 5.14137 16.9798C8.31528 11.7155 12.787 7.38119 18.1157 4.40434C23.4443 1.42749 29.4459 -0.089127 35.5285 0.00404842C41.6111 0.0972239 47.5647 1.79697 52.8024 4.93567C58.04 8.07438 62.3807 12.5437 65.3964 17.9028C68.4122 23.262 69.9989 29.3259 70 35.4967Z" fill="#D7EAF1"/>
<path d="M62.006 58.0644C59.6448 60.975 56.8427 63.4864 53.7043 65.5047C52.7572 66.1153 51.7801 66.6767 50.7768 67.1868C45.881 69.6939 40.4733 71 34.989 71C29.5047 71 24.097 69.6939 19.2012 67.1868C18.198 66.6767 17.2209 66.1153 16.2737 65.5047C13.1431 63.4845 10.3483 60.9732 7.99365 58.0644C8.53045 56.6505 9.38671 55.3841 10.4936 54.3669C11.6005 53.3497 12.9272 52.6101 14.3671 52.2074L22.7552 49.8569L25.6989 49.0296L28.3995 48.2735L29.4203 42.4768L29.7282 40.7291L30.1333 38.4115L34.9944 40.351L39.8555 38.4115L40.2606 40.7291L41.0816 45.3916L41.5893 48.2735L44.29 49.0296L47.2336 49.8569L55.6217 52.2074C57.0636 52.6085 58.3925 53.3475 59.5014 54.3648C60.6102 55.3821 61.4681 56.6493 62.006 58.0644Z" fill="#0C415B"/>
<path d="M44.3114 49.0296L44.2304 49.1721C43.6255 52.832 40.3091 55.0729 35.3994 55.0729H34.6C29.6849 55.0729 26.374 52.832 25.769 49.1721L25.688 49.0296L28.3886 48.2735L30.1224 38.4115L34.9835 40.351L39.8446 38.4115L41.5784 48.2735L44.3114 49.0296Z" fill="#1D627D"/>
<path d="M41.6163 48.2735C41.3193 52.7279 34.9998 52.3225 34.9998 52.3225C34.9998 52.3225 28.6804 52.7279 28.3833 48.2735L29.4041 42.4768L30.1171 38.4115L34.9782 40.351L39.8393 38.4115L41.0654 45.3916L41.6163 48.2735Z" fill="#86201B"/>
<path d="M47.6062 21.0762C47.697 21.0095 47.7702 20.9211 47.8192 20.8188C47.8682 20.7166 47.8915 20.6036 47.8871 20.49C47.8871 20.2653 47.8007 19.8654 47.6116 19.7503C47.6933 19.5458 47.7188 19.3228 47.6855 19.1048C47.6522 18.8867 47.5614 18.6819 47.4226 18.5121C47.503 18.3216 47.5248 18.1109 47.4853 17.9076C47.4458 17.7043 47.3468 17.5178 47.2011 17.3725C47.2572 17.1611 47.2327 16.9361 47.1326 16.7422C47.0326 16.5483 46.8642 16.3997 46.661 16.326C46.6611 16.0966 46.6049 15.8707 46.4974 15.6689C46.3899 15.4671 46.2345 15.2956 46.0453 15.1699C46.1286 14.8901 46.1028 14.5885 45.9731 14.3275C45.8435 14.0664 45.6198 13.8659 45.3485 13.7673C45.3546 13.5439 45.2933 13.3239 45.1726 13.1368C45.0519 12.9498 44.8777 12.8046 44.6734 12.7209C44.6509 12.4961 44.5605 12.2838 44.4145 12.1131C44.2685 11.9425 44.074 11.8218 43.8578 11.7675C43.7584 11.5048 43.5921 11.2735 43.3757 11.0973C43.1593 10.9211 42.9007 10.8064 42.6263 10.7649C42.5937 10.6067 42.5288 10.4572 42.4358 10.326C42.3428 10.1949 42.2237 10.0849 42.0862 10.0033C41.7487 9.84287 41.3663 9.80796 41.0059 9.90471C40.8647 9.7043 40.6611 9.558 40.4279 9.48941C40.1946 9.42082 39.9454 9.43395 39.7204 9.52667C39.5907 9.3211 39.3859 9.17618 39.1509 9.12378C38.9159 9.07138 38.6701 9.11579 38.4674 9.24724C38.2993 9.06249 38.0754 8.93964 37.831 8.89799C37.5866 8.85633 37.3354 8.89824 37.117 9.01713C36.9417 8.91559 36.7456 8.85679 36.544 8.84538C36.3425 8.83397 36.1411 8.87026 35.9558 8.95138C35.8529 8.80439 35.7169 8.68451 35.559 8.60179C35.4012 8.51906 35.226 8.47589 35.0484 8.47589C34.8707 8.47589 34.6956 8.51906 34.5377 8.60179C34.3798 8.68451 34.2438 8.80439 34.141 8.95138C33.9556 8.87026 33.7542 8.83397 33.5527 8.84538C33.3511 8.85679 33.155 8.91559 32.9797 9.01713C32.7603 8.89875 32.5084 8.85714 32.2633 8.89875C32.0182 8.94035 31.7935 9.06285 31.624 9.24724C31.524 9.18229 31.4124 9.13799 31.2956 9.11688C31.1787 9.09577 31.0589 9.09826 30.943 9.12422C30.827 9.15018 30.7173 9.1991 30.6201 9.26816C30.5228 9.33722 30.44 9.42507 30.3763 9.52667C30.1513 9.43395 29.9021 9.42082 29.6689 9.48941C29.4356 9.558 29.232 9.7043 29.0908 9.90471C28.7305 9.80796 28.3481 9.84287 28.0106 10.0033C27.873 10.0849 27.7539 10.1949 27.6609 10.326C27.5679 10.4572 27.503 10.6067 27.4704 10.7649C27.196 10.8064 26.9374 10.9211 26.721 11.0973C26.5046 11.2735 26.3383 11.5048 26.2389 11.7675C26.0227 11.8218 25.8282 11.9425 25.6822 12.1131C25.5362 12.2838 25.4458 12.4961 25.4234 12.7209C25.219 12.8046 25.0448 12.9498 24.9242 13.1368C24.8035 13.3239 24.7421 13.5439 24.7482 13.7673C24.4769 13.8659 24.2533 14.0664 24.1236 14.3275C23.9939 14.5885 23.9681 14.8901 24.0514 15.1699C23.8622 15.2956 23.7068 15.4671 23.5993 15.6689C23.4918 15.8707 23.4356 16.0966 23.4357 16.326C23.2325 16.3997 23.0642 16.5483 22.9641 16.7422C22.864 16.9361 22.8396 17.1611 22.8956 17.3725C22.7333 17.5061 22.6156 17.6872 22.5586 17.8912C22.5016 18.0951 22.508 18.312 22.5769 18.5121C22.4353 18.6814 22.3419 18.8867 22.3067 19.1058C22.2715 19.3249 22.2958 19.5496 22.3771 19.7558C22.188 19.8709 22.1124 20.2708 22.1016 20.4955C22.0972 20.6091 22.1205 20.722 22.1695 20.8243C22.2185 20.9266 22.2917 21.015 22.3825 21.0817C22.2355 21.2983 22.16 21.5565 22.1668 21.8194C22.1736 22.0822 22.2624 22.3361 22.4203 22.5446C22.33 22.8159 22.3006 23.1044 22.3342 23.3887C22.3679 23.6731 22.4637 23.9463 22.6147 24.1882C22.5335 24.3844 22.5066 24.5994 22.5371 24.8099C22.5675 25.0204 22.6541 25.2185 22.7876 25.3826C22.6693 25.6731 22.6547 25.9963 22.7465 26.2964C22.8382 26.5965 23.0304 26.8547 23.2899 27.0263C23.3331 27.0263 23.5113 27.2126 23.5545 27.2126H32.7852L34.9998 18.7422L37.2035 27.1852H46.4342C46.4774 27.1852 46.6556 26.9989 46.6988 26.9989C46.9583 26.8273 47.1505 26.5691 47.2422 26.269C47.334 25.9689 47.3194 25.6457 47.2011 25.3553C47.3346 25.1911 47.4212 24.993 47.4516 24.7825C47.4821 24.572 47.4552 24.357 47.374 24.1609C47.525 23.9189 47.6208 23.6457 47.6545 23.3613C47.6881 23.077 47.6587 22.7885 47.5684 22.5172C47.7215 22.3107 47.8073 22.061 47.8141 21.8028C47.8209 21.5446 47.7482 21.2906 47.6062 21.0762Z" fill="#051733"/>
<path d="M47.6281 30.237C47.1462 30.9796 46.4053 31.51 45.554 31.7218C45.554 31.782 45.554 31.8423 45.527 31.8971C43.9499 42.4056 35 42.4056 35 42.4056C35 42.4056 26.0502 42.4056 24.473 31.8971C24.473 31.8423 24.473 31.782 24.473 31.7218C23.6217 31.51 22.8808 30.9796 22.3989 30.237C21.9053 29.4924 21.7031 28.5879 21.8318 27.7002C21.8724 27.2593 22.0634 26.8465 22.3719 26.5332C22.6754 26.2816 23.0608 26.1545 23.4522 26.1771C23.8289 26.2048 24.1963 26.3091 24.5324 26.4839H24.581V26.3908C24.581 25.3607 24.8133 16.3753 28.1458 16.2657C30.4576 16.1452 31.4892 16.852 34.9946 16.852C38.5 16.852 39.5317 16.1452 41.8434 16.2657C45.1759 16.3753 45.392 25.3662 45.4082 26.3908V26.4839H45.4568C45.7929 26.3091 46.1603 26.2048 46.537 26.1771C46.9284 26.1545 47.3138 26.2816 47.6173 26.5332C47.9258 26.8465 48.1169 27.2593 48.1574 27.7002C48.2972 28.5831 48.1086 29.4872 47.6281 30.237Z" fill="#86201B"/>
<path d="M41.1089 45.3916C39.8644 45.9609 38.5244 46.2844 37.1606 46.345C35.6731 46.2698 34.2164 45.8881 32.8792 45.2231C31.5419 44.558 30.3523 43.6236 29.3828 42.4768L30.0958 38.4115L34.9569 40.351L39.818 38.4115L41.1089 45.3916Z" fill="#611714"/>
<path d="M46.2453 22.4076C46.1618 20.9548 45.8819 19.5205 45.4135 18.145C45.0303 16.6866 44.1024 15.4368 42.8263 14.6604C41.6506 14.0847 40.3484 13.8262 39.0455 13.9098C38.4074 13.901 37.7724 13.9991 37.1659 14.2002C36.2314 14.5453 35.216 14.3481 35.0054 15.2959C34.8001 14.3755 33.7847 14.5727 32.8449 14.2002C32.2384 13.9991 31.6033 13.901 30.9652 13.9098C29.6623 13.8262 28.3601 14.0847 27.1844 14.6604C25.9084 15.4368 24.9804 16.6866 24.5972 18.145C24.1288 19.5205 23.8489 20.9548 23.7654 22.4076C23.6732 23.8248 23.9606 25.2408 24.5972 26.5058C24.9375 26.6044 24.8564 25.9141 24.8078 25.5799C24.7592 25.2457 24.5594 24.9169 24.6188 24.5827C24.7052 24.0348 25.3588 23.7663 25.456 23.2459C25.5532 22.7254 24.9645 22.1501 25.1049 21.6022C25.2453 21.0543 26.0339 20.8899 26.4606 20.468C26.8873 20.0462 26.9197 19.5038 27.3248 19.1531C28.0864 18.4847 29.4259 19.0654 30.3225 18.5669C30.6364 18.3375 30.9376 18.0905 31.2245 17.8272C31.5151 17.623 31.8595 17.5123 32.2129 17.5094C32.6949 17.5591 33.1731 17.6415 33.6443 17.756C33.8789 17.8127 34.1247 17.7983 34.3513 17.7145C34.5779 17.6307 34.7753 17.4813 34.9189 17.2848C34.9599 17.1993 34.9907 17.1092 35.0108 17.0163C35.0308 17.1092 35.0616 17.1993 35.1026 17.2848C35.2462 17.4813 35.4436 17.6307 35.6702 17.7145C35.8968 17.7983 36.1427 17.8127 36.3773 17.756C36.8484 17.6415 37.3266 17.5591 37.8086 17.5094C38.162 17.5123 38.5065 17.623 38.797 17.8272C39.084 18.0905 39.3851 18.3375 39.699 18.5669C40.5956 19.0654 41.9351 18.4847 42.6967 19.1531C43.1018 19.5038 43.1828 20.0955 43.5609 20.468C43.939 20.8406 44.7708 21.0159 44.9166 21.6022C45.0625 22.1884 44.4629 22.698 44.5655 23.2459C44.6682 23.7937 45.3163 24.0622 45.4081 24.5827C45.4621 24.9169 45.2623 25.2402 45.2137 25.5799C45.1651 25.9196 45.0841 26.6044 45.4243 26.5058C46.0572 25.2398 46.3409 23.8238 46.2453 22.4076Z" fill="#051733"/>
<path d="M45.5267 31.7217V31.8971C43.9495 42.4056 34.9997 42.4056 34.9997 42.4056C34.9997 42.4056 26.0498 42.4056 24.4727 31.8971V31.7217L24.5375 26.4839V26.3743L24.5861 26.4127C24.8824 26.6292 25.1175 26.9207 25.2682 27.2581C25.4189 27.5955 25.4798 27.9671 25.4449 28.3358C25.6667 28.5094 25.8292 28.7492 25.9097 29.0215C25.9901 29.2937 25.9843 29.5847 25.8932 29.8534C26.2057 30.1344 26.3992 30.527 26.4333 30.9492C26.4876 31.4209 26.3746 31.8967 26.1146 32.2916C26.449 32.467 26.7028 32.7677 26.8222 33.1298C26.9461 33.5412 26.9309 33.9829 26.779 34.3845C27.0432 34.6113 27.2355 34.9122 27.3316 35.2495C27.4277 35.5868 27.4234 35.9454 27.3191 36.2802C27.6214 36.3905 27.8906 36.5781 28.1007 36.8247C28.3107 37.0714 28.4545 37.3688 28.5182 37.6883C28.759 37.6538 29.0045 37.6814 29.232 37.7685C29.4595 37.8557 29.6617 37.9995 29.8199 38.1869C30.052 37.9555 30.3494 37.8032 30.6708 37.7512C30.9921 37.6991 31.3215 37.7499 31.6131 37.8965C31.8873 37.739 32.2024 37.6704 32.5162 37.6997C32.8299 37.7291 33.1273 37.8551 33.3685 38.0608C33.8749 37.8172 34.4284 37.6908 34.9889 37.6908C35.5493 37.6908 36.1028 37.8172 36.6092 38.0608C36.8504 37.8551 37.1478 37.7291 37.4615 37.6997C37.7753 37.6704 38.0904 37.739 38.3646 37.8965C38.6562 37.7499 38.9856 37.6991 39.307 37.7512C39.6283 37.8032 39.9257 37.9555 40.1578 38.1869C40.3181 37.9961 40.5239 37.8501 40.7555 37.7629C40.9872 37.6756 41.237 37.6499 41.4811 37.6883C41.5465 37.3708 41.6911 37.0757 41.901 36.831C42.1109 36.5864 42.3792 36.4005 42.6802 36.2912C42.576 35.9564 42.5716 35.5978 42.6677 35.2605C42.7638 34.9232 42.9561 34.6222 43.2203 34.3955C43.0684 33.9938 43.0532 33.5522 43.1771 33.1408C43.2966 32.7787 43.5504 32.478 43.8847 32.3025C43.6247 31.9076 43.5118 31.4318 43.566 30.9602C43.6001 30.538 43.7936 30.1454 44.1061 29.8644C44.015 29.5956 44.0093 29.3047 44.0897 29.0324C44.1701 28.7602 44.3326 28.5204 44.5545 28.3467C44.5195 27.978 44.5804 27.6065 44.7311 27.269C44.8818 26.9316 45.117 26.6402 45.4132 26.4236L45.4619 26.3853V26.4949L45.5267 31.7217Z" fill="#051733"/>
<path d="M19.2121 67.1867C18.2089 66.6767 17.2318 66.1153 16.2847 65.5047L17.608 58.1904L19.2121 67.1867Z" fill="#051733"/>
<path d="M53.7151 65.5047C52.7679 66.1153 51.7909 66.6767 50.7876 67.1867L52.408 58.1904L53.7151 65.5047Z" fill="#051733"/>
<path d="M34.4922 25.0539V31.3218H35.54C37.3332 31.3218 34.8271 25.7716 34.4922 25.0539Z" fill="#611714"/>
<path d="M42.1078 22.6103C41.4066 22.2459 40.6367 22.0373 39.8497 21.9986C39.0627 21.9599 38.2766 22.0918 37.5438 22.3857C36.9011 22.6432 37.1819 23.7061 37.8301 23.4431C38.4238 23.1891 39.0645 23.0679 39.7086 23.0877C40.3526 23.1076 40.9849 23.268 41.5623 23.5582C42.1835 23.8705 42.729 22.9226 42.1078 22.6103Z" fill="#051733"/>
<path d="M39.7855 26.0894C40.3493 26.0894 40.8063 25.6258 40.8063 25.0539C40.8063 24.482 40.3493 24.0184 39.7855 24.0184C39.2217 24.0184 38.7646 24.482 38.7646 25.0539C38.7646 25.6258 39.2217 26.0894 39.7855 26.0894Z" fill="#051733"/>
<path d="M27.892 22.6103C28.5933 22.2459 29.3631 22.0373 30.1501 21.9986C30.9371 21.9599 31.7233 22.0918 32.456 22.3857C33.0988 22.6432 32.8179 23.7061 32.1698 23.4431C31.5761 23.1891 30.9353 23.0679 30.2913 23.0877C29.6472 23.1076 29.0149 23.268 28.4375 23.5582C27.8164 23.8705 27.2708 22.9226 27.892 22.6103Z" fill="#051733"/>
<path d="M30.2142 26.0894C30.778 26.0894 31.235 25.6258 31.235 25.0539C31.235 24.482 30.778 24.0184 30.2142 24.0184C29.6504 24.0184 29.1934 24.482 29.1934 25.0539C29.1934 25.6258 29.6504 26.0894 30.2142 26.0894Z" fill="#051733"/>
<path d="M31.6782 34.3187C31.9228 35.0138 32.3733 35.6152 32.968 36.0404C33.5627 36.4655 34.2724 36.6938 35 36.6938C35.7275 36.6938 36.4373 36.4655 37.032 36.0404C37.6267 35.6152 38.0772 35.0138 38.3217 34.3187H31.6782Z" fill="white"/>
</svg>
