<svg width="70" height="70" viewBox="0 0 70 70" fill="none" xmlns="http://www.w3.org/2000/svg">
<path d="M70 35.0042C69.9969 41.0474 68.4305 46.987 65.4529 52.2457C62.4754 57.5043 58.1881 61.9032 53.0077 65.0147C52.2083 65.5008 51.3873 65.9546 50.5393 66.3705C45.7071 68.758 40.3898 70 35 70C29.6102 70 24.2928 68.758 19.4606 66.3705C18.6181 65.9546 17.7917 65.5008 16.9923 65.0147C11.7454 61.8664 7.41552 57.3974 4.43449 52.0535C1.45346 46.7096 -0.07457 40.6776 0.0027986 34.5589C0.0801672 28.4402 1.76022 22.4487 4.87542 17.1819C7.99062 11.9151 12.4321 7.55707 17.7569 4.5424C23.0818 1.52773 29.1039 -0.0382207 35.2227 0.000708499C41.3415 0.0396377 47.3432 1.68209 52.6292 4.76427C57.9152 7.84645 62.3009 12.2606 65.3489 17.5666C68.3968 22.8726 70.0005 28.885 70 35.0042Z" fill="#D7EAF1"/>
<path d="M47.1632 18.5406C47.1621 18.2305 47.087 17.9252 46.9442 17.6499C46.8014 17.3747 46.5951 17.1375 46.3422 16.958C46.3153 16.7106 46.2265 16.474 46.0839 16.2701C45.9414 16.0662 45.7497 15.9015 45.5267 15.7912C45.4164 15.5307 45.249 15.2983 45.0368 15.1113C44.8245 14.9243 44.5729 14.7875 44.3006 14.7109C43.9495 13.8953 42.8369 13.8629 42.8369 13.8629C42.4264 13.1337 41.3785 13.2526 41.3785 13.2526C40.9086 12.6098 39.5637 12.6692 39.5637 12.6692C39.2126 11.967 37.7543 12.1993 37.7543 12.1993C37.171 11.5565 36.1339 12.0858 36.1339 12.0858C35.9017 11.2054 35.0537 11.9022 35.0537 11.9022C35.0537 11.9022 34.1895 11.2054 33.9734 12.0858C33.9734 12.0858 32.9202 11.5457 32.3531 12.1993C32.3531 12.1993 30.8947 11.967 30.5436 12.6692C30.5436 12.6692 29.1987 12.6098 28.7288 13.2526C28.7288 13.2526 27.681 13.1337 27.2705 13.8629C27.2705 13.8629 26.1578 13.8953 25.8068 14.7109C25.5344 14.7875 25.2828 14.9243 25.0706 15.1113C24.8583 15.2983 24.6909 15.5307 24.5807 15.7912C24.3374 15.8868 24.1238 16.0451 23.9616 16.2501C23.7994 16.455 23.6943 16.6992 23.6571 16.958C23.4003 17.1351 23.1897 17.3713 23.0431 17.6467C22.8965 17.9221 22.8181 18.2286 22.8145 18.5406C22.7226 19.7073 23.1655 20.5823 25.164 21.4628C28.2056 19.9205 31.5678 19.1169 34.9781 19.1169C38.3883 19.1169 41.7505 19.9205 44.7921 21.4628C46.8122 20.5823 47.2551 19.7073 47.1632 18.5406Z" fill="#051733"/>
<path d="M30.317 14.3706H39.6881C40.6705 14.3706 41.6433 14.5641 42.5509 14.9401C43.4585 15.316 44.2831 15.8671 44.9778 16.5617C45.6724 17.2564 46.2235 18.0811 46.5994 18.9888C46.9753 19.8964 47.1688 20.8692 47.1688 21.8516V27.4907H22.8633V21.8516C22.8633 19.8722 23.6477 17.9735 25.0448 16.5713C26.4418 15.1691 28.3377 14.3778 30.317 14.3706Z" fill="#051733"/>
<path d="M62.2544 56.9558C59.6712 60.1662 56.5407 62.8945 53.0075 65.0147C52.2081 65.5009 51.3871 65.9546 50.5391 66.3705C45.7069 68.7581 40.3896 70 34.9998 70C29.6099 70 24.2926 68.7581 19.4604 66.3705C18.6178 65.9546 17.7914 65.5009 16.992 65.0147C13.4588 62.8945 10.3283 60.1662 7.74512 56.9558C8.21187 55.4088 9.06305 54.0054 10.2192 52.8767C11.3753 51.7479 12.7986 50.9306 14.3562 50.501L22.7443 48.1838L23.6248 47.9407L25.1857 47.5086L28.3832 46.6228L29.6579 39.4874V39.3254V39.185L30.0684 36.9001L34.9295 38.8123L39.7906 36.9001L40.2011 39.185L40.509 40.9404L41.0491 44.0031L41.519 46.6228L44.7166 47.5086L46.2775 47.9407L47.1579 48.1838L55.5461 50.501C57.1216 50.9161 58.5648 51.727 59.7389 52.8567C60.913 53.9864 61.7789 55.3974 62.2544 56.9558Z" fill="#4749D6"/>
<path d="M46.375 47.9407C46.0347 49.4963 44.5008 53.8391 37.9815 54.3361L36.5664 59.5755C36.4748 59.9211 36.2716 60.2267 35.9883 60.4447C35.705 60.6628 35.3575 60.781 35 60.781C34.6425 60.781 34.295 60.6628 34.0117 60.4447C33.7284 60.2267 33.5252 59.9211 33.4336 59.5755L32.0185 54.3361C25.4938 53.8391 23.9653 49.4747 23.625 47.9407L25.186 47.5086L28.3835 46.6228L30.1173 36.9001L34.9784 38.8123L39.8395 36.9001L41.5733 46.6228L44.7708 47.5086L46.375 47.9407Z" fill="#3537A1"/>
<path d="M44.8137 47.5302C44.4843 49.1777 43.0475 52.7858 36.7119 52.7858L34.9997 59.1542L33.2713 52.7642C26.9518 52.7642 25.5151 49.1561 25.1694 47.5086L28.367 46.6228L29.6417 39.4874L30.1008 36.9001L34.9619 38.8123L39.823 36.9001L41.0869 44.0031L41.5568 46.6228L44.8137 47.5302Z" fill="#F69779"/>
<path d="M41.1465 44.003C40.2352 44.3157 39.2841 44.4975 38.3217 44.5431C36.5839 44.4552 34.8924 43.9522 33.3889 43.0764C31.8854 42.2005 30.6135 40.9773 29.6797 39.509L30.1388 36.9217L34.9999 38.8338L39.861 36.9217L41.1465 44.003Z" fill="#F37A67"/>
<path d="M48.1952 26.3403C48.1546 25.9056 47.9636 25.4987 47.6551 25.1898C47.3516 24.9417 46.9661 24.8164 46.5748 24.8387C46.1803 24.8682 45.796 24.9785 45.446 25.1628C45.446 25.1628 45.4136 17.9032 41.8811 17.7898C39.537 17.671 38.5054 18.3623 35 18.3623C31.4946 18.3623 30.4629 17.6656 28.1512 17.7844C24.6188 17.8978 24.5864 25.1574 24.5864 25.1574C24.2363 24.9731 23.8521 24.8628 23.4575 24.8333C23.0662 24.811 22.6808 24.9363 22.3773 25.1844C22.0688 25.4933 21.8777 25.9002 21.8372 26.3349C21.7084 27.2101 21.9106 28.1018 22.4043 28.8358C22.8862 29.568 23.6271 30.0909 24.4784 30.2996C25.9799 40.8324 35.0324 40.8324 35.0324 40.8324C35.0324 40.8324 44.0849 40.8324 45.5864 30.2996C46.4377 30.0909 47.1786 29.568 47.6605 28.8358C48.1415 28.0988 48.332 27.2096 48.1952 26.3403Z" fill="#F69779"/>
<path d="M19.4605 66.3705C18.618 65.9546 17.7916 65.5009 16.9922 65.0147L19.2013 58.3331L19.4605 66.3705Z" fill="#3537A1"/>
<path d="M53.0074 65.0147C52.208 65.5009 51.3871 65.9546 50.5391 66.3705L50.7983 58.3331L53.0074 65.0147Z" fill="#3537A1"/>
<path d="M34.4922 26.0486V32.2278H35.54C37.3332 32.2278 34.8271 26.7562 34.4922 26.0486Z" fill="#F37A67"/>
<path d="M42.1078 23.6395C41.4066 23.2803 40.6367 23.0747 39.8497 23.0365C39.0627 22.9983 38.2766 23.1284 37.5438 23.4181C36.9011 23.6719 37.1819 24.7198 37.8301 24.4606C38.4238 24.2101 39.0645 24.0906 39.7086 24.1102C40.3526 24.1298 40.9849 24.288 41.5623 24.574C42.1835 24.8819 42.729 23.9474 42.1078 23.6395Z" fill="#051733"/>
<path d="M39.7855 27.0695C40.3493 27.0695 40.8063 26.6124 40.8063 26.0486C40.8063 25.4848 40.3493 25.0277 39.7855 25.0277C39.2217 25.0277 38.7646 25.4848 38.7646 26.0486C38.7646 26.6124 39.2217 27.0695 39.7855 27.0695Z" fill="#051733"/>
<path d="M27.892 23.6395C28.5933 23.2803 29.3631 23.0747 30.1501 23.0365C30.9371 22.9983 31.7233 23.1284 32.456 23.4181C33.0988 23.6719 32.8179 24.7198 32.1698 24.4606C31.5761 24.2101 30.9353 24.0906 30.2913 24.1102C29.6472 24.1298 29.0149 24.288 28.4375 24.574C27.8164 24.8819 27.2708 23.9474 27.892 23.6395Z" fill="#051733"/>
<path d="M30.2142 27.0695C30.778 27.0695 31.235 26.6124 31.235 26.0486C31.235 25.4848 30.778 25.0277 30.2142 25.0277C29.6504 25.0277 29.1934 25.4848 29.1934 26.0486C29.1934 26.6124 29.6504 27.0695 30.2142 27.0695Z" fill="#051733"/>
<path d="M31.6782 34.7504C31.9228 35.4356 32.3733 36.0285 32.968 36.4477C33.5627 36.8668 34.2724 37.0919 35 37.0919C35.7275 37.0919 36.4373 36.8668 37.032 36.4477C37.6267 36.0285 38.0772 35.4356 38.3217 34.7504H31.6782Z" fill="white"/>
</svg>
