<svg width="24" height="24" viewBox="0 0 24 24" fill="none" xmlns="http://www.w3.org/2000/svg">
<path d="M16.6 21L10.3 14.7C9.8 15.1 9.225 15.4167 8.575 15.65C7.925 15.8833 7.23333 16 6.5 16C4.68333 16 3.146 15.3707 1.888 14.112C0.63 12.8533 0.000667196 11.316 5.29101e-07 9.5C-0.000666138 7.684 0.628667 6.14667 1.888 4.888C3.14733 3.62933 4.68467 3 6.5 3C8.31533 3 9.853 3.62933 11.113 4.888C12.373 6.14667 13.002 7.684 13 9.5C13 10.2333 12.8833 10.925 12.65 11.575C12.4167 12.225 12.1 12.8 11.7 13.3L18 19.6L16.6 21ZM6.5 14C7.75 14 8.81267 13.5627 9.688 12.688C10.5633 11.8133 11.0007 10.7507 11 9.5C10.9993 8.24933 10.562 7.187 9.688 6.313C8.814 5.439 7.75133 5.00133 6.5 5C5.24867 4.99867 4.18633 5.43633 3.313 6.313C2.43967 7.18967 2.002 8.252 2 9.5C1.998 10.748 2.43567 11.8107 3.313 12.688C4.19033 13.5653 5.25267 14.0027 6.5 14Z" fill="#989898"/>
</svg>
