<svg width="65" height="76" viewBox="0 0 65 76" fill="none" xmlns="http://www.w3.org/2000/svg">
<path d="M48.5 28C48.5 49.32 16.5 49.32 16.5 28H24.5C24.5 38.68 40.5 38.68 40.5 28M64.5 64V76H0.5V64C0.5 53.32 21.82 48 32.5 48C43.18 48 64.5 53.32 64.5 64ZM56.9 64C56.9 61.44 44.38 55.6 32.5 55.6C20.62 55.6 8.1 61.44 8.1 64V68.4H56.9M34.5 0C35.62 0 36.5 0.88 36.5 2V14H40.5V4C43.3308 5.31009 45.7026 7.44077 47.3074 10.1155C48.9123 12.7903 49.6762 15.8857 49.5 19C49.5 19 52.3 19.56 52.5 24H12.5C12.5 19.56 15.5 19 15.5 19C15.3238 15.8857 16.0877 12.7903 17.6926 10.1155C19.2974 7.44077 21.6692 5.31009 24.5 4V14H28.5V2C28.5 0.88 29.38 0 30.5 0" fill="#5C69F8"/>
</svg>
