<svg width="48" height="49" viewBox="0 0 48 49" fill="none" xmlns="http://www.w3.org/2000/svg">
<rect y="0.5" width="48" height="48" rx="24" fill="#C8EAC9"/>
<path fill-rule="evenodd" clip-rule="evenodd" d="M24 14.5C18.4772 14.5 14 18.9772 14 24.5C14 30.0228 18.4772 34.5 24 34.5C29.5228 34.5 34 30.0228 34 24.5C34 18.9772 29.5228 14.5 24 14.5ZM24 32.5C19.5888 32.5 16 28.9112 16 24.5C16 20.0888 19.5888 16.5 24 16.5C28.4112 16.5 32 20.0888 32 24.5C32 28.9112 28.4112 32.5 24 32.5ZM27.7657 20.9272L29.1798 22.3413L23 28.547L19.293 24.84L20.707 23.4259L23 25.7189L27.7657 20.9272Z" fill="#275429"/>
</svg>
