<svg width="57" height="94" viewBox="0 0 57 94" fill="none" xmlns="http://www.w3.org/2000/svg">
<path d="M48.3476 41.2473L56.9723 9.94855L54.3141 0.629284H3.4289L0.772522 9.94855L9.39544 41.2473L20.1296 34.5447L24.2228 43.0499L13.4531 77.4424L28.8724 94L44.2899 77.4424L33.5258 43.0517L37.6134 34.5447L48.3476 41.2473ZM46.4161 36.5565L38.9003 31.864L31.2178 27.0679L52.3377 5.05213L53.739 9.96066L46.4161 36.5565ZM44.8463 8.5123H12.8967L8.10098 3.5139H49.642L44.8463 8.5123ZM42.0813 11.3969L28.8724 25.165L15.6655 11.3969H42.0813ZM4.00214 9.96066L5.40339 5.04868L26.5252 27.0679L11.3287 36.5565L4.00214 9.96066ZM28.8724 89.5754L16.9244 76.7441L27.0553 44.3877H30.6914L40.8168 76.7441L28.8724 89.5754ZM30.8525 41.5048H26.8979L22.7598 32.9011L28.8724 29.0849L34.987 32.9011L30.8525 41.5048Z" fill="#FAFAFA"/>
</svg>
