<svg width="38" height="38" viewBox="0 0 38 38" fill="none" xmlns="http://www.w3.org/2000/svg">
<rect x="1.22184" y="1.13316" width="35.9486" height="35.9482" rx="17.9741" fill="#6675C5"/>
<rect x="1.22184" y="1.13316" width="35.9486" height="35.9482" rx="17.9741" stroke="#BDBDBD" stroke-width="1.12337"/>
<path d="M13.0166 14.0521H11.8933C11.2974 14.0521 10.7259 14.2888 10.3045 14.7101C9.8832 15.1315 9.64648 15.703 9.64648 16.2988V26.4093C9.64648 27.0052 9.8832 27.5767 10.3045 27.998C10.7259 28.4194 11.2974 28.6561 11.8933 28.6561H22.0037C22.5996 28.6561 23.1711 28.4194 23.5924 27.998C24.0138 27.5767 24.2505 27.0052 24.2505 26.4093V25.2859" stroke="white" stroke-width="2.24675" stroke-linecap="round" stroke-linejoin="round"/>
<path d="M23.1274 11.8054L26.4975 15.1755M28.0534 13.5859C28.4959 13.1435 28.7444 12.5434 28.7444 11.9177C28.7444 11.292 28.4959 10.6919 28.0534 10.2495C27.611 9.80703 27.0109 9.55847 26.3852 9.55847C25.7595 9.55847 25.1594 9.80703 24.717 10.2495L15.2637 19.6691V23.0392H18.6338L28.0534 13.5859Z" stroke="white" stroke-width="2.24675" stroke-linecap="round" stroke-linejoin="round"/>
</svg>
