<svg width="88" height="88" viewBox="0 0 88 88" fill="none" xmlns="http://www.w3.org/2000/svg">
<rect width="88" height="88" rx="8" fill="#5663AC"/>
<g clip-path="url(#clip0_60_242)">
<path d="M55.6227 45.4133C55.9972 45.0383 56.2076 44.53 56.2076 44C56.2076 43.47 55.9972 42.9617 55.6227 42.5867L48.0813 35.0413C47.7061 34.6661 47.1973 34.4554 46.6667 34.4554C46.1361 34.4554 45.6272 34.6661 45.252 35.0413C44.8768 35.4165 44.666 35.9254 44.666 36.456C44.666 36.9866 44.8768 37.4955 45.252 37.8707L49.38 42H34C33.4696 42 32.9609 42.2107 32.5858 42.5858C32.2107 42.9609 32 43.4696 32 44C32 44.5304 32.2107 45.0391 32.5858 45.4142C32.9609 45.7893 33.4696 46 34 46H49.38L45.252 50.128C45.0662 50.3138 44.9189 50.5343 44.8183 50.777C44.7178 51.0198 44.666 51.2799 44.666 51.5427C44.666 51.8054 44.7178 52.0655 44.8183 52.3083C44.9189 52.551 45.0662 52.7716 45.252 52.9573C45.4378 53.1431 45.6583 53.2905 45.9011 53.391C46.1438 53.4916 46.4039 53.5433 46.6667 53.5433C46.9294 53.5433 47.1896 53.4916 47.4323 53.391C47.675 53.2905 47.8956 53.1431 48.0813 52.9573L55.6227 45.4133Z" fill="#EFEFEF"/>
</g>
<defs>
<clipPath id="clip0_60_242">
<rect width="32" height="32" fill="white" transform="matrix(0 1 -1 0 60 28)"/>
</clipPath>
</defs>
</svg>
