<svg width="42" height="38" viewBox="0 0 42 38" fill="none" xmlns="http://www.w3.org/2000/svg">
<path fill-rule="evenodd" clip-rule="evenodd" d="M19.9279 0.927158C19.3342 1.521 19.0007 2.3263 19.0007 3.16599C19.0007 4.00568 19.3342 4.81099 19.9279 5.40482L33.5224 18.9993L19.9279 32.5938C19.351 33.1911 19.0318 33.991 19.0391 34.8213C19.0463 35.6516 19.3793 36.4458 19.9664 37.0329C20.5536 37.62 21.3478 37.9531 22.1781 37.9603C23.0084 37.9675 23.8083 37.6483 24.4055 37.0715L40.2389 21.2382C40.8325 20.6443 41.166 19.839 41.166 18.9993C41.166 18.1596 40.8325 17.3543 40.2389 16.7605L24.4055 0.927158C23.8117 0.333499 23.0064 0 22.1667 0C21.327 0 20.5217 0.333499 19.9279 0.927158ZM0.927856 0.927158C0.334198 1.521 0.000701904 2.3263 0.000701904 3.16599C0.000701904 4.00568 0.334198 4.81099 0.927856 5.40482L14.5224 18.9993L0.927856 32.5938C0.351021 33.1911 0.0318413 33.991 0.0390549 34.8213C0.0462685 35.6516 0.379307 36.4458 0.966431 37.0329C1.55356 37.62 2.3478 37.9531 3.17809 37.9603C4.00838 37.9675 4.80828 37.6483 5.40553 37.0715L21.2389 21.2382C21.8325 20.6443 22.166 19.839 22.166 18.9993C22.166 18.1596 21.8325 17.3543 21.2389 16.7605L5.40553 0.927158C4.81169 0.333499 4.00638 0 3.16669 0C2.327 0 1.52169 0.333499 0.927856 0.927158Z" fill="#47518C"/>
</svg>
