<svg width="32" height="88" 
viewBox="0 0 32 32" fill="none" xmlns="http://www.w3.org/2000/svg">
<g clip-path="url(#clip0_60_209)">
<path d="M27.6227 17.4133C27.9972 17.0383 28.2076 16.53 28.2076 16C28.2076 15.47 27.9972 14.9617 27.6227 14.5867L20.0813 7.04133C19.7061 6.66613 19.1973 6.45535 18.6667 6.45535C18.1361 6.45535 17.6272 6.66613 17.252 7.04133C16.8768 7.41652 16.666 7.92539 16.666 8.45599C16.666 8.9866 16.8768 9.49547 17.252 9.87066L21.38 14H6C5.46957 14 4.96086 14.2107 4.58579 14.5858C4.21072 14.9609 4 15.4696 4 16C4 16.5304 4.21072 17.0391 4.58579 17.4142C4.96086 17.7893 5.46957 18 6 18H21.38L17.252 22.128C17.0662 22.3138 16.9189 22.5343 16.8183 22.777C16.7178 23.0198 16.666 23.2799 16.666 23.5427C16.666 23.8054 16.7178 24.0655 16.8183 24.3083C16.9189 24.551 17.0662 24.7716 17.252 24.9573C17.4378 25.1431 17.6583 25.2905 17.9011 25.391C18.1438 25.4916 18.4039 25.5433 18.6667 25.5433C18.9294 25.5433 19.1896 25.4916 19.4323 25.391C19.675 25.2905 19.8956 25.1431 20.0813 24.9573L27.6227 17.4133Z" fill="#EFEFEF"/>
</g>
<defs>
<clipPath id="clip0_60_209">
<rect width="32" height="32" fill="white" transform="matrix(0 1 -1 0 32 0)"/>
</clipPath>
</defs>
</svg>
