<svg width="73" height="72" viewBox="0 0 73 72" fill="none" xmlns="http://www.w3.org/2000/svg">
<path fill-rule="evenodd" clip-rule="evenodd" d="M8.5 8C8.5 5.87827 9.34285 3.84344 10.8431 2.34315C12.3434 0.842854 14.3783 0 16.5 0H56.5C58.6217 0 60.6566 0.842854 62.1569 2.34315C63.6571 3.84344 64.5 5.87827 64.5 8V12H68.5C69.5609 12 70.5783 12.4214 71.3284 13.1716C72.0786 13.9217 72.5 14.9391 72.5 16C72.5 17.0609 72.0786 18.0783 71.3284 18.8284C70.5783 19.5786 69.5609 20 68.5 20V64C69.5609 64 70.5783 64.4214 71.3284 65.1716C72.0786 65.9217 72.5 66.9391 72.5 68C72.5 69.0609 72.0786 70.0783 71.3284 70.8284C70.5783 71.5786 69.5609 72 68.5 72H4.5C3.43913 72 2.42172 71.5786 1.67157 70.8284C0.921427 70.0783 0.5 69.0609 0.5 68C0.5 66.9391 0.921427 65.9217 1.67157 65.1716C2.42172 64.4214 3.43913 64 4.5 64V20C3.43913 20 2.42172 19.5786 1.67157 18.8284C0.921427 18.0783 0.5 17.0609 0.5 16C0.5 14.9391 0.921427 13.9217 1.67157 13.1716C2.42172 12.4214 3.43913 12 4.5 12H8.5V8ZM56.5 8V12H16.5V8H56.5ZM60.5 20V64H46.5V54C46.5 51.3478 45.4464 48.8043 43.5711 46.9289C41.6957 45.0536 39.1522 44 36.5 44C33.8478 44 31.3043 45.0536 29.4289 46.9289C27.5536 48.8043 26.5 51.3478 26.5 54V64H12.5V20H60.5ZM36.5 52C37.0304 52 37.5391 52.2107 37.9142 52.5858C38.2893 52.9609 38.5 53.4696 38.5 54V64H34.5V54C34.5 53.4696 34.7107 52.9609 35.0858 52.5858C35.4609 52.2107 35.9696 52 36.5 52ZM20.5 40C21.5609 40 22.5783 40.4214 23.3284 41.1716C24.0786 41.9217 24.5 42.9391 24.5 44V48C24.5 49.0609 24.0786 50.0783 23.3284 50.8284C22.5783 51.5786 21.5609 52 20.5 52C19.4391 52 18.4217 51.5786 17.6716 50.8284C16.9214 50.0783 16.5 49.0609 16.5 48V44C16.5 42.9391 16.9214 41.9217 17.6716 41.1716C18.4217 40.4214 19.4391 40 20.5 40ZM52.5 40C53.4797 40.0001 54.4253 40.3598 55.1575 41.0109C55.8896 41.6619 56.3574 42.559 56.472 43.532L56.5 44V48C56.4989 49.0195 56.1085 50.0001 55.4086 50.7415C54.7087 51.4828 53.7522 51.9289 52.7344 51.9887C51.7167 52.0484 50.7145 51.7173 49.9327 51.0629C49.1509 50.4086 48.6484 49.4804 48.528 48.468L48.5 48V44C48.5 42.9391 48.9214 41.9217 49.6716 41.1716C50.4217 40.4214 51.4391 40 52.5 40ZM20.5 24C21.4797 24.0001 22.4254 24.3598 23.1575 25.0109C23.8896 25.6619 24.3574 26.559 24.472 27.532L24.5 28V32C24.4989 33.0195 24.1085 34.0001 23.4086 34.7415C22.7087 35.4828 21.7522 35.9289 20.7344 35.9887C19.7167 36.0484 18.7145 35.7173 17.9327 35.0629C17.1509 34.4086 16.6484 33.4804 16.528 32.468L16.5 32V28C16.5 26.9391 16.9214 25.9217 17.6716 25.1716C18.4217 24.4214 19.4391 24 20.5 24ZM36.5 24C37.4797 24.0001 38.4254 24.3598 39.1575 25.0109C39.8896 25.6619 40.3574 26.559 40.472 27.532L40.5 28V32C40.4989 33.0195 40.1085 34.0001 39.4086 34.7415C38.7087 35.4828 37.7522 35.9289 36.7344 35.9887C35.7167 36.0484 34.7145 35.7173 33.9327 35.0629C33.1509 34.4086 32.6484 33.4804 32.528 32.468L32.5 32V28C32.5 26.9391 32.9214 25.9217 33.6716 25.1716C34.4217 24.4214 35.4391 24 36.5 24ZM52.5 24C53.5609 24 54.5783 24.4214 55.3284 25.1716C56.0786 25.9217 56.5 26.9391 56.5 28V32C56.5 33.0609 56.0786 34.0783 55.3284 34.8284C54.5783 35.5786 53.5609 36 52.5 36C51.4391 36 50.4217 35.5786 49.6716 34.8284C48.9214 34.0783 48.5 33.0609 48.5 32V28C48.5 26.9391 48.9214 25.9217 49.6716 25.1716C50.4217 24.4214 51.4391 24 52.5 24Z" fill="#5C69F8"/>
</svg>
