<svg width="81" height="80" viewBox="0 0 81 80" fill="none" xmlns="http://www.w3.org/2000/svg">
<path d="M8.5 0H72.5C76.9 0 80.5 3.6 80.5 8V32H32.5V72H50.7C51.42 73.2 52.14 74.32 52.86 75.36C54.02 77.08 55.14 78.64 56.18 80H8.5C4.1 80 0.5 76.4 0.5 72V8C0.5 3.6 4.1 0 8.5 0ZM24.5 8H8.5V48H24.5V8ZM8.5 56V72H24.5V56H8.5ZM32.5 24H72.5V8H32.5V24ZM66.5 80C66.5 80 64.18 77.4 61.42 73.64C61.06 73.12 60.66 72.56 60.26 72C56.5 66.64 52.5 59.56 52.5 54C52.5 46.4 58.9 40 66.5 40C68.62 40 70.66 40.52 72.5 41.4C77.18 43.68 80.5 48.52 80.5 54C80.5 60.16 75.58 68.16 71.58 73.64C68.82 77.4 66.5 80 66.5 80ZM61.7 54.4C61.7 56.8 63.7 59.2 66.5 59.2C69.3 59.2 71.7 56.8 71.3 54.4C71.3 52 68.9 49.6 66.5 49.6C64.1 49.6 61.7 51.6 61.7 54.4Z" fill="#5C69F8"/>
</svg>
