<svg width="518" height="441" viewBox="0 0 518 441" fill="none" xmlns="http://www.w3.org/2000/svg">
<g clip-path="url(#clip0_550_4036)">
<path d="M474.954 170.349H41.6265V359.243H474.954V170.349Z" fill="#EBEBEB"/>
<path d="M485.573 161.284H31.8259V171.396H485.573V161.284Z" fill="#E0E0E0"/>
<path d="M480.735 331.541H36.664C33.992 331.541 31.8259 333.707 31.8259 336.379V336.814C31.8259 339.486 33.992 341.652 36.664 341.652H480.735C483.407 341.652 485.573 339.486 485.573 336.814V336.379C485.573 333.707 483.407 331.541 480.735 331.541Z" fill="#E0E0E0"/>
<path d="M55.799 209.831H41.3572V224.273H55.799V209.831Z" fill="#F5F5F5"/>
<path d="M55.799 224.273H41.3572V238.715H55.799V224.273Z" fill="white"/>
<path d="M55.7367 238.715H70.1786V224.273H55.7367V238.715Z" fill="#F5F5F5"/>
<path d="M55.7367 224.273H70.1786V209.831H55.7367V224.273Z" fill="white"/>
<path d="M84.7137 209.831H70.2719V224.273H84.7137V209.831Z" fill="#F5F5F5"/>
<path d="M84.7137 224.273H70.2719V238.715H84.7137V224.273Z" fill="white"/>
<path d="M84.6619 238.715H99.1038V224.273H84.6619V238.715Z" fill="#F5F5F5"/>
<path d="M84.6619 224.273H99.1038V209.831H84.6619V224.273Z" fill="white"/>
<path d="M113.628 209.831H99.1866V224.273H113.628V209.831Z" fill="#F5F5F5"/>
<path d="M113.628 224.273H99.1866V238.715H113.628V224.273Z" fill="white"/>
<path d="M113.566 238.715H128.008V224.273H113.566V238.715Z" fill="#F5F5F5"/>
<path d="M113.566 224.273H128.008V209.831H113.566V224.273Z" fill="white"/>
<path d="M142.533 209.831H128.091V224.273H142.533V209.831Z" fill="#F5F5F5"/>
<path d="M142.533 224.273H128.091V238.715H142.533V224.273Z" fill="white"/>
<path d="M142.481 238.715H156.923V224.273H142.481V238.715Z" fill="#F5F5F5"/>
<path d="M142.481 224.273H156.923V209.831H142.481V224.273Z" fill="white"/>
<path d="M171.448 209.831H157.006V224.273H171.448V209.831Z" fill="#F5F5F5"/>
<path d="M171.448 224.273H157.006V238.715H171.448V224.273Z" fill="white"/>
<path d="M171.385 238.715H185.827V224.273H171.385V238.715Z" fill="#F5F5F5"/>
<path d="M171.385 224.273H185.827V209.831H171.385V224.273Z" fill="white"/>
<path d="M200.362 209.831H185.921V224.273H200.362V209.831Z" fill="#F5F5F5"/>
<path d="M200.362 224.273H185.921V238.715H200.362V224.273Z" fill="white"/>
<path d="M200.311 238.715H214.752V224.273H200.311V238.715Z" fill="#F5F5F5"/>
<path d="M200.311 224.273H214.752V209.831H200.311V224.273Z" fill="white"/>
<path d="M229.267 209.831H214.825V224.273H229.267V209.831Z" fill="#F5F5F5"/>
<path d="M229.267 224.273H214.825V238.715H229.267V224.273Z" fill="white"/>
<path d="M229.215 238.715H243.657V224.273H229.215V238.715Z" fill="#F5F5F5"/>
<path d="M229.215 224.273H243.657V209.831H229.215V224.273Z" fill="white"/>
<path d="M258.182 209.831H243.74V224.273H258.182V209.831Z" fill="#F5F5F5"/>
<path d="M258.182 224.273H243.74V238.715H258.182V224.273Z" fill="white"/>
<path d="M258.13 238.715H272.572V224.273H258.13V238.715Z" fill="#F5F5F5"/>
<path d="M258.13 224.273H272.572V209.831H258.13V224.273Z" fill="white"/>
<path d="M287.096 209.831H272.655V224.273H287.096V209.831Z" fill="#F5F5F5"/>
<path d="M287.096 224.273H272.655V238.715H287.096V224.273Z" fill="white"/>
<path d="M287.034 238.715H301.476V224.273H287.034V238.715Z" fill="#F5F5F5"/>
<path d="M287.034 224.273H301.476V209.831H287.034V224.273Z" fill="white"/>
<path d="M316.011 209.831H301.569V224.273H316.011V209.831Z" fill="#F5F5F5"/>
<path d="M316.011 224.273H301.569V238.715H316.011V224.273Z" fill="white"/>
<path d="M315.959 238.715H330.401V224.273H315.959V238.715Z" fill="#F5F5F5"/>
<path d="M315.959 224.273H330.401V209.831H315.959V224.273Z" fill="white"/>
<path d="M344.915 209.831H330.474V224.273H344.915V209.831Z" fill="#F5F5F5"/>
<path d="M344.915 224.273H330.474V238.715H344.915V224.273Z" fill="white"/>
<path d="M344.864 238.715H359.306V224.273H344.864V238.715Z" fill="#F5F5F5"/>
<path d="M344.864 224.273H359.306V209.831H344.864V224.273Z" fill="white"/>
<path d="M373.83 209.831H359.388V224.273H373.83V209.831Z" fill="#F5F5F5"/>
<path d="M373.83 224.273H359.388V238.715H373.83V224.273Z" fill="white"/>
<path d="M373.778 238.715H388.22V224.273H373.778V238.715Z" fill="#F5F5F5"/>
<path d="M373.778 224.273H388.22V209.831H373.778V224.273Z" fill="white"/>
<path d="M402.745 209.831H388.303V224.273H402.745V209.831Z" fill="#F5F5F5"/>
<path d="M402.745 224.273H388.303V238.715H402.745V224.273Z" fill="white"/>
<path d="M402.693 238.715H417.135V224.273H402.693V238.715Z" fill="#F5F5F5"/>
<path d="M402.693 224.273H417.135V209.831H402.693V224.273Z" fill="white"/>
<path d="M431.66 209.831H417.218V224.273H431.66V209.831Z" fill="#F5F5F5"/>
<path d="M431.66 224.273H417.218V238.715H431.66V224.273Z" fill="white"/>
<path d="M431.608 238.715H446.05V224.273H431.608V238.715Z" fill="#F5F5F5"/>
<path d="M431.608 224.273H446.05V209.831H431.608V224.273Z" fill="white"/>
<path d="M460.564 209.831H446.122V224.273H460.564V209.831Z" fill="#F5F5F5"/>
<path d="M460.564 224.273H446.122V238.715H460.564V224.273Z" fill="white"/>
<path d="M460.512 238.715H474.954V224.273H460.512V238.715Z" fill="#F5F5F5"/>
<path d="M460.512 224.273H474.954V209.831H460.512V224.273Z" fill="white"/>
<path d="M226.977 13.5819H167.2V51.3338H226.977V13.5819Z" fill="#E0E0E0"/>
<path d="M225.413 13.5819H164.817V51.3338H225.413V13.5819Z" fill="#E0E0E0"/>
<path d="M220.026 19.3318H170.194V45.5944H220.026V19.3318Z" fill="white"/>
<path d="M164.817 51.3338C164.817 50.8676 170.194 45.5943 170.194 45.5943V19.3317L164.817 13.5819V51.3338Z" fill="#EBEBEB"/>
<path d="M225.413 13.5819C225.413 14.0377 220.026 19.311 220.026 19.311V45.5736L225.413 51.3338V13.5819Z" fill="#EBEBEB"/>
<path d="M183.175 27.2676V36.6123H207.532V27.2676H183.175Z" fill="#E0E0E0"/>
<path d="M137.405 161.046C137.405 161.046 135.333 132.795 135.923 131.779C136.514 130.764 151.846 130.391 152.592 131.779C153.338 133.167 152.116 161.046 152.116 161.046H137.405Z" fill="#EBEBEB"/>
<path d="M139.311 131.727C139.311 131.727 139.166 126.133 139.311 125.087C139.416 124.637 139.635 124.223 139.947 123.883C140.259 123.544 140.654 123.291 141.093 123.149C141.487 123.149 147.775 122.932 148.107 123.149C148.438 123.367 149.402 123.47 149.391 126.081C149.391 127.801 149.391 131.707 149.391 131.707L139.311 131.727Z" fill="#EBEBEB"/>
<path d="M142.346 123.47C142.346 123.47 142.761 116.384 143.496 116.011C144.232 115.638 144.532 115.597 145.185 117.576C145.683 119.514 146.054 121.483 146.294 123.47H142.346Z" fill="#EBEBEB"/>
<path d="M142.377 123.108L146.242 123.025L146.055 121.782L142.46 121.906L142.377 123.108Z" fill="#E0E0E0"/>
<path d="M139.29 130.888L149.402 131.044V129.728H139.27L139.29 130.888Z" fill="#E0E0E0"/>
<path d="M74.592 161.046C74.592 161.046 73.9393 130.246 74.592 128.764C75.2446 127.283 85.7911 124.973 87.6041 124.62C89.4171 124.268 113.142 124.455 114.291 126.102C115.441 127.749 115.441 161.046 115.441 161.046H74.592Z" fill="#E6E6E6"/>
<path d="M74.592 128.785C73.9393 130.267 74.592 161.067 74.592 161.067H87.4694L87.4073 159.865L87.6041 124.641C85.7911 124.993 75.255 127.304 74.592 128.785Z" fill="#E0E0E0"/>
<path d="M93.1571 127.894C92.7182 127.891 92.296 128.062 91.9818 128.368C91.6677 128.674 91.4869 129.092 91.4788 129.531C91.3544 135.654 91.2301 156.726 92.09 157.399C92.9499 158.073 110.458 159.181 111.349 157.399C112.24 155.618 111.909 130.122 110.79 129.003C109.888 128.122 97.6429 127.946 93.1571 127.894Z" fill="white"/>
<path d="M119.202 161.046C119.202 161.046 117.13 135.768 117.71 134.856C118.29 133.944 133.665 133.613 134.4 134.856C135.136 136.099 133.934 161.046 133.934 161.046H119.202Z" fill="#E6E6E6"/>
<path d="M121.108 134.804C121.108 134.804 120.953 129.811 121.108 128.868C121.234 128.452 121.464 128.075 121.775 127.772C122.087 127.47 122.471 127.251 122.89 127.138C123.284 127.138 129.583 126.941 129.914 127.138C130.246 127.335 131.209 127.418 131.199 129.759C131.199 131.303 131.199 134.794 131.199 134.794L121.108 134.804Z" fill="#E6E6E6"/>
<path d="M124.154 127.418C124.154 127.418 124.558 121.077 125.304 120.756C126.05 120.435 126.34 120.383 126.993 122.155C127.484 123.881 127.855 125.64 128.101 127.418H124.154Z" fill="#E6E6E6"/>
<path d="M124.175 127.107L128.039 127.034L127.863 125.915L124.258 126.029L124.175 127.107Z" fill="#E0E0E0"/>
<path d="M121.088 134.069L131.209 134.193V133.033H121.067L121.088 134.069Z" fill="#E0E0E0"/>
<path opacity="0.6" d="M102.678 124.724C102.678 124.724 104.936 126.589 101.642 128.081L106.304 128.309C106.304 128.309 103.092 128.692 105.268 126.506C105.814 125.886 106.522 125.431 107.313 125.193C108.104 124.955 108.946 124.943 109.743 125.159L102.678 124.724Z" fill="white"/>
<path d="M427.039 161.046C427.039 161.046 424.967 132.795 425.558 131.779C426.148 130.764 441.481 130.391 442.227 131.779C442.973 133.167 441.761 161.046 441.761 161.046H427.039Z" fill="#EBEBEB"/>
<path d="M428.904 131.727C428.904 131.727 428.759 126.133 428.904 125.087C429.011 124.638 429.23 124.225 429.542 123.885C429.854 123.546 430.248 123.293 430.686 123.149C431.08 123.149 437.368 122.932 437.7 123.149C438.187 123.47 438.995 123.47 438.984 126.081C438.984 127.801 438.984 131.707 438.984 131.707L428.904 131.727Z" fill="#EBEBEB"/>
<path d="M432.012 123.47C432.012 123.47 432.416 116.384 433.162 116.011C433.908 115.638 434.198 115.597 434.84 117.576C435.34 119.514 435.714 121.483 435.959 123.47H432.012Z" fill="#EBEBEB"/>
<path d="M432.012 123.108L435.876 123.025L435.69 121.782L432.095 121.906L432.012 123.108Z" fill="#E0E0E0"/>
<path d="M428.925 130.888L439.036 131.044V129.728H428.904L428.925 130.888Z" fill="#E0E0E0"/>
<path d="M395.752 161.046C395.752 161.046 393.68 135.768 394.26 134.856C394.84 133.944 410.215 133.613 410.95 134.856C411.686 136.099 410.484 161.046 410.484 161.046H395.752Z" fill="#E6E6E6"/>
<path d="M397.668 134.804C397.668 134.804 397.523 129.811 397.668 128.868C397.794 128.452 398.024 128.075 398.335 127.772C398.647 127.47 399.031 127.251 399.45 127.138C399.844 127.138 406.143 126.941 406.474 127.138C406.806 127.335 407.769 127.418 407.759 129.759C407.759 131.303 407.759 134.794 407.759 134.794L397.668 134.804Z" fill="#E6E6E6"/>
<path d="M400.714 127.418C400.714 127.418 401.118 121.077 401.864 120.756C402.61 120.435 402.9 120.383 403.553 122.155C404.05 123.88 404.42 125.639 404.662 127.418H400.714Z" fill="#E6E6E6"/>
<path d="M400.735 127.107L404.61 127.034L404.423 125.915L400.818 126.029L400.735 127.107Z" fill="#E0E0E0"/>
<path d="M397.648 134.069L407.77 134.193V133.033H397.627L397.648 134.069Z" fill="#E0E0E0"/>
<path d="M151.826 12.6082H72.9344V91.4996H151.826V12.6082Z" fill="#EBEBEB"/>
<path d="M148.127 15.9441H76.7366V87.3349H148.127V15.9441Z" fill="white"/>
<path d="M112.437 77.2028C126.558 77.2028 138.006 65.7554 138.006 51.6343C138.006 37.5132 126.558 26.0658 112.437 26.0658C98.3161 26.0658 86.8687 37.5132 86.8687 51.6343C86.8687 65.7554 98.3161 77.2028 112.437 77.2028Z" fill="#EBEBEB"/>
<path d="M112.437 59.1763C116.602 59.1763 119.979 55.7996 119.979 51.6342C119.979 47.4689 116.602 44.0922 112.437 44.0922C108.272 44.0922 104.895 47.4689 104.895 51.6342C104.895 55.7996 108.272 59.1763 112.437 59.1763Z" fill="#FAFAFA"/>
<path opacity="0.2" d="M94.1724 69.5156C94.1724 69.5156 115.1 67.4436 116.022 50.8676C116.944 34.2916 114.333 26.1176 114.333 26.1176C114.333 26.1176 121.036 26.6666 124.838 29.2256C124.838 29.2256 119.658 27.8788 119.979 34.5092C120.3 41.1396 120.808 55.167 116.799 61.642C112.789 68.117 101.808 71.6601 107.526 76.6744C107.526 76.7262 98.5546 75.5451 94.1724 69.5156Z" fill="white"/>
<path d="M148.314 87.3245H76.923L72.9344 91.4995H151.826L148.314 87.3245Z" fill="#E0E0E0"/>
<path d="M154.323 12.8257H151.826V91.4995H154.323V12.8257Z" fill="#E0E0E0"/>
<path d="M72.9344 12.6082L76.7366 15.9441H148.127L151.826 12.6082H72.9344Z" fill="#E0E0E0"/>
<path d="M448.65 6.07092H369.759V113.369H448.65V6.07092Z" fill="#EBEBEB"/>
<path d="M444.952 9.40686H373.561V109.205H444.952V9.40686Z" fill="white"/>
<path d="M409.251 70.6655C423.372 70.6655 434.82 59.2181 434.82 45.097C434.82 30.976 423.372 19.5286 409.251 19.5286C395.13 19.5286 383.683 30.976 383.683 45.097C383.683 59.2181 395.13 70.6655 409.251 70.6655Z" fill="#EBEBEB"/>
<path d="M409.251 52.6392C413.416 52.6392 416.793 49.2625 416.793 45.0971C416.793 40.9318 413.416 37.5551 409.251 37.5551C405.086 37.5551 401.709 40.9318 401.709 45.0971C401.709 49.2625 405.086 52.6392 409.251 52.6392Z" fill="#FAFAFA"/>
<path opacity="0.2" d="M390.986 62.9785C390.986 62.9785 411.924 60.9065 412.846 44.3305C413.768 27.7545 411.157 19.5804 411.157 19.5804C411.157 19.5804 417.86 20.1295 421.662 22.6884C421.662 22.6884 416.43 21.3416 416.793 27.972C417.156 34.6024 417.632 48.6299 413.623 55.1049C409.614 61.5799 398.632 65.123 404.351 70.1372C404.351 70.189 395.379 69.008 390.986 62.9785Z" fill="white"/>
<path d="M445.128 109.205H373.747L369.759 113.38H448.65L445.128 109.205Z" fill="#E0E0E0"/>
<path d="M451.147 6.28857H448.65V113.37H451.147V6.28857Z" fill="#E0E0E0"/>
<path d="M421.652 86.1227H399.223V93.5404H421.652V86.1227Z" fill="#E0E0E0"/>
<path d="M369.759 6.07092L373.561 9.40684H444.952L448.65 6.07092H369.759Z" fill="#E0E0E0"/>
<path d="M358.932 15.9441H299.155V53.6959H358.932V15.9441Z" fill="#E0E0E0"/>
<path d="M357.368 15.9441H296.772V53.6959H357.368V15.9441Z" fill="#E0E0E0"/>
<path d="M351.981 21.6938H302.149V47.9564H351.981V21.6938Z" fill="white"/>
<path d="M296.772 53.6959C296.772 53.2297 302.149 47.9565 302.149 47.9565V21.6939L296.772 15.9441V53.6959Z" fill="#EBEBEB"/>
<path d="M357.358 15.9441C357.358 16.3999 351.981 21.6732 351.981 21.6732V47.9358L357.358 53.6959V15.9441Z" fill="#EBEBEB"/>
<path d="M315.13 29.6399V38.9846H339.487V29.6399H315.13Z" fill="#E0E0E0"/>
<path d="M459.901 284.9H272.644C271.033 284.897 269.489 284.255 268.351 283.115C267.213 281.975 266.573 280.43 266.573 278.819V6.07096C266.576 4.46168 267.216 2.9191 268.354 1.78117C269.492 0.643238 271.035 0.0027392 272.644 0H459.901C461.51 0.0027392 463.053 0.643238 464.191 1.78117C465.329 2.9191 465.969 4.46168 465.972 6.07096V278.819C465.972 280.43 465.333 281.975 464.195 283.115C463.056 284.255 461.512 284.897 459.901 284.9ZM272.644 0.259C271.104 0.261739 269.627 0.874951 268.538 1.96431C267.448 3.05367 266.835 4.53038 266.832 6.07096V278.819C266.832 280.361 267.444 281.84 268.534 282.932C269.624 284.024 271.102 284.638 272.644 284.641H459.901C461.444 284.638 462.922 284.024 464.012 282.932C465.101 281.84 465.713 280.361 465.713 278.819V6.07096C465.713 4.52953 465.101 3.05124 464.011 1.96128C462.921 0.87133 461.443 0.259 459.901 0.259H272.644Z" fill="#E0E0E0"/>
<path d="M243.968 284.9H56.721C55.9224 284.9 55.1316 284.743 54.3937 284.437C53.6559 284.132 52.9855 283.684 52.4208 283.119C51.8561 282.554 51.4082 281.884 51.1026 281.146C50.7969 280.408 50.6396 279.617 50.6396 278.819V6.07096C50.6424 4.45989 51.2843 2.91574 52.4245 1.77751C53.5647 0.639286 55.1099 -2.3378e-06 56.721 0H243.968C245.579 -2.3378e-06 247.124 0.639286 248.264 1.77751C249.404 2.91574 250.046 4.45989 250.049 6.07096V278.819C250.049 279.617 249.892 280.408 249.586 281.146C249.28 281.884 248.832 282.554 248.268 283.119C247.703 283.684 247.033 284.132 246.295 284.437C245.557 284.743 244.766 284.9 243.968 284.9ZM56.721 0.259C55.1786 0.258998 53.6992 0.870999 52.6076 1.96066C51.516 3.05031 50.9014 4.52858 50.8986 6.07096V278.819C50.8986 280.363 51.5121 281.844 52.604 282.936C53.6959 284.028 55.1768 284.641 56.721 284.641H243.968C244.732 284.641 245.489 284.49 246.196 284.198C246.902 283.905 247.544 283.476 248.085 282.936C248.625 282.395 249.054 281.753 249.347 281.047C249.639 280.34 249.79 279.583 249.79 278.819V6.07096C249.787 4.52858 249.173 3.05031 248.081 1.96066C246.989 0.870999 245.51 0.258998 243.968 0.259H56.721Z" fill="#E0E0E0"/>
<path d="M518 348.168H0V348.427H518V348.168Z" fill="#E0E0E0"/>
<path d="M70.1683 362.942H53.5302V363.201H70.1683V362.942Z" fill="#E0E0E0"/>
<path d="M231.94 360.134H176.483V360.393H231.94V360.134Z" fill="#E0E0E0"/>
<path d="M108.759 372.566H71.2042V372.825H108.759V372.566Z" fill="#E0E0E0"/>
<path d="M436.716 360H391.971V360.259H436.716V360Z" fill="#E0E0E0"/>
<path d="M452.504 360H445.946V360.259H452.504V360Z" fill="#E0E0E0"/>
<path d="M383.424 366.454H327.594V366.713H383.424V366.454Z" fill="#E0E0E0"/>
<path d="M397.296 424.998C397.296 433.597 336.337 440.538 261.145 440.538C185.952 440.538 124.993 433.576 124.993 424.998C124.993 416.42 185.952 409.458 261.145 409.458C336.337 409.458 397.296 416.41 397.296 424.998Z" fill="#F5F5F5"/>
<path d="M168.961 135.954H196.84C196.932 135.939 197.016 135.892 197.076 135.821C197.137 135.749 197.17 135.659 197.17 135.566C197.17 135.472 197.137 135.382 197.076 135.311C197.016 135.24 196.932 135.192 196.84 135.177H168.961C168.869 135.192 168.785 135.24 168.725 135.311C168.664 135.382 168.631 135.472 168.631 135.566C168.631 135.659 168.664 135.749 168.725 135.821C168.785 135.892 168.869 135.939 168.961 135.954Z" fill="#263238"/>
<path d="M160.145 132.473H188.003C188.095 132.458 188.179 132.411 188.239 132.34C188.3 132.268 188.333 132.178 188.333 132.085C188.333 131.991 188.3 131.901 188.239 131.83C188.179 131.759 188.095 131.711 188.003 131.696H160.145C160.053 131.711 159.969 131.759 159.908 131.83C159.848 131.901 159.815 131.991 159.815 132.085C159.815 132.178 159.848 132.268 159.908 132.34C159.969 132.411 160.053 132.458 160.145 132.473Z" fill="#263238"/>
<path opacity="0.5" d="M366.091 406.734L392.976 392.427H412.318L440.165 406.734H366.091Z" fill="white"/>
<path d="M366.091 406.734L392.976 392.427H412.318L440.165 406.734H366.091Z" fill="#263238"/>
<path opacity="0.5" d="M366.091 406.734L392.976 392.427H412.318L440.165 406.734H366.091Z" fill="white"/>
<path d="M372.722 246.257H433.525C434.778 246.257 435.979 246.755 436.865 247.641C437.751 248.527 438.249 249.728 438.249 250.981V259.269H368.008V250.981C368.008 249.73 368.504 248.53 369.388 247.645C370.272 246.759 371.471 246.26 372.722 246.257Z" fill="#6675C5"/>
<path d="M438.259 255.115H367.987C366.322 255.115 364.972 256.465 364.972 258.13V275.669C364.972 277.334 366.322 278.684 367.987 278.684H438.259C439.924 278.684 441.274 277.334 441.274 275.669V258.13C441.274 256.465 439.924 255.115 438.259 255.115Z" fill="#263238"/>
<path opacity="0.5" d="M438.259 255.115H367.987C366.322 255.115 364.972 256.465 364.972 258.13V275.669C364.972 277.334 366.322 278.684 367.987 278.684H438.259C439.924 278.684 441.274 277.334 441.274 275.669V258.13C441.274 256.465 439.924 255.115 438.259 255.115Z" fill="white"/>
<path d="M362.807 269.578H443.408C443.82 269.578 444.215 269.414 444.507 269.122C444.798 268.831 444.962 268.436 444.962 268.024C444.962 267.611 444.798 267.216 444.507 266.925C444.215 266.633 443.82 266.47 443.408 266.47H362.807C362.395 266.47 362 266.633 361.708 266.925C361.417 267.216 361.253 267.611 361.253 268.024C361.253 268.436 361.417 268.831 361.708 269.122C362 269.414 362.395 269.578 362.807 269.578Z" fill="#263238"/>
<g opacity="0.4">
<path d="M362.807 269.578H443.408C443.82 269.578 444.215 269.414 444.507 269.122C444.798 268.831 444.962 268.436 444.962 268.024C444.962 267.611 444.798 267.216 444.507 266.925C444.215 266.633 443.82 266.47 443.408 266.47H362.807C362.395 266.47 362 266.633 361.708 266.925C361.417 267.216 361.253 267.611 361.253 268.024C361.253 268.436 361.417 268.831 361.708 269.122C362 269.414 362.395 269.578 362.807 269.578Z" fill="white"/>
</g>
<path d="M412.318 279.005H392.976V396.312H412.318V279.005Z" fill="#263238"/>
<path opacity="0.5" d="M412.318 279.005H392.976V396.312H412.318V279.005Z" fill="white"/>
<path opacity="0.2" d="M395.451 280.901C395.182 282.206 395.451 392.427 395.451 392.427L382.356 406.734H397.327L398.663 392.406V280.901H395.451Z" fill="white"/>
<path opacity="0.3" d="M412.318 278.684H392.976V281.233H412.318V278.684Z" fill="black"/>
<path d="M388.179 279.067H418.068C418.16 279.052 418.243 279.005 418.304 278.934C418.364 278.863 418.398 278.772 418.398 278.679C418.398 278.586 418.364 278.495 418.304 278.424C418.243 278.353 418.16 278.306 418.068 278.29H388.179C388.087 278.306 388.003 278.353 387.943 278.424C387.882 278.495 387.849 278.586 387.849 278.679C387.849 278.772 387.882 278.863 387.943 278.934C388.003 279.005 388.087 279.052 388.179 279.067Z" fill="#263238"/>
<path d="M393.09 392.789H412.173C412.265 392.774 412.349 392.727 412.409 392.655C412.469 392.584 412.503 392.494 412.503 392.401C412.503 392.307 412.469 392.217 412.409 392.146C412.349 392.075 412.265 392.027 412.173 392.012H393.09C392.997 392.027 392.914 392.075 392.853 392.146C392.793 392.217 392.76 392.307 392.76 392.401C392.76 392.494 392.793 392.584 392.853 392.655C392.914 392.727 392.997 392.774 393.09 392.789Z" fill="#263238"/>
<path d="M373.302 249.106H399.989C400.081 249.091 400.165 249.044 400.226 248.973C400.286 248.901 400.319 248.811 400.319 248.718C400.319 248.624 400.286 248.534 400.226 248.463C400.165 248.392 400.081 248.344 399.989 248.329H373.302C373.21 248.344 373.126 248.392 373.066 248.463C373.005 248.534 372.972 248.624 372.972 248.718C372.972 248.811 373.005 248.901 373.066 248.973C373.126 249.044 373.21 249.091 373.302 249.106Z" fill="white"/>
<path d="M403.242 249.106H406.423C406.515 249.091 406.599 249.044 406.659 248.973C406.72 248.901 406.753 248.811 406.753 248.718C406.753 248.624 406.72 248.534 406.659 248.463C406.599 248.392 406.515 248.344 406.423 248.329H403.242C403.15 248.344 403.066 248.392 403.006 248.463C402.946 248.534 402.912 248.624 402.912 248.718C402.912 248.811 402.946 248.901 403.006 248.973C403.066 249.044 403.15 249.091 403.242 249.106Z" fill="white"/>
<path opacity="0.5" d="M83.0354 405.491L109.93 391.183H129.272L157.12 405.491H83.0354Z" fill="white"/>
<path d="M83.0354 405.491L109.93 391.183H129.272L157.12 405.491H83.0354Z" fill="#263238"/>
<path opacity="0.5" d="M83.0354 405.491L109.93 391.183H129.272L157.12 405.491H83.0354Z" fill="white"/>
<path d="M89.6762 245.014H150.479C151.732 245.014 152.934 245.512 153.82 246.398C154.705 247.284 155.203 248.485 155.203 249.738V258.026H84.952V249.738C84.952 249.118 85.0742 248.503 85.3116 247.93C85.549 247.357 85.897 246.836 86.3357 246.398C86.7744 245.959 87.2952 245.611 87.8683 245.374C88.4415 245.136 89.0558 245.014 89.6762 245.014Z" fill="#6675C5"/>
<path d="M155.214 253.872H84.9416C83.2766 253.872 81.9269 255.222 81.9269 256.887V274.426C81.9269 276.091 83.2766 277.441 84.9416 277.441H155.214C156.879 277.441 158.228 276.091 158.228 274.426V256.887C158.228 255.222 156.879 253.872 155.214 253.872Z" fill="#263238"/>
<path opacity="0.5" d="M155.214 253.872H84.9416C83.2766 253.872 81.9269 255.222 81.9269 256.887V274.426C81.9269 276.091 83.2766 277.441 84.9416 277.441H155.214C156.879 277.441 158.228 276.091 158.228 274.426V256.887C158.228 255.222 156.879 253.872 155.214 253.872Z" fill="white"/>
<path d="M79.772 268.334H160.404C160.816 268.334 161.211 268.171 161.503 267.879C161.794 267.588 161.958 267.193 161.958 266.78C161.958 266.368 161.794 265.973 161.503 265.682C161.211 265.39 160.816 265.226 160.404 265.226H79.772C79.3599 265.226 78.9646 265.39 78.6732 265.682C78.3817 265.973 78.218 266.368 78.218 266.78C78.218 267.193 78.3817 267.588 78.6732 267.879C78.9646 268.171 79.3599 268.334 79.772 268.334Z" fill="#263238"/>
<g opacity="0.4">
<path d="M79.772 268.334H160.404C160.816 268.334 161.211 268.171 161.503 267.879C161.794 267.588 161.958 267.193 161.958 266.78C161.958 266.368 161.794 265.973 161.503 265.682C161.211 265.39 160.816 265.226 160.404 265.226H79.772C79.3599 265.226 78.9646 265.39 78.6732 265.682C78.3817 265.973 78.218 266.368 78.218 266.78C78.218 267.193 78.3817 267.588 78.6732 267.879C78.9646 268.171 79.3599 268.334 79.772 268.334Z" fill="white"/>
</g>
<path d="M129.272 277.762H109.93V395.068H129.272V277.762Z" fill="#263238"/>
<path opacity="0.5" d="M129.272 277.762H109.93V395.068H129.272V277.762Z" fill="white"/>
<path opacity="0.2" d="M112.406 279.658C112.137 280.963 112.406 391.183 112.406 391.183L99.3007 405.542H114.271L115.618 391.214V279.658H112.406Z" fill="white"/>
<path opacity="0.3" d="M129.272 277.441H109.93V279.989H129.272V277.441Z" fill="black"/>
<path d="M105.133 277.824H135.022C135.114 277.809 135.198 277.762 135.258 277.691C135.319 277.619 135.352 277.529 135.352 277.436C135.352 277.342 135.319 277.252 135.258 277.181C135.198 277.11 135.114 277.062 135.022 277.047H105.133C105.041 277.062 104.957 277.11 104.897 277.181C104.836 277.252 104.803 277.342 104.803 277.436C104.803 277.529 104.836 277.619 104.897 277.691C104.957 277.762 105.041 277.809 105.133 277.824Z" fill="#263238"/>
<path d="M110.044 391.546H129.117C129.209 391.531 129.293 391.483 129.353 391.412C129.413 391.341 129.447 391.251 129.447 391.157C129.447 391.064 129.413 390.974 129.353 390.903C129.293 390.831 129.209 390.784 129.117 390.769H110.044C109.952 390.784 109.868 390.831 109.808 390.903C109.747 390.974 109.714 391.064 109.714 391.157C109.714 391.251 109.747 391.341 109.808 391.412C109.868 391.483 109.952 391.531 110.044 391.546Z" fill="#263238"/>
<path d="M90.2459 247.904H116.933C117.025 247.889 117.109 247.842 117.17 247.771C117.23 247.7 117.263 247.609 117.263 247.516C117.263 247.423 117.23 247.332 117.17 247.261C117.109 247.19 117.025 247.143 116.933 247.127H90.2459C90.1538 247.143 90.07 247.19 90.0095 247.261C89.9491 247.332 89.9159 247.423 89.9159 247.516C89.9159 247.609 89.9491 247.7 90.0095 247.771C90.07 247.842 90.1538 247.889 90.2459 247.904Z" fill="white"/>
<path d="M120.176 247.894H123.367C123.459 247.879 123.543 247.832 123.603 247.76C123.664 247.689 123.697 247.599 123.697 247.506C123.697 247.412 123.664 247.322 123.603 247.251C123.543 247.18 123.459 247.132 123.367 247.117H120.176C120.084 247.132 120 247.18 119.94 247.251C119.879 247.322 119.846 247.412 119.846 247.506C119.846 247.599 119.879 247.689 119.94 247.76C120 247.832 120.084 247.879 120.176 247.894Z" fill="white"/>
<path d="M312.706 239.316C306.563 242.424 299.684 240.818 292.774 239.026L285.522 225.817C285.522 225.817 315.421 221.072 316.799 225.817C318.176 230.562 312.706 239.316 312.706 239.316Z" fill="#263238"/>
<path d="M252.152 212.028C252.152 212.028 288.858 259.466 283.336 265.682C277.814 271.898 207.801 292.618 207.801 292.618L207.2 307.309C207.2 307.309 297.757 309.681 303.693 293.602C309.816 277.026 306.169 240.601 301.393 226.107C296.617 211.613 290.08 196.27 290.08 196.27L252.152 212.028Z" fill="#FDBBB5"/>
<g opacity="0.3">
<path d="M279.865 304.014C282.476 285.314 282.724 248.816 280.58 239.875L285.656 236.239C285.656 236.239 285.428 257.767 285.522 269.091C285.656 284.983 282.134 303.33 282.134 303.33L279.865 304.014Z" fill="black"/>
</g>
<path d="M301.414 122.714L305.703 134.11L327.179 125.822L334.431 128.381C334.431 128.381 315.617 145.724 307.495 147.941C296.524 150.956 293.354 141.87 293.354 141.87L290.681 125.532L301.414 122.714Z" fill="#FDBBB5"/>
<path d="M284.9 189.971C284.9 189.971 282.828 274.923 281.523 294.058C281.523 294.058 264.864 383.641 266.076 407.034L253.582 410.215C241.906 341.248 246.495 327.946 252.836 295.716C253.281 289.811 242.807 251.582 242.072 236.26C240.352 199.378 253.582 189.267 253.582 189.267L284.9 189.971Z" fill="#FDBBB5"/>
<path d="M251.282 51.3545L250.515 47.5109C249.918 46.1671 248.931 45.0332 247.683 44.2558C246.434 43.4783 244.981 43.0929 243.512 43.1493C242.044 43.2439 240.613 43.6482 239.313 44.3356C238.013 45.0231 236.874 45.9782 235.97 47.1379C234.18 49.4799 232.995 52.2269 232.52 55.1359C232.168 56.9178 231.857 58.9691 230.323 59.9533C228.987 60.8131 227.215 60.5127 225.713 60.9893C224.757 61.3763 223.951 62.0607 223.414 62.9413C222.876 63.8218 222.636 64.8519 222.73 65.8792C222.862 66.9008 223.261 67.8696 223.886 68.6881C224.512 69.5065 225.342 70.1456 226.293 70.5412C227.252 70.9206 228.279 71.0981 229.309 71.0624C230.339 71.0268 231.351 70.7788 232.282 70.334C232.103 70.7459 232.033 71.1971 232.08 71.6438C232.128 72.0904 232.29 72.5172 232.551 72.8825C233.092 73.6017 233.852 74.1253 234.716 74.3744C235.487 74.6185 236.3 74.6965 237.103 74.6034C237.906 74.5102 238.679 74.2479 239.374 73.8339C240.068 73.4198 240.666 72.8633 241.129 72.2011C241.593 71.5389 241.91 70.786 242.061 69.9921C242.395 70.6275 242.955 71.1145 243.63 71.3563C244.306 71.5981 245.047 71.5771 245.708 71.2975C246.359 70.9988 246.941 70.5683 247.417 70.0334C247.893 69.4984 248.253 68.8706 248.474 68.1895C249.51 65.4855 249.251 62.4707 249.199 59.57C249.148 56.6691 249.417 53.5715 251.282 51.3545Z" fill="#263238"/>
<path d="M225.485 59.7357C226.57 59.9308 227.688 59.802 228.699 59.3653C229.711 58.9286 230.571 58.2034 231.173 57.2804C232.893 54.9908 233.245 52.0072 234.447 49.4897C235.016 48.1934 235.847 47.0289 236.889 46.0697C237.93 45.1104 239.159 44.3772 240.497 43.916C241.805 43.5068 243.206 43.5057 244.515 43.9129C245.823 44.32 246.977 45.1162 247.822 46.1952C248.101 46.5993 248.785 46.1952 248.485 45.8015C245.48 41.5954 239.513 42.3309 236.177 45.6772C234.188 47.6871 233.235 50.2149 232.364 52.8463C231.422 55.7057 229.453 59.9118 225.693 58.9898C225.206 58.8655 224.998 59.6218 225.485 59.7357Z" fill="#263238"/>
<path d="M280.601 42.1548C286.982 46.506 288.215 53.7063 288.091 58.1611C287.241 64.1699 285.107 68.4174 283.429 74.2501L267.796 38.8707C271.515 39.6374 273.742 37.8658 280.601 42.1548Z" fill="#263238"/>
<path d="M271.877 40.0517C269.334 38.8748 266.533 38.362 263.738 38.5613C260.942 38.7605 258.243 39.6654 255.892 41.1913C251.945 44.4754 246.63 49.7176 246.464 54.8458C246.464 59.6425 249.344 66.6665 252.235 69.1944C253.035 69.9177 253.977 70.4664 255.001 70.8053C256.025 71.1442 257.108 71.266 258.182 71.1628L282.113 49.4897C279.562 45.5218 276.039 42.2728 271.877 40.0517Z" fill="#263238"/>
<path d="M275.006 117.752C273.162 119.627 268.687 106.169 266.262 105.154C251.81 99.7979 256.172 92.8463 256.172 92.8463C258.948 89.6451 259.104 85.7808 258.161 79.8963C258.145 79.724 258.145 79.5506 258.161 79.3783C258.18 78.5937 258.441 77.8342 258.907 77.2027C259.198 76.7834 259.569 76.4256 259.998 76.1501C260.428 75.8745 260.908 75.6866 261.41 75.5971C261.913 75.5075 262.428 75.5182 262.927 75.6284C263.425 75.7386 263.897 75.9462 264.315 76.2392L270.79 78.1558C270.79 78.2387 270.79 78.332 270.841 78.4356C270.841 81.6472 270.717 84.1439 270.717 86.1123C270.738 86.3502 270.738 86.5893 270.717 86.8272C270.738 87.0685 270.738 87.3111 270.717 87.5524C270.852 90.246 275.369 94.2346 277.213 95.198C278.342 95.8507 281.264 111.463 275.006 117.752Z" fill="#FDBBB5"/>
<path opacity="0.2" d="M270.707 84.952C270.707 82.9836 270.5 81.5746 270.52 78.3527C270.484 78.26 270.463 78.162 270.458 78.0626L264.035 76.1045C263.181 75.5285 262.134 75.3142 261.122 75.5083C260.111 75.7025 259.217 76.2893 258.637 77.1405C258.202 77.7835 257.964 78.5397 257.954 79.3161C261.28 83.4199 265.746 86.4477 270.79 88.0185L270.707 84.952Z" fill="black"/>
<path d="M253.447 57.4462C253.592 68.5418 253.447 73.2348 258.627 79.3058C266.48 88.433 279.793 86.133 282.952 75.2758C285.718 65.4959 285.076 49.0235 274.664 43.8332C264.253 38.6428 253.312 46.3196 253.447 57.4462Z" fill="#FDBBB5"/>
<path d="M248.163 66.8842C248.648 67.9609 249.341 68.9315 250.201 69.7403C251.062 70.5492 252.073 71.1804 253.178 71.598C256.058 72.634 258.016 68.0237 257.322 64.9779C256.966 63.6059 256.131 62.4062 254.968 61.5951C253.806 60.784 252.392 60.4149 250.981 60.5542C248.112 60.8236 246.91 64.1388 248.163 66.8842Z" fill="#FDBBB5"/>
<path opacity="0.2" d="M254.442 66.8737C254.461 65.8044 254.059 64.7702 253.323 63.9948C252.586 63.2194 251.574 62.7649 250.505 62.7297" stroke="black" stroke-width="0.5" stroke-linecap="round" stroke-linejoin="round"/>
<path d="M267.578 62.3361C267.516 63.5172 268.065 64.5532 268.801 64.6361C269.536 64.7189 270.168 63.828 270.22 62.6469C270.272 61.4659 269.733 60.4299 268.997 60.347C268.262 60.2641 267.63 61.1551 267.578 62.3361Z" fill="#263238"/>
<path d="M278.549 63.3411C278.497 64.4807 279.047 65.4752 279.782 65.5684C280.518 65.6617 281.139 64.7915 281.191 63.6415C281.243 62.4915 280.694 61.497 279.969 61.4141C279.243 61.3312 278.601 62.1911 278.549 63.3411Z" fill="#263238"/>
<path d="M265.641 58.016C265.71 58.0333 265.782 58.0348 265.852 58.0205C265.922 58.0061 265.988 57.9763 266.045 57.9331C266.566 57.5159 267.182 57.235 267.839 57.1156C268.495 56.9962 269.171 57.0422 269.805 57.2493C269.87 57.2772 269.94 57.2913 270.011 57.2906C270.082 57.2898 270.152 57.2744 270.216 57.2451C270.28 57.2158 270.338 57.1734 270.385 57.1207C270.432 57.0679 270.468 57.0058 270.489 56.9385C270.531 56.7967 270.52 56.6444 270.457 56.5106C270.394 56.3767 270.284 56.2709 270.147 56.2133C269.349 55.9403 268.494 55.8712 267.662 56.0123C266.83 56.1535 266.046 56.5003 265.382 57.0214C265.325 57.0667 265.278 57.1228 265.243 57.1865C265.208 57.2503 265.186 57.3203 265.178 57.3926C265.17 57.4648 265.177 57.5379 265.198 57.6076C265.218 57.6773 265.253 57.7421 265.299 57.7984C265.38 57.9126 265.503 57.9907 265.641 58.016Z" fill="#263238"/>
<path d="M282.766 58.0989C282.825 58.0837 282.88 58.0565 282.928 58.0191C282.976 57.9817 283.016 57.9348 283.046 57.8813C283.102 57.7522 283.113 57.6073 283.075 57.4714C283.037 57.3354 282.954 57.2167 282.838 57.1354C282.216 56.64 281.475 56.3139 280.689 56.1887C279.903 56.0634 279.098 56.1433 278.353 56.4206C278.238 56.4897 278.154 56.6006 278.119 56.73C278.085 56.8595 278.101 56.9973 278.166 57.1147C278.219 57.2408 278.319 57.3415 278.444 57.3956C278.57 57.4496 278.711 57.453 278.839 57.4048C279.433 57.1979 280.07 57.1454 280.69 57.2523C281.31 57.3593 281.892 57.6221 282.383 58.016C282.437 58.0556 282.5 58.0835 282.565 58.0978C282.631 58.112 282.7 58.1124 282.766 58.0989Z" fill="#263238"/>
<path d="M275.576 62.5122C276.365 64.9817 277.406 67.3633 278.684 69.6192C278.753 69.7344 278.794 69.8639 278.804 69.9976C278.814 70.1313 278.793 70.2655 278.743 70.3899C278.693 70.5142 278.615 70.6253 278.515 70.7145C278.415 70.8036 278.295 70.8684 278.166 70.9038C277.165 71.1004 276.129 71.018 275.172 70.6655L275.576 62.5122Z" fill="#DE7E73"/>
<path d="M268.573 60.3573L271.183 59.9948C271.183 59.9948 269.609 61.7663 268.573 60.3573Z" fill="#263238"/>
<path d="M279.72 61.4141L282.331 61.0515C282.331 61.0515 280.756 62.8231 279.72 61.4141Z" fill="#263238"/>
<path d="M274.426 73.7114C273.621 74.6914 272.89 75.7303 272.24 76.8194C272.033 76.7435 271.826 76.6606 271.618 76.5708C268.821 75.4208 267.899 73.9601 267.733 72.6962C267.671 72.0747 267.753 71.4473 267.972 70.8624C268.088 70.5266 268.252 70.2092 268.459 69.9197C269.578 71.4115 272.095 72.6962 273.473 73.3178C274.053 73.5664 274.426 73.7114 274.426 73.7114Z" fill="#263238"/>
<path d="M273.504 73.297L272.841 74.1983C270.21 73.1002 268.5 71.9813 268.003 70.8417C268.12 70.5059 268.284 70.1884 268.49 69.8989C269.578 71.3908 272.095 72.6754 273.504 73.297Z" fill="white"/>
<path d="M271.618 76.5501C268.821 75.4001 267.899 73.9393 267.733 72.6754C268.793 73.1306 269.761 73.7728 270.593 74.5713C271.132 75.1085 271.49 75.8 271.618 76.5501Z" fill="#D7504D"/>
<path d="M256.98 60.1708C256.98 60.1708 263.393 52.981 263.641 46.7857C263.641 46.7857 286.371 41.9683 284.092 61.528C284.092 61.528 289.158 44.6412 270.624 41.7093C252.09 38.7774 248.07 62.937 256.389 71.4529C256.451 71.3596 253.022 64.6982 256.98 60.1708Z" fill="#263238"/>
<path d="M279.057 44.2061C281.474 46.571 283.074 49.6447 283.626 52.981C283.626 55.3949 280.3 57.125 280.3 57.125L276.332 51.8311V56.4516C273.575 56.2399 270.935 55.2518 268.717 53.6017C266.498 51.9516 264.792 49.707 263.797 47.1276L267.526 40.6112C267.526 40.6112 276.892 42.2999 279.057 44.2061Z" fill="#263238"/>
<path d="M250.598 46.102C249.105 47.5467 247.952 49.3063 247.225 51.2526C246.497 53.1988 246.213 55.2829 246.392 57.353C246.392 57.8502 247.221 57.8502 247.169 57.353C246.992 55.3854 247.258 53.4032 247.946 51.5515C248.635 49.6999 249.728 48.0255 251.147 46.6511C251.51 46.3092 250.961 45.7601 250.598 46.102Z" fill="#407BFF"/>
<path d="M255.892 41.1911C255.892 41.1911 257.166 31.6599 258.938 31.8671C260.709 32.0743 274.26 32.2608 276.913 33.5454C279.565 34.8301 279.834 41.9059 279.834 41.9059C279.834 41.9059 275.213 45.2419 270.303 45.1383C265.392 45.0347 255.892 41.1911 255.892 41.1911Z" fill="#6675C5"/>
<path d="M276.208 43.4395C276.004 41.438 275.14 39.5612 273.753 38.1041C272.049 36.5412 269.955 35.4674 267.692 34.9961C264.746 34.1438 261.856 33.1058 259.041 31.8881C258.586 31.6912 258.182 32.3646 258.648 32.5615C261.012 33.6143 263.433 34.5343 265.9 35.3172C268.075 35.9492 270.375 36.4154 272.219 37.814C273.099 38.485 273.832 39.328 274.376 40.2915C274.919 41.255 275.26 42.319 275.379 43.4187C275.431 43.9057 276.208 43.916 276.156 43.4187L276.208 43.4395Z" fill="#263238"/>
<path d="M274.022 38.2905L277.648 34.2294C277.98 33.8565 277.43 33.3074 277.099 33.6803L273.504 37.7622C273.172 38.1351 273.722 38.6842 274.053 38.3113L274.022 38.2905Z" fill="#263238"/>
<path opacity="0.3" d="M300.989 222.077C300.989 222.077 264.17 215.281 263.828 215.519C263.486 215.757 240.911 231.618 240.911 231.618L243.864 249.821C243.864 249.821 249.179 246.35 253.188 248.65C257.197 250.95 265.278 251.986 271.722 251.24C278.166 250.494 284.019 240.362 290.266 237.834C294.577 236.266 299.15 235.541 303.734 235.7L300.989 222.077Z" fill="black"/>
<path d="M286.527 159.326C291.872 178.151 302.139 194.012 312.893 210.36C315.711 214.649 318.715 220.336 319.844 225.34C320.974 230.344 315.576 236.736 312.706 239.316C317.337 232.447 315.814 227.081 310.873 226.687C307.112 226.387 299.777 229.484 294.576 232.178C291.012 233.875 287.645 235.959 284.537 238.394C281.78 240.973 278.698 243.181 275.369 244.962C270.275 247.377 264.434 247.686 259.114 245.822C255.198 244.434 251.489 241.844 247.335 242.103C243.823 242.32 240.787 244.548 237.462 245.698C234.642 246.662 231.614 246.848 228.697 246.236C227.489 246.065 226.365 245.518 225.485 244.672C223.849 242.88 224.449 240.02 225.434 237.803C227.951 232.054 232.219 227.133 234.198 221.227C237.006 212.794 234.851 203.615 234.882 194.737C234.844 183.064 238.936 171.754 246.433 162.807L286.527 159.326Z" fill="#6675C5"/>
<g opacity="0.3">
<path d="M272.934 220.658C270.29 214.485 268.452 207.999 267.464 201.357L262.719 202.041C263.362 209.738 264.025 217.581 266.739 224.833C267.101 225.972 267.686 227.028 268.459 227.941C268.852 228.395 269.353 228.743 269.916 228.953C270.479 229.163 271.086 229.228 271.681 229.142C273.297 228.811 274.271 227.07 274.281 225.382C274.157 223.732 273.699 222.125 272.934 220.658Z" fill="black"/>
</g>
<path d="M271.101 424.998C271.099 426.005 271.395 426.989 271.953 427.827C272.511 428.665 273.304 429.319 274.234 429.705C275.163 430.092 276.186 430.194 277.173 429.999C278.161 429.804 279.068 429.32 279.781 428.609C280.493 427.898 280.978 426.992 281.176 426.005C281.373 425.018 281.273 423.995 280.888 423.064C280.503 422.134 279.851 421.339 279.014 420.78C278.178 420.221 277.194 419.922 276.187 419.922C275.521 419.919 274.861 420.048 274.245 420.301C273.628 420.553 273.068 420.925 272.595 421.395C272.123 421.864 271.748 422.422 271.491 423.037C271.235 423.652 271.102 424.311 271.101 424.978V424.998Z" fill="#407BFF"/>
<path opacity="0.3" d="M271.101 424.998C271.099 426.005 271.395 426.989 271.953 427.827C272.511 428.665 273.304 429.319 274.234 429.705C275.163 430.092 276.186 430.194 277.173 429.999C278.161 429.804 279.068 429.32 279.781 428.609C280.493 427.898 280.978 426.992 281.176 426.005C281.373 425.018 281.273 423.995 280.888 423.064C280.503 422.134 279.851 421.339 279.014 420.78C278.178 420.221 277.194 419.922 276.187 419.922C275.521 419.919 274.861 420.048 274.245 420.301C273.628 420.553 273.068 420.925 272.595 421.395C272.123 421.864 271.748 422.422 271.491 423.037C271.235 423.652 271.102 424.311 271.101 424.978V424.998Z" fill="black"/>
<path d="M248.163 424.998C248.161 426.005 248.458 426.989 249.016 427.827C249.573 428.665 250.367 429.319 251.296 429.705C252.226 430.092 253.249 430.194 254.236 429.999C255.224 429.804 256.131 429.32 256.843 428.609C257.556 427.898 258.041 426.992 258.238 426.005C258.435 425.018 258.335 423.995 257.951 423.064C257.566 422.134 256.914 421.339 256.077 420.78C255.24 420.221 254.257 419.922 253.25 419.922C252.584 419.919 251.924 420.048 251.307 420.301C250.691 420.553 250.131 420.925 249.658 421.395C249.186 421.864 248.81 422.422 248.554 423.037C248.297 423.652 248.165 424.311 248.163 424.978V424.998Z" fill="#407BFF"/>
<path opacity="0.3" d="M248.163 424.998C248.161 426.005 248.458 426.989 249.016 427.827C249.573 428.665 250.367 429.319 251.296 429.705C252.226 430.092 253.249 430.194 254.236 429.999C255.224 429.804 256.131 429.32 256.843 428.609C257.556 427.898 258.041 426.992 258.238 426.005C258.435 425.018 258.335 423.995 257.951 423.064C257.566 422.134 256.914 421.339 256.077 420.78C255.24 420.221 254.257 419.922 253.25 419.922C252.584 419.919 251.924 420.048 251.307 420.301C250.691 420.553 250.131 420.925 249.658 421.395C249.186 421.864 248.81 422.422 248.554 423.037C248.297 423.652 248.165 424.311 248.163 424.978V424.998Z" fill="black"/>
<path d="M272.996 426.045C272.994 427.051 273.291 428.036 273.849 428.874C274.406 429.711 275.2 430.365 276.129 430.752C277.059 431.138 278.082 431.24 279.069 431.045C280.057 430.85 280.964 430.367 281.676 429.656C282.389 428.945 282.874 428.038 283.071 427.051C283.268 426.064 283.168 425.041 282.784 424.111C282.399 423.181 281.747 422.386 280.91 421.826C280.073 421.267 279.09 420.968 278.083 420.968C277.416 420.967 276.754 421.097 276.137 421.352C275.52 421.606 274.959 421.98 274.487 422.451C274.014 422.923 273.64 423.483 273.384 424.1C273.128 424.716 272.996 425.377 272.996 426.045Z" fill="#407BFF"/>
<path d="M250.059 426.045C250.057 427.051 250.354 428.036 250.912 428.874C251.469 429.711 252.263 430.365 253.192 430.752C254.122 431.138 255.145 431.24 256.132 431.045C257.12 430.85 258.027 430.367 258.739 429.656C259.452 428.945 259.937 428.038 260.134 427.051C260.331 426.064 260.231 425.041 259.847 424.111C259.462 423.181 258.81 422.386 257.973 421.826C257.136 421.267 256.153 420.968 255.146 420.968C254.479 420.967 253.817 421.097 253.2 421.352C252.583 421.606 252.022 421.98 251.55 422.451C251.077 422.923 250.703 423.483 250.447 424.1C250.191 424.716 250.059 425.377 250.059 426.045Z" fill="#407BFF"/>
<path d="M284.195 417.032C280.414 412.566 269.619 412.183 266.521 409.562C266.728 407.293 267.651 396.923 266.977 395.825C266.304 394.726 248.122 395.4 249.137 399.016C249.806 402.165 250.119 405.379 250.07 408.599C249.963 408.937 249.883 409.283 249.831 409.635L247.407 420.399C247.312 420.867 247.408 421.354 247.672 421.752C247.936 422.15 248.348 422.427 248.816 422.522C248.937 422.533 249.058 422.533 249.179 422.522H280.518C285.48 422.512 285.573 418.658 284.195 417.032Z" fill="#263238"/>
<path d="M255.146 427.837C256.136 427.837 256.938 427.035 256.938 426.045C256.938 425.055 256.136 424.252 255.146 424.252C254.156 424.252 253.354 425.055 253.354 426.045C253.354 427.035 254.156 427.837 255.146 427.837Z" fill="#263238"/>
<path d="M278.083 427.837C279.073 427.837 279.875 427.035 279.875 426.045C279.875 425.055 279.073 424.252 278.083 424.252C277.093 424.252 276.291 425.055 276.291 426.045C276.291 427.035 277.093 427.837 278.083 427.837Z" fill="#263238"/>
<path d="M261.248 409.852C262.933 409.389 264.684 409.207 266.428 409.313C266.925 409.313 266.925 408.567 266.428 408.536C264.614 408.431 262.795 408.62 261.041 409.096C260.949 409.13 260.873 409.198 260.828 409.285C260.784 409.373 260.773 409.474 260.799 409.568C260.825 409.663 260.886 409.745 260.969 409.797C261.052 409.85 261.151 409.869 261.248 409.852Z" fill="white"/>
<path d="M261.248 403.595C262.948 402.88 264.855 402.839 266.584 403.481C267.05 403.657 267.257 402.911 266.791 402.735C264.929 402.041 262.874 402.082 261.041 402.849C260.943 402.878 260.86 402.944 260.81 403.032C260.76 403.121 260.746 403.226 260.772 403.325C260.785 403.374 260.808 403.421 260.839 403.461C260.87 403.501 260.909 403.535 260.953 403.56C260.998 403.585 261.047 403.601 261.097 403.607C261.148 403.613 261.199 403.609 261.248 403.595Z" fill="white"/>
<path d="M267.05 414.1C267.851 413.088 269.006 412.418 270.282 412.224C270.331 412.211 270.377 412.188 270.418 412.157C270.458 412.126 270.492 412.087 270.517 412.043C270.542 411.998 270.558 411.949 270.564 411.899C270.57 411.848 270.566 411.797 270.551 411.748C270.523 411.65 270.457 411.567 270.368 411.517C270.279 411.467 270.174 411.453 270.075 411.478C268.665 411.695 267.389 412.435 266.501 413.55C266.434 413.626 266.397 413.724 266.397 413.825C266.397 413.926 266.434 414.024 266.501 414.1C266.574 414.171 266.673 414.211 266.775 414.211C266.878 414.211 266.976 414.171 267.05 414.1Z" fill="white"/>
<path d="M184.408 313.722C183.407 313.818 182.457 314.21 181.678 314.846C180.899 315.483 180.327 316.336 180.033 317.298C179.739 318.26 179.736 319.287 180.026 320.251C180.316 321.214 180.885 322.069 181.661 322.709C182.437 323.349 183.385 323.745 184.386 323.846C185.387 323.947 186.395 323.749 187.283 323.277C188.172 322.805 188.9 322.081 189.377 321.195C189.853 320.309 190.057 319.302 189.961 318.301C189.832 316.961 189.178 315.726 188.141 314.868C187.104 314.01 185.769 313.598 184.429 313.722H184.408Z" fill="#407BFF"/>
<path opacity="0.3" d="M184.408 313.722C183.407 313.818 182.457 314.21 181.678 314.846C180.899 315.483 180.327 316.336 180.033 317.298C179.739 318.26 179.736 319.287 180.026 320.251C180.316 321.214 180.885 322.069 181.661 322.709C182.437 323.349 183.385 323.745 184.386 323.846C185.387 323.947 186.395 323.749 187.283 323.277C188.172 322.805 188.9 322.081 189.377 321.195C189.853 320.309 190.057 319.302 189.961 318.301C189.832 316.961 189.178 315.726 188.141 314.868C187.104 314.01 185.769 313.598 184.429 313.722H184.408Z" fill="black"/>
<path d="M182.191 290.899C181.189 290.996 180.239 291.387 179.46 292.024C178.681 292.662 178.109 293.515 177.816 294.478C177.522 295.44 177.521 296.468 177.812 297.432C178.102 298.395 178.672 299.25 179.449 299.89C180.226 300.529 181.176 300.924 182.177 301.023C183.178 301.123 184.187 300.924 185.074 300.45C185.962 299.977 186.69 299.251 187.165 298.364C187.64 297.477 187.842 296.469 187.744 295.467C187.615 294.129 186.962 292.897 185.928 292.039C184.893 291.181 183.561 290.767 182.222 290.888L182.191 290.899Z" fill="#407BFF"/>
<path opacity="0.3" d="M182.191 290.899C181.189 290.996 180.239 291.387 179.46 292.024C178.681 292.662 178.109 293.515 177.816 294.478C177.522 295.44 177.521 296.468 177.812 297.432C178.102 298.395 178.672 299.25 179.449 299.89C180.226 300.529 181.176 300.924 182.177 301.023C183.178 301.123 184.187 300.924 185.074 300.45C185.962 299.977 186.69 299.251 187.165 298.364C187.64 297.477 187.842 296.469 187.744 295.467C187.615 294.129 186.962 292.897 185.928 292.039C184.893 291.181 183.561 290.767 182.222 290.888L182.191 290.899Z" fill="black"/>
<path d="M183.517 315.721C182.515 315.818 181.565 316.21 180.786 316.847C180.008 317.484 179.435 318.338 179.142 319.3C178.848 320.263 178.847 321.291 179.138 322.254C179.428 323.217 179.998 324.073 180.775 324.712C181.552 325.351 182.502 325.746 183.503 325.846C184.504 325.946 185.513 325.746 186.4 325.273C187.288 324.799 188.016 324.073 188.491 323.186C188.966 322.299 189.168 321.291 189.07 320.29C188.939 318.948 188.28 317.713 187.239 316.856C186.198 315.999 184.859 315.591 183.517 315.721Z" fill="#407BFF"/>
<path d="M181.3 292.888C180.299 292.984 179.349 293.376 178.57 294.012C177.791 294.649 177.219 295.502 176.925 296.464C176.631 297.426 176.628 298.453 176.918 299.417C177.208 300.38 177.777 301.235 178.553 301.875C179.329 302.515 180.277 302.911 181.278 303.012C182.279 303.113 183.287 302.915 184.175 302.443C185.064 301.971 185.792 301.247 186.269 300.361C186.745 299.475 186.949 298.468 186.853 297.467C186.789 296.801 186.595 296.155 186.282 295.565C185.968 294.974 185.541 294.452 185.026 294.026C184.51 293.601 183.915 293.282 183.276 293.086C182.637 292.891 181.965 292.823 181.3 292.888Z" fill="#407BFF"/>
<path d="M193.566 325.998C197.648 321.854 196.995 311.028 199.316 307.692C201.595 307.692 211.997 307.619 213.022 306.842C214.048 306.065 211.655 288.029 208.153 289.386C205.086 290.362 201.915 290.977 198.705 291.22C198.394 291.147 197.866 291.106 197.669 291.085L186.729 289.697C186.493 289.671 186.255 289.692 186.027 289.759C185.8 289.826 185.588 289.937 185.404 290.087C185.22 290.236 185.068 290.42 184.955 290.629C184.843 290.838 184.773 291.067 184.75 291.302C184.729 291.422 184.729 291.545 184.75 291.665L185.993 304.667L187.734 322.859C188.22 327.842 192.074 327.531 193.566 325.998Z" fill="#263238"/>
<path d="M181.818 299.735C182.808 299.735 183.61 298.933 183.61 297.943C183.61 296.953 182.808 296.151 181.818 296.151C180.828 296.151 180.026 296.953 180.026 297.943C180.026 298.933 180.828 299.735 181.818 299.735Z" fill="#263238"/>
<path d="M184.004 322.569C184.994 322.569 185.796 321.767 185.796 320.777C185.796 319.787 184.994 318.984 184.004 318.984C183.014 318.984 182.212 319.787 182.212 320.777C182.212 321.767 183.014 322.569 184.004 322.569Z" fill="#263238"/>
<path d="M198.518 302.439C199.135 304.072 199.485 305.793 199.554 307.537C199.554 308.034 200.352 308.044 200.331 307.537C200.273 305.724 199.923 303.933 199.295 302.232C199.119 301.766 198.373 301.973 198.549 302.439H198.518Z" fill="white"/>
<path d="M204.776 301.942C205.628 303.529 205.843 305.382 205.377 307.122C205.349 307.221 205.362 307.327 205.413 307.416C205.463 307.506 205.547 307.571 205.646 307.599C205.745 307.626 205.851 307.613 205.94 307.563C206.03 307.512 206.095 307.428 206.123 307.329C206.647 305.38 206.406 303.305 205.449 301.528C205.211 301.082 204.538 301.476 204.776 301.911V301.942Z" fill="white"/>
<path d="M194.892 308.697C195.933 309.387 196.674 310.446 196.964 311.66C196.999 311.752 197.066 311.828 197.154 311.873C197.241 311.917 197.342 311.928 197.437 311.902C197.532 311.876 197.614 311.815 197.666 311.732C197.718 311.649 197.738 311.549 197.721 311.453C197.361 310.037 196.476 308.811 195.245 308.024C195.201 307.997 195.153 307.98 195.103 307.973C195.053 307.965 195.001 307.968 194.952 307.981C194.903 307.993 194.857 308.015 194.816 308.046C194.776 308.076 194.742 308.115 194.716 308.158C194.666 308.248 194.651 308.354 194.676 308.454C194.701 308.555 194.764 308.641 194.851 308.697H194.892Z" fill="white"/>
<path d="M266.656 200.414C268.191 208.088 270.625 215.554 273.908 222.657C274.115 223.103 274.789 222.657 274.571 222.263C271.298 215.221 268.863 207.818 267.319 200.207C267.226 199.71 266.48 199.917 266.573 200.414H266.656Z" fill="#263238"/>
<g opacity="0.3">
<path d="M250.463 306.646L252.836 295.726C253.271 288.681 251.302 285.874 249.8 279.026L247.107 280.29C247.107 280.29 250.629 290.65 250.38 293.053C250.132 295.457 247.666 306.801 247.666 306.801L250.463 306.646Z" fill="black"/>
</g>
<path d="M346.728 123.284C346.728 123.284 347.112 123.792 346.283 124.32C345.454 124.848 342.056 123.999 339.093 125.511C337.459 126.329 335.896 127.282 334.421 128.36L327.096 127.977C325.789 127.411 324.56 126.68 323.439 125.801C322.403 124.765 322.621 124.569 322.175 124.506C321.73 124.444 320.476 124.569 320.103 124.123C319.73 123.678 319.409 123.243 319.409 123.243L346.728 123.284Z" fill="#FDBBB5"/>
<path d="M354.571 88.2154L357.72 74.3641L364.392 69.1219" stroke="#407BFF" stroke-width="2" stroke-miterlimit="10"/>
<path d="M319.14 111.142C318.974 110.521 314.944 99.1556 314.944 99.1556L317.109 98.2646L320.891 109.661L319.14 111.142Z" fill="#FF8431"/>
<path d="M317.658 105.33C317.658 104.688 316.394 96.1305 316.394 96.1305L318.705 95.7057L320.051 104.822L317.658 105.33Z" fill="#FDAD6D"/>
<path d="M323.16 104.139C323.16 103.486 321.885 94.939 321.885 94.939L324.196 94.5143L325.542 103.631L323.16 104.139Z" fill="#FF8431"/>
<path d="M328.599 104.709C328.599 104.056 326.962 92.1108 326.962 92.1108L329.272 91.686L330.619 103.641L328.599 104.709Z" fill="#FF8431"/>
<path d="M331.52 109.37C331.644 108.728 332.763 96.7209 332.763 96.7209L335.115 96.8349L333.737 108.78L331.52 109.37Z" fill="#FF8431"/>
<path d="M327.086 104.481C327.086 103.828 326.454 93.9134 326.454 93.9134L328.754 93.4886L329.469 103.973L327.086 104.481Z" fill="#FDAD6D"/>
<path d="M324.113 106.055C324.113 105.413 323.646 96.7831 323.646 96.7831L325.988 96.5552L326.537 105.755L324.113 106.055Z" fill="#FDAD6D"/>
<path d="M320.777 104.708C320.777 104.056 319.43 93.4368 319.43 93.4368L322.165 92.5769L323.201 103.973L320.777 104.708Z" fill="#FDAD6D"/>
<path d="M330.225 104.708C330.225 104.18 330.028 95.4466 330.028 95.4466L332.318 94.9597V104.284L330.225 104.708Z" fill="#FDAD6D"/>
<path d="M318.176 121.844L315.742 104.294L335.56 102.574L334.918 121.253L318.176 121.844Z" fill="#407BFF"/>
<path opacity="0.3" d="M318.176 121.844L315.742 104.294L335.56 102.574L334.918 121.253L318.176 121.844Z" fill="black"/>
<path d="M334.151 116.954H312.986C312.778 116.954 312.573 116.913 312.381 116.833C312.189 116.753 312.015 116.637 311.869 116.489C311.722 116.342 311.607 116.167 311.528 115.975C311.45 115.783 311.41 115.577 311.411 115.369C311.411 114.95 311.577 114.549 311.872 114.252C312.167 113.955 312.567 113.787 312.986 113.784H334.151C334.572 113.784 334.975 113.951 335.272 114.248C335.569 114.545 335.736 114.949 335.736 115.369C335.738 115.578 335.698 115.784 335.619 115.977C335.539 116.17 335.423 116.345 335.275 116.493C335.128 116.64 334.953 116.757 334.76 116.836C334.567 116.915 334.36 116.955 334.151 116.954Z" fill="#A24E3F"/>
<path d="M312.768 112.282C312.768 112.282 308.386 114.571 310.106 115.39C311.826 116.208 314.602 113.794 316.425 114.447C318.249 115.1 318.622 116.581 320.683 116.343C322.745 116.104 324.175 113.908 325.863 114.323C327.552 114.737 328.174 116.747 330.66 116.395C333.146 116.042 331.696 113.825 333.53 114.126C335.364 114.426 337.166 116.022 337.456 115.017C337.746 114.012 333.53 112.313 333.53 112.313L312.768 112.282Z" fill="#407BFF"/>
<path d="M312.302 112.541C312.251 112.872 334.214 112.541 334.214 112.541C334.214 112.541 333.654 106.967 322.424 107.361C315.255 107.578 312.706 109.992 312.302 112.541Z" fill="#FF8431"/>
<path d="M334.183 117.783C334.234 117.534 312.271 117.783 312.271 117.783C312.271 117.783 312.831 121.927 324.061 121.626C331.24 121.45 333.789 119.668 334.183 117.783Z" fill="#FF8431"/>
<path d="M334.388 117.051L312.125 116.899L312.119 117.718L334.382 117.869L334.388 117.051Z" fill="#FDAD6D"/>
<path d="M363.75 119.762H305.102V123.294H363.75V119.762Z" fill="#263238"/>
<path d="M345.278 79.6683H343.289V95.084H345.278V79.6683Z" fill="#407BFF"/>
<path d="M350.344 119.762H338.855L335.291 96.8971H353.121L350.344 119.762Z" fill="#407BFF"/>
<path opacity="0.3" d="M335.861 100.502L351.598 109.402L351.049 114.001L336.824 106.729L335.861 100.502Z" fill="white"/>
<path d="M353.639 95.944H334.928V96.8971H353.639V95.944Z" fill="#407BFF"/>
<path d="M335.529 95.944L336.648 94.2139H351.763C352.295 94.7487 352.78 95.3275 353.214 95.944H335.529Z" fill="#407BFF"/>
<path opacity="0.3" d="M353.639 95.944H334.928V96.8971H353.639V95.944Z" fill="white"/>
<path opacity="0.3" d="M335.529 95.944L336.648 94.2139H351.763C352.295 94.7487 352.78 95.3275 353.214 95.944H335.529Z" fill="white"/>
<path d="M340.347 94.2139L341.238 92.9396H347.215L348.345 94.2139H340.347Z" fill="#407BFF"/>
<path opacity="0.3" d="M340.347 94.2139L341.238 92.9396H347.215L348.345 94.2139H340.347Z" fill="white"/>
<path d="M357.057 113.732C358.466 109.319 362.683 95.8922 359.316 90.2667H346.718C346.625 90.7329 343.061 98.1507 348.977 113.732C348.926 114.325 348.926 114.921 348.977 115.514C349.07 116.177 346.801 117.016 346.718 119.658H359.316C359.233 117.027 356.964 116.187 357.057 115.514C357.108 114.921 357.108 114.325 357.057 113.732Z" fill="#407BFF"/>
<path opacity="0.5" d="M357.057 113.732C358.466 109.319 362.683 95.8922 359.316 90.2667H346.718C346.625 90.7329 343.061 98.1507 348.977 113.732C348.926 114.325 348.926 114.921 348.977 115.514C349.07 116.177 346.801 117.016 346.718 119.658H359.316C359.233 117.027 356.964 116.187 357.057 115.514C357.108 114.921 357.108 114.325 357.057 113.732Z" fill="white"/>
<path d="M361.916 88.7956C361.83 88.3016 361.554 87.8608 361.148 87.5668C360.742 87.2727 360.237 87.1487 359.741 87.2209C360.082 86.7354 360.223 86.1366 360.133 85.5498C360.044 84.963 359.731 84.4336 359.26 84.0723C358.789 83.711 358.196 83.5458 357.606 83.6113C357.016 83.6768 356.474 83.9679 356.094 84.4237C355.902 83.6678 355.513 82.9762 354.967 82.4193C354.422 81.8625 353.738 81.4602 352.986 81.2535C352.24 81.0465 351.452 81.0428 350.704 81.2427C349.956 81.4427 349.275 81.839 348.732 82.3906C348.189 82.9423 347.803 83.6292 347.615 84.3801C347.426 85.1311 347.442 85.9187 347.661 86.6614L346.791 86.8997C346.407 86.9101 346.032 87.0121 345.696 87.197C345.361 87.382 345.074 87.6446 344.86 87.963C344.647 88.2813 344.512 88.6461 344.468 89.027C344.424 89.4078 344.472 89.7937 344.608 90.1523C344.743 90.5109 344.963 90.8319 345.248 91.0884C345.532 91.345 345.875 91.5296 346.245 91.627C346.616 91.7244 347.005 91.7317 347.379 91.6482C347.753 91.5648 348.102 91.393 348.396 91.1473C348.422 91.7839 348.657 92.3942 349.065 92.884C349.472 93.3738 350.03 93.7158 350.651 93.8572C351.272 93.9987 351.922 93.9317 352.502 93.6666C353.081 93.4015 353.557 92.9531 353.856 92.3905C354.155 92.6321 354.508 92.7994 354.884 92.8786C355.26 92.9579 355.65 92.9468 356.021 92.8463C356.392 92.7363 356.73 92.5385 357.008 92.2698C357.286 92.001 357.495 91.6693 357.617 91.3027C358.073 91.5128 358.57 91.6216 359.072 91.6216C359.575 91.6216 360.071 91.5128 360.528 91.3027C360.992 91.0815 361.375 90.721 361.624 90.2715C361.873 89.8221 361.975 89.306 361.916 88.7956Z" fill="#407BFF"/>
<g opacity="0.8">
<path d="M361.916 88.7956C361.83 88.3016 361.554 87.8608 361.148 87.5668C360.742 87.2727 360.237 87.1487 359.741 87.2209C360.082 86.7354 360.223 86.1366 360.133 85.5498C360.044 84.963 359.731 84.4336 359.26 84.0723C358.789 83.711 358.196 83.5458 357.606 83.6113C357.016 83.6768 356.474 83.9679 356.094 84.4237C355.902 83.6678 355.513 82.9762 354.967 82.4193C354.422 81.8625 353.738 81.4602 352.986 81.2535C352.24 81.0465 351.452 81.0428 350.704 81.2427C349.956 81.4427 349.275 81.839 348.732 82.3906C348.189 82.9423 347.803 83.6292 347.615 84.3801C347.426 85.1311 347.442 85.9187 347.661 86.6614L346.791 86.8997C346.407 86.9101 346.032 87.0121 345.696 87.197C345.361 87.382 345.074 87.6446 344.86 87.963C344.647 88.2813 344.512 88.6461 344.468 89.027C344.424 89.4078 344.472 89.7937 344.608 90.1523C344.743 90.5109 344.963 90.8319 345.248 91.0884C345.532 91.345 345.875 91.5296 346.245 91.627C346.616 91.7244 347.005 91.7317 347.379 91.6482C347.753 91.5648 348.102 91.393 348.396 91.1473C348.422 91.7839 348.657 92.3942 349.065 92.884C349.472 93.3738 350.03 93.7158 350.651 93.8572C351.272 93.9987 351.922 93.9317 352.502 93.6666C353.081 93.4015 353.557 92.9531 353.856 92.3905C354.155 92.6321 354.508 92.7994 354.884 92.8786C355.26 92.9579 355.65 92.9468 356.021 92.8463C356.392 92.7363 356.73 92.5385 357.008 92.2698C357.286 92.001 357.495 91.6693 357.617 91.3027C358.073 91.5128 358.57 91.6216 359.072 91.6216C359.575 91.6216 360.071 91.5128 360.528 91.3027C360.992 91.0815 361.375 90.721 361.624 90.2715C361.873 89.8221 361.975 89.306 361.916 88.7956Z" fill="white"/>
</g>
<path d="M351.318 84.9105C353.115 84.9105 354.571 83.4541 354.571 81.6575C354.571 79.8609 353.115 78.4044 351.318 78.4044C349.521 78.4044 348.065 79.8609 348.065 81.6575C348.065 83.4541 349.521 84.9105 351.318 84.9105Z" fill="#D7504D"/>
<path d="M351.1 79.658C350.981 79.0064 350.719 78.3895 350.332 77.8519C349.945 77.3143 349.443 76.8696 348.863 76.55C348.775 76.4978 348.67 76.4827 348.571 76.5079C348.472 76.5332 348.387 76.5968 348.334 76.6847C348.282 76.7726 348.267 76.8777 348.292 76.9768C348.317 77.0758 348.381 77.1608 348.469 77.213C348.713 77.3428 348.939 77.5029 349.142 77.6896C349.348 77.875 349.535 78.0797 349.702 78.3008C350.036 78.7655 350.26 79.3007 350.355 79.8652C350.368 79.9145 350.391 79.9606 350.422 80.0009C350.453 80.0412 350.492 80.0749 350.536 80.1C350.581 80.125 350.63 80.141 350.68 80.147C350.731 80.1529 350.782 80.1487 350.831 80.1346C350.928 80.1034 351.009 80.0371 351.059 79.9489C351.109 79.8606 351.124 79.7568 351.1 79.658Z" fill="#263238"/>
<path d="M246.889 161.108C245.853 149.391 241.316 131.23 234.146 108.676C231.815 101.352 239.326 94.2863 239.326 94.2863C239.326 94.2863 245.542 92.8152 246.578 92.7116C247.614 92.608 256.058 91.572 257.166 91.4788L275.006 117.534L272.934 91.6342C274.809 91.7481 276.239 91.8724 278.114 92.0278C278.726 92.09 282.683 92.1522 283.294 92.2143C283.294 92.2143 290.981 100.357 293.499 109.909C294.763 114.706 295.799 116.726 295.571 128.557C295.571 136.597 292.038 150.417 291.51 161.709L246.889 161.108Z" fill="#6675C5"/>
<g opacity="0.3">
<path d="M274.426 138.938C270.171 136.879 265.393 136.157 260.72 136.866C263.722 138.364 267.041 139.118 270.396 139.062C267.681 139.954 265.024 141.012 262.439 142.232C262.118 142.388 261.735 142.626 261.735 142.989C261.751 143.133 261.812 143.269 261.911 143.375C262.01 143.482 262.141 143.553 262.284 143.579C262.572 143.619 262.865 143.598 263.144 143.517C267.088 142.599 270.963 141.401 274.737 139.933L274.426 138.938Z" fill="black"/>
</g>
<path d="M240.528 94.9287C239.875 95.3638 235.348 94.0274 229.743 100.989C224.698 107.205 201.098 130.432 201.885 139.124C202.59 146.894 234.105 171.852 234.105 171.852L239.979 164.6L220.254 139.29L239.181 121.16L240.528 94.9287Z" fill="#FDBBB5"/>
<path d="M230.686 129.303L215.654 114.644C215.654 114.644 226.366 103.849 228.231 101.269C230.096 98.6893 237.638 91.6342 244.61 93.644L242.362 119.865L230.686 129.303Z" fill="#6675C5"/>
<path opacity="0.3" d="M238.498 122.994L237.337 117.907L231.453 128.568L238.498 122.994Z" fill="black"/>
<path d="M291.323 117.545H277.109V120.404H291.323V117.545Z" stroke="#407BFF" stroke-width="0.5" stroke-miterlimit="10"/>
<path d="M263.952 117.545H249.738V120.404H263.952V117.545Z" stroke="#407BFF" stroke-width="0.5" stroke-miterlimit="10"/>
<path d="M257.094 91.4788L255.25 91.686C255.25 91.686 251.178 102.647 254.214 103.807C257.249 104.967 262.419 103.465 262.419 103.465C262.419 103.465 258.99 106.946 261.144 108.956C263.299 110.966 275.006 117.534 275.006 117.534L257.094 91.4788Z" fill="#263238"/>
<path d="M275.006 117.534C275.006 117.534 280.518 106.19 280.29 104.657C280.062 103.123 276.664 101.124 276.664 101.124C276.664 101.124 279.233 99.3523 279.347 97.4254C279.461 95.4984 274.281 91.6238 274.281 91.6238C274.281 91.6238 274.851 91.7067 272.976 91.6238L275.006 117.534Z" fill="#263238"/>
<path d="M283.336 92.2144C283.336 92.2144 289.303 91.831 294.97 98.4304C299.767 104.045 305.972 120.373 305.703 121.616C305.434 122.859 294.939 129.282 294.939 129.282L283.336 92.2144Z" fill="#6675C5"/>
<g opacity="0.3">
<path d="M296.866 117.534C296.842 121.276 296.496 125.009 295.83 128.692L299.86 126.257L296.866 117.534Z" fill="black"/>
</g>
<path d="M275.255 124.828C275.987 124.828 276.581 124.035 276.581 123.056C276.581 122.078 275.987 121.285 275.255 121.285C274.522 121.285 273.929 122.078 273.929 123.056C273.929 124.035 274.522 124.828 275.255 124.828Z" fill="#263238"/>
<path d="M275.814 140.803C276.547 140.803 277.14 140.01 277.14 139.031C277.14 138.053 276.547 137.26 275.814 137.26C275.082 137.26 274.488 138.053 274.488 139.031C274.488 140.01 275.082 140.803 275.814 140.803Z" fill="#263238"/>
<path d="M271.215 138.151L275.949 139.363L275.773 138.71C275.08 139.455 274.259 140.069 273.349 140.523C272.903 140.741 273.297 141.414 273.742 141.196C274.711 140.71 275.585 140.054 276.322 139.259C276.37 139.212 276.405 139.153 276.422 139.088C276.44 139.024 276.441 138.955 276.424 138.89C276.407 138.825 276.374 138.766 276.327 138.718C276.28 138.67 276.221 138.635 276.156 138.617L271.432 137.405C271.333 137.377 271.227 137.39 271.138 137.441C271.049 137.491 270.983 137.575 270.956 137.674C270.928 137.773 270.941 137.879 270.992 137.968C271.042 138.057 271.126 138.123 271.225 138.151H271.215Z" fill="#263238"/>
<path d="M241.73 93.872C242.844 94.1402 243.893 94.6262 244.818 95.3019C245.743 95.9777 246.525 96.8298 247.119 97.8092C247.714 98.7886 248.108 99.8759 248.28 101.008C248.452 102.141 248.398 103.296 248.122 104.408C247.998 104.895 248.754 105.102 248.868 104.615C249.19 103.405 249.265 102.143 249.089 100.903C248.913 99.663 248.489 98.4714 247.842 97.3991C247.195 96.3268 246.339 95.3959 245.324 94.6617C244.31 93.9276 243.158 93.4053 241.937 93.1261C241.45 93.0121 241.243 93.758 241.73 93.872Z" fill="#263238"/>
<path d="M277.41 121.088L275.4 123.025C275.348 123.081 275.313 123.15 275.299 123.225C275.286 123.3 275.295 123.377 275.324 123.447C275.354 123.518 275.403 123.578 275.466 123.62C275.529 123.663 275.603 123.687 275.68 123.688C276.601 123.667 277.519 123.803 278.394 124.092C278.443 124.106 278.494 124.11 278.545 124.104C278.595 124.099 278.644 124.083 278.689 124.057C278.733 124.032 278.772 123.999 278.803 123.958C278.834 123.918 278.857 123.872 278.87 123.823C278.896 123.724 278.882 123.619 278.832 123.53C278.782 123.441 278.699 123.375 278.601 123.346C277.659 123.036 276.671 122.889 275.68 122.911L275.949 123.574L277.959 121.678C278.028 121.603 278.066 121.505 278.066 121.404C278.066 121.302 278.028 121.204 277.959 121.129C277.885 121.058 277.787 121.018 277.684 121.018C277.582 121.018 277.483 121.058 277.41 121.129V121.088Z" fill="#263238"/>
<path opacity="0.3" d="M220.254 139.29C219.236 138.682 218.072 138.362 216.887 138.362C215.701 138.362 214.538 138.682 213.52 139.29L222.025 141.559L220.254 139.29Z" fill="black"/>
<path d="M296.296 127.894C297.159 121.939 297.557 115.926 297.487 109.909C297.472 109.817 297.425 109.733 297.354 109.673C297.283 109.612 297.192 109.579 297.099 109.579C297.006 109.579 296.915 109.612 296.844 109.673C296.773 109.733 296.726 109.817 296.71 109.909C296.785 115.856 296.397 121.8 295.55 127.687C295.478 128.174 296.224 128.381 296.296 127.894Z" fill="#263238"/>
<path d="M246.433 162.797V158.011L291.914 156.581V160.601L246.433 162.797Z" fill="#407BFF"/>
<path opacity="0.5" d="M246.433 162.797V158.011L291.914 156.581V160.601L246.433 162.797Z" fill="white"/>
<path opacity="0.3" d="M251.893 165.708C251.893 165.708 250.07 184.864 251.893 193.836C253.717 202.807 255.965 204.144 264.657 204.714C273.349 205.283 297.933 202.466 301.6 200.518L305.257 198.56L300.834 192.499L255.043 165.708H251.893Z" fill="black"/>
<path d="M253.302 161.699C253.302 162.279 251.23 192.572 256.161 199.813C261.093 207.055 306.356 199.741 303.983 196.519C300.823 192.24 291.914 160.601 291.914 160.601L253.302 161.699Z" fill="#407BFF"/>
<path opacity="0.5" d="M253.302 161.699C253.302 162.279 251.23 192.572 256.161 199.813C261.093 207.055 306.356 199.741 303.983 196.519C300.823 192.24 291.914 160.601 291.914 160.601L253.302 161.699Z" fill="white"/>
<path opacity="0.2" d="M278.425 198.27C276.021 198.446 273.608 198.539 271.277 198.539C261.953 198.539 260.347 196.85 260.326 196.84C258.057 193.494 256.855 179.673 257.632 162.787L290.712 161.751C292.452 167.822 296.047 181.642 299.104 190.303C299.304 190.873 299.381 191.479 299.33 192.08C299.279 192.682 299.1 193.267 298.806 193.794C298.513 194.322 298.11 194.782 297.626 195.142C297.141 195.503 296.585 195.757 295.996 195.887C290.202 197.08 284.336 197.883 278.435 198.29" fill="#407BFF"/>
<path opacity="0.3" d="M239.461 173.716C239.461 173.716 243.439 174.918 245.863 172.898C246.776 172.05 247.78 171.306 248.857 170.681C248.857 170.681 251.965 171.655 253.665 169.987C255.364 168.319 256.037 169.21 256.586 168.029C256.994 167.066 257.314 166.067 257.539 165.045C257.539 165.045 247.594 162.59 247.386 162.662C247.179 162.735 240.766 170.95 240.766 170.95L239.461 173.716Z" fill="black"/>
<path d="M238.549 165.667C238.549 165.667 243.253 159.047 245.263 158.612C247.273 158.176 256.41 159.306 256.586 160.621C256.762 161.937 255.364 162.093 255.364 162.093L257.633 164.714C257.633 164.714 257.633 165.491 256.597 165.667C256.597 165.667 256.503 167.583 255.457 167.677C254.411 167.77 250.277 166.371 250.277 166.371L253.675 168.723C253.675 168.723 254.203 169.593 251.603 169.324C250.94 169.318 250.286 169.176 249.68 168.907C249.074 168.638 248.53 168.247 248.081 167.759C248.081 167.759 242.02 172.939 239.067 172.939C237.354 172.963 235.656 172.609 234.095 171.903L238.549 165.667Z" fill="#FDBBB5"/>
<g opacity="0.3">
<path d="M290.349 175.405C283.902 182.716 275.764 188.339 266.646 191.784C266.646 191.784 278.208 191.65 284.04 184.812C289.873 177.974 290.349 175.405 290.349 175.405Z" fill="black"/>
</g>
</g>
<defs>
<clipPath id="clip0_550_4036">
<rect width="518" height="440.559" fill="white"/>
</clipPath>
</defs>
</svg>
