<svg width="751" height="479" viewBox="0 0 751 479" fill="none" xmlns="http://www.w3.org/2000/svg">
<g clip-path="url(#clip0_203_3379)">
<path d="M292.699 4.27158C255.643 7.76429 219.914 15.0661 188.225 26.676C150.877 40.3061 112.774 61.5544 123.982 89.3379C144.792 140.633 244.618 141.57 224.684 176.059C202.11 215.124 217.249 260.943 318.559 273.685C510.995 297.89 743.601 156.235 678.263 78.446C637.593 29.9984 489.455 -14.1412 292.699 4.27158Z" fill="#407BFF"/>
<path opacity="0.9" d="M292.699 4.27158C255.643 7.76429 219.914 15.0661 188.225 26.676C150.877 40.3061 112.774 61.5544 123.982 89.3379C144.792 140.633 244.618 141.57 224.684 176.059C202.11 215.124 217.249 260.943 318.559 273.685C510.995 297.89 743.601 156.235 678.263 78.446C637.593 29.9984 489.455 -14.1412 292.699 4.27158Z" fill="white"/>
<path d="M633.735 471.54C633.735 475.653 497.34 479 329.086 479C160.831 479 24.4484 475.653 24.4484 471.54C24.4484 467.427 160.843 464.129 329.086 464.129C497.328 464.129 633.735 467.414 633.735 471.54Z" fill="#F5F5F5"/>
<path d="M705.924 393.216C704.913 389.645 704.313 385.97 704.135 382.263C703.979 378.527 705.099 374.848 707.312 371.834C709.186 369.509 711.851 367.915 713.664 365.554C716.694 361.574 717.023 355.818 720.783 352.471C723.29 350.281 726.807 349.685 729.703 348.017C732.6 346.35 734.802 343.612 737.468 341.519C740.133 339.426 743.771 337.953 746.862 339.34C750.744 341.068 751.645 346.326 750.611 350.439C749.576 354.552 747.191 358.301 746.497 362.487C746.023 365.396 746.254 368.706 744.282 370.896C742.311 373.087 738.478 373.245 736.165 375.314C733.853 377.383 733.549 381.216 732.636 384.393C731.886 386.993 730.538 389.381 728.699 391.366C726.86 393.351 724.582 394.878 722.047 395.824C719.512 396.77 716.79 397.11 714.101 396.815C711.411 396.521 708.827 395.601 706.557 394.128" fill="#407BFF"/>
<path d="M707.117 341.008C703.554 339.973 700.12 338.536 696.882 336.724C693.625 334.885 691.095 331.986 689.715 328.509C688.729 325.698 688.802 322.583 687.743 319.796C685.979 315.123 681.232 311.776 680.441 306.835C679.894 303.549 681.257 300.251 681.379 296.917C681.5 293.582 680.344 290.248 679.979 286.877C679.614 283.506 680.295 279.648 683.094 277.749C686.624 275.316 691.552 277.397 694.509 280.463C697.467 283.53 699.377 287.51 702.553 290.321C704.768 292.268 707.701 293.813 708.504 296.649C709.307 299.485 707.421 302.819 707.957 305.874C708.516 309.135 711.607 311.228 713.786 313.674C715.598 315.686 716.915 318.094 717.629 320.706C718.343 323.318 718.435 326.06 717.898 328.714C717.361 331.368 716.209 333.859 714.536 335.988C712.862 338.116 710.713 339.823 708.261 340.971" fill="#407BFF"/>
<g opacity="0.2">
<path d="M707.117 341.008C703.554 339.973 700.12 338.536 696.882 336.724C693.625 334.885 691.095 331.986 689.715 328.509C688.729 325.698 688.802 322.583 687.743 319.796C685.979 315.123 681.232 311.776 680.441 306.835C679.894 303.549 681.257 300.251 681.379 296.917C681.5 293.582 680.344 290.248 679.979 286.877C679.614 283.506 680.295 279.648 683.094 277.749C686.624 275.316 691.552 277.397 694.509 280.463C697.467 283.53 699.377 287.51 702.553 290.321C704.768 292.268 707.701 293.813 708.504 296.649C709.307 299.485 707.421 302.819 707.957 305.874C708.516 309.135 711.607 311.228 713.786 313.674C715.598 315.686 716.915 318.094 717.629 320.706C718.343 323.318 718.435 326.06 717.898 328.714C717.361 331.368 716.209 333.859 714.536 335.988C712.862 338.116 710.713 339.823 708.261 340.971" fill="black"/>
</g>
<path d="M700.813 379.281C698.706 381.162 696.391 382.795 693.913 384.149C691.406 385.526 688.501 385.998 685.687 385.488C683.46 385.001 681.464 383.699 679.237 383.261C675.489 382.519 671.4 384.259 667.871 382.798C665.51 381.813 663.915 379.598 661.786 378.186C659.656 376.774 657.04 376.166 654.703 375.046C652.367 373.927 650.127 371.931 650.03 369.339C649.908 366.089 653.219 363.704 656.395 363.023C659.571 362.341 662.93 362.718 666.033 361.806C668.199 361.161 670.377 359.871 672.544 360.491C674.71 361.112 676.121 363.68 678.324 364.568C680.527 365.457 683.253 364.374 685.735 363.923C687.773 363.557 689.869 363.674 691.854 364.263C693.839 364.853 695.658 365.9 697.165 367.32C698.673 368.74 699.826 370.493 700.534 372.439C701.241 374.386 701.483 376.47 701.239 378.527" fill="#407BFF"/>
<g opacity="0.2">
<path d="M700.813 379.281C698.706 381.162 696.391 382.795 693.913 384.149C691.406 385.526 688.501 385.998 685.687 385.488C683.46 385.001 681.464 383.699 679.237 383.261C675.489 382.519 671.4 384.259 667.871 382.798C665.51 381.813 663.915 379.598 661.786 378.186C659.656 376.774 657.04 376.166 654.703 375.046C652.367 373.927 650.127 371.931 650.03 369.339C649.908 366.089 653.219 363.704 656.395 363.023C659.571 362.341 662.93 362.718 666.033 361.806C668.199 361.161 670.377 359.871 672.544 360.491C674.71 361.112 676.121 363.68 678.324 364.568C680.527 365.457 683.253 364.374 685.735 363.923C687.773 363.557 689.869 363.674 691.854 364.263C693.839 364.853 695.658 365.9 697.165 367.32C698.673 368.74 699.826 370.493 700.534 372.439C701.241 374.386 701.483 376.47 701.239 378.527" fill="black"/>
</g>
<path d="M700.022 367.258C696.305 367.992 692.516 368.298 688.729 368.17C684.907 368.033 681.247 366.59 678.361 364.081C676.158 361.988 674.71 359.14 672.495 357.096C668.698 353.676 662.759 352.873 659.766 348.772C657.733 346.046 657.429 342.407 655.969 339.328C654.508 336.249 651.892 333.767 649.981 330.882C648.071 327.998 646.878 324.165 648.533 321.147C650.614 317.338 656.042 316.851 660.155 318.25C664.268 319.65 667.87 322.376 672.081 323.422C675.002 324.153 678.397 324.177 680.454 326.367C682.51 328.558 682.364 332.452 684.287 335.008C686.21 337.564 690.08 338.16 693.244 339.34C695.833 340.316 698.157 341.884 700.03 343.92C701.904 345.956 703.274 348.403 704.031 351.064C704.788 353.725 704.911 356.526 704.391 359.243C703.87 361.96 702.72 364.518 701.032 366.71" fill="#407BFF"/>
<path d="M704.427 346.082C702.552 342.242 701.123 338.2 700.168 334.034C699.236 329.844 699.759 325.462 701.653 321.609C703.296 318.603 705.997 316.267 707.567 313.224C710.184 308.125 709.38 301.505 712.97 297.026C715.404 294.033 719.213 292.657 722.146 290.187C725.079 287.716 727.014 284.175 729.606 281.279C732.198 278.382 736.019 275.985 739.792 276.91C744.526 278.127 746.595 283.846 746.254 288.714C745.913 293.582 743.99 298.28 744.051 303.16C744.051 306.531 745.025 310.23 743.236 313.09C741.447 315.95 737.151 316.912 734.948 319.723C732.746 322.534 733.184 326.927 732.794 330.676C732.475 333.767 731.436 336.74 729.761 339.357C728.085 341.975 725.819 344.163 723.145 345.746C720.471 347.329 717.463 348.263 714.362 348.474C711.262 348.685 708.155 348.166 705.292 346.959" fill="#407BFF"/>
<path d="M699.681 403.28C712.338 383.809 726.941 365.688 741.922 348.066C742.299 347.628 741.654 346.983 741.277 347.421C726.223 365.104 711.571 383.273 698.89 402.757C698.574 403.244 699.365 403.706 699.681 403.219V403.28Z" fill="#263238"/>
<path d="M699.742 402.988C698.525 388.165 701.58 372.99 705.389 358.739C709.643 342.607 715.603 326.974 723.168 312.105C726.705 304.979 730.919 298.21 735.752 291.891C736.105 291.428 735.46 290.783 735.095 291.246C725.87 302.989 719.274 316.863 713.774 330.663C707.341 346.376 702.732 362.774 700.034 379.537C698.723 387.281 698.315 395.15 698.817 402.988C698.817 403.56 699.779 403.572 699.73 402.988H699.742Z" fill="#263238"/>
<path d="M701.385 366.284C697.588 358.544 690.347 353.579 683.435 348.821C675.026 343.028 667.493 336.541 661.457 328.217C661.116 327.755 660.325 328.217 660.678 328.68C666.43 336.42 673.454 343.128 681.452 348.516C688.753 353.542 696.566 358.52 700.594 366.698C700.85 367.221 701.641 366.698 701.373 366.235L701.385 366.284Z" fill="#263238"/>
<path d="M733.172 401.077H669.745C669.745 401.077 667.311 442.576 687.39 459.005L680.162 467.609H723.899L715.636 458.567C715.636 458.567 732.113 451.46 733.172 401.077Z" fill="#263238"/>
<g opacity="0.3">
<path d="M690.068 404.765L673.529 404.911C674.381 413.856 675.233 422.849 677.655 431.502C680.076 440.154 684.19 448.539 690.7 454.709C686.514 438.706 688.169 421.194 690.068 404.765Z" fill="white"/>
</g>
<path d="M585.776 100.534L589.633 104.781L593.649 109.089C596.326 111.937 598.992 114.712 601.754 117.389C603.093 118.728 604.431 120.066 605.855 121.247C607.279 122.427 608.532 123.681 609.944 124.764C611.356 125.847 612.609 126.808 613.863 127.636C614.799 128.269 615.783 128.826 616.808 129.303L614.751 128.975C614.143 128.901 613.529 129.038 613.011 129.364C613.288 129.34 613.556 129.248 613.79 129.096C615.035 128.337 616.191 127.439 617.234 126.419C619.973 123.815 622.534 121.03 624.9 118.083C627.456 115.028 629.938 111.754 632.409 108.456C634.879 105.158 637.362 101.763 639.796 98.4408L639.917 98.2947C640.795 97.2293 642.01 96.494 643.361 96.2098C644.712 95.9256 646.119 96.1093 647.352 96.7306C648.585 97.352 649.57 98.3742 650.145 99.6292C650.72 100.884 650.851 102.298 650.517 103.637C649.146 107.872 647.576 112.018 645.807 116.075C644.055 120.079 642.157 124.095 639.917 128.111C637.642 132.284 635.012 136.254 632.056 139.976C630.293 142.175 628.302 144.182 626.117 145.964C624.672 147.138 623.086 148.127 621.396 148.909C618.915 150.065 616.197 150.624 613.461 150.539C612.957 150.524 612.456 150.459 611.964 150.345L611.404 150.223C608.473 149.521 605.637 148.467 602.959 147.083C600.717 145.941 598.55 144.656 596.472 143.237C592.655 140.676 589.016 137.858 585.581 134.804C582.21 131.871 579.082 128.804 576.04 125.689C574.543 124.107 573.046 122.537 571.61 120.894C570.174 119.251 568.811 117.681 567.29 115.819C565.553 113.365 564.796 110.35 565.169 107.366C565.541 104.382 567.016 101.646 569.303 99.6937C571.591 97.7419 574.525 96.7159 577.53 96.8173C580.535 96.9188 583.394 98.1403 585.544 100.242L585.776 100.534Z" fill="#407BFF"/>
<path opacity="0.8" d="M585.776 100.534L589.633 104.781L593.649 109.089C596.326 111.937 598.992 114.712 601.754 117.389C603.093 118.728 604.431 120.066 605.855 121.247C607.279 122.427 608.532 123.681 609.944 124.764C611.356 125.847 612.609 126.808 613.863 127.636C614.799 128.269 615.783 128.826 616.808 129.303L614.751 128.975C614.143 128.901 613.529 129.038 613.011 129.364C613.288 129.34 613.556 129.248 613.79 129.096C615.035 128.337 616.191 127.439 617.234 126.419C619.973 123.815 622.534 121.03 624.9 118.083C627.456 115.028 629.938 111.754 632.409 108.456C634.879 105.158 637.362 101.763 639.796 98.4408L639.917 98.2947C640.795 97.2293 642.01 96.494 643.361 96.2098C644.712 95.9256 646.119 96.1093 647.352 96.7306C648.585 97.352 649.57 98.3742 650.145 99.6292C650.72 100.884 650.851 102.298 650.517 103.637C649.146 107.872 647.576 112.018 645.807 116.075C644.055 120.079 642.157 124.095 639.917 128.111C637.642 132.284 635.012 136.254 632.056 139.976C630.293 142.175 628.302 144.182 626.117 145.964C624.672 147.138 623.086 148.127 621.396 148.909C618.915 150.065 616.197 150.624 613.461 150.539C612.957 150.524 612.456 150.459 611.964 150.345L611.404 150.223C608.473 149.521 605.637 148.467 602.959 147.083C600.717 145.941 598.55 144.656 596.472 143.237C592.655 140.676 589.016 137.858 585.581 134.804C582.21 131.871 579.082 128.804 576.04 125.689C574.543 124.107 573.046 122.537 571.61 120.894C570.174 119.251 568.811 117.681 567.29 115.819C565.553 113.365 564.796 110.35 565.169 107.366C565.541 104.382 567.016 101.646 569.303 99.6937C571.591 97.7419 574.525 96.7159 577.53 96.8173C580.535 96.9188 583.394 98.1403 585.544 100.242L585.776 100.534Z" fill="white"/>
<path d="M645.783 105.657L657.697 106.242L653.827 90.1776C653.827 90.1776 642.741 90.9929 640.964 96.7005C640.78 97.3352 640.819 98.0137 641.073 98.6233L643.264 103.881C643.47 104.386 643.817 104.823 644.264 105.138C644.71 105.452 645.237 105.633 645.783 105.657Z" fill="#FDBBB5"/>
<path d="M668.333 96.7127L666.033 91.3581C665.583 90.3225 664.782 89.4789 663.772 88.9758C662.761 88.4726 661.605 88.3423 660.508 88.6077L653.815 90.2506L657.685 106.339L665.704 103.102C666.288 102.872 666.821 102.53 667.272 102.094C667.723 101.658 668.084 101.138 668.334 100.562C668.584 99.987 668.717 99.3681 668.728 98.7409C668.738 98.1137 668.625 97.4907 668.394 96.9074C668.385 96.8396 668.364 96.7737 668.333 96.7127Z" fill="#FDBBB5"/>
<path d="M690.591 95.2158H616.321V97.3334H690.591V95.2158Z" fill="#407BFF"/>
<path d="M689.033 97.3212H617.866L620.592 98.8059H686.319L689.033 97.3212Z" fill="#407BFF"/>
<path opacity="0.2" d="M689.033 97.3212H617.866L620.592 98.8059H686.319L689.033 97.3212Z" fill="black"/>
<path d="M656.516 65.3514C656.521 65.9584 656.346 66.5532 656.012 67.0605C655.679 67.5677 655.202 67.9646 654.643 68.2008C654.084 68.437 653.467 68.5019 652.871 68.3873C652.275 68.2727 651.726 67.9838 651.294 67.5571C650.863 67.1304 650.567 66.5852 650.445 65.9904C650.324 65.3957 650.381 64.7782 650.611 64.2162C650.84 63.6542 651.231 63.173 651.735 62.8334C652.238 62.4939 652.831 62.3114 653.438 62.3089C653.838 62.3057 654.234 62.3817 654.605 62.5326C654.975 62.6834 655.312 62.9061 655.596 63.1878C655.88 63.4695 656.105 63.8047 656.259 64.1739C656.413 64.5432 656.492 64.9392 656.492 65.3392L656.516 65.3514Z" fill="#407BFF"/>
<path d="M685.565 85.407C683.498 79.0195 679.575 73.3929 674.296 69.2456L675.124 68.1869C680.618 72.5004 684.699 78.3569 686.843 85.0054L685.565 85.407Z" fill="#407BFF"/>
<path d="M669.659 66.1789C668.157 65.3536 666.595 64.6417 664.986 64.0492L665.449 62.8322C667.125 63.4666 668.752 64.2231 670.317 65.0958L669.659 66.1789Z" fill="#407BFF"/>
<path d="M653.462 65.3514C645.393 65.3514 637.655 68.5568 631.949 74.2625C626.244 79.9681 623.038 87.7067 623.038 95.7757H683.8C683.8 87.7067 680.595 79.9681 674.89 74.2625C669.184 68.5568 661.446 65.3514 653.377 65.3514H653.462Z" fill="#407BFF"/>
<path opacity="0.3" d="M627.261 93.0131H635.123C635.395 93.0137 635.658 92.9172 635.866 92.741C636.073 92.5648 636.211 92.3204 636.254 92.0517C637.836 83.7398 642.789 76.4866 650.687 70.1462C650.905 69.9698 651.043 69.7147 651.073 69.4365C651.102 69.1583 651.021 68.8797 650.845 68.6615C650.732 68.5223 650.586 68.4137 650.421 68.3457C650.255 68.2777 650.074 68.2523 649.896 68.2721C643.918 69.0614 638.36 71.7796 634.066 76.0141C629.773 80.2486 626.977 85.7682 626.105 91.7353C626.079 92.0377 626.167 92.3389 626.352 92.5798C626.536 92.8207 626.804 92.9839 627.103 93.0374L627.261 93.0131Z" fill="white"/>
<path d="M557.579 327.974C544.923 272.31 537.098 205.194 537.098 205.194L588.988 204.366C588.988 204.366 588.27 294.811 588.38 332.696C588.514 372.089 594.233 450.158 594.233 450.158L569.7 452.263C569.7 452.263 555.17 376.665 557.579 327.974Z" fill="#263238"/>
<path d="M553.539 251.159L545.324 263.328C547.758 278.528 550.679 295.262 554.062 311.666C555.486 286.451 555.243 257.243 553.539 251.159Z" fill="black"/>
<path d="M509.315 326.404C515.327 270.423 509.412 228.377 516.726 200.788L569.7 204.719C569.7 204.719 550.022 293.558 540.883 330.469C531.743 367.379 523.979 453.176 523.979 453.176L500.164 450.413C500.164 450.413 496.939 369.692 509.315 326.404Z" fill="#263238"/>
<path d="M537 94.6804C542.927 88.1452 539.434 72.4585 537.147 64.0492L558.248 78.0444C557.915 79.0712 557.654 80.1204 557.469 81.1842C557.056 83.0826 557.226 83.7398 557.238 87.0743C557.506 90.1654 558.212 93.7068 558.37 93.0253C558.37 93.0253 562.179 97.3942 549.243 98.8302C543.633 100.072 537 94.6804 537 94.6804Z" fill="#FDBBB5"/>
<path opacity="0.2" d="M541.674 72.2637C541.832 82.4133 552.018 86.5997 557.287 87.5367C557.105 85.4067 557.17 83.2627 557.482 81.1476L541.674 72.2637Z" fill="black"/>
<path d="M532.936 57.0029C536.806 68.5033 538.741 75.0749 546.432 79.4195C557.993 85.9668 571.148 76.9856 570.905 64.4629C570.673 53.2425 564.394 36.3144 551.36 34.8662C548.51 34.4926 545.612 34.8462 542.935 35.8942C540.258 36.9422 537.89 38.6504 536.051 40.8599C534.212 43.0693 532.962 45.7082 532.418 48.5307C531.873 51.3533 532.051 54.2678 532.936 57.0029Z" fill="#FDBBB5"/>
<path d="M532.06 64.3291C535.066 66.4588 539.191 69.6229 542.367 67.7488C543.584 59.8263 542.696 48.4233 538.996 44.7845C544.643 44.7115 566.377 43.2755 566.84 35.5355C567.351 27.2114 558.041 20.5424 553.028 20.9927C550.131 21.8811 551.908 27.6496 546.31 27.7348C540.712 27.8199 520.401 28.4528 525.05 38.1885C517.943 39.7097 518.661 53.0843 524.928 56.9421C527.108 59.5879 529.492 62.0579 532.06 64.3291Z" fill="#263238"/>
<path d="M530.782 67.9922C531.625 69.2673 532.711 70.3634 533.979 71.2175C535.247 72.0717 536.671 72.6671 538.169 72.9696C542.233 73.7606 542.55 69.5864 541.223 65.9964C540.006 62.7592 537.962 58.9744 533.983 59.802C533.125 59.9763 532.326 60.3626 531.657 60.9257C530.987 61.4888 530.47 62.2106 530.151 63.0253C529.833 63.8399 529.724 64.7214 529.834 65.589C529.944 66.4567 530.27 67.2829 530.782 67.9922Z" fill="#FDBBB5"/>
<path d="M549.499 55.4695C549.815 56.6865 550.715 57.4532 551.531 57.2342C552.346 57.0151 552.748 55.8711 552.407 54.6663C552.066 53.4615 551.19 52.6827 550.375 52.9017C549.559 53.1208 549.17 54.2647 549.499 55.4695Z" fill="#263238"/>
<path d="M561.729 53.1573C562.057 54.3743 562.946 55.1532 563.773 54.9341C564.601 54.715 564.99 53.5711 564.65 52.3663C564.309 51.1615 563.433 50.3826 562.605 50.6017C561.778 50.8207 561.437 51.9647 561.729 53.1573Z" fill="#263238"/>
<path d="M558.115 52.2324C558.115 52.2324 563.615 57.1003 565.513 59.2543C564.199 61.2015 561.059 61.2867 561.059 61.2867L558.115 52.2324Z" fill="#E97A75"/>
<path d="M546.566 51.0033C546.671 51.0169 546.778 51.0028 546.876 50.9622C546.975 50.9217 547.06 50.8561 547.125 50.772C547.57 50.1711 548.147 49.6807 548.812 49.3388C549.477 48.9969 550.211 48.8127 550.959 48.8005C551.037 48.8072 551.116 48.7983 551.191 48.7743C551.266 48.7504 551.335 48.7118 551.395 48.6609C551.455 48.61 551.504 48.5478 551.54 48.4777C551.576 48.4077 551.598 48.3313 551.604 48.2529C551.609 48.1768 551.598 48.1004 551.573 48.0284C551.548 47.9563 551.509 47.89 551.458 47.8333C551.407 47.7766 551.345 47.7307 551.276 47.6982C551.207 47.6658 551.132 47.6475 551.056 47.6444C550.112 47.6444 549.18 47.8644 548.335 48.2868C547.49 48.7093 546.755 49.3226 546.188 50.0784C546.139 50.1368 546.103 50.2049 546.082 50.2783C546.061 50.3516 546.055 50.4286 546.065 50.5042C546.076 50.5798 546.102 50.6525 546.142 50.7174C546.182 50.7824 546.235 50.8383 546.298 50.8816C546.376 50.9434 546.468 50.9852 546.566 51.0033Z" fill="#263238"/>
<path opacity="0.2" d="M532.668 64.037C532.853 63.6318 533.152 63.2887 533.528 63.049C533.903 62.8094 534.34 62.6834 534.786 62.6862C535.68 62.7031 536.54 63.0301 537.22 63.6111C538.051 64.2403 538.698 65.0808 539.094 66.045" stroke="black" stroke-width="0.5" stroke-linecap="round" stroke-linejoin="round"/>
<path d="M567.229 46.4761C567.33 46.4223 567.414 46.3425 567.473 46.2449C567.513 46.1784 567.54 46.1042 567.551 46.027C567.562 45.9498 567.557 45.8712 567.537 45.796C567.516 45.7208 567.48 45.6505 567.432 45.5896C567.383 45.5287 567.323 45.4783 567.254 45.4417C566.437 44.9795 565.524 44.7126 564.586 44.6619C563.649 44.6113 562.713 44.7782 561.851 45.1496C561.776 45.181 561.71 45.2273 561.654 45.2858C561.599 45.3442 561.556 45.4135 561.529 45.4892C561.501 45.565 561.49 45.6455 561.495 45.7259C561.501 45.8062 561.522 45.8846 561.559 45.9561C561.596 46.0276 561.648 46.0907 561.71 46.1414C561.773 46.1921 561.845 46.2293 561.923 46.2507C562.001 46.2721 562.082 46.2772 562.161 46.2657C562.241 46.2543 562.318 46.2265 562.386 46.184C563.069 45.889 563.813 45.7605 564.555 45.8091C565.298 45.8578 566.019 46.0822 566.657 46.4639C566.745 46.5107 566.843 46.5362 566.942 46.5383C567.041 46.5405 567.14 46.5191 567.229 46.4761Z" fill="#263238"/>
<path d="M556.642 64.1344C556.532 64.1638 556.433 64.2278 556.362 64.3169C556.312 64.3749 556.275 64.4421 556.252 64.5148C556.228 64.5875 556.22 64.664 556.227 64.74C556.234 64.816 556.255 64.8898 556.291 64.9572C556.327 65.0246 556.376 65.0841 556.435 65.1323C557.16 65.7277 558.013 66.1473 558.927 66.3584C559.841 66.5695 560.792 66.5664 561.704 66.3493C561.853 66.3041 561.977 66.2018 562.05 66.0648C562.123 65.9279 562.139 65.7676 562.094 65.6191C562.049 65.4706 561.946 65.3462 561.809 65.2732C561.672 65.2001 561.512 65.1845 561.364 65.2297C560.64 65.4053 559.884 65.4052 559.16 65.2295C558.436 65.0538 557.765 64.7075 557.202 64.2196C557.122 64.162 557.029 64.1242 556.932 64.1094C556.835 64.0946 556.735 64.1032 556.642 64.1344Z" fill="#263238"/>
<path d="M524.101 35.5356C519.744 34.4525 521.107 30.4486 522.081 30.0349C518.004 31.0206 516.519 35.0366 521.448 36.8742C526.377 38.7119 524.101 35.5356 524.101 35.5356Z" fill="#263238"/>
<path d="M545.714 28.9517C546.66 28.633 547.527 28.1157 548.257 27.4346C548.987 26.7536 549.564 25.9244 549.947 25.0026C550.331 24.0808 550.513 23.0877 550.482 22.0897C550.451 21.0918 550.207 20.112 549.766 19.216C549.523 18.6805 548.732 19.1429 548.975 19.6784C549.333 20.4543 549.525 21.296 549.541 22.1502C549.556 23.0044 549.394 23.8525 549.065 24.6407C548.735 25.4289 548.245 26.1402 547.627 26.7293C547.008 27.3185 546.274 27.7728 545.47 28.0633C544.923 28.2581 545.154 29.1464 545.714 28.9517Z" fill="#263238"/>
<path d="M534.056 92.5628C549.876 90.494 558.394 91.8692 573.472 94.6195C577.335 95.4446 580.841 97.4589 583.5 100.379C586.158 103.3 587.835 106.98 588.295 110.903C591.471 135.047 588.745 177.24 586.725 219.712C552.237 232.21 515.85 219.542 515.85 219.542C514.633 211.023 517.408 182.899 519.306 167.918C516.471 152.438 516.945 150.332 512.929 129.766C511.007 120.687 505.628 100.108 514.232 98.0636C514.755 97.9419 533.508 92.6359 534.056 92.5628Z" fill="#263238"/>
<path d="M535.224 92.4168L540.225 84.8472L550.801 90.1776L557.214 85.7113L564.236 93.0253V136.605L535.224 92.4168Z" fill="#407BFF"/>
<path opacity="0.8" d="M535.224 92.4168L540.225 84.8472L550.801 90.1776L557.214 85.7113L564.236 93.0253V136.605L535.224 92.4168Z" fill="white"/>
<path opacity="0.3" d="M535.224 92.4168L547.941 101.861L551.482 95.2158L558.187 99.0128L564.236 93.0253L558.893 100.497L551.981 97.1387L547.393 104.879L535.224 93.0253" fill="black"/>
<path d="M551.129 96.7857C544.606 95.2645 536.635 93.8528 540.055 98.6842C543.475 103.516 541.369 106.071 544.412 107.203C547.454 108.335 551.3 101.933 552.833 100.777C554.366 99.6212 551.129 96.7857 551.129 96.7857Z" fill="#407BFF"/>
<path d="M555.169 95.654C558.723 91.5528 563.323 86.9039 563.761 92.3925C564.199 97.881 567.095 99.0615 565.684 101.337C564.272 103.613 558.041 99.9985 556.301 99.7186C554.561 99.4387 555.169 95.654 555.169 95.654Z" fill="#407BFF"/>
<path d="M550.253 96.6032C551.336 95.4836 554.22 93.6581 556.338 95.3862C558.455 97.1143 558.918 100.729 556.873 101.739C556.145 102.104 555.331 102.264 554.518 102.202C553.706 102.14 552.925 101.858 552.261 101.386C552.546 100.48 552.5 99.5024 552.133 98.6268C551.765 97.7513 551.099 97.0343 550.253 96.6032Z" fill="#407BFF"/>
<path d="M515.947 195.543C515.607 197.721 515.947 200.995 515.12 208.029C515.12 208.029 522.422 208.954 521.874 213.238C520.45 224.726 523.395 271.166 521.387 278.65C554.099 293.156 593.296 285.952 594.83 276.484C594.379 259.045 589.852 195.543 589.852 195.543H515.947Z" fill="#E0E0E0"/>
<path opacity="0.1" d="M521.959 208.565C524.239 212.266 526.996 215.65 530.161 218.629C530.161 218.629 523.103 217.412 521.959 208.565Z" fill="black"/>
<path opacity="0.1" d="M583.5 215.197C585.377 212.404 586.898 209.386 588.027 206.216C588.027 206.216 588.355 213.311 583.5 215.197Z" fill="black"/>
<path opacity="0.1" d="M522.263 213.846C523.019 216.629 524.136 219.301 525.586 221.793C524.261 220.992 523.225 219.79 522.628 218.362C522.031 216.933 521.903 215.352 522.263 213.846Z" fill="black"/>
<path d="M556.021 160.859H555.839C551.799 160.287 547.6 159.813 543.523 159.143C539.447 158.474 535.394 157.926 531.476 157.135C527.793 156.427 524.162 155.472 520.608 154.275C519.669 153.967 518.754 153.588 517.87 153.144C517.87 152.706 517.87 152.28 517.87 151.854C518.016 150.381 518.235 148.738 518.539 146.986C518.844 145.233 519.245 143.517 519.671 141.716C520.097 139.915 520.572 138.065 521.107 136.276C522.154 132.626 523.298 128.902 524.539 125.202L526.413 119.628L528.299 114.286L528.433 113.994C529.536 111.019 529.419 107.73 528.109 104.841C526.799 101.951 524.402 99.6964 521.438 98.5657C518.474 97.435 515.184 97.5201 512.282 98.8026C509.381 100.085 507.103 102.461 505.944 105.414C505.019 107.617 504.277 109.588 503.51 111.633C502.744 113.677 502.099 115.746 501.429 117.815C500.127 121.977 498.922 126.188 497.973 130.545C496.931 135.016 496.195 139.554 495.77 144.126C495.513 146.628 495.419 149.145 495.491 151.659C495.536 154.671 495.944 157.666 496.708 160.579L496.854 161.127C496.99 161.618 497.174 162.095 497.401 162.551C498.635 164.991 500.423 167.108 502.622 168.733C504.12 169.854 505.756 170.778 507.49 171.483C510.073 172.566 512.76 173.382 515.509 173.917C520.196 174.724 524.943 175.131 529.699 175.134C534.202 175.134 538.664 174.944 543.085 174.562C547.507 174.181 551.9 173.573 556.265 172.737C557.615 172.407 558.811 171.624 559.655 170.519C560.499 169.414 560.939 168.054 560.902 166.664C560.865 165.275 560.353 163.94 559.452 162.881C558.551 161.823 557.314 161.105 555.948 160.847L556.021 160.859ZM516.653 152.511C516.418 152.367 516.215 152.177 516.057 151.951C516.317 152.104 516.544 152.307 516.726 152.547L516.653 152.511Z" fill="#407BFF"/>
<path d="M558.236 164.133L570.065 165.605L563.53 180.732C563.53 180.732 552.736 178.055 551.969 172.116C551.886 171.459 552.041 170.794 552.407 170.242L555.449 165.447C555.744 164.989 556.162 164.623 556.654 164.391C557.147 164.158 557.695 164.069 558.236 164.133Z" fill="#FDBBB5"/>
<path d="M578.936 176.802L575.748 181.669C575.128 182.613 574.194 183.307 573.112 183.63C572.03 183.953 570.869 183.883 569.834 183.434L563.53 180.672L570.065 165.545L577.44 170.108C578.51 170.774 579.273 171.836 579.563 173.063C579.852 174.29 579.645 175.581 578.985 176.656L578.936 176.802Z" fill="#FDBBB5"/>
<path opacity="0.8" d="M556.021 160.859H555.839C551.799 160.287 547.6 159.813 543.523 159.143C539.447 158.474 535.394 157.926 531.476 157.135C527.793 156.427 524.162 155.472 520.608 154.275C519.669 153.967 518.754 153.588 517.87 153.144C517.87 152.706 517.87 152.28 517.87 151.854C518.016 150.381 518.235 148.738 518.539 146.986C518.844 145.233 519.245 143.517 519.671 141.716C520.097 139.915 520.572 138.065 521.107 136.276C522.154 132.626 523.298 128.902 524.539 125.202L526.413 119.628L528.299 114.286L528.433 113.994C529.536 111.019 529.419 107.73 528.109 104.841C526.799 101.951 524.402 99.6964 521.438 98.5657C518.474 97.435 515.184 97.5201 512.282 98.8026C509.381 100.085 507.103 102.461 505.944 105.414C505.019 107.617 504.277 109.588 503.51 111.633C502.744 113.677 502.099 115.746 501.429 117.815C500.127 121.977 498.922 126.188 497.973 130.545C496.931 135.016 496.195 139.554 495.77 144.126C495.513 146.628 495.419 149.145 495.491 151.659C495.536 154.671 495.944 157.666 496.708 160.579L496.854 161.127C496.99 161.618 497.174 162.095 497.401 162.551C498.635 164.991 500.423 167.108 502.622 168.733C504.12 169.854 505.756 170.778 507.49 171.483C510.073 172.566 512.76 173.382 515.509 173.917C520.196 174.724 524.943 175.131 529.699 175.134C534.202 175.134 538.664 174.944 543.085 174.562C547.507 174.181 551.9 173.573 556.265 172.737C557.615 172.407 558.811 171.624 559.655 170.519C560.499 169.414 560.939 168.054 560.902 166.664C560.865 165.275 560.353 163.94 559.452 162.881C558.551 161.823 557.314 161.105 555.948 160.847L556.021 160.859ZM516.653 152.511C516.418 152.367 516.215 152.177 516.057 151.951C516.317 152.104 516.544 152.307 516.726 152.547L516.653 152.511Z" fill="white"/>
<path d="M553.624 161.017C545.429 158.595 536.979 157.137 528.445 156.673C526.632 156.77 525.926 197.88 526.072 214.698C526.072 216.974 552.249 216.524 558.93 215.489C559.307 210.792 559.392 176.546 561.132 165.8C561.262 164.963 561.109 164.106 560.697 163.365C560.284 162.624 559.637 162.042 558.857 161.711C557.198 161.046 555.399 160.807 553.624 161.017Z" fill="white"/>
<path d="M575.833 469.337L585.033 469.568C585.948 469.075 586.964 468.796 588.003 468.753C589.098 468.923 592.87 469.775 592.87 469.775L617.307 470.396C617.156 469.425 616.94 468.466 616.662 467.524C616.4 466.602 616.037 465.712 615.578 464.871C615.038 463.794 614.224 462.879 613.218 462.217C612.212 461.555 611.049 461.169 609.847 461.098C606.439 460.782 595.864 453.054 595.864 453.054C594.717 452.553 593.736 451.737 593.033 450.701C592.331 449.665 591.937 448.451 591.897 447.2C591.897 445.582 589.609 443.55 588.514 443.355C586.299 442.965 585.009 444.401 584.632 446.714L584.181 449.403L579.046 448.43C579.046 448.43 573.862 445.558 574.056 448.235C574.154 449.756 574.86 456.559 575.273 461.938C575.371 463.155 575.468 464.372 575.541 465.431C575.711 467.779 575.833 469.337 575.833 469.337Z" fill="#263238"/>
<g opacity="0.3">
<path d="M617.294 470.396L592.858 469.775C592.858 469.775 589.098 468.923 587.99 468.753C586.952 468.796 585.936 469.075 585.021 469.568L575.821 469.337C575.821 469.337 575.699 467.743 575.517 465.431L616.637 467.524C616.92 468.466 617.14 469.425 617.294 470.396Z" fill="white"/>
</g>
<path d="M601.839 456.535C601.77 456.461 601.677 456.415 601.577 456.404C601.476 456.393 601.375 456.417 601.292 456.474C600.455 457.029 599.783 457.798 599.345 458.701C599.089 459.2 599.783 459.699 600.038 459.2C600.431 458.406 601.022 457.727 601.754 457.228C601.81 457.194 601.857 457.147 601.893 457.092C601.929 457.037 601.952 456.975 601.961 456.91C601.97 456.845 601.965 456.779 601.946 456.716C601.928 456.654 601.895 456.596 601.851 456.547L601.839 456.535Z" fill="white"/>
<path d="M599.357 454.928C599.289 454.853 599.195 454.805 599.094 454.793C598.993 454.782 598.892 454.809 598.809 454.867C597.97 455.417 597.293 456.182 596.85 457.082C596.606 457.581 597.3 458.092 597.556 457.593C597.945 456.797 598.537 456.117 599.272 455.622C599.327 455.585 599.373 455.537 599.408 455.48C599.442 455.424 599.464 455.36 599.472 455.295C599.481 455.229 599.474 455.162 599.454 455.099C599.434 455.036 599.401 454.977 599.357 454.928Z" fill="white"/>
<path d="M596.789 453.419C596.721 453.344 596.628 453.296 596.527 453.284C596.426 453.273 596.324 453.299 596.241 453.358C595.401 453.92 594.729 454.698 594.294 455.61C594.051 456.109 594.745 456.62 595 456.121C595.389 455.325 595.981 454.645 596.716 454.149C596.771 454.112 596.817 454.064 596.852 454.008C596.887 453.951 596.909 453.888 596.917 453.822C596.925 453.756 596.919 453.689 596.899 453.626C596.879 453.563 596.846 453.505 596.801 453.456L596.789 453.419Z" fill="white"/>
<path d="M496.574 470.712L521.46 471.54C521.46 471.54 522.032 470.506 521.46 467.707C521.375 467.268 521.278 466.794 521.132 466.258C521.132 466.258 521.132 466.258 521.132 466.185C520.925 465.406 520.693 464.457 520.438 463.423C519.44 459.212 518.284 453.687 518.284 453.687C518.284 453.687 514.438 444.681 509.51 446.738C505.202 448.539 506.029 454.125 506.029 454.125C505.452 456.504 504.099 458.624 502.184 460.149C500.127 461.853 498.095 463.167 497.073 465.346C496.871 465.766 496.716 466.206 496.61 466.66V466.842C496.353 468.118 496.34 469.432 496.574 470.712Z" fill="#263238"/>
<g opacity="0.3">
<path d="M521.509 467.706C522.032 470.506 521.509 471.54 521.509 471.54L496.622 470.712C496.381 469.446 496.381 468.145 496.622 466.879L521.509 467.706Z" fill="white"/>
</g>
<path d="M507.003 455.61C507.671 455.111 508.5 454.878 509.33 454.957C510.16 455.036 510.931 455.42 511.493 456.036C511.822 456.376 512.357 455.878 512.029 455.537C511.336 454.777 510.382 454.308 509.357 454.222C508.333 454.136 507.313 454.441 506.504 455.074C506.114 455.342 506.626 455.878 507.003 455.61Z" fill="white"/>
<path d="M506.224 457.898C506.892 457.399 507.721 457.166 508.551 457.245C509.381 457.323 510.152 457.708 510.715 458.324C511.031 458.664 511.579 458.165 511.25 457.825C510.557 457.065 509.603 456.595 508.578 456.51C507.554 456.424 506.535 456.728 505.725 457.362C505.336 457.63 505.847 458.165 506.224 457.898Z" fill="white"/>
<path d="M505.457 460.003C506.127 459.506 506.957 459.275 507.787 459.356C508.617 459.437 509.387 459.824 509.948 460.441C510.276 460.782 510.812 460.271 510.483 459.93C509.786 459.178 508.833 458.714 507.81 458.628C506.788 458.542 505.771 458.842 504.958 459.468C504.569 459.747 505.08 460.283 505.457 460.003Z" fill="white"/>
<path d="M432.855 201.263C432.855 201.263 421.902 250.611 445.754 328.789C439.414 369.57 454.37 411.616 458.496 457.265L468.803 456.729C468.803 456.729 473.354 364.057 471.712 323.228C474.304 279.514 474.523 199.024 474.523 199.024L432.855 201.263Z" fill="#FFAF6B"/>
<path d="M428.364 199.656C428.364 199.656 400.654 216 415.404 328.534C403.027 379.05 420.271 456.888 420.271 456.888L429.167 456.62C428.376 444.085 435.252 366.442 440.193 326.404C444.89 288.288 463.522 198.622 463.522 198.622L428.364 199.656Z" fill="#FFAF6B"/>
<path d="M443.308 466.964C441.809 466.149 440.197 465.562 438.525 465.224C438.525 465.224 433.268 461.634 430.275 450.255L423.545 449.221C422.471 449.048 421.371 449.141 420.341 449.494C419.312 449.846 418.385 450.446 417.643 451.241C417.477 451.452 417.342 451.686 417.241 451.935C416.977 453.137 416.806 454.357 416.73 455.586C416.579 459.8 416.758 464.019 417.265 468.206H418.482L418.543 460.271C418.47 457.581 421.476 460.624 422.389 463.471C423.301 466.319 425.127 469.41 432.915 469.179C441.909 468.997 445.669 468.546 443.308 466.964Z" fill="#263238"/>
<path d="M428.887 446.19C430.115 449.916 431.545 453.573 433.171 457.143C434.355 460.222 436.209 462.998 438.598 465.273C438.598 465.273 432.806 466.295 430.141 463.435C427.476 460.575 423.521 450.584 417.643 451.35C418.085 450.568 418.625 449.844 419.249 449.196C420.174 448.052 428.887 446.19 428.887 446.19Z" fill="#FFAF6B"/>
<path d="M483.297 466.709C481.769 465.913 480.127 465.359 478.429 465.066C478.429 465.066 473.099 461.597 469.837 450.304L463.096 449.415C462.015 449.266 460.915 449.386 459.891 449.764C458.868 450.142 457.954 450.766 457.23 451.582C457.072 451.794 456.944 452.027 456.853 452.275C456.614 453.5 456.472 454.741 456.427 455.987C456.374 460.205 456.65 464.42 457.254 468.595L458.471 468.522L458.362 460.587C458.216 457.898 461.294 460.867 462.28 463.703C463.266 466.538 465.152 469.581 472.928 469.167C481.958 468.729 485.706 468.23 483.297 466.709Z" fill="#263238"/>
<path d="M468.401 446.264C469.725 449.944 471.245 453.551 472.953 457.07C474.201 460.122 476.118 462.854 478.563 465.066C478.563 465.066 472.795 466.283 470.044 463.435C467.294 460.587 463.132 450.73 457.279 451.643C457.696 450.845 458.22 450.108 458.836 449.452C459.737 448.308 468.401 446.264 468.401 446.264Z" fill="#FFAF6B"/>
<path d="M500.76 117.219L487.313 146.231L473.926 114.59L464.191 139.83C464.191 139.83 473.038 155.785 478.526 163.658C483.272 170.461 489.552 170.887 494.724 166.299C500.918 160.823 510.739 120.505 510.739 120.505L500.76 117.219Z" fill="#FFAF6B"/>
<path d="M501.806 119.336C501.806 119.336 498.618 116.781 498.29 113.422C497.961 110.063 496.817 107.459 496.744 104.903C496.671 102.347 498.971 104.903 499.92 106.473C500.869 108.043 501.953 109.844 503.023 108.907C504.094 107.97 508.232 96.6641 509.863 95.581C511.493 94.4979 511.396 96.5424 511.396 96.5424C511.396 96.5424 512.479 93.8163 513.672 93.938C513.976 93.938 514.645 94.5587 514.353 95.8852C513.684 98.8546 511.919 105.012 511.919 105.012C512.004 104.66 514.67 97.1995 515.217 96.1408C515.935 94.7534 516.982 94.4613 517.773 94.9238C518.892 95.5444 515.911 104.903 516.057 105.378C516.057 105.378 517.602 99.9377 519.221 99.5726C520.839 99.2075 520.061 102.676 518.783 105.657C517.566 108.347 516.033 113.933 514.584 116.61C512.795 119.835 510.861 121.6 507.417 121.32C505.406 121.156 503.473 120.473 501.806 119.336Z" fill="#FFAF6B"/>
<path opacity="0.3" d="M511.141 96.9318C510.325 99.1345 509.619 101.386 509.011 103.649" stroke="black" stroke-width="0.25" stroke-linecap="round" stroke-linejoin="round"/>
<path opacity="0.3" d="M515.534 107.556C513.038 105.785 510.074 104.79 507.015 104.696" stroke="black" stroke-width="0.25" stroke-linecap="round" stroke-linejoin="round"/>
<path opacity="0.2" d="M485.585 156.673L487.313 146.231C485.834 149.501 485.238 153.101 485.585 156.673Z" fill="black"/>
<path d="M418.677 116.257C415.172 100.437 425.151 103.114 421.184 82.9975C416.815 60.8486 432.599 57.1612 432.599 57.1612C432.599 57.1612 434.145 46.0137 444.525 46.2936C454.906 46.5735 481.033 51.2954 476.604 78.9815C474.036 95.1185 479.403 96.1286 482.335 103.321C486.497 113.434 474.474 122.963 482.701 129.729C482.701 129.729 462.317 136.35 432.258 135.23C432.258 135.193 420.831 125.884 418.677 116.257Z" fill="#263238"/>
<path d="M477.626 184.943C493.836 218.008 474.973 291.501 478.904 346.362C470.92 353.908 418.653 357.145 400.812 345.145C404.877 317.837 405.327 254.639 406.155 238.77C407.912 219.874 414.34 201.712 424.859 185.917C424.859 185.917 452.326 182.582 477.626 184.943Z" fill="#263238"/>
<path opacity="0.2" d="M455.928 236.129C446.886 253.824 444.598 283.287 445.438 304.62C445.438 304.62 453.299 257.949 455.928 236.129Z" fill="black"/>
<path d="M467.635 152.584C467.769 152.706 488.469 143.651 488.469 143.651C488.469 143.651 480.218 128.062 477.516 121.344C474.815 114.627 470.008 109.601 465.517 108.7L462.463 121.916L467.635 152.584Z" fill="#407BFF"/>
<path opacity="0.8" d="M467.635 152.584C467.769 152.706 488.469 143.651 488.469 143.651C488.469 143.651 480.218 128.062 477.516 121.344C474.815 114.627 470.008 109.601 465.517 108.7L462.463 121.916L467.635 152.584Z" fill="white"/>
<path d="M461.002 108.043C458.459 107.945 456.767 107.605 454.188 107.678C446.989 107.739 439.807 108.37 432.709 109.564C430.433 109.917 427.634 110.781 425.565 111.268C425.224 111.341 424.896 111.414 424.567 111.511C421.117 112.499 418.199 114.816 416.456 117.954C414.713 121.091 414.286 124.793 415.27 128.244C424.847 160.543 425.699 174.94 422.839 189.653C448.2 194.375 474.474 189.653 477.602 184.931C477.602 184.931 475.752 169.22 476.141 159.375C486.777 149.736 478.222 129.133 477.017 125.811C473.075 116.075 470.166 108.335 461.002 108.043Z" fill="#407BFF"/>
<path opacity="0.3" d="M461.002 108.043C458.459 107.945 456.767 107.605 454.188 107.678C446.989 107.739 439.807 108.37 432.709 109.564C430.433 109.917 427.634 110.781 425.565 111.268C425.224 111.341 424.896 111.414 424.567 111.511C421.117 112.499 418.199 114.816 416.456 117.954C414.713 121.091 414.286 124.793 415.27 128.244C424.847 160.543 425.699 174.94 422.839 189.653C448.2 194.375 474.474 189.653 477.602 184.931C477.602 184.931 475.752 169.22 476.141 159.375C486.777 149.736 478.222 129.133 477.017 125.811C473.075 116.075 470.166 108.335 461.002 108.043Z" fill="black"/>
<path d="M427.645 155.221L417.731 205.797C417.468 207.143 418.345 208.447 419.69 208.711L455.063 215.645C456.408 215.909 457.713 215.032 457.977 213.686L467.89 163.11C468.154 161.764 467.277 160.46 465.931 160.196L430.558 153.262C429.213 152.999 427.908 153.876 427.645 155.221Z" fill="#407BFF"/>
<path d="M442.687 178.213L443.016 180.343C448.37 185.734 458.666 187.341 458.666 187.341L462 171.666L447.908 172.798C444.61 173.686 443.71 174.854 442.687 178.213Z" fill="#FFAF6B"/>
<path d="M467.574 174.489L461.927 171.69L458.605 187.353L462.39 188.387C463.347 188.654 464.369 188.552 465.255 188.102C466.141 187.651 466.825 186.884 467.172 185.953L469.533 179.43C469.879 178.51 469.869 177.495 469.507 176.582C469.145 175.668 468.456 174.922 467.574 174.489Z" fill="#FFAF6B"/>
<path d="M448.809 173.747L418.19 163.853C418.397 161.018 421.634 147.959 421.634 147.959L410.682 133.015C410.682 133.015 400.837 164.279 404.962 172.603C409.088 180.927 446.582 182.339 446.582 182.339L448.809 173.747Z" fill="#FFAF6B"/>
<path opacity="0.2" d="M432.623 131.628C432.623 131.628 422.717 158.498 422.596 157.817L422.474 157.135L419.724 145.465L432.623 131.628Z" fill="black"/>
<path d="M433.779 127.307C432.368 135.108 424.543 149.955 424.543 149.955C424.543 149.955 408.199 146.377 406.118 136.654C411.57 121.977 416.803 113.458 424.847 111.73C432.891 110.002 435.191 119.507 433.779 127.307Z" fill="#407BFF"/>
<path opacity="0.8" d="M433.779 127.307C432.368 135.108 424.543 149.955 424.543 149.955C424.543 149.955 408.199 146.377 406.118 136.654C411.57 121.977 416.803 113.458 424.847 111.73C432.891 110.002 435.191 119.507 433.779 127.307Z" fill="white"/>
<path d="M439.171 84.3605L451.133 95.7513L454.455 97.6133C453.755 99.3085 453.26 101.082 452.983 102.895C452.569 105.95 453.981 107.836 456.877 110.002L446.338 117C440.339 112.132 435.69 108.761 435.69 108.761C441.677 104.331 440.716 91.5163 439.171 84.3605Z" fill="#FFAF6B"/>
<path opacity="0.2" d="M452.91 103.564C449.66 101.763 446.058 98.5748 446.363 94.8021C446.466 93.4169 446.731 92.0486 447.154 90.7253L453.895 99.1346C453.416 100.573 453.085 102.058 452.91 103.564Z" fill="black"/>
<path d="M436.53 71.205C437.978 83.1192 438.343 88.1696 444.683 94.2545C454.224 103.394 468.389 99.816 470.495 87.9019C472.393 77.1925 469.716 59.5221 457.851 54.8489C455.336 53.758 452.575 53.3593 449.855 53.6943C447.134 54.0293 444.553 55.0857 442.378 56.7541C440.203 58.4225 438.514 60.6422 437.486 63.1831C436.458 65.7239 436.127 68.4936 436.53 71.205Z" fill="#FFAF6B"/>
<path d="M449.478 70.3166C449.555 70.3231 449.633 70.3134 449.706 70.2883C449.78 70.2632 449.847 70.2231 449.904 70.1706C450.399 69.6581 451.015 69.2781 451.696 69.0655C452.376 68.8529 453.099 68.8144 453.798 68.9536C453.87 68.9754 453.946 68.9818 454.02 68.9724C454.095 68.9629 454.167 68.9379 454.231 68.8988C454.295 68.8598 454.351 68.8077 454.394 68.7458C454.436 68.684 454.466 68.6138 454.48 68.5398C454.507 68.3825 454.474 68.2207 454.389 68.0858C454.303 67.951 454.171 67.8525 454.017 67.8097C453.135 67.6221 452.22 67.6599 451.357 67.9194C450.493 68.1789 449.709 68.6517 449.076 69.2944C449.022 69.3486 448.979 69.4131 448.949 69.4841C448.92 69.5551 448.905 69.6313 448.905 69.7081C448.905 69.785 448.92 69.8611 448.949 69.9321C448.979 70.0032 449.022 70.0676 449.076 70.1219C449.18 70.2363 449.324 70.3061 449.478 70.3166Z" fill="#263238"/>
<path d="M467.732 68.1504C467.795 68.1303 467.852 68.0956 467.898 68.049C467.945 68.0024 467.98 67.9454 468 67.8827C468.04 67.7397 468.031 67.5872 467.973 67.4502C467.916 67.3132 467.814 67.1996 467.683 67.1282C466.956 66.6817 466.125 66.4313 465.272 66.4015C464.419 66.3716 463.573 66.5633 462.816 66.9578C462.759 67.0008 462.712 67.0544 462.677 67.1157C462.642 67.177 462.619 67.2446 462.61 67.3148C462.601 67.3849 462.606 67.4562 462.624 67.5244C462.643 67.5927 462.675 67.6565 462.718 67.7123C462.788 67.8398 462.905 67.9344 463.044 67.9755C463.183 68.0165 463.333 68.0007 463.461 67.9314C464.064 67.6317 464.734 67.4912 465.407 67.5232C466.08 67.5551 466.734 67.7585 467.306 68.1139C467.369 68.1538 467.44 68.178 467.515 68.1844C467.589 68.1907 467.663 68.1791 467.732 68.1504Z" fill="#263238"/>
<path d="M460.662 73.7728C461.814 76.2884 463.216 78.6817 464.848 80.9164C464.938 81.0277 465 81.1589 465.029 81.2991C465.059 81.4392 465.054 81.5843 465.016 81.7223C464.978 81.8604 464.907 81.9873 464.81 82.0927C464.714 82.198 464.593 82.2787 464.458 82.3281C463.426 82.6761 462.317 82.7267 461.258 82.4742L460.662 73.7728Z" fill="#E97F3F"/>
<path d="M450.342 75.6105C450.439 76.8274 451.157 77.8984 451.948 77.8862C452.739 77.874 453.287 76.8518 453.165 75.5861C453.044 74.3205 452.362 73.3104 451.571 73.3226C450.78 73.3347 450.257 74.357 450.342 75.6105Z" fill="#263238"/>
<path d="M451.145 73.3834L453.871 72.6533C453.871 72.6533 452.435 74.6978 451.145 73.3834Z" fill="#263238"/>
<path d="M462.694 74.3083C462.791 75.5253 463.497 76.5232 464.276 76.511C465.055 76.4989 465.627 75.5131 465.493 74.284C465.359 73.0548 464.678 72.0813 463.899 72.0934C463.12 72.1056 462.597 73.0913 462.694 74.3083Z" fill="#263238"/>
<path d="M463.655 72.13L466.381 71.3998C466.381 71.3998 464.933 73.4808 463.655 72.13Z" fill="#263238"/>
<path d="M440.801 75.2089C440.801 75.2089 446.691 65.7652 446.156 58.2687C446.156 58.2687 457.851 54.849 467.623 67.1282C469.168 69.0875 470.166 72.3977 471.59 75.2332C471.59 75.2332 473.172 52.4515 452.958 51.1737C432.745 49.8959 429.654 78.3487 439.742 87.549C439.015 85.5382 438.732 83.3932 438.915 81.2625C439.098 79.1319 439.741 77.0663 440.801 75.2089Z" fill="#263238"/>
<path d="M433.207 81.0382C433.863 82.1173 434.725 83.0564 435.744 83.8019C436.763 84.5474 437.919 85.0846 439.146 85.3828C442.322 86.0886 443.807 80.9652 442.639 77.8254C442.09 76.4087 441.052 75.2355 439.712 74.5188C438.372 73.8021 436.82 73.5893 435.337 73.9189C432.356 74.6247 431.516 78.3487 433.207 81.0382Z" fill="#FFAF6B"/>
<path opacity="0.2" d="M439.864 80.2106C439.753 79.0676 439.194 78.015 438.309 77.283C437.424 76.551 436.286 76.199 435.142 76.3041" stroke="black" stroke-width="0.5" stroke-linecap="round" stroke-linejoin="round"/>
<path d="M460.041 86.3563C459.237 87.419 458.509 88.5374 457.863 89.703L457.206 89.4718C454.212 88.3643 453.19 86.8675 452.958 85.541C452.864 84.8906 452.926 84.2271 453.141 83.606C453.252 83.2512 453.407 82.9118 453.603 82.5959C455.147 84.0995 456.999 85.2497 459.031 85.9669C459.36 86.1149 459.697 86.2449 460.041 86.3563Z" fill="#263238"/>
<path d="M459.031 85.9669L458.362 86.9405C455.551 85.8939 453.701 84.7864 453.141 83.606C453.252 83.2512 453.408 82.9118 453.603 82.5959C455.147 84.0995 456.999 85.2497 459.031 85.9669Z" fill="white"/>
<path d="M457.206 89.4718C454.212 88.3643 453.19 86.8675 452.958 85.541C454.089 85.9809 455.132 86.6197 456.037 87.4273C456.634 87.9672 457.043 88.6834 457.206 89.4718Z" fill="#D7504D"/>
<path opacity="0.2" d="M432.708 109.564L448.869 122.549L453.494 117.62L458.033 120.797L458.313 107.86L459.944 123.571L453.506 119.689L448.407 125.421L432.708 109.564Z" fill="black"/>
<path d="M458.313 107.86C458.313 107.86 453.129 105 453.226 105.426C453.323 105.852 452.009 113.105 452.009 113.105L438.623 103.564L432.708 109.564L448.87 122.549L453.482 118.533L458.885 121.709L458.313 107.86Z" fill="#407BFF"/>
<g opacity="0.8">
<path d="M458.313 107.86C458.313 107.86 453.129 105 453.226 105.426C453.323 105.852 452.009 113.105 452.009 113.105L438.623 103.564L432.708 109.564L448.87 122.549L453.482 118.533L458.885 121.709L458.313 107.86Z" fill="white"/>
</g>
<path d="M448.261 120.578C448.3 121.65 448.51 122.71 448.882 123.717C449.6 124.521 451.839 122.707 453.251 121.417C453.944 120.797 454.467 120.286 454.467 120.286C455.516 120.899 456.601 121.448 457.717 121.928H457.778C458.69 122.281 459.506 122.476 459.761 122.184C460.479 121.405 458.751 118.351 458.751 118.351C458.751 118.351 458.994 115.284 457.851 114.152C456.987 113.3 455.198 115.637 454.37 116.841L453.956 117.499C453.956 117.499 453.567 117.365 452.971 117.194C451.157 116.635 447.458 115.564 446.764 115.844C445.827 116.245 446.204 118.509 448.261 120.578Z" fill="#407BFF"/>
<path opacity="0.2" d="M451.048 119.543C450.914 120.273 453.397 119.446 453.397 119.446C453.57 120.093 453.536 120.778 453.299 121.405C453.993 120.784 454.516 120.273 454.516 120.273C455.565 120.887 456.65 121.435 457.765 121.916C457.027 121.532 456.326 121.08 455.672 120.565C455.677 120.203 455.628 119.842 455.526 119.494C455.526 119.494 457.303 119.981 457.425 119.142C457.546 118.302 455.563 118.947 455.563 118.947C455.563 118.947 455.465 117.328 454.419 116.866L454.005 117.523C454.005 117.523 453.616 117.389 453.019 117.219C453.266 117.797 453.402 118.416 453.421 119.044C453.421 119.044 451.182 118.789 451.048 119.543Z" fill="black"/>
<path d="M453.044 117.292C453.044 117.292 454.151 116.756 454.419 116.975C455.392 117.766 455.563 120.626 455.307 120.894C455.092 121.063 454.834 121.166 454.562 121.192C454.29 121.218 454.016 121.165 453.774 121.04C453.774 121.04 454.09 118.01 453.044 117.292Z" fill="#407BFF"/>
<path d="M380.952 469.337L390.152 469.568C391.067 469.075 392.083 468.796 393.121 468.753C394.204 468.923 397.989 469.775 397.989 469.775L422.413 470.396C422.272 469.425 422.061 468.465 421.78 467.524C421.519 466.602 421.156 465.712 420.697 464.871C420.157 463.794 419.343 462.879 418.337 462.217C417.331 461.555 416.168 461.169 414.966 461.098C411.546 460.782 400.983 453.054 400.983 453.054C399.836 452.553 398.854 451.737 398.152 450.701C397.45 449.665 397.056 448.451 397.016 447.2C397.016 445.582 394.728 443.55 393.632 443.355C391.405 442.965 390.128 444.401 389.738 446.714L389.3 449.403L384.165 448.43C384.165 448.43 378.98 445.558 379.163 448.235C379.273 449.756 379.978 456.559 380.38 461.938C380.477 463.155 380.563 464.372 380.648 465.431C380.83 467.779 380.952 469.337 380.952 469.337Z" fill="#263238"/>
<g opacity="0.3">
<path d="M422.401 470.396L397.977 469.775C397.977 469.775 394.205 468.923 393.109 468.753C392.071 468.796 391.055 469.075 390.14 469.568L380.94 469.337C380.94 469.337 380.818 467.743 380.636 465.431L421.756 467.524C422.041 468.464 422.256 469.424 422.401 470.396Z" fill="white"/>
</g>
<path d="M406.958 456.535C406.889 456.461 406.796 456.415 406.695 456.404C406.595 456.393 406.494 456.417 406.41 456.474C405.57 457.028 404.894 457.797 404.451 458.701C404.208 459.2 404.901 459.699 405.157 459.2C405.55 458.406 406.141 457.727 406.873 457.228C406.928 457.193 406.974 457.145 407.008 457.09C407.043 457.034 407.065 456.972 407.073 456.907C407.081 456.843 407.075 456.777 407.055 456.714C407.035 456.652 407.002 456.595 406.958 456.547V456.535Z" fill="white"/>
<path d="M404.451 454.928C404.383 454.853 404.29 454.805 404.189 454.793C404.088 454.782 403.986 454.809 403.904 454.867C403.064 455.417 402.388 456.182 401.944 457.082C401.689 457.581 402.395 458.092 402.65 457.593C403.053 456.777 403.677 456.09 404.451 455.61C404.506 455.573 404.553 455.524 404.587 455.468C404.622 455.411 404.644 455.348 404.652 455.282C404.66 455.217 404.654 455.15 404.634 455.087C404.614 455.024 404.581 454.965 404.536 454.916L404.451 454.928Z" fill="white"/>
<path d="M401.908 453.419C401.84 453.344 401.746 453.296 401.645 453.284C401.544 453.273 401.443 453.3 401.36 453.358C400.521 453.908 399.844 454.673 399.401 455.573C399.157 456.072 399.851 456.583 400.107 456.084C400.488 455.283 401.082 454.601 401.823 454.113C401.878 454.076 401.924 454.028 401.959 453.971C401.993 453.915 402.015 453.851 402.023 453.786C402.032 453.72 402.025 453.653 402.005 453.59C401.985 453.527 401.952 453.468 401.908 453.419Z" fill="white"/>
<path d="M301.68 470.712L326.579 471.54C326.579 471.54 327.151 470.506 326.579 467.706C326.494 467.268 326.384 466.794 326.238 466.258C326.238 466.258 326.238 466.258 326.238 466.185C326.031 465.406 325.788 464.457 325.545 463.423C324.547 459.212 323.378 453.687 323.378 453.687C323.378 453.687 319.533 444.681 314.616 446.738C310.308 448.539 311.124 454.125 311.124 454.125C310.552 456.507 309.198 458.628 307.278 460.149C305.234 461.853 303.202 463.167 302.179 465.346C301.978 465.766 301.823 466.206 301.717 466.66C301.711 466.721 301.711 466.782 301.717 466.842C301.459 468.118 301.446 469.432 301.68 470.712Z" fill="#263238"/>
<g opacity="0.3">
<path d="M326.628 467.706C327.151 470.506 326.628 471.54 326.628 471.54L301.729 470.712C301.487 469.446 301.487 468.145 301.729 466.879L326.628 467.706Z" fill="white"/>
</g>
<path d="M312.122 455.61C312.787 455.109 313.615 454.875 314.443 454.954C315.272 455.033 316.041 455.419 316.6 456.036C316.929 456.376 317.464 455.878 317.135 455.537C316.443 454.777 315.488 454.308 314.464 454.222C313.439 454.136 312.42 454.441 311.611 455.074C311.233 455.342 311.744 455.878 312.122 455.61Z" fill="white"/>
<path d="M311.343 457.898C312.008 457.397 312.836 457.163 313.665 457.242C314.493 457.32 315.263 457.706 315.821 458.324C316.15 458.664 316.685 458.165 316.357 457.825C315.664 457.065 314.709 456.595 313.685 456.51C312.66 456.424 311.641 456.728 310.832 457.362C310.454 457.63 310.966 458.165 311.343 457.898Z" fill="white"/>
<path d="M310.564 460.003C311.231 459.506 312.06 459.276 312.888 459.357C313.716 459.438 314.484 459.825 315.042 460.441C315.371 460.782 315.906 460.271 315.59 459.93C314.893 459.178 313.939 458.714 312.917 458.628C311.895 458.543 310.878 458.842 310.065 459.468C309.676 459.748 310.187 460.283 310.564 460.003Z" fill="white"/>
<path d="M334.988 187.535L363.72 337.089L374.113 453.249L397.381 450.572C399.254 410.79 398.848 370.934 396.164 331.199C392.282 271.567 380.173 209.502 378.336 189.628L369.622 175.901L352.5 177.86L334.988 187.535Z" fill="#407BFF"/>
<path opacity="0.2" d="M334.988 187.535L363.72 337.089L374.113 453.249L397.381 450.572C399.254 410.79 398.848 370.934 396.164 331.199C392.282 271.567 380.173 209.502 378.336 189.628L369.622 175.901L352.5 177.86L334.988 187.535Z" fill="black"/>
<path d="M311.148 187.073L301.656 452.446L324.133 453.176C324.133 453.176 348.241 237.565 351.867 195.433L346.038 180.477L329.463 179.954L311.148 187.073Z" fill="#407BFF"/>
<path opacity="0.2" d="M311.148 187.073L301.656 452.446L324.133 453.176C324.133 453.176 348.241 237.565 351.867 195.433L346.038 180.477L329.463 179.954L311.148 187.073Z" fill="black"/>
<path opacity="0.3" d="M385.491 238.94L309.091 240.936L309.505 232.843L345.575 210.074L384.323 231.225L385.491 238.94Z" fill="black"/>
<path d="M375.865 130.764C381.293 133.964 388.302 160.287 388.302 160.287C377.983 163.938 361.42 169.171 361.42 169.171C362.891 173.42 362.98 178.024 361.676 182.327L385.296 181.572C414.698 181.475 406.277 156.722 404.488 147.022C395.64 99.2197 381.621 97.5646 381.621 97.5646C375.33 107.422 375.865 130.764 375.865 130.764Z" fill="#263238"/>
<path d="M325.35 169.22C328.486 168.762 331.685 168.998 334.72 169.914C333.533 173.372 333.533 177.128 334.72 180.586L325.252 179.893L325.35 169.22Z" fill="#407BFF"/>
<path d="M307.789 94.9116C307.789 94.9116 292.943 99.1467 285.106 147.12C283.523 156.855 275.626 181.791 305.015 181.268L328.648 181.523C327.26 177.248 327.26 172.643 328.648 168.368C328.648 168.368 311.976 163.5 301.583 160.056C301.583 160.056 308.045 133.587 313.412 130.277C313.387 130.277 314.3 104.623 307.789 94.9116Z" fill="#263238"/>
<path opacity="0.5" d="M315.626 164.498L317.379 181.414L307.789 181.304L308.422 162.259L315.626 164.498Z" fill="black"/>
<path d="M393.012 231.565C392.379 226.247 378.968 181.669 379.273 176.339L383.325 100.023C383.295 99.2511 383.035 98.5058 382.58 97.8817C382.125 97.2576 381.495 96.7829 380.769 96.518C374.685 94.4613 366.58 93.1348 359.801 92.1369C350.1 90.6991 340.277 90.2506 330.485 90.7982C321.346 91.6258 313.545 92.6845 309.955 93.8163C308.191 94.3153 302.654 98.1731 302.788 100.011C303.859 115.04 310.795 153.131 311.112 177.447L305.794 233.938L341.9 233.792L346.269 217.327L351.611 232.259L393.012 231.565Z" fill="#263238"/>
<path d="M360.354 128.943L360.186 133.954L376.278 134.49L376.445 129.479L360.354 128.943Z" fill="white"/>
<path d="M357.574 91.6988L361.566 92.4776L344.724 146.986L330.485 90.7982L333.199 90.8834L339.162 94.0475L348.825 97.7836L357.574 91.6988Z" fill="#407BFF"/>
<path d="M357.574 91.6988L361.566 92.4776L344.724 146.986L330.485 90.7982L333.199 90.8834L339.162 94.0475L348.825 97.7836L357.574 91.6988Z" fill="#407BFF"/>
<path opacity="0.4" d="M357.574 91.6988L361.566 92.4776L344.724 146.986L330.485 90.7982L333.199 90.8834L339.162 94.0475L348.825 97.7836L357.574 91.6988Z" fill="white"/>
<path opacity="0.5" d="M344.736 146.986C344.736 146.986 331.52 128.415 331.106 124.752C330.97 121.855 331.08 118.953 331.435 116.075C330.073 115.397 328.876 114.429 327.93 113.239C326.567 111.389 326.713 91.1877 326.713 91.1877L330.571 90.7496L344.736 146.986Z" fill="black"/>
<path opacity="0.5" d="M344.736 146.986C344.736 146.986 359.157 129.34 359.814 125.713C360.148 122.85 360.242 119.964 360.094 117.085C361.486 116.494 362.733 115.605 363.744 114.481C365.217 112.728 365.047 93.074 365.047 93.074L361.53 92.4777L344.736 146.986Z" fill="black"/>
<path opacity="0.5" d="M381.816 140.816L383.897 109.99L383.568 145.197L381.816 140.816Z" fill="black"/>
<path opacity="0.5" d="M308.459 138.577L306.244 121.466L304.93 147.825C306.098 144.71 307.096 140 308.459 138.577Z" fill="black"/>
<path opacity="0.2" d="M357.149 92.9523L352.999 106.85L347.34 99.7795L341.255 106.741C341.255 106.741 333.54 93.3539 334.039 93.865C334.538 94.3761 341.56 104.818 341.56 104.818L347.291 97.735L352.549 105.195L357.149 92.9523Z" fill="black"/>
<path d="M350.967 102.895L348.569 107.264L344.736 107.13L343.336 102.639L346.33 98.9276L348.216 98.9885L350.967 102.895Z" fill="#407BFF"/>
<path d="M348.581 107.264L350.078 129.68C350.078 129.68 344.638 147.509 344.736 146.986C344.833 146.463 339.868 127.952 339.868 127.952L344.736 107.13L348.581 107.264Z" fill="#407BFF"/>
<path opacity="0.5" d="M383.009 162.125L383.69 181.633L380.343 181.73L379.54 175.633L380.891 162.843L383.009 162.125Z" fill="black"/>
<path opacity="0.5" d="M344.736 146.986L347.17 218.373C347.17 218.373 342.63 153.703 344.736 146.986Z" fill="black"/>
<path d="M323.865 35.207C323.865 35.207 325.715 19.7514 344.079 20.3721C355.664 20.7615 364.535 23.1955 366.3 33.0042C367.517 39.5272 362.807 46.0745 358.852 46.9751C354.897 47.8756 323.695 46.6708 323.695 46.6708C323.695 46.6708 314.994 40.805 323.865 35.207Z" fill="#263238"/>
<path d="M334.757 91.6136C340.963 84.7742 335.974 70.3044 333.54 61.5057L355.615 76.1094C355.265 77.1837 354.993 78.2818 354.8 79.3952C354.374 81.391 353.68 82.1334 353.766 85.833C354.045 89.0701 355.579 92.502 355.749 91.7962C355.749 91.7962 359.729 96.3598 346.196 97.881C340.318 99.1953 334.757 91.6136 334.757 91.6136Z" fill="#D78163"/>
<path opacity="0.2" d="M338.274 70.1584C338.432 80.7704 348.301 85.4192 353.814 86.405C353.532 84.0372 353.876 81.6368 354.812 79.4439L338.274 70.1584Z" fill="black"/>
<path d="M329.122 54.1309C333.175 66.1667 335.207 73.0426 343.251 77.5941C355.347 84.4457 369.111 74.9898 368.807 61.9438C368.576 50.2001 361.992 32.481 348.35 30.9719C345.373 30.5946 342.349 30.9743 339.557 32.076C336.766 33.1777 334.298 34.9657 332.381 37.2746C330.464 39.5835 329.16 42.3386 328.591 45.285C328.021 48.2314 328.204 51.2739 329.122 54.1309Z" fill="#D78163"/>
<path d="M346.452 52.5244C346.792 53.7414 347.742 54.6055 348.581 54.3742C349.421 54.143 349.798 52.9504 349.506 51.6969C349.214 50.4434 348.216 49.6159 347.377 49.8349C346.537 50.054 346.123 51.271 346.452 52.5244Z" fill="#263238"/>
<path d="M359.254 50.1149C359.595 51.3319 360.544 52.1959 361.396 51.9647C362.248 51.7335 362.613 50.5408 362.308 49.2873C362.004 48.0339 361.018 47.2063 360.179 47.4375C359.339 47.6688 358.925 48.8614 359.254 50.1149Z" fill="#263238"/>
<path d="M355.481 49.1413C355.481 49.1413 361.225 54.2891 363.221 56.4431C361.846 58.4876 358.548 58.5728 358.548 58.5728L355.481 49.1413Z" fill="#703131"/>
<path d="M343.385 47.8513C343.494 47.8696 343.606 47.8577 343.709 47.8169C343.812 47.7762 343.902 47.7081 343.969 47.6201C344.436 46.9919 345.041 46.4789 345.737 46.1204C346.433 45.7618 347.202 45.5671 347.985 45.5512C348.151 45.5648 348.316 45.5123 348.443 45.4052C348.571 45.2982 348.651 45.1451 348.666 44.9793C348.671 44.899 348.66 44.8185 348.633 44.7427C348.606 44.6669 348.564 44.5973 348.509 44.5382C348.455 44.4791 348.389 44.4316 348.316 44.3986C348.242 44.3657 348.163 44.3479 348.082 44.3464C347.093 44.346 346.118 44.5755 345.233 45.0169C344.348 45.4584 343.578 46.0996 342.983 46.8899C342.933 46.9525 342.896 47.0245 342.874 47.1017C342.853 47.1788 342.847 47.2596 342.857 47.3391C342.867 47.4187 342.893 47.4953 342.934 47.5645C342.974 47.6337 343.029 47.694 343.093 47.7418C343.18 47.8012 343.28 47.8388 343.385 47.8513Z" fill="#263238"/>
<path d="M365.01 43.1173C365.117 43.0626 365.206 42.978 365.266 42.8739C365.307 42.8055 365.334 42.7295 365.345 42.6505C365.356 42.5714 365.352 42.4909 365.331 42.4138C365.311 42.3366 365.275 42.2643 365.226 42.2012C365.177 42.1381 365.116 42.0854 365.047 42.0463C364.193 41.5564 363.237 41.2727 362.255 41.2177C361.272 41.1628 360.29 41.3382 359.388 41.7299C359.244 41.8042 359.136 41.9324 359.087 42.0865C359.038 42.2405 359.052 42.4077 359.126 42.5514C359.2 42.695 359.329 42.8033 359.483 42.8523C359.637 42.9014 359.804 42.8873 359.948 42.813C360.663 42.4988 361.443 42.3613 362.222 42.4122C363.002 42.463 363.758 42.7007 364.426 43.1051C364.515 43.1549 364.615 43.1821 364.716 43.1842C364.818 43.1863 364.919 43.1633 365.01 43.1173Z" fill="#263238"/>
<path d="M361.006 63.3677C360.655 65.0851 360.432 66.826 360.337 68.5763C360.033 68.5763 359.728 68.6494 359.412 68.6615C355.25 69.0631 353.169 67.8827 352.11 66.4345C351.623 65.7051 351.315 64.8713 351.21 64.0005C351.136 63.5165 351.136 63.0242 351.21 62.5402C353.546 63.6476 357.453 63.5868 359.546 63.4529C360.483 63.3799 361.006 63.3677 361.006 63.3677Z" fill="#263238"/>
<path d="M359.619 63.4285L359.424 64.9619C355.506 65.327 352.695 65.0714 351.332 63.9883C351.265 63.5038 351.265 63.0124 351.332 62.528C353.632 63.6476 357.526 63.5624 359.619 63.4285Z" fill="white"/>
<path d="M359.351 68.6859C355.177 69.0875 353.169 67.8827 352.159 66.4345C353.725 66.3101 355.301 66.4751 356.808 66.9213C357.819 67.2287 358.709 67.8459 359.351 68.6859Z" fill="#D7504D"/>
<path d="M337.118 85.8939L347.304 96.9196L353.79 86.4537L357.611 91.6988L352.561 105.171L347.316 97.7107L341.584 104.793L332.226 90.9808L337.118 85.8939Z" fill="#407BFF"/>
<path opacity="0.4" d="M337.118 85.8939L347.304 96.9196L353.79 86.4537L357.611 91.6988L352.561 105.171L347.316 97.7107L341.584 104.793L332.226 90.9808L337.118 85.8939Z" fill="white"/>
<path d="M358.438 60.5078C358.438 60.5078 360.398 60.2766 362.089 60.2644C363.781 60.2522 363.89 62.5158 363.89 62.5158C363.89 62.5158 354.727 62.6375 351.259 61.4205C347.79 60.2036 353.108 59.4247 358.438 60.5078Z" fill="#263238"/>
<path d="M331.142 35.7546C331.142 35.7546 345.381 42.7279 354.617 34.0995C363.854 25.4712 336.68 22.088 331.142 35.7546Z" fill="#263238"/>
<path d="M340.623 59.1083C339.308 62.0777 336.838 60.2157 331.252 59.1083C330.395 58.9219 329.505 58.9469 328.66 59.1813C331.094 63.0026 333.187 66.1302 334.818 68.3451C335.279 68.9721 335.775 69.5734 336.302 70.1462C331.216 66.7874 325.35 62.7592 323.245 60.7634C322.85 60.3887 322.488 59.9816 322.161 59.5464C322.173 59.3584 322.197 59.1713 322.235 58.9866C322.369 58.1796 322.597 57.3912 322.916 56.6378C323.439 55.435 324.136 54.3156 324.985 53.3155C327.615 50.3075 330.855 47.8932 334.489 46.2327C336.01 50.1027 341.706 56.6865 340.623 59.1083Z" fill="#263238"/>
<path d="M335.158 37.9817C335.158 37.9817 332.895 41.3527 333.844 44.3464C334.542 46.3859 335.473 48.3378 336.619 50.1636C336.619 50.1636 328.343 55.7738 325.91 55.8225C323.476 55.8712 320.36 49.6281 320.36 49.6281C320.36 49.6281 328.307 35.3165 332.53 34.8054C336.753 34.2943 335.158 37.9817 335.158 37.9817Z" fill="#263238"/>
<path d="M324.851 37.1055C324.851 37.1055 319.265 37.2393 317.403 43.6771C315.541 50.1149 319.01 56.6135 322.161 59.4977C325.313 62.382 334.635 47.3037 324.851 37.1055Z" fill="#263238"/>
<path d="M326.871 65.6434C327.756 66.9758 328.896 68.1205 330.224 69.0122C331.552 69.9038 333.042 70.5249 334.611 70.8399C338.858 71.6674 339.186 67.2985 337.799 63.5381C336.582 60.1549 334.38 56.2362 330.218 57.0638C326.056 57.8913 324.766 62.3333 326.871 65.6434Z" fill="#D78163"/>
<path opacity="0.2" d="M328.855 61.4935C329.052 61.0733 329.365 60.7183 329.758 60.4703C330.15 60.2224 330.605 60.0918 331.069 60.094C332.007 60.1195 332.908 60.4628 333.625 61.0676C334.5 61.749 335.177 62.6525 335.584 63.6841" stroke="black" stroke-width="0.5" stroke-linecap="round" stroke-linejoin="round"/>
<path d="M176.262 274.062H183.26V210.646H176.262V274.062Z" fill="#263238"/>
<path d="M270.867 133.903C270.867 133.903 269.309 158.097 283.596 175.889L255.497 196.784L259.014 205.863C259.014 205.863 298.078 201.908 299.855 185.892C300.524 179.807 294.379 146.256 294.379 146.256C294.379 146.256 283.426 127.21 270.867 133.903Z" fill="#FDBBB5"/>
<path d="M274.591 131.761C277.443 131.978 280.253 132.567 282.951 133.514C289.036 136.216 303.189 158.012 303.189 158.012L286.882 169.171L281.467 161.772L274.591 131.761Z" fill="#407BFF"/>
<path opacity="0.2" d="M286.87 169.171C284.763 166.254 282.805 163.232 281.004 160.117C281.503 156.831 282.465 153.886 283.998 152.231C285.568 154.727 286.63 157.508 287.122 160.415C287.615 163.322 287.53 166.297 286.87 169.171Z" fill="black"/>
<path d="M289.328 224.957C286.527 226.04 283.42 226.031 280.625 224.931C277.83 223.831 275.55 221.721 274.238 219.018L270.892 212.094L267.91 216.402C265.474 219.931 262.154 222.759 258.282 224.602C254.41 226.445 250.122 227.239 245.847 226.904L224.112 225.188C224.112 225.188 230.964 202.893 232.278 199.194C231.207 187.109 227.909 171.995 220.461 148.738C218.028 141.181 222.761 132.382 222.761 132.382C222.761 132.382 232.278 132.382 233.3 132.273C234.322 132.163 235.576 132.029 236.732 131.932C244.564 131.103 252.446 130.834 260.316 131.129C262.263 131.238 264.271 131.409 266.231 131.567C266.876 131.64 273.995 131.701 274.615 131.761C274.615 131.761 284.485 143.055 285.081 152.194C285.823 159.227 286.095 166.301 285.896 173.37C285.896 181.657 285.604 189.835 285.057 201.494C286.578 207.64 289.328 224.957 289.328 224.957Z" fill="#407BFF"/>
<path d="M236.708 153.849H251.895V151.111H236.708V153.849Z" fill="white"/>
<path d="M285.994 167.029C286.626 156.945 284.594 146.873 280.104 137.822C279.836 137.299 279.045 137.761 279.313 138.284C283.721 147.182 285.71 157.083 285.081 166.993C285.081 167.589 285.957 167.577 285.994 166.993V167.029Z" fill="#263238"/>
<path d="M230.72 204.987C227.064 205.461 223.367 205.534 219.695 205.206C217.835 205.034 215.986 204.758 214.158 204.378C212.856 204.11 208.657 203.161 210.507 201.056C211.724 199.583 214.571 200.533 216.166 200.849C217.76 201.165 219.39 201.591 220.973 202.066C224.339 203.09 227.599 204.435 230.708 206.082C231.231 206.35 231.694 205.571 231.171 205.291C228.264 203.758 225.231 202.48 222.104 201.47C219.072 200.36 215.903 199.664 212.685 199.401C212.115 199.337 211.538 199.415 211.006 199.627C210.473 199.84 210.001 200.18 209.631 200.618C209.319 201.064 209.173 201.604 209.218 202.146C209.262 202.688 209.494 203.198 209.874 203.587C210.9 204.47 212.177 205.01 213.525 205.133C215.165 205.493 216.822 205.769 218.49 205.96C222.56 206.421 226.67 206.388 230.732 205.863C231.304 205.79 231.304 204.877 230.732 204.95L230.72 204.987Z" fill="#407BFF"/>
<path d="M231.28 205.279C225.89 201.424 220.852 197.099 216.226 192.354C215.679 191.795 215.119 191.223 214.584 190.639C214.441 190.5 214.31 190.35 214.194 190.188C214.085 189.969 213.987 189.397 214.194 189.19C214.401 188.983 215.119 189.312 215.314 189.397C216.593 190.009 217.815 190.734 218.965 191.563C224.067 195.047 228.123 199.856 230.696 205.473C230.939 206.009 231.73 205.546 231.475 205.023C228.725 199.022 224.333 193.921 218.806 190.31C217.63 189.374 216.276 188.687 214.827 188.29C213.707 188.119 212.685 188.898 213.123 190.103C213.452 190.771 213.916 191.364 214.486 191.843C215.168 192.574 215.874 193.292 216.579 194.01C217.967 195.385 219.391 196.736 220.839 198.038C224.013 200.895 227.345 203.572 230.818 206.058C231.292 206.398 231.755 205.607 231.28 205.267V205.279Z" fill="#407BFF"/>
<g opacity="0.7">
<path d="M230.72 204.987C227.064 205.461 223.367 205.534 219.695 205.206C217.835 205.034 215.986 204.758 214.158 204.378C212.856 204.11 208.657 203.161 210.507 201.056C211.724 199.583 214.571 200.533 216.166 200.849C217.76 201.165 219.39 201.591 220.973 202.066C224.339 203.09 227.599 204.435 230.708 206.082C231.231 206.35 231.694 205.571 231.171 205.291C228.264 203.758 225.231 202.48 222.104 201.47C219.072 200.36 215.903 199.664 212.685 199.401C212.115 199.337 211.538 199.415 211.006 199.627C210.473 199.84 210.001 200.18 209.631 200.618C209.319 201.064 209.173 201.604 209.218 202.146C209.262 202.688 209.494 203.198 209.874 203.587C210.9 204.47 212.177 205.01 213.525 205.133C215.165 205.493 216.822 205.769 218.49 205.96C222.56 206.421 226.67 206.388 230.732 205.863C231.304 205.79 231.304 204.877 230.732 204.95L230.72 204.987Z" fill="white"/>
</g>
<g opacity="0.7">
<path d="M231.28 205.279C225.89 201.424 220.852 197.099 216.226 192.354C215.679 191.795 215.119 191.223 214.584 190.639C214.441 190.5 214.31 190.35 214.194 190.188C214.085 189.969 213.987 189.397 214.194 189.19C214.401 188.983 215.119 189.312 215.314 189.397C216.593 190.009 217.815 190.734 218.965 191.563C224.067 195.047 228.123 199.856 230.696 205.473C230.939 206.009 231.73 205.546 231.475 205.023C228.725 199.022 224.333 193.921 218.806 190.31C217.63 189.374 216.276 188.687 214.827 188.29C213.707 188.119 212.685 188.898 213.123 190.103C213.452 190.771 213.916 191.364 214.486 191.843C215.168 192.574 215.874 193.292 216.579 194.01C217.967 195.385 219.391 196.736 220.839 198.038C224.013 200.895 227.345 203.572 230.818 206.058C231.292 206.398 231.755 205.607 231.28 205.267V205.279Z" fill="white"/>
</g>
<path opacity="0.2" d="M263.529 305.253C259.051 290.503 255.826 277.725 253.55 266.76C255.814 258.241 259.014 250.854 263.383 246.449C263.383 246.449 269.662 270.326 263.529 305.253Z" fill="black"/>
<path d="M292.675 351.607C287.673 360.808 282.635 370.714 277.792 380.632C271.415 393.727 265.403 406.846 260.256 418.589C254.84 430.966 250.435 441.785 247.684 449.294C245.092 449.586 237.231 444.9 234.967 440.653C234.967 440.653 240.529 404.46 253.222 369.643C258.296 355.769 264.503 342.127 271.975 331.077C241.466 244.27 248.938 211.729 248.938 211.729L284.29 210.147C284.29 210.147 289.645 242.482 293.928 275.644C296.155 293.035 298.09 310.644 298.796 323.946V324.079C299.34 333.645 297.221 343.174 292.675 351.607Z" fill="#FDBBB5"/>
<path opacity="0.2" d="M260.256 418.589C254.84 430.966 250.435 441.785 247.684 449.294C245.092 449.586 237.231 444.9 234.967 440.653C234.967 440.653 240.529 404.46 253.222 369.643C255.85 384.015 258.746 402.185 260.256 418.589Z" fill="black"/>
<path d="M240.358 467.11C234.566 459.419 233.909 458.311 230.805 453.894C228.153 450.085 227.021 449.549 224.842 446.592C223.029 444.073 225.475 442.369 228.785 441.079C230.453 440.422 233.799 438.828 236.416 437.684L245.713 448.332C243.888 452.19 242.269 459.017 244.946 463.788C247.465 468.278 242.671 470.213 240.358 467.11Z" fill="#407BFF"/>
<path opacity="0.3" d="M240.358 467.11C234.566 459.419 233.909 458.311 230.805 453.894C228.153 450.085 227.021 449.549 224.842 446.592C223.029 444.073 225.475 442.369 228.785 441.079C230.453 440.422 233.799 438.828 236.416 437.684L245.713 448.332C243.888 452.19 242.269 459.017 244.946 463.788C247.465 468.278 242.671 470.213 240.358 467.11Z" fill="white"/>
<path d="M260.645 469.751C251.019 469.751 249.692 469.593 244.338 469.422C239.701 469.252 238.594 469.836 234.87 469.751C231.767 469.678 231.876 466.709 232.838 463.277C233.324 461.561 234.055 457.922 234.724 455.147L248.828 454.125C250.812 457.91 255.29 463.313 260.706 464.043C265.89 464.737 264.503 469.751 260.645 469.751Z" fill="#407BFF"/>
<path opacity="0.4" d="M260.645 469.751C251.019 469.751 249.692 469.593 244.338 469.422C239.701 469.252 238.594 469.836 234.87 469.751C231.767 469.678 231.876 466.709 232.838 463.277C233.324 461.561 234.055 457.922 234.724 455.147L248.828 454.125C250.812 457.91 255.29 463.313 260.706 464.043C265.89 464.737 264.503 469.751 260.645 469.751Z" fill="white"/>
<path d="M270.867 205.011C270.867 205.011 260.572 284.662 254.67 322.984C248.475 363.242 247.684 427.826 249.242 454.149C246.979 455.464 238.764 457.046 234.322 455.658C234.322 455.658 213.33 374.243 227.276 326.964C214.608 233.817 232.947 210.998 232.947 210.998L270.867 205.011Z" fill="#FDBBB5"/>
<path d="M228.432 72.5436C228.432 72.5436 232.083 66.2641 242.464 65.2418C252.844 64.2196 266.657 69.7324 268.774 85.6139C270.892 101.495 275.382 110.197 275.382 110.197C275.382 110.197 241.88 118.959 232.473 115.795C223.066 112.631 208.523 77.1316 228.432 72.5436Z" fill="#263238"/>
<path d="M236.172 105.95L250.702 115.028L254.463 116.245C254.101 118.112 253.971 120.017 254.073 121.916C254.28 125.117 257.237 130.155 260.633 131.762L250.252 137.639C243.133 133.928 237.705 131.482 237.705 131.482C242.877 125.713 239.227 112.898 236.172 105.95Z" fill="#FDBBB5"/>
<path opacity="0.2" d="M254.134 122.598C250.483 121.381 246.127 118.947 245.616 115.052C245.441 113.626 245.441 112.183 245.616 110.757L254.219 117.9C254.025 119.459 253.996 121.033 254.134 122.598Z" fill="black"/>
<path d="M230.757 93.1226C234.7 104.927 236.111 109.99 243.827 114.846C255.436 122.147 269.09 115.564 268.75 103.029C268.445 91.7353 262.044 74.3326 249.011 72.0569C246.228 71.4722 243.34 71.6425 240.645 72.55C237.95 73.4576 235.547 75.0693 233.685 77.2183C231.823 79.3672 230.57 81.9751 230.055 84.7715C229.54 87.568 229.782 90.4514 230.757 93.1226Z" fill="#FDBBB5"/>
<path d="M247.307 93.366C247.66 94.583 248.597 95.52 249.4 95.3497C250.204 95.1793 250.544 94.0232 250.191 92.7575C249.838 91.4919 248.889 90.6035 248.098 90.7739C247.307 90.9442 246.942 92.1125 247.307 93.366Z" fill="#263238"/>
<path d="M259.185 90.5183C259.538 91.7353 260.475 92.5993 261.266 92.429C262.057 92.2586 262.483 91.1268 262.069 89.9098C261.655 88.6928 260.791 87.8288 259.988 87.9992C259.185 88.1695 258.844 89.3013 259.185 90.5183Z" fill="#263238"/>
<path d="M243.742 89.5204C243.821 89.5121 243.897 89.4859 243.964 89.4437C244.032 89.4015 244.089 89.3445 244.131 89.277C244.535 88.6553 245.086 88.1433 245.736 87.7865C246.386 87.4298 247.114 87.2394 247.855 87.2325C247.932 87.2394 248.009 87.2299 248.082 87.2047C248.155 87.1795 248.222 87.1392 248.279 87.0863C248.335 87.0334 248.379 86.9692 248.409 86.898C248.439 86.8267 248.453 86.7499 248.451 86.6727C248.448 86.5066 248.383 86.3478 248.268 86.2282C248.152 86.1085 247.996 86.0369 247.83 86.0277C246.895 86.0224 245.973 86.2512 245.148 86.6933C244.323 87.1354 243.622 87.7767 243.109 88.559C243.022 88.6946 242.992 88.8592 243.026 89.0166C243.061 89.174 243.156 89.3114 243.291 89.3987C243.423 89.4891 243.582 89.532 243.742 89.5204Z" fill="#263238"/>
<path d="M261.765 83.5451C261.821 83.5076 261.869 83.4592 261.907 83.4028C261.945 83.3464 261.971 83.283 261.984 83.2165C261.998 83.0604 261.957 82.9043 261.868 82.7754C261.779 82.6464 261.648 82.5527 261.497 82.5106C260.668 82.2108 259.775 82.1294 258.906 82.2743C258.036 82.4193 257.219 82.7857 256.532 83.3382C256.427 83.4431 256.368 83.5854 256.368 83.7337C256.368 83.882 256.427 84.0242 256.532 84.1292C256.633 84.2431 256.773 84.3141 256.925 84.3277C257.076 84.3413 257.227 84.2964 257.347 84.2022C257.896 83.7736 258.545 83.4926 259.233 83.3861C259.921 83.2795 260.625 83.351 261.278 83.5937C261.358 83.6213 261.442 83.6312 261.526 83.6228C261.61 83.6144 261.692 83.5879 261.765 83.5451Z" fill="#263238"/>
<path d="M255.814 90.713C257.508 93.0273 259.432 95.1638 261.558 97.0899C261.668 97.1882 261.756 97.3105 261.812 97.4475C261.869 97.5845 261.893 97.7325 261.884 97.8804C261.874 98.0283 261.831 98.1721 261.758 98.3009C261.685 98.4296 261.583 98.5399 261.46 98.6233C260.481 99.1851 259.364 99.4633 258.235 99.4265L255.814 90.713Z" fill="#E97A75"/>
<path d="M247.648 90.9321L250.264 89.6299C250.264 89.6299 249.242 92.0517 247.648 90.9321Z" fill="#263238"/>
<path d="M259.72 88.0844L262.324 86.7822C262.324 86.7822 261.302 89.2283 259.72 88.0844Z" fill="#263238"/>
<path d="M235.929 96.2989C235.929 96.2989 239.945 85.4679 237.827 77.9592C237.827 77.9592 249.011 72.0569 261.497 82.5106C263.493 84.1657 265.148 87.3785 267.216 89.922C267.216 89.922 264.089 66.4344 243.279 69.343C222.469 72.2516 225.244 101.787 237.426 109.065C237.426 109.065 233.446 103.077 235.929 96.2989Z" fill="#263238"/>
<path d="M229.418 103.82C231.221 105.752 233.714 106.894 236.355 106.996C239.738 106.996 240.176 101.52 238.338 98.5747C237.48 97.2612 236.182 96.2955 234.678 95.8497C233.173 95.4039 231.56 95.5071 230.124 96.1407C227.216 97.4551 227.13 101.374 229.418 103.82Z" fill="#FDBBB5"/>
<path d="M236.708 131.895L239.677 125.36C239.677 125.36 250.191 126.504 252.443 128.05C254.005 129.265 255.316 130.774 256.3 132.492C255.916 130.691 255.4 128.922 254.755 127.198C254.268 126.443 255.497 125.36 255.497 125.36L258.771 129.607L262.86 131.263C262.86 131.263 264.344 137.542 261.825 141.607C259.306 145.671 236.708 131.895 236.708 131.895Z" fill="#407BFF"/>
<path opacity="0.7" d="M236.708 131.895L239.677 125.36C239.677 125.36 250.191 126.504 252.443 128.05C254.005 129.265 255.316 130.774 256.3 132.492C255.916 130.691 255.4 128.922 254.755 127.198C254.268 126.443 255.497 125.36 255.497 125.36L258.771 129.607L262.86 131.263C262.86 131.263 264.344 137.542 261.825 141.607C259.306 145.671 236.708 131.895 236.708 131.895Z" fill="white"/>
<path d="M253.282 101.301C253.172 101.33 253.074 101.394 253.003 101.483C252.953 101.541 252.915 101.608 252.892 101.681C252.869 101.754 252.86 101.83 252.867 101.906C252.874 101.982 252.896 102.056 252.932 102.123C252.968 102.191 253.016 102.25 253.076 102.299C253.801 102.894 254.654 103.314 255.568 103.525C256.482 103.736 257.432 103.733 258.345 103.516C258.493 103.47 258.618 103.368 258.691 103.231C258.764 103.094 258.78 102.934 258.734 102.785C258.689 102.637 258.587 102.512 258.45 102.439C258.313 102.366 258.153 102.351 258.004 102.396C257.28 102.572 256.525 102.571 255.801 102.396C255.077 102.22 254.405 101.874 253.842 101.386C253.762 101.328 253.67 101.29 253.573 101.276C253.475 101.261 253.376 101.269 253.282 101.301Z" fill="#263238"/>
<path opacity="0.2" d="M230.246 99.5361C230.439 99.1113 230.751 98.7513 231.144 98.4988C231.537 98.2463 231.994 98.1122 232.46 98.1122C233.399 98.1318 234.302 98.4758 235.016 99.0858C235.888 99.7651 236.564 100.664 236.975 101.69" stroke="black" stroke-width="0.5" stroke-linecap="round" stroke-linejoin="round"/>
<path opacity="0.2" d="M225.487 165.557C224.076 160.445 222.396 154.884 220.437 148.738C220.426 148.698 220.426 148.656 220.437 148.617C222.068 147.521 223.978 147.558 226.108 149.347C226.769 154.748 226.56 160.221 225.487 165.557Z" fill="black"/>
<path d="M57.8778 209.258L61.6747 189.921H23.9373L20.9193 196.443V189.921H14.6642L13.8001 198.22L11.4271 189.921H0L5.05031 208.662L57.8778 209.258Z" fill="#407BFF"/>
<path opacity="0.3" d="M57.8778 209.258L61.6747 189.921H23.9373L20.9193 196.443V189.921H14.6642L13.8001 198.22L11.4271 189.921H0L5.05031 208.662L57.8778 209.258Z" fill="white"/>
<path d="M30.74 291.574H36.7152L36.7152 214.613H30.74L30.74 291.574Z" fill="#263238"/>
<path d="M2.50691 214.613H58.9487V208.662H2.50691V214.613Z" fill="#263238"/>
<path opacity="0.2" d="M36.703 214.613H30.7278V218.252H36.703V214.613Z" fill="black"/>
<path d="M54.6285 232.709C60.2752 232.527 64.4979 227.245 66.2138 221.866C67.9297 216.487 67.9662 210.694 69.6821 205.315C71.897 198.415 77.1785 192.33 84.0907 190.152C91.003 187.973 99.3634 190.286 103.428 196.237C107.493 202.188 106.069 211.558 99.9232 215.392L97.0025 225.128C89.7008 237.723 72.9314 243.881 59.2042 239.025L63.1593 234.024C61.7364 234.506 60.2181 234.639 58.7331 234.41C57.2481 234.181 55.8401 233.598 54.6285 232.709Z" fill="#263238"/>
<g opacity="0.7">
<path d="M54.6285 232.709C60.2752 232.527 64.4979 227.245 66.2138 221.866C67.9297 216.487 67.9662 210.694 69.6821 205.315C71.897 198.415 77.1785 192.33 84.0907 190.152C91.003 187.973 99.3634 190.286 103.428 196.237C107.493 202.188 106.069 211.558 99.9232 215.392L97.0025 225.128C89.7008 237.723 72.9314 243.881 59.2042 239.025L63.1593 234.024C61.7364 234.506 60.2181 234.639 58.7331 234.41C57.2481 234.181 55.8401 233.598 54.6285 232.709Z" fill="white"/>
</g>
<path d="M92.5242 335.373H96.528L96.528 216.012H92.5242L92.5242 335.373Z" fill="#263238"/>
<path opacity="0.4" d="M92.5242 335.373H96.528L96.528 216.012H92.5242L92.5242 335.373Z" fill="white"/>
<path d="M98.9984 216C100.393 215.388 101.608 214.428 102.527 213.213C102.527 213.213 86.403 213.42 86.5977 213.213C86.7924 213.006 88.0094 215.465 90.9909 216H98.9984Z" fill="#407BFF"/>
<path d="M117.082 227.537V270.63C117.08 271.17 117.185 271.704 117.391 272.203C117.596 272.702 117.898 273.156 118.279 273.538C118.66 273.92 119.113 274.223 119.611 274.43C120.109 274.637 120.644 274.743 121.183 274.743H144.025C144.409 274.742 144.788 274.657 145.136 274.494C145.484 274.331 145.792 274.094 146.039 273.8C146.285 273.505 146.465 273.161 146.565 272.79C146.665 272.419 146.683 272.031 146.617 271.652L142.455 247.605L139.157 231.87C138.672 229.589 137.426 227.541 135.624 226.062C133.822 224.583 131.571 223.76 129.239 223.728C126.209 223.728 123.155 223.728 120.867 223.728C120.368 223.73 119.875 223.829 119.415 224.022C118.955 224.214 118.537 224.495 118.186 224.849C117.834 225.202 117.556 225.622 117.366 226.083C117.177 226.544 117.08 227.039 117.082 227.537ZM133.961 235.216C134.401 235.13 134.855 235.131 135.294 235.22C135.734 235.309 136.152 235.484 136.524 235.735C136.896 235.986 137.215 236.308 137.462 236.683C137.709 237.057 137.88 237.477 137.965 237.918L140.873 253.045C140.99 253.911 140.77 254.788 140.26 255.497C139.75 256.206 138.988 256.693 138.13 256.858C137.272 257.023 136.384 256.854 135.647 256.385C134.91 255.915 134.381 255.182 134.168 254.335L131.259 239.208C131.175 238.768 131.177 238.317 131.267 237.878C131.357 237.44 131.532 237.023 131.783 236.652C132.034 236.282 132.356 235.964 132.729 235.718C133.103 235.471 133.522 235.301 133.961 235.216Z" fill="#407BFF"/>
<path opacity="0.3" d="M117.082 227.537V270.63C117.08 271.17 117.185 271.704 117.391 272.203C117.596 272.702 117.898 273.156 118.279 273.538C118.66 273.92 119.113 274.223 119.611 274.43C120.109 274.637 120.644 274.743 121.183 274.743H144.025C144.409 274.742 144.788 274.657 145.136 274.494C145.484 274.331 145.792 274.094 146.039 273.8C146.285 273.505 146.465 273.161 146.565 272.79C146.665 272.419 146.683 272.031 146.617 271.652L142.455 247.605L139.157 231.87C138.672 229.589 137.426 227.541 135.624 226.062C133.822 224.583 131.571 223.76 129.239 223.728C126.209 223.728 123.155 223.728 120.867 223.728C120.368 223.73 119.875 223.829 119.415 224.022C118.955 224.214 118.537 224.495 118.186 224.849C117.834 225.202 117.556 225.622 117.366 226.083C117.177 226.544 117.08 227.039 117.082 227.537ZM133.961 235.216C134.401 235.13 134.855 235.131 135.294 235.22C135.734 235.309 136.152 235.484 136.524 235.735C136.896 235.986 137.215 236.308 137.462 236.683C137.709 237.057 137.88 237.477 137.965 237.918L140.873 253.045C140.99 253.911 140.77 254.788 140.26 255.497C139.75 256.206 138.988 256.693 138.13 256.858C137.272 257.023 136.384 256.854 135.647 256.385C134.91 255.915 134.381 255.182 134.168 254.335L131.259 239.208C131.175 238.768 131.177 238.317 131.267 237.878C131.357 237.44 131.532 237.023 131.783 236.652C132.034 236.282 132.356 235.964 132.729 235.718C133.103 235.471 133.522 235.301 133.961 235.216Z" fill="white"/>
<path d="M119.48 223.704H130.164V215.915H119.48V223.704Z" fill="#263238"/>
<path d="M109.221 448.454C111.143 449.403 109.221 266.809 109.221 266.809H8.27527C8.27527 266.809 25.6411 450.06 27.5638 448.454C29.4866 446.848 109.221 448.454 109.221 448.454Z" fill="#407BFF"/>
<path opacity="0.2" d="M109.367 282.715L11.0377 295.663L9.9303 284.151L109.367 282.715Z" fill="black"/>
<path d="M185.912 444.414L191.936 378.953H133.912L140.411 444.17L185.912 444.414Z" fill="#263238"/>
<path opacity="0.3" d="M185.912 444.414L191.936 378.953H133.912L140.411 444.17L185.912 444.414Z" fill="white"/>
<path d="M131.819 382.482H194.261V378.369H131.819V382.482Z" fill="#263238"/>
<path d="M14.1165 453.103H194.261V443.793H14.1165V453.103Z" fill="#263238"/>
<path d="M116.364 443.793H127.962L127.962 273.526H116.364L116.364 443.793Z" fill="#263238"/>
<path d="M8.27527 283.226H185.56V273.624H8.27527V283.226Z" fill="#263238"/>
<path d="M181.632 466.637C188.162 460.107 188.162 449.52 181.632 442.99C175.102 436.46 164.515 436.46 157.986 442.99C151.456 449.52 151.456 460.107 157.986 466.637C164.515 473.167 175.102 473.167 181.632 466.637Z" fill="#263238"/>
<path d="M169.812 446.385C168.158 446.385 166.541 446.876 165.166 447.795C163.791 448.714 162.72 450.021 162.087 451.549C161.455 453.078 161.29 454.759 161.613 456.381C161.937 458.003 162.734 459.493 163.905 460.662C165.075 461.831 166.566 462.626 168.189 462.947C169.811 463.268 171.493 463.101 173.02 462.466C174.548 461.832 175.852 460.758 176.77 459.382C177.687 458.005 178.175 456.388 178.173 454.734C178.173 453.636 177.956 452.55 177.536 451.536C177.116 450.522 176.5 449.601 175.723 448.826C174.947 448.051 174.025 447.436 173.011 447.017C171.997 446.598 170.91 446.384 169.812 446.385Z" fill="#407BFF"/>
<path d="M43.8221 471.54C56.0946 471.54 66.0435 461.591 66.0435 449.318C66.0435 437.045 56.0946 427.096 43.8221 427.096C31.5496 427.096 21.6007 437.045 21.6007 449.318C21.6007 461.591 31.5496 471.54 43.8221 471.54Z" fill="#263238"/>
<path d="M46.3485 460.031C52.3207 458.622 56.0194 452.638 54.6098 446.665C53.2003 440.693 47.2162 436.994 41.244 438.404C35.2718 439.813 31.5731 445.797 32.9827 451.77C34.3922 457.742 40.3763 461.441 46.3485 460.031Z" fill="#407BFF"/>
<path d="M147.567 219.627H150.013V212.8H147.567V219.627Z" fill="#263238"/>
<path d="M146.033 249.005C147.53 244.258 156.365 239.719 155.988 236.299C155.611 232.88 155.659 228.34 155.659 228.34H164.433C165.188 229.107 172.709 244.076 169.885 261.698L167.451 273.441H149.781C149.781 273.441 144.524 253.739 146.033 249.005Z" fill="#407BFF"/>
<path d="M155.112 228.34H165.553V223.996H155.112V228.34Z" fill="#263238"/>
<path d="M172.855 221.866C172.855 221.866 171.638 214.126 166.052 213.688C160.466 213.25 150.013 213.688 150.013 213.688V218.933H155.112V224.008H165.115V220.235C165.115 220.235 167.61 218.495 172.855 221.866Z" fill="#263238"/>
<path d="M155.112 222.061C155.112 222.061 154.308 226.418 147.81 226.929L147.554 225.833C148.998 225.34 150.258 224.42 151.167 223.194C152.075 221.968 152.59 220.495 152.641 218.97H155.075L155.112 222.061Z" fill="#263238"/>
<path d="M5.28152 274.086H114.028V262.355H5.28152V274.086Z" fill="#407BFF"/>
<path opacity="0.3" d="M5.28152 274.086H114.028V262.355H5.28152V274.086Z" fill="black"/>
<path opacity="0.2" d="M191.328 385.512L191.608 382.482H134.411V385.512H191.328Z" fill="black"/>
<path opacity="0.7" d="M117.07 236.141H126.55L131.186 265.884H117.07V236.141Z" fill="white"/>
<g opacity="0.5">
<path d="M131.819 382.482H194.261V378.369H131.819V382.482Z" fill="white"/>
</g>
<path d="M191.62 380.425C191.62 380.425 183.199 413.393 137.064 410.521" stroke="#263238" stroke-miterlimit="10"/>
<path d="M301.753 355.818C301.753 355.818 294.622 239.512 285.191 206.228L232.254 199.194C232.254 199.194 215.776 241.24 212.783 270.874C209.789 300.507 205.663 354.747 205.663 354.747C261.619 372.856 301.753 355.818 301.753 355.818Z" fill="#407BFF"/>
<path opacity="0.2" d="M283.889 293.753C281.206 296.724 277.496 298.568 273.508 298.912C266.45 299.74 237.109 299.399 231.828 295.091C227.398 291.44 226.4 281.084 226.4 266.322C226.4 257.402 232.947 212.191 232.947 212.191L283.889 293.753Z" fill="black"/>
<path d="M232.254 199.194H285.191C285.191 199.194 293.977 288.52 287.491 292.475C281.004 296.43 240.651 299.095 232.996 289.724C225.341 280.354 232.996 212.228 232.996 212.228C231.381 211.64 229.808 210.945 228.286 210.147L232.254 199.194Z" fill="#407BFF"/>
<path opacity="0.7" d="M232.254 199.194H285.191C285.191 199.194 293.977 288.52 287.491 292.475C281.004 296.43 240.651 299.095 232.996 289.724C225.341 280.354 232.996 212.228 232.996 212.228C231.381 211.64 229.808 210.945 228.286 210.147L232.254 199.194Z" fill="white"/>
<path d="M283.609 199.194C283.609 199.194 287.259 284.455 284.217 288.13C281.175 291.805 250.423 293.4 240.504 288.13C230.586 282.861 238.667 199.194 238.667 199.194" stroke="white" stroke-miterlimit="10"/>
<g opacity="0.2">
<path d="M259.562 355.21C259.988 340.265 260.681 320.94 261.107 306.007C257.712 313.991 253.806 321.925 253.55 330.602C253.307 341.166 253.818 348.699 259.562 355.21Z" fill="black"/>
</g>
<path d="M184.428 201.263L168.194 202.163L159.31 207.335L166.612 212.471L172.003 211.254C172.003 211.254 184.452 212.179 188.614 206.849L184.428 201.263Z" fill="#FDBBB5"/>
<path d="M218.843 140.658L203.582 186.282L182.42 201.81L187.92 207.591C187.92 207.591 206.454 203.94 212.259 198.038C218.064 192.135 228.931 153.643 228.931 153.643L218.843 140.658Z" fill="#FDBBB5"/>
<path d="M222.737 132.382C220.148 132.819 217.757 134.045 215.89 135.892C214.023 137.739 212.772 140.117 212.308 142.702C210.58 150.454 206.223 166.104 206.223 166.104L227.422 172.591L234.432 151.087L225.159 137.128L222.737 132.382Z" fill="#407BFF"/>
<path d="M223.346 133.903C226.473 135.364 228.116 138.771 229.102 141.948C230.338 146.187 230.828 150.61 230.55 155.018C230.246 161.103 228.359 166.944 226.899 172.81L227.459 172.481L206.345 165.691C205.785 165.508 205.542 166.384 206.102 166.567L227.216 173.37C227.333 173.399 227.458 173.382 227.563 173.32C227.668 173.259 227.744 173.158 227.775 173.041C228.871 168.77 230.209 164.522 230.939 160.105C232.035 153.326 231.889 145.732 229.114 139.343C228.163 136.703 226.287 134.498 223.832 133.137C223.297 132.893 222.835 133.672 223.37 133.928L223.346 133.903Z" fill="#263238"/>
<path d="M173.974 211.473C173.974 212.622 174.315 213.745 174.953 214.699C175.592 215.654 176.499 216.398 177.56 216.837C178.622 217.276 179.79 217.391 180.916 217.166C182.042 216.941 183.077 216.387 183.888 215.574C184.699 214.76 185.251 213.725 185.474 212.598C185.696 211.471 185.58 210.304 185.138 209.243C184.697 208.183 183.951 207.277 182.995 206.641C182.039 206.004 180.915 205.666 179.767 205.668C179.005 205.668 178.251 205.818 177.547 206.11C176.844 206.402 176.205 206.83 175.666 207.369C175.128 207.908 174.702 208.548 174.412 209.253C174.121 209.957 173.973 210.711 173.974 211.473Z" fill="#263238"/>
</g>
<defs>
<clipPath id="clip0_203_3379">
<rect width="751" height="479" fill="white"/>
</clipPath>
</defs>
</svg>
